G04 start of page 6 for group -4063 idx -4063 *
G04 Title: (unknown), componentmask *
G04 Creator: pcb 1.99z *
G04 CreationDate: Wed 03 Jul 2013 06:17:13 PM GMT UTC *
G04 For: commonadmin *
G04 Format: Gerber/RS-274X *
G04 PCB-Dimensions: 600000 500000 *
G04 PCB-Coordinate-Origin: lower left *
%MOIN*%
%FSLAX25Y25*%
%LNTOPMASK*%
%ADD43R,0.1290X0.1290*%
%ADD42R,0.0550X0.0550*%
%ADD41R,0.1510X0.1510*%
%ADD40R,0.0572X0.0572*%
%ADD39C,0.0001*%
%ADD38C,0.0660*%
%ADD37C,0.0860*%
G54D37*X160800Y287500D03*
Y237300D03*
G54D38*X235000Y312500D03*
Y302500D03*
Y292500D03*
Y282500D03*
Y272500D03*
Y262500D03*
Y252500D03*
Y242500D03*
G54D39*G36*
X151700Y328300D02*Y321700D01*
X158300D01*
Y328300D01*
X151700D01*
G37*
G54D38*X155000Y315000D03*
X145000Y325000D03*
Y315000D03*
G54D39*G36*
X261700Y245800D02*Y239200D01*
X268300D01*
Y245800D01*
X261700D01*
G37*
G54D38*X265000Y252500D03*
Y262500D03*
Y272500D03*
Y282500D03*
Y292500D03*
Y302500D03*
Y312500D03*
G54D39*G36*
X329200Y283300D02*Y276700D01*
X335800D01*
Y283300D01*
X329200D01*
G37*
G54D38*X342500Y280000D03*
X385000D03*
X375000D03*
X332500Y270000D03*
X342500D03*
G54D39*G36*
X381700Y273300D02*Y266700D01*
X388300D01*
Y273300D01*
X381700D01*
G37*
G54D38*X375000Y270000D03*
G54D40*X206120Y331181D02*Y328819D01*
Y318681D02*Y316319D01*
X194310Y331181D02*Y328819D01*
Y318681D02*Y316319D01*
X207500Y246871D02*Y244509D01*
X219310Y246871D02*Y244509D01*
X206319Y267500D02*X208681D01*
X206319Y255690D02*X208681D01*
X218819Y267500D02*X221181D01*
X218819Y255690D02*X221181D01*
G54D41*X199100Y352000D02*Y348000D01*
X220900Y352000D02*Y348000D01*
G54D42*X167950Y262400D02*X172250D01*
X167950Y267400D02*X172250D01*
X167950Y272400D02*X172250D01*
X167950Y277400D02*X172250D01*
X167950Y247400D02*X172250D01*
X167950Y252400D02*X172250D01*
X167950Y257400D02*X172250D01*
G54D40*X179310Y331181D02*Y328819D01*
Y318681D02*Y316319D01*
X167500Y331181D02*Y328819D01*
Y318681D02*Y316319D01*
G54D41*X151600Y352000D02*Y348000D01*
X173400Y352000D02*Y348000D01*
G54D40*X269310Y361181D02*Y358819D01*
X257500Y361181D02*Y358819D01*
X269310Y348681D02*Y346319D01*
X257500Y348681D02*Y346319D01*
X277500Y303681D02*Y301319D01*
X289310Y303681D02*Y301319D01*
X269310Y336083D02*Y335297D01*
X262224Y336083D02*Y335297D01*
X286396Y336083D02*Y335297D01*
X279310Y336083D02*Y335297D01*
G54D43*X312000Y320600D02*Y309400D01*
Y355600D02*Y344400D01*
G54D40*X292500Y348681D02*Y346319D01*
X280690Y348681D02*Y346319D01*
X292500Y361181D02*Y358819D01*
X280690Y361181D02*Y358819D01*
G54D41*X308400Y282000D02*Y278000D01*
X286600Y282000D02*Y278000D01*
G54D43*X335000Y320600D02*Y309400D01*
G54D41*X360700Y319500D02*Y315500D01*
X382500Y319500D02*Y315500D01*
G54D43*X335000Y355600D02*Y344400D01*
G54D41*X360700Y349500D02*Y345500D01*
X382500Y349500D02*Y345500D01*
M02*
