G04 start of page 7 for group -4062 idx -4062 *
G04 Title: (unknown), soldermask *
G04 Creator: pcb 1.99z *
G04 CreationDate: Wed 03 Jul 2013 06:17:13 PM GMT UTC *
G04 For: commonadmin *
G04 Format: Gerber/RS-274X *
G04 PCB-Dimensions: 600000 500000 *
G04 PCB-Coordinate-Origin: lower left *
%MOIN*%
%FSLAX25Y25*%
%LNBOTTOMMASK*%
%ADD46C,0.0001*%
%ADD45C,0.0660*%
%ADD44C,0.0860*%
G54D44*X160800Y287500D03*
Y237300D03*
G54D45*X235000Y312500D03*
Y302500D03*
Y292500D03*
Y282500D03*
Y272500D03*
Y262500D03*
Y252500D03*
Y242500D03*
G54D46*G36*
X151700Y328300D02*Y321700D01*
X158300D01*
Y328300D01*
X151700D01*
G37*
G54D45*X155000Y315000D03*
X145000Y325000D03*
Y315000D03*
G54D46*G36*
X261700Y245800D02*Y239200D01*
X268300D01*
Y245800D01*
X261700D01*
G37*
G54D45*X265000Y252500D03*
Y262500D03*
Y272500D03*
Y282500D03*
Y292500D03*
Y302500D03*
Y312500D03*
G54D46*G36*
X329200Y283300D02*Y276700D01*
X335800D01*
Y283300D01*
X329200D01*
G37*
G54D45*X342500Y280000D03*
X385000D03*
X375000D03*
X332500Y270000D03*
X342500D03*
G54D46*G36*
X381700Y273300D02*Y266700D01*
X388300D01*
Y273300D01*
X381700D01*
G37*
G54D45*X375000Y270000D03*
M02*
