G04 start of page 2 for group 0 idx 0 *
G04 Title: (unknown), component *
G04 Creator: pcb 1.99z *
G04 CreationDate: Wed 03 Jul 2013 06:17:13 PM GMT UTC *
G04 For: commonadmin *
G04 Format: Gerber/RS-274X *
G04 PCB-Dimensions: 600000 500000 *
G04 PCB-Coordinate-Origin: lower left *
%MOIN*%
%FSLAX25Y25*%
%LNTOP*%
%ADD23C,0.0380*%
%ADD22C,0.0280*%
%ADD21C,0.0590*%
%ADD20C,0.0350*%
%ADD19R,0.1230X0.1230*%
%ADD18R,0.0350X0.0350*%
%ADD17R,0.1450X0.1450*%
%ADD16R,0.0512X0.0512*%
%ADD15C,0.0001*%
%ADD14C,0.0600*%
%ADD13C,0.0800*%
%ADD12C,0.0250*%
%ADD11C,0.0100*%
G54D11*X289310Y296810D02*X285000Y292500D01*
G54D12*X272500Y312500D02*X265000D01*
X274310Y314310D02*Y335000D01*
X312000Y320500D02*X297500Y335000D01*
X335000Y315000D02*Y322500D01*
X312000Y345500D01*
X335000Y350000D02*Y362500D01*
X382500Y347500D02*Y345000D01*
X360700Y347500D02*X337500D01*
X335000Y350000D01*
X360700Y347500D02*Y358200D01*
X365000Y362500D02*X360700Y358200D01*
X335000Y362500D02*X325000Y372500D01*
X360700Y317500D02*Y323200D01*
X382500Y345000D02*X360700Y323200D01*
X335000Y315000D02*X358200D01*
X360700Y317500D01*
X325000Y297500D02*X380000D01*
X382500Y300000D01*
Y317500D01*
X312000Y320500D02*Y310500D01*
X325000Y297500D01*
G54D11*X290000Y262500D02*X325000D01*
X332500Y270000D01*
Y280000D01*
G54D12*X342500Y270000D02*Y287500D01*
X340000Y290000D01*
X316800D01*
X306800Y280000D01*
X395000Y270000D02*X385000D01*
X375000Y280000D02*X395000D01*
X397500Y282500D01*
X395000Y270000D02*X402500Y277500D01*
X375000Y270000D02*X362500D01*
X360000Y272500D01*
Y287500D01*
X362500Y290000D01*
X385000D01*
X397500Y282500D02*Y342500D01*
X382500Y347500D02*X392500D01*
X397500Y342500D02*X392500Y347500D01*
X385000Y290000D02*X387500Y292500D01*
Y312500D01*
X382500Y317500D01*
X402500Y277500D02*Y355000D01*
X395000Y362500D01*
X365000D01*
X297500Y335000D02*Y355000D01*
X292500Y360000D02*Y341794D01*
X286396Y335690D01*
X300000Y367500D02*X277500D01*
X325000Y372500D02*X260000D01*
X269310Y360000D02*X280690D01*
Y347500D02*X269310D01*
Y335690D02*X279310D01*
X275000Y365000D02*Y335690D01*
X286810Y325690D02*Y335276D01*
X286396Y335690D01*
X274310Y335000D02*X275000Y335690D01*
X312000Y350000D02*Y345500D01*
Y349500D02*Y355500D01*
X300000Y367500D01*
X297500Y355000D02*X292500Y360000D01*
X180100Y252400D02*X187500Y245000D01*
X182400Y257400D02*X187500Y262500D01*
X194310Y330000D02*X179310D01*
Y317500D02*X194310D01*
X206810Y305000D02*Y316810D01*
X206120Y317500D01*
Y330000D01*
G54D11*X207500Y245690D02*Y255690D01*
G54D12*X179900Y267400D02*X185000Y272500D01*
X202500D01*
X185000Y290000D02*X187500Y292500D01*
Y330000D02*Y292500D01*
X170100Y252400D02*X180100D01*
X170100Y257400D02*X182400D01*
G54D11*X207500Y255690D02*X220000D01*
G54D12*X187500Y245000D02*X190000D01*
X202500Y272500D02*X207500Y267500D01*
G54D11*X182500Y277500D02*X212500D01*
X220000Y270000D01*
G54D12*X235000Y242500D02*X225000Y232500D01*
G54D11*X219310Y245690D02*X223190D01*
X235000Y252500D02*X230000D01*
X223190Y245690D02*X230000Y252500D01*
X220000Y267500D02*Y270000D01*
G54D12*X173300Y245000D02*Y234200D01*
X175000Y232500D01*
X225000D01*
X166810Y305000D02*Y316810D01*
X167500Y317500D01*
Y330000D01*
G54D11*X265000Y302500D02*X277500D01*
X289310D02*Y296810D01*
G54D12*X274310Y314310D02*X272500Y312500D01*
X174300Y350000D02*X199300D01*
X221100Y344980D02*X206120Y330000D01*
X194310D02*Y345010D01*
X199300Y350000D01*
X262224Y335690D02*X258190D01*
X262224D02*X256810Y341104D01*
X235000Y312500D02*X258190Y335690D01*
G54D11*X285000Y292500D02*Y267500D01*
X290000Y262500D01*
G54D12*X167500Y330000D02*X160000D01*
X152500Y337500D02*X160000Y330000D01*
X145000Y325000D02*X137500Y332500D01*
X155000Y325000D02*X147500Y332500D01*
X135000Y327500D02*X132500Y330000D01*
X152500Y350000D02*Y337500D01*
X137500Y332500D02*Y362500D01*
X147500Y332500D02*Y345000D01*
X152500Y350000D01*
X132500Y330000D02*Y365000D01*
X140000Y372500D01*
X145000Y325000D02*Y315000D01*
X155000D02*Y310000D01*
X150000Y305000D01*
X137500D01*
X135000Y307500D02*Y327500D01*
X137500Y305000D02*X135000Y307500D01*
X137500Y362500D02*X142500Y367500D01*
X182500D01*
X140000Y372500D02*X212500D01*
X182500Y367500D02*X187500Y362500D01*
Y350000D01*
X221100Y344980D02*Y363900D01*
X212500Y372500D02*X221100Y363900D01*
X277500Y367500D02*X275000Y365000D01*
X260000Y372500D02*X256810Y369310D01*
Y341104D01*
X160900Y247400D02*X160800Y247500D01*
X160900Y247400D02*X170900D01*
X160800Y262500D02*X170000D01*
X170100Y262400D01*
X160800Y277500D02*Y247500D01*
Y267500D02*X170000D01*
X170900Y247400D02*X173300Y245000D01*
X170100Y267400D02*X179900D01*
G54D11*X170100Y272400D02*X177400D01*
X182500Y277500D01*
G54D12*X170000Y267500D02*X170100Y267400D01*
X160800Y277500D02*X170000D01*
X170100Y277400D01*
Y277600D01*
X172500Y280000D01*
Y287500D01*
X175000Y290000D01*
X185000D01*
G54D13*X160800Y287500D03*
Y237300D03*
G54D14*X235000Y312500D03*
Y302500D03*
Y292500D03*
Y282500D03*
Y272500D03*
Y262500D03*
Y252500D03*
Y242500D03*
G54D15*G36*
X152000Y328000D02*Y322000D01*
X158000D01*
Y328000D01*
X152000D01*
G37*
G54D14*X155000Y315000D03*
X145000Y325000D03*
Y315000D03*
G54D15*G36*
X262000Y245500D02*Y239500D01*
X268000D01*
Y245500D01*
X262000D01*
G37*
G54D14*X265000Y252500D03*
Y262500D03*
Y272500D03*
Y282500D03*
Y292500D03*
Y302500D03*
Y312500D03*
G54D15*G36*
X329500Y283000D02*Y277000D01*
X335500D01*
Y283000D01*
X329500D01*
G37*
G54D14*X342500Y280000D03*
X385000D03*
X375000D03*
X332500Y270000D03*
X342500D03*
G54D15*G36*
X382000Y273000D02*Y267000D01*
X388000D01*
Y273000D01*
X382000D01*
G37*
G54D14*X375000Y270000D03*
G54D16*X206120Y331181D02*Y328819D01*
Y318681D02*Y316319D01*
X194310Y331181D02*Y328819D01*
Y318681D02*Y316319D01*
X207500Y246871D02*Y244509D01*
X219310Y246871D02*Y244509D01*
X206319Y267500D02*X208681D01*
X206319Y255690D02*X208681D01*
X218819Y267500D02*X221181D01*
X218819Y255690D02*X221181D01*
G54D17*X199100Y352000D02*Y348000D01*
X220900Y352000D02*Y348000D01*
G54D18*X167950Y262400D02*X172250D01*
X167950Y267400D02*X172250D01*
X167950Y272400D02*X172250D01*
X167950Y277400D02*X172250D01*
X167950Y247400D02*X172250D01*
X167950Y252400D02*X172250D01*
X167950Y257400D02*X172250D01*
G54D16*X179310Y331181D02*Y328819D01*
Y318681D02*Y316319D01*
X167500Y331181D02*Y328819D01*
Y318681D02*Y316319D01*
G54D17*X151600Y352000D02*Y348000D01*
X173400Y352000D02*Y348000D01*
G54D16*X269310Y361181D02*Y358819D01*
X257500Y361181D02*Y358819D01*
X269310Y348681D02*Y346319D01*
X257500Y348681D02*Y346319D01*
X277500Y303681D02*Y301319D01*
X289310Y303681D02*Y301319D01*
X269310Y336083D02*Y335297D01*
X262224Y336083D02*Y335297D01*
X286396Y336083D02*Y335297D01*
X279310Y336083D02*Y335297D01*
G54D19*X312000Y320600D02*Y309400D01*
Y355600D02*Y344400D01*
G54D16*X292500Y348681D02*Y346319D01*
X280690Y348681D02*Y346319D01*
X292500Y361181D02*Y358819D01*
X280690Y361181D02*Y358819D01*
G54D17*X308400Y282000D02*Y278000D01*
X286600Y282000D02*Y278000D01*
G54D19*X335000Y320600D02*Y309400D01*
G54D17*X360700Y319500D02*Y315500D01*
X382500Y319500D02*Y315500D01*
G54D19*X335000Y355600D02*Y344400D01*
G54D17*X360700Y349500D02*Y345500D01*
X382500Y349500D02*Y345500D01*
G54D14*X190000Y245000D03*
X187500Y262500D03*
X206810Y305000D03*
X166810D03*
X286810Y325690D03*
G54D20*G54D21*G54D22*G54D23*G54D22*G54D23*M02*
