M48
INCH
T36C0.035
T35C0.038
T34C0.028
T33C0.059
%
T34
X0023500Y0031250
X0023500Y0030250
X0023500Y0029250
X0023500Y0028250
X0023500Y0027250
X0023500Y0026250
X0023500Y0025250
X0023500Y0024250
X0026500Y0031250
X0026500Y0030250
X0026500Y0029250
X0026500Y0028250
X0026500Y0027250
X0026500Y0026250
X0026500Y0025250
X0026500Y0024250
T36
X0016680Y0030500
X0018750Y0026250
X0019000Y0024500
X0020680Y0030500
X0028680Y0032570
T35
X0014500Y0032500
X0014500Y0031500
X0015500Y0032500
X0015500Y0031500
X0033250Y0028000
X0033250Y0027000
X0034250Y0028000
X0034250Y0027000
X0037500Y0028000
X0037500Y0027000
X0038500Y0028000
X0038500Y0027000
T33
X0016080Y0028750
X0016080Y0023730
M30
