G04 start of page 8 for group -4079 idx -4079 *
G04 Title: (unknown), topsilk *
G04 Creator: pcb 1.99z *
G04 CreationDate: Wed 03 Jul 2013 06:17:13 PM GMT UTC *
G04 For: commonadmin *
G04 Format: Gerber/RS-274X *
G04 PCB-Dimensions: 600000 500000 *
G04 PCB-Coordinate-Origin: lower left *
%MOIN*%
%FSLAX25Y25*%
%LNTOPSILK*%
%ADD49C,0.0200*%
%ADD48C,0.0080*%
%ADD47C,0.0100*%
G54D47*X325000Y282500D02*Y267500D01*
X342500Y262500D02*Y257500D01*
X340000Y260000D01*
X387500Y287500D02*X372500D01*
X385000Y262500D02*Y257500D01*
X382500Y260000D02*X387500D01*
X372500D02*X377500D01*
X342500Y257500D02*X345000Y260000D01*
X137500Y327500D02*Y312500D01*
X162500Y316500D02*Y313500D01*
X161500Y325000D02*X163500D01*
X162500Y326000D02*Y324000D01*
X270000Y317500D02*Y237500D01*
X230000Y317500D02*X270000D01*
X230000D02*Y237500D01*
X255000D02*X270000D01*
X230000D02*X245000D01*
X255000D02*G75*G03X245000Y237500I-5000J0D01*G01*
G54D48*X197853Y326260D02*X202577D01*
X197853Y333740D02*X202577D01*
X197853Y321240D02*X202577D01*
X197853Y313760D02*X202577D01*
X211043Y249430D02*X215767D01*
X211043Y241950D02*X215767D01*
X211240Y263957D02*Y259233D01*
X203760Y263957D02*Y259233D01*
X223740Y263957D02*Y259233D01*
X216260Y263957D02*Y259233D01*
G54D47*X150100Y297400D02*X180100D01*
X150100Y227400D02*X180100D01*
X149200Y297400D02*Y227400D01*
X173200Y297400D02*Y295400D01*
Y229400D02*Y227400D01*
X180100Y297400D02*Y227400D01*
X127900D02*X150200D01*
X127900Y297400D02*X150200D01*
X127900D02*Y227400D01*
G54D48*X171043Y326260D02*X175767D01*
X171043Y333740D02*X175767D01*
X171043Y321240D02*X175767D01*
X171043Y313760D02*X175767D01*
G54D47*X140000Y330000D02*X160000D01*
X140000D02*Y310000D01*
X160000D01*
Y330000D02*Y310000D01*
X150000Y330000D02*Y320000D01*
X160000D01*
G54D48*X281043Y306240D02*X285767D01*
X281043Y298760D02*X285767D01*
G54D49*X345400Y326700D02*Y303300D01*
G54D47*Y326700D02*X339300Y330000D01*
X302600D02*X339300D01*
X302600D02*Y300000D01*
X339300D01*
X345400Y303300D01*
G54D49*X349900Y326700D02*Y308300D01*
G54D47*X357100Y305700D01*
X392300D01*
Y329300D01*
X357100D01*
X349900Y326700D01*
X327500Y285000D02*Y265000D01*
X347500D01*
Y285000D02*Y265000D01*
X327500Y285000D02*X347500D01*
X327500Y275000D02*X337500D01*
Y285000D02*Y275000D01*
X390000Y285000D02*Y265000D01*
X370000Y285000D02*X390000D01*
X370000D02*Y265000D01*
X390000D01*
X380000Y275000D02*X390000D01*
X380000D02*Y265000D01*
G54D49*X319200Y289200D02*Y270800D01*
G54D47*Y289200D02*X312000Y291800D01*
X276800D02*X312000D01*
X276800D02*Y268200D01*
X312000D01*
X319200Y270800D01*
G54D48*X261043Y356260D02*X265767D01*
X261043Y363740D02*X265767D01*
G54D49*X188300Y359200D02*Y340800D01*
G54D47*X195500Y338200D01*
X230700D01*
Y361800D02*Y338200D01*
X195500Y361800D02*X230700D01*
X195500D02*X188300Y359200D01*
G54D49*X140800D02*Y340800D01*
G54D47*X148000Y338200D01*
X183200D01*
Y361800D02*Y338200D01*
X148000Y361800D02*X183200D01*
X148000D02*X140800Y359200D01*
G54D48*X261043Y343760D02*X265767D01*
X261043Y351240D02*X265767D01*
X265374Y332935D02*X266160D01*
X265374Y338445D02*X266160D01*
X284233Y343760D02*X288957D01*
X284233Y351240D02*X288957D01*
X282460Y332935D02*X283246D01*
X282460Y338445D02*X283246D01*
G54D49*X345400Y361700D02*Y338300D01*
G54D47*Y361700D02*X339300Y365000D01*
X302600D02*X339300D01*
X302600D02*Y335000D01*
X339300D01*
X345400Y338300D01*
G54D49*X349900Y356700D02*Y338300D01*
G54D47*X357100Y335700D01*
X392300D01*
Y359300D01*
X357100D01*
X349900Y356700D01*
G54D48*X284233Y356260D02*X288957D01*
X284233Y363740D02*X288957D01*
G54D47*X280255Y304650D02*X282255D01*
X282755Y304150D01*
Y303150D01*
X282255Y302650D02*X282755Y303150D01*
X280755Y302650D02*X282255D01*
X280755Y304650D02*Y300650D01*
X281555Y302650D02*X282755Y300650D01*
X283955Y304150D02*X284455Y304650D01*
X285455D01*
X285955Y304150D01*
X285455Y300650D02*X285955Y301150D01*
X284455Y300650D02*X285455D01*
X283955Y301150D02*X284455Y300650D01*
Y302850D02*X285455D01*
X285955Y304150D02*Y303350D01*
Y302350D02*Y301150D01*
Y302350D02*X285455Y302850D01*
X285955Y303350D02*X285455Y302850D01*
X284003Y337540D02*X285303D01*
X286003Y336840D02*X285303Y337540D01*
X286003Y336840D02*Y334240D01*
X285303Y333540D01*
X284003D02*X285303D01*
X282303Y337540D02*X280303Y333540D01*
X282803D01*
X305600Y317000D02*Y315700D01*
X304900Y315000D02*X305600Y315700D01*
X302300Y315000D02*X304900D01*
X302300D02*X301600Y315700D01*
Y317000D02*Y315700D01*
X302400Y318200D02*X301600Y319000D01*
X305600D01*
Y319700D02*Y318200D01*
X275800Y280500D02*X279800D01*
X275800Y281800D02*X276500Y282500D01*
X279100D01*
X279800Y281800D02*X279100Y282500D01*
X279800Y281800D02*Y280000D01*
X275800Y281800D02*Y280000D01*
X276300Y283700D02*X275800Y284200D01*
Y285200D02*Y284200D01*
Y285200D02*X276300Y285700D01*
X279800Y285200D02*X279300Y285700D01*
X279800Y285200D02*Y284200D01*
X279300Y283700D02*X279800Y284200D01*
X277600Y285200D02*Y284200D01*
X276300Y285700D02*X277100D01*
X278100D02*X279300D01*
X278100D02*X277600Y285200D01*
X277100Y285700D02*X277600Y285200D01*
X264555Y361850D02*X265855D01*
X266555Y361150D02*X265855Y361850D01*
X266555Y361150D02*Y358550D01*
X265855Y357850D01*
X264555D02*X265855D01*
X263355Y360350D02*X261355Y357850D01*
X260855Y360350D02*X263355D01*
X261355Y361850D02*Y357850D01*
X266917Y337540D02*X268217D01*
X268917Y336840D02*X268217Y337540D01*
X268917Y336840D02*Y334240D01*
X268217Y333540D01*
X266917D02*X268217D01*
X265717Y337040D02*X265217Y337540D01*
X265717Y337040D02*Y336240D01*
X265017Y335540D01*
X264417D02*X265017D01*
X264417D02*X263717Y336240D01*
Y337040D02*Y336240D01*
X264217Y337540D02*X263717Y337040D01*
X264217Y337540D02*X265217D01*
X265717Y334840D02*X265017Y335540D01*
X265717Y334840D02*Y334040D01*
X265217Y333540D01*
X264217D02*X265217D01*
X264217D02*X263717Y334040D01*
Y334840D02*Y334040D01*
X264417Y335540D02*X263717Y334840D01*
X287745Y361850D02*X289045D01*
X289745Y361150D02*X289045Y361850D01*
X289745Y361150D02*Y358550D01*
X289045Y357850D01*
X287745D02*X289045D01*
X286545Y358350D02*X286045Y357850D01*
X285045D02*X286045D01*
X285045D02*X284545Y358350D01*
X285045Y361850D02*X284545Y361350D01*
X285045Y361850D02*X286045D01*
X286545Y361350D02*X286045Y361850D01*
X285045Y359650D02*X286045D01*
X284545Y359150D02*Y358350D01*
Y361350D02*Y360150D01*
X285045Y359650D01*
X284545Y359150D02*X285045Y359650D01*
X264555Y349350D02*X265855D01*
X266555Y348650D02*X265855Y349350D01*
X266555Y348650D02*Y346050D01*
X265855Y345350D01*
X264555D02*X265855D01*
X261855D02*X261355Y345850D01*
X261855Y345350D02*X262855D01*
X263355Y345850D02*X262855Y345350D01*
X263355Y348850D02*Y345850D01*
Y348850D02*X262855Y349350D01*
X261855Y347150D02*X261355Y347650D01*
X261855Y347150D02*X263355D01*
X261855Y349350D02*X262855D01*
X261855D02*X261355Y348850D01*
Y347650D01*
X287745Y349350D02*X289045D01*
X289745Y348650D02*X289045Y349350D01*
X289745Y348650D02*Y346050D01*
X289045Y345350D01*
X287745D02*X289045D01*
X284545D02*X286545D01*
Y347350D02*Y345350D01*
Y347350D02*X286045Y346850D01*
X285045D02*X286045D01*
X285045D02*X284545Y347350D01*
Y348850D02*Y347350D01*
X285045Y349350D02*X284545Y348850D01*
X285045Y349350D02*X286045D01*
X286545Y348850D02*X286045Y349350D01*
X305600Y352000D02*Y350700D01*
X304900Y350000D02*X305600Y350700D01*
X302300Y350000D02*X304900D01*
X302300D02*X301600Y350700D01*
Y352000D02*Y350700D01*
X302100Y353200D02*X301600Y353700D01*
Y355200D02*Y353700D01*
Y355200D02*X302100Y355700D01*
X303100D01*
X305600Y353200D02*X303100Y355700D01*
X305600D02*Y353200D01*
X389300Y347000D02*X393300D01*
Y345700D02*X392600Y345000D01*
X390000D02*X392600D01*
X389300Y345700D02*X390000Y345000D01*
X389300Y347500D02*Y345700D01*
X393300Y347500D02*Y345700D01*
X390800Y343800D02*X393300Y341800D01*
X390800Y343800D02*Y341300D01*
X389300Y341800D02*X393300D01*
X227700Y349500D02*X231700D01*
Y348200D02*X231000Y347500D01*
X228400D02*X231000D01*
X227700Y348200D02*X228400Y347500D01*
X227700Y350000D02*Y348200D01*
X231700Y350000D02*Y348200D01*
X230900Y346300D02*X231700Y345500D01*
X227700D02*X231700D01*
X227700Y346300D02*Y344800D01*
X180200Y349500D02*X184200D01*
Y348200D02*X183500Y347500D01*
X180900D02*X183500D01*
X180200Y348200D02*X180900Y347500D01*
X180200Y350000D02*Y348200D01*
X184200Y350000D02*Y348200D01*
X183700Y346300D02*X184200Y345800D01*
Y344300D01*
X183700Y343800D01*
X182700D02*X183700D01*
X180200Y346300D02*X182700Y343800D01*
X180200Y346300D02*Y343800D01*
X389300Y317000D02*X393300D01*
Y315700D02*X392600Y315000D01*
X390000D02*X392600D01*
X389300Y315700D02*X390000Y315000D01*
X389300Y317500D02*Y315700D01*
X393300Y317500D02*Y315700D01*
Y313800D02*Y311800D01*
X391300Y313800D02*X393300D01*
X391300D02*X391800Y313300D01*
Y312300D01*
X391300Y311800D01*
X389800D02*X391300D01*
X389300Y312300D02*X389800Y311800D01*
X389300Y313300D02*Y312300D01*
X389800Y313800D02*X389300Y313300D01*
X348500Y284300D02*Y283000D01*
X349200Y285000D02*X348500Y284300D01*
X349200Y285000D02*X351800D01*
X352500Y284300D01*
Y283000D01*
X349000Y281800D02*X352000D01*
X352500Y281300D01*
Y280300D01*
X352000Y279800D01*
X349000D02*X352000D01*
X348500Y280300D02*X349000Y279800D01*
X348500Y281300D02*Y280300D01*
X349000Y281800D02*X348500Y281300D01*
Y278600D02*X352500D01*
X348500Y276100D01*
X352500D01*
X348500Y274900D02*X352500D01*
X348500Y272400D01*
X352500D01*
X352000Y271200D02*X352500Y270700D01*
Y269700D01*
X352000Y269200D01*
X348500Y269700D02*X349000Y269200D01*
X348500Y270700D02*Y269700D01*
X349000Y271200D02*X348500Y270700D01*
X350700D02*Y269700D01*
X351200Y269200D02*X352000D01*
X349000D02*X350200D01*
X350700Y269700D01*
X351200Y269200D02*X350700Y269700D01*
X369000Y267000D02*Y265700D01*
X368300Y265000D02*X369000Y265700D01*
X365700Y265000D02*X368300D01*
X365700D02*X365000Y265700D01*
Y267000D02*Y265700D01*
X365500Y268200D02*X368500D01*
X365500D02*X365000Y268700D01*
Y269700D02*Y268700D01*
Y269700D02*X365500Y270200D01*
X368500D01*
X369000Y269700D02*X368500Y270200D01*
X369000Y269700D02*Y268700D01*
X368500Y268200D02*X369000Y268700D01*
X365000Y271400D02*X369000D01*
X365000D02*X369000Y273900D01*
X365000D02*X369000D01*
X365000Y275100D02*X369000D01*
X365000D02*X369000Y277600D01*
X365000D02*X369000D01*
X365500Y278800D02*X365000Y279300D01*
Y280800D02*Y279300D01*
Y280800D02*X365500Y281300D01*
X366500D01*
X369000Y278800D02*X366500Y281300D01*
X369000D02*Y278800D01*
X174555Y331850D02*X175855D01*
X176555Y331150D02*X175855Y331850D01*
X176555Y331150D02*Y328550D01*
X175855Y327850D01*
X174555D02*X175855D01*
X173355Y328650D02*X172555Y327850D01*
Y331850D02*Y327850D01*
X171855Y331850D02*X173355D01*
X170655Y331350D02*X170155Y331850D01*
X170655Y331350D02*Y328350D01*
X170155Y327850D01*
X169155D02*X170155D01*
X169155D02*X168655Y328350D01*
Y331350D02*Y328350D01*
X169155Y331850D02*X168655Y331350D01*
X169155Y331850D02*X170155D01*
X170655Y330850D02*X168655Y328850D01*
X201365Y331850D02*X202665D01*
X203365Y331150D02*X202665Y331850D01*
X203365Y331150D02*Y328550D01*
X202665Y327850D01*
X201365D02*X202665D01*
X199665Y331850D02*X198165Y329850D01*
Y328350D01*
X198665Y327850D02*X198165Y328350D01*
X198665Y327850D02*X199665D01*
X200165Y328350D02*X199665Y327850D01*
X200165Y329350D02*Y328350D01*
Y329350D02*X199665Y329850D01*
X198165D02*X199665D01*
X197765Y315650D02*X199065D01*
X197065Y316350D02*X197765Y315650D01*
X197065Y318950D02*Y316350D01*
Y318950D02*X197765Y319650D01*
X199065D01*
X200265Y318850D02*X201065Y319650D01*
Y315650D01*
X200265D02*X201765D01*
X202965Y318850D02*X203765Y319650D01*
Y315650D01*
X202965D02*X204465D01*
X170955D02*X172255D01*
X170255Y316350D02*X170955Y315650D01*
X170255Y318950D02*Y316350D01*
Y318950D02*X170955Y319650D01*
X172255D01*
X173455Y318850D02*X174255Y319650D01*
Y315650D01*
X173455D02*X174955D01*
X176155Y319150D02*X176655Y319650D01*
X178155D01*
X178655Y319150D01*
Y318150D01*
X176155Y315650D02*X178655Y318150D01*
X176155Y315650D02*X178655D01*
X158000Y309000D02*X159300D01*
X160000Y308300D02*X159300Y309000D01*
X160000Y308300D02*Y305700D01*
X159300Y305000D01*
X158000D02*X159300D01*
X156800Y308500D02*Y305500D01*
X156300Y305000D01*
X155300D02*X156300D01*
X155300D02*X154800Y305500D01*
Y308500D02*Y305500D01*
X155300Y309000D02*X154800Y308500D01*
X155300Y309000D02*X156300D01*
X156800Y308500D02*X156300Y309000D01*
X153600D02*Y305000D01*
X151100Y309000D01*
Y305000D01*
X149900Y309000D02*Y305000D01*
X147400Y309000D01*
Y305000D01*
X146200Y305800D02*X145400Y305000D01*
Y309000D02*Y305000D01*
X144700Y309000D02*X146200D01*
X175100Y262400D02*X171100Y264900D01*
Y262400D02*X175100Y264900D01*
X171900Y266100D02*X171100Y266900D01*
X175100D01*
Y267600D02*Y266100D01*
X249000Y247500D02*X252500D01*
X253000Y248000D01*
Y249000D02*Y248000D01*
Y249000D02*X252500Y249500D01*
X249000D02*X252500D01*
X249800Y250700D02*X249000Y251500D01*
X253000D01*
Y252200D02*Y250700D01*
X205650Y264045D02*Y262745D01*
X206350Y264745D02*X205650Y264045D01*
X206350Y264745D02*X208950D01*
X209650Y264045D01*
Y262745D01*
X208850Y261545D02*X209650Y260745D01*
X205650D02*X209650D01*
X205650Y261545D02*Y260045D01*
X209150Y258845D02*X209650Y258345D01*
Y257345D01*
X209150Y256845D01*
X205650Y257345D02*X206150Y256845D01*
X205650Y258345D02*Y257345D01*
X206150Y258845D02*X205650Y258345D01*
X207850D02*Y257345D01*
X208350Y256845D02*X209150D01*
X206150D02*X207350D01*
X207850Y257345D01*
X208350Y256845D02*X207850Y257345D01*
X222150Y264745D02*Y262745D01*
X221650Y262245D01*
X220650D02*X221650D01*
X220150Y262745D02*X220650Y262245D01*
X220150Y264245D02*Y262745D01*
X218150Y264245D02*X222150D01*
X220150Y263445D02*X218150Y262245D01*
X221350Y261045D02*X222150Y260245D01*
X218150D02*X222150D01*
X218150Y261045D02*Y259545D01*
X210255Y247840D02*X212255D01*
X212755Y247340D01*
Y246340D01*
X212255Y245840D02*X212755Y246340D01*
X210755Y245840D02*X212255D01*
X210755Y247840D02*Y243840D01*
X211555Y245840D02*X212755Y243840D01*
X213955Y247340D02*X214455Y247840D01*
X215955D01*
X216455Y247340D01*
Y246340D01*
X213955Y243840D02*X216455Y246340D01*
X213955Y243840D02*X216455D01*
M02*
