G04 start of page 2 for group 0 idx 0 *
G04 Title: (unknown), component *
G04 Creator: pcb 1.99z *
G04 CreationDate: Wed 06 Nov 2013 06:55:18 PM GMT UTC *
G04 For: commonadmin *
G04 Format: Gerber/RS-274X *
G04 PCB-Dimensions: 600000 500000 *
G04 PCB-Coordinate-Origin: lower left *
%MOIN*%
%FSLAX25Y25*%
%LNTOP*%
%ADD24C,0.0590*%
%ADD23C,0.0380*%
%ADD22C,0.1190*%
%ADD21C,0.0350*%
%ADD20C,0.1600*%
%ADD19R,0.0350X0.0350*%
%ADD18R,0.0290X0.0290*%
%ADD17R,0.0512X0.0512*%
%ADD16R,0.0200X0.0200*%
%ADD15C,0.0800*%
%ADD14C,0.0600*%
%ADD13C,0.0100*%
%ADD12C,0.0250*%
%ADD11C,0.0001*%
G54D11*G36*
X38614Y61791D02*X58693D01*
Y41713D01*
X48296D01*
X48183Y41782D01*
X47965Y41872D01*
X47735Y41927D01*
X47500Y41946D01*
X47265Y41927D01*
X47035Y41872D01*
X46817Y41782D01*
X46704Y41713D01*
X38614D01*
Y61791D01*
G37*
G54D12*X43000Y74000D02*Y81500D01*
X48000Y68500D02*X46500Y67000D01*
X20000D02*X46500D01*
X16500Y63500D02*X20000Y67000D01*
X23000Y96000D02*X50000D01*
X23500D02*X21380D01*
X16500Y91120D01*
X27197Y51555D02*X17142Y41500D01*
X27197Y51555D02*X70898D01*
G54D13*X87000Y44000D02*X80810D01*
X47500Y40441D02*X53732Y46673D01*
X47500Y39181D02*Y40441D01*
G54D12*X20000Y32500D02*X22500Y30000D01*
X20000Y34000D02*Y32500D01*
G54D13*X47500Y34500D02*Y39189D01*
X73500Y31500D02*Y36690D01*
X80810Y44000D02*X73500Y36690D01*
X87000Y55810D02*X82190D01*
X76000Y62000D01*
X69500D01*
X59000Y15000D02*X52810D01*
X73000Y17190D02*X70810Y15000D01*
X73000Y25000D02*Y17190D01*
X64500Y33000D02*X73500D01*
X77000Y28000D02*X73500Y31500D01*
G54D12*X85000Y33000D02*X79000D01*
G54D13*X85000Y28000D02*X77000D01*
X70000D02*X73000Y25000D01*
X64500Y28000D02*X70000D01*
G54D12*X58500Y23000D02*X64500D01*
G54D13*X45790Y24400D02*X47500Y22690D01*
G54D12*X73000Y81500D02*Y74000D01*
G54D13*X68000D02*Y63500D01*
X69500Y62000D02*X68000Y63500D01*
G54D12*X53000Y93000D02*X50000Y96000D01*
X48000Y74000D02*Y68500D01*
X53000Y74000D02*Y78500D01*
X51000Y80500D01*
Y83500D01*
X53000Y85500D02*Y93000D01*
X58000Y74000D02*Y81500D01*
X51000Y83500D02*X53000Y85500D01*
X63000Y74000D02*Y78000D01*
X64500Y79500D01*
Y87500D01*
X63000Y89000D01*
X16500Y57500D02*Y63500D01*
X10000Y41500D02*X17142D01*
X16500Y61500D02*X8500D01*
X16500Y91120D02*X8500D01*
Y73310D02*X16500D01*
X8500Y79310D02*Y73310D01*
X16500Y79310D02*Y73310D01*
X16310Y79310D02*X16500Y79500D01*
X8500Y79310D02*X16310D01*
G54D13*X49500Y9500D02*X31000D01*
X52810Y12810D02*X49500Y9500D01*
X52810Y15000D02*Y12810D01*
X39000Y13000D02*X41000Y15000D01*
X34000Y13000D02*X39000D01*
X34000Y24400D02*X45790D01*
X29900Y15600D02*X30500Y15000D01*
X27000Y15600D02*X29900D01*
X30500Y26500D02*Y10000D01*
X34000Y13000D02*Y24400D01*
X31000Y9500D02*X30500Y10000D01*
G54D12*X24000Y10500D02*X27000D01*
X22500Y12000D02*X24000Y10500D01*
X22500Y30000D02*Y12000D01*
X24100Y21900D02*X22500Y23500D01*
X27000Y21900D02*X24100D01*
G54D13*X30000Y27000D02*X27000D01*
X30000D02*X30500Y26500D01*
G54D11*G36*
X40732Y59673D02*Y53673D01*
X46732D01*
Y59673D01*
X40732D01*
G37*
G54D14*X43732Y46673D03*
X53732D03*
Y56673D03*
G54D15*X83100Y83300D03*
X32900D03*
G54D16*X61250Y38000D02*X67750D01*
X61250Y33000D02*X67750D01*
X61250Y28000D02*X67750D01*
X61250Y23000D02*X67750D01*
X81750D02*X88250D01*
X81750Y28000D02*X88250D01*
X81750Y33000D02*X88250D01*
X81750Y38000D02*X88250D01*
G54D17*X85819Y44000D02*X88181D01*
X85819Y55810D02*X88181D01*
X52810Y16181D02*Y13819D01*
X59000Y16181D02*Y13819D01*
X70810Y16181D02*Y13819D01*
X46319Y34500D02*X48681D01*
X46319Y22690D02*X48681D01*
G54D18*X26700Y15600D02*X27300D01*
X26700Y10500D02*X27300D01*
X33700Y13000D02*X34300D01*
G54D17*X41000Y16181D02*Y13819D01*
G54D18*X26700Y27000D02*X27300D01*
X26700Y21900D02*X27300D01*
X33700Y24400D02*X34300D01*
G54D17*X30000Y34393D02*Y33607D01*
X22914Y34393D02*Y33607D01*
X17328Y34393D02*Y33607D01*
X10242Y34393D02*Y33607D01*
X9607Y41500D02*X10393D01*
X9607Y48586D02*X10393D01*
X15319Y61500D02*X17681D01*
X7319D02*X9681D01*
X15319Y73310D02*X17681D01*
X15319Y79310D02*X17681D01*
X15319Y91120D02*X17681D01*
X7319Y73310D02*X9681D01*
X7319Y79310D02*X9681D01*
X7319Y91120D02*X9681D01*
G54D19*X43000Y76150D02*Y71850D01*
X48000Y76150D02*Y71850D01*
X53000Y76150D02*Y71850D01*
X58000Y76150D02*Y71850D01*
X63000Y76150D02*Y71850D01*
X68000Y76150D02*Y71850D01*
X73000Y76150D02*Y71850D01*
G54D14*Y81500D03*
X58000D03*
X43000D03*
X63000Y89000D03*
X79000Y33000D03*
G54D20*X70898Y51555D03*
X84000Y11500D03*
G54D14*X65000Y7000D03*
X58500Y23000D03*
X34000Y34000D03*
X20000D03*
G54D20*X27197Y51555D03*
G54D14*X23000Y96000D03*
X16500Y76500D03*
X10000Y53000D03*
X16500Y57500D03*
X6500Y34000D03*
G54D20*X12000Y11500D03*
Y106500D03*
G54D21*G54D22*G54D21*G54D22*G54D21*G54D22*G54D23*G54D24*M02*
