M48
INCH
T38C0.119
T37C0.035
T36C0.059
T35C0.038
%
T37
X0000650Y0003400
X0001000Y0005300
X0001650Y0007650
X0001650Y0005750
X0002000Y0003400
X0002300Y0009600
X0003400Y0003400
X0004300Y0008150
X0005800Y0008150
X0005850Y0002300
X0006300Y0008900
X0006500Y0000700
X0007300Y0008150
X0007900Y0003300
T35
X0004370Y0005670
X0004370Y0004670
X0005370Y0005670
X0005370Y0004670
T36
X0003290Y0008330
X0008310Y0008330
T38
X0001200Y0010650
X0001200Y0001150
X0002720Y0005160
X0007090Y0005160
X0008400Y0001150
M30
