G04 start of page 3 for group 1 idx 1 *
G04 Title: (unknown), power *
G04 Creator: pcb 1.99z *
G04 CreationDate: Wed 06 Nov 2013 06:55:18 PM GMT UTC *
G04 For: commonadmin *
G04 Format: Gerber/RS-274X *
G04 PCB-Dimensions: 600000 500000 *
G04 PCB-Coordinate-Origin: lower left *
%MOIN*%
%FSLAX25Y25*%
%LNBOTTOM*%
%ADD33C,0.0590*%
%ADD32C,0.0380*%
%ADD31C,0.1190*%
%ADD30C,0.0350*%
%ADD29C,0.1600*%
%ADD28C,0.0800*%
%ADD27C,0.0600*%
%ADD26C,0.0250*%
%ADD25C,0.0001*%
G54D25*G36*
X83092Y2544D02*X84000Y2472D01*
X85412Y2583D01*
X86790Y2914D01*
X88099Y3456D01*
X89306Y4196D01*
X90384Y5116D01*
X91304Y6194D01*
X92044Y7401D01*
X92586Y8710D01*
X92917Y10088D01*
X93000Y11500D01*
Y2000D01*
X83092D01*
Y2544D01*
G37*
G36*
X93000Y116000D02*Y11500D01*
X92917Y12912D01*
X92586Y14290D01*
X92044Y15599D01*
X91304Y16806D01*
X90384Y17884D01*
X89306Y18804D01*
X88099Y19544D01*
X86790Y20086D01*
X85412Y20417D01*
X84000Y20528D01*
X83092Y20456D01*
Y78285D01*
X83100Y78285D01*
X83885Y78346D01*
X84650Y78530D01*
X85377Y78831D01*
X86048Y79242D01*
X86646Y79754D01*
X87158Y80352D01*
X87569Y81023D01*
X87870Y81750D01*
X88054Y82515D01*
X88100Y83300D01*
X88054Y84085D01*
X87870Y84850D01*
X87569Y85577D01*
X87158Y86248D01*
X86646Y86846D01*
X86048Y87358D01*
X85377Y87769D01*
X84650Y88070D01*
X83885Y88254D01*
X83100Y88315D01*
X83092Y88315D01*
Y116000D01*
X93000D01*
G37*
G36*
X83092Y20456D02*X82588Y20417D01*
X81210Y20086D01*
X79901Y19544D01*
X78694Y18804D01*
X77616Y17884D01*
X76696Y16806D01*
X75956Y15599D01*
X75414Y14290D01*
X75083Y12912D01*
X74972Y11500D01*
X75083Y10088D01*
X75414Y8710D01*
X75956Y7401D01*
X76696Y6194D01*
X77616Y5116D01*
X78694Y4196D01*
X79901Y3456D01*
X81210Y2914D01*
X82588Y2583D01*
X83092Y2544D01*
Y2000D01*
X70884D01*
Y15702D01*
X76529Y21347D01*
X76596Y21404D01*
X76826Y21673D01*
X76826Y21673D01*
X77011Y21975D01*
X77146Y22303D01*
X77229Y22647D01*
X77257Y23000D01*
X77250Y23088D01*
Y28068D01*
X78249Y29067D01*
X78372Y29037D01*
X79000Y28988D01*
X79628Y29037D01*
X80240Y29184D01*
X80822Y29425D01*
X81358Y29754D01*
X81837Y30163D01*
X82246Y30642D01*
X82575Y31178D01*
X82816Y31760D01*
X82963Y32372D01*
X83000Y33000D01*
X82963Y33628D01*
X82816Y34240D01*
X82575Y34822D01*
X82246Y35358D01*
X81837Y35837D01*
X81358Y36246D01*
X80822Y36575D01*
X80240Y36816D01*
X79628Y36963D01*
X79000Y37012D01*
X78372Y36963D01*
X77760Y36816D01*
X77178Y36575D01*
X76642Y36246D01*
X76163Y35837D01*
X75754Y35358D01*
X75425Y34822D01*
X75184Y34240D01*
X75037Y33628D01*
X74988Y33000D01*
X75037Y32372D01*
X75067Y32249D01*
X73471Y30653D01*
X73404Y30596D01*
X73174Y30327D01*
X72989Y30025D01*
X72854Y29697D01*
X72771Y29353D01*
X72771Y29353D01*
X72743Y29000D01*
X72750Y28912D01*
Y23932D01*
X70884Y22066D01*
Y42528D01*
X70898Y42527D01*
X72310Y42639D01*
X73687Y42969D01*
X74996Y43511D01*
X76204Y44252D01*
X77281Y45172D01*
X78201Y46249D01*
X78941Y47457D01*
X79484Y48765D01*
X79814Y50143D01*
X79898Y51555D01*
X79814Y52967D01*
X79484Y54345D01*
X78941Y55654D01*
X78201Y56862D01*
X77281Y57939D01*
X76204Y58859D01*
X74996Y59599D01*
X73687Y60141D01*
X72310Y60472D01*
X70898Y60583D01*
X70884Y60582D01*
Y116000D01*
X83092D01*
Y88315D01*
X82315Y88254D01*
X81550Y88070D01*
X80823Y87769D01*
X80152Y87358D01*
X79554Y86846D01*
X79042Y86248D01*
X78631Y85577D01*
X78330Y84850D01*
X78146Y84085D01*
X78085Y83300D01*
X78146Y82515D01*
X78330Y81750D01*
X78631Y81023D01*
X79042Y80352D01*
X79554Y79754D01*
X80152Y79242D01*
X80823Y78831D01*
X81550Y78530D01*
X82315Y78346D01*
X83092Y78285D01*
Y20456D01*
G37*
G36*
X70884Y22066D02*X65568Y16750D01*
X55432D01*
X53725Y18457D01*
Y23093D01*
X54566Y22252D01*
X54684Y21760D01*
X54925Y21178D01*
X55254Y20642D01*
X55663Y20163D01*
X56142Y19754D01*
X56678Y19425D01*
X57260Y19184D01*
X57872Y19037D01*
X58500Y18988D01*
X59128Y19037D01*
X59740Y19184D01*
X60322Y19425D01*
X60858Y19754D01*
X61337Y20163D01*
X61746Y20642D01*
X62075Y21178D01*
X62316Y21760D01*
X62463Y22372D01*
X62500Y23000D01*
X62463Y23628D01*
X62316Y24240D01*
X62075Y24822D01*
X61746Y25358D01*
X61337Y25837D01*
X60858Y26246D01*
X60322Y26575D01*
X59740Y26816D01*
X59128Y26963D01*
X58500Y27012D01*
X57872Y26963D01*
X57260Y26816D01*
X56678Y26575D01*
X56634Y26548D01*
X53725Y29457D01*
Y42160D01*
X53732Y42159D01*
X54438Y42215D01*
X55127Y42380D01*
X55782Y42651D01*
X56385Y43021D01*
X56924Y43481D01*
X57384Y44020D01*
X57754Y44624D01*
X58025Y45278D01*
X58191Y45967D01*
X58232Y46673D01*
X58191Y47379D01*
X58025Y48068D01*
X57754Y48722D01*
X57384Y49326D01*
X56924Y49865D01*
X56385Y50325D01*
X55782Y50695D01*
X55127Y50966D01*
X54438Y51132D01*
X53732Y51187D01*
X53725Y51187D01*
Y52160D01*
X53732Y52159D01*
X54438Y52215D01*
X55127Y52380D01*
X55782Y52651D01*
X56385Y53021D01*
X56924Y53481D01*
X57384Y54020D01*
X57754Y54624D01*
X58025Y55278D01*
X58191Y55967D01*
X58232Y56673D01*
X58191Y57379D01*
X58025Y58068D01*
X57754Y58722D01*
X57384Y59326D01*
X56924Y59865D01*
X56385Y60325D01*
X55782Y60695D01*
X55127Y60966D01*
X54438Y61132D01*
X53732Y61187D01*
X53725Y61187D01*
Y89250D01*
X59007D01*
X58988Y89000D01*
X59037Y88372D01*
X59184Y87760D01*
X59425Y87178D01*
X59754Y86642D01*
X60163Y86163D01*
X60642Y85754D01*
X61178Y85425D01*
X61760Y85184D01*
X62372Y85037D01*
X63000Y84988D01*
X63628Y85037D01*
X64240Y85184D01*
X64822Y85425D01*
X65358Y85754D01*
X65837Y86163D01*
X66246Y86642D01*
X66575Y87178D01*
X66816Y87760D01*
X66963Y88372D01*
X67000Y89000D01*
X66963Y89628D01*
X66816Y90240D01*
X66575Y90822D01*
X66246Y91358D01*
X65837Y91837D01*
X65358Y92246D01*
X64822Y92575D01*
X64240Y92816D01*
X63628Y92963D01*
X63000Y93012D01*
X62372Y92963D01*
X62249Y92933D01*
X62153Y93029D01*
X62096Y93096D01*
X61827Y93326D01*
X61525Y93511D01*
X61197Y93646D01*
X60853Y93729D01*
X60853Y93729D01*
X60500Y93757D01*
X60412Y93750D01*
X53725D01*
Y116000D01*
X70884D01*
Y60582D01*
X69485Y60472D01*
X68108Y60141D01*
X66799Y59599D01*
X65591Y58859D01*
X64514Y57939D01*
X63594Y56862D01*
X62854Y55654D01*
X62312Y54345D01*
X61981Y52967D01*
X61870Y51555D01*
X61981Y50143D01*
X62312Y48765D01*
X62854Y47457D01*
X63594Y46249D01*
X64514Y45172D01*
X65591Y44252D01*
X66799Y43511D01*
X68108Y42969D01*
X69485Y42639D01*
X70884Y42528D01*
Y22066D01*
G37*
G36*
X53725Y93750D02*X42622D01*
Y116000D01*
X53725D01*
Y93750D01*
G37*
G36*
Y29457D02*X47653Y35529D01*
X47596Y35596D01*
X47327Y35826D01*
X47025Y36011D01*
X46697Y36146D01*
X46353Y36229D01*
X46353Y36229D01*
X46000Y36257D01*
X45912Y36250D01*
X42622D01*
Y42312D01*
X43026Y42215D01*
X43732Y42159D01*
X44438Y42215D01*
X45127Y42380D01*
X45782Y42651D01*
X46385Y43021D01*
X46924Y43481D01*
X47384Y44020D01*
X47754Y44624D01*
X48025Y45278D01*
X48191Y45967D01*
X48232Y46673D01*
X48191Y47379D01*
X48025Y48068D01*
X47754Y48722D01*
X47384Y49326D01*
X46924Y49865D01*
X46385Y50325D01*
X45782Y50695D01*
X45127Y50966D01*
X44438Y51132D01*
X43732Y51187D01*
X43026Y51132D01*
X42622Y51034D01*
Y52177D01*
X46968Y52187D01*
X47197Y52242D01*
X47415Y52333D01*
X47617Y52456D01*
X47796Y52609D01*
X47950Y52789D01*
X48073Y52990D01*
X48163Y53208D01*
X48218Y53438D01*
X48232Y53673D01*
X48218Y59909D01*
X48163Y60138D01*
X48073Y60356D01*
X47950Y60558D01*
X47796Y60737D01*
X47617Y60890D01*
X47415Y61014D01*
X47197Y61104D01*
X46968Y61159D01*
X46732Y61173D01*
X42622Y61164D01*
Y89250D01*
X53725D01*
Y61187D01*
X53026Y61132D01*
X52337Y60966D01*
X51683Y60695D01*
X51079Y60325D01*
X50540Y59865D01*
X50080Y59326D01*
X49710Y58722D01*
X49439Y58068D01*
X49274Y57379D01*
X49218Y56673D01*
X49274Y55967D01*
X49439Y55278D01*
X49710Y54624D01*
X50080Y54020D01*
X50540Y53481D01*
X51079Y53021D01*
X51683Y52651D01*
X52337Y52380D01*
X53026Y52215D01*
X53725Y52160D01*
Y51187D01*
X53026Y51132D01*
X52337Y50966D01*
X51683Y50695D01*
X51079Y50325D01*
X50540Y49865D01*
X50080Y49326D01*
X49710Y48722D01*
X49439Y48068D01*
X49274Y47379D01*
X49218Y46673D01*
X49274Y45967D01*
X49439Y45278D01*
X49710Y44624D01*
X50080Y44020D01*
X50540Y43481D01*
X51079Y43021D01*
X51683Y42651D01*
X52337Y42380D01*
X53026Y42215D01*
X53725Y42160D01*
Y29457D01*
G37*
G36*
Y18457D02*X43153Y29029D01*
X43096Y29096D01*
X42827Y29326D01*
X42827Y29326D01*
X42712Y29396D01*
X42622Y29452D01*
Y31750D01*
X45068D01*
X53725Y23093D01*
Y18457D01*
G37*
G36*
X70884Y2000D02*X42622D01*
Y23196D01*
X52847Y12971D01*
X52904Y12904D01*
X53173Y12674D01*
X53173Y12674D01*
X53361Y12559D01*
X53475Y12489D01*
X53803Y12354D01*
X54147Y12271D01*
X54147D01*
X54500Y12243D01*
X54588Y12250D01*
X66412D01*
X66500Y12243D01*
X66853Y12271D01*
X66853Y12271D01*
X67197Y12354D01*
X67525Y12489D01*
X67827Y12674D01*
X68096Y12904D01*
X68153Y12971D01*
X70884Y15702D01*
Y2000D01*
G37*
G36*
X42622Y36250D02*X37312D01*
X37246Y36358D01*
X36837Y36837D01*
X36358Y37246D01*
X35822Y37575D01*
X35240Y37816D01*
X34628Y37963D01*
X34000Y38012D01*
X33372Y37963D01*
X33249Y37933D01*
X32892Y38290D01*
Y44584D01*
X33580Y45172D01*
X34500Y46249D01*
X35241Y47457D01*
X35783Y48765D01*
X36113Y50143D01*
X36197Y51555D01*
X36113Y52967D01*
X35783Y54345D01*
X35241Y55654D01*
X34500Y56862D01*
X33580Y57939D01*
X32892Y58526D01*
Y78285D01*
X32900Y78285D01*
X33685Y78346D01*
X34450Y78530D01*
X35177Y78831D01*
X35848Y79242D01*
X36446Y79754D01*
X36958Y80352D01*
X37369Y81023D01*
X37670Y81750D01*
X37854Y82515D01*
X37900Y83300D01*
X37854Y84085D01*
X37670Y84850D01*
X37369Y85577D01*
X36958Y86248D01*
X36446Y86846D01*
X35848Y87358D01*
X35177Y87769D01*
X34450Y88070D01*
X33685Y88254D01*
X32900Y88315D01*
X32892Y88315D01*
Y89250D01*
X42622D01*
Y61164D01*
X40497Y61159D01*
X40267Y61104D01*
X40049Y61014D01*
X39848Y60890D01*
X39668Y60737D01*
X39515Y60558D01*
X39392Y60356D01*
X39301Y60138D01*
X39246Y59909D01*
X39232Y59673D01*
X39246Y53438D01*
X39301Y53208D01*
X39392Y52990D01*
X39515Y52789D01*
X39668Y52609D01*
X39848Y52456D01*
X40049Y52333D01*
X40267Y52242D01*
X40497Y52187D01*
X40732Y52173D01*
X42622Y52177D01*
Y51034D01*
X42337Y50966D01*
X41683Y50695D01*
X41079Y50325D01*
X40540Y49865D01*
X40080Y49326D01*
X39710Y48722D01*
X39439Y48068D01*
X39274Y47379D01*
X39218Y46673D01*
X39274Y45967D01*
X39439Y45278D01*
X39710Y44624D01*
X40080Y44020D01*
X40540Y43481D01*
X41079Y43021D01*
X41683Y42651D01*
X42337Y42380D01*
X42622Y42312D01*
Y36250D01*
G37*
G36*
X32892Y58526D02*X32503Y58859D01*
X31295Y59599D01*
X29987Y60141D01*
X28609Y60472D01*
X27197Y60583D01*
X25785Y60472D01*
X24407Y60141D01*
X23098Y59599D01*
X21890Y58859D01*
X20813Y57939D01*
X20496Y57567D01*
X20463Y58128D01*
X20316Y58740D01*
X20075Y59322D01*
X19746Y59858D01*
X19337Y60337D01*
X18858Y60746D01*
X18322Y61075D01*
X17740Y61316D01*
X17128Y61463D01*
X16500Y61512D01*
X15872Y61463D01*
X15260Y61316D01*
X14678Y61075D01*
X14142Y60746D01*
X13663Y60337D01*
X13254Y59858D01*
X12925Y59322D01*
X12684Y58740D01*
X12537Y58128D01*
X12488Y57500D01*
X12537Y56872D01*
X12684Y56260D01*
X12880Y55787D01*
X12837Y55837D01*
X12358Y56246D01*
X12250Y56312D01*
Y74250D01*
X13188D01*
X13254Y74142D01*
X13663Y73663D01*
X14142Y73254D01*
X14678Y72925D01*
X15260Y72684D01*
X15872Y72537D01*
X16500Y72488D01*
X17128Y72537D01*
X17740Y72684D01*
X18322Y72925D01*
X18858Y73254D01*
X19337Y73663D01*
X19746Y74142D01*
X20075Y74678D01*
X20316Y75260D01*
X20463Y75872D01*
X20500Y76500D01*
X20463Y77128D01*
X20316Y77740D01*
X20075Y78322D01*
X19858Y78676D01*
X30432Y89250D01*
X32892D01*
Y88315D01*
X32115Y88254D01*
X31350Y88070D01*
X30623Y87769D01*
X29952Y87358D01*
X29354Y86846D01*
X28842Y86248D01*
X28431Y85577D01*
X28130Y84850D01*
X27946Y84085D01*
X27885Y83300D01*
X27946Y82515D01*
X28130Y81750D01*
X28431Y81023D01*
X28842Y80352D01*
X29354Y79754D01*
X29952Y79242D01*
X30623Y78831D01*
X31350Y78530D01*
X32115Y78346D01*
X32892Y78285D01*
Y58526D01*
G37*
G36*
Y38290D02*X29653Y41529D01*
X29596Y41596D01*
X29327Y41826D01*
X29025Y42011D01*
X28697Y42146D01*
X28353Y42229D01*
X28353Y42229D01*
X28000Y42257D01*
X27912Y42250D01*
X23000D01*
X22933Y42246D01*
X22866Y42250D01*
X22755D01*
X18750Y46255D01*
Y48430D01*
X19153Y47457D01*
X19893Y46249D01*
X20813Y45172D01*
X21890Y44252D01*
X23098Y43511D01*
X24407Y42969D01*
X25785Y42639D01*
X27197Y42527D01*
X28609Y42639D01*
X29987Y42969D01*
X31295Y43511D01*
X32503Y44252D01*
X32892Y44584D01*
Y38290D01*
G37*
G36*
X42622Y29452D02*X42525Y29511D01*
X42293Y29607D01*
X42197Y29646D01*
X41853Y29729D01*
X41500Y29757D01*
X41412Y29750D01*
X13932D01*
X10433Y33249D01*
X10463Y33372D01*
X10500Y34000D01*
X10463Y34628D01*
X10316Y35240D01*
X10075Y35822D01*
X9746Y36358D01*
X9337Y36837D01*
X8858Y37246D01*
X8322Y37575D01*
X7740Y37816D01*
X7128Y37963D01*
X6750Y37993D01*
Y50648D01*
X6754Y50642D01*
X7163Y50163D01*
X7642Y49754D01*
X7750Y49688D01*
Y44088D01*
X7743Y44000D01*
X7771Y43647D01*
Y43647D01*
X7854Y43303D01*
X7989Y42975D01*
X8059Y42861D01*
X8174Y42673D01*
X8174Y42673D01*
X8404Y42404D01*
X8471Y42347D01*
X16067Y34751D01*
X16037Y34628D01*
X15988Y34000D01*
X16037Y33372D01*
X16184Y32760D01*
X16425Y32178D01*
X16754Y31642D01*
X17163Y31163D01*
X17642Y30754D01*
X18178Y30425D01*
X18760Y30184D01*
X19372Y30037D01*
X20000Y29988D01*
X20628Y30037D01*
X21240Y30184D01*
X21822Y30425D01*
X22358Y30754D01*
X22837Y31163D01*
X23246Y31642D01*
X23575Y32178D01*
X23816Y32760D01*
X23963Y33372D01*
X24000Y34000D01*
X23963Y34628D01*
X23816Y35240D01*
X23575Y35822D01*
X23246Y36358D01*
X22837Y36837D01*
X22358Y37246D01*
X21822Y37575D01*
X21240Y37816D01*
X20628Y37963D01*
X20000Y38012D01*
X19372Y37963D01*
X19249Y37933D01*
X12250Y44932D01*
Y49688D01*
X12358Y49754D01*
X12837Y50163D01*
X13246Y50642D01*
X13575Y51178D01*
X13816Y51760D01*
X13963Y52372D01*
X14000Y53000D01*
X13963Y53628D01*
X13816Y54240D01*
X13620Y54713D01*
X13663Y54663D01*
X14142Y54254D01*
X14250Y54188D01*
Y53500D01*
X14251Y53478D01*
X14250Y53457D01*
Y45411D01*
X14243Y45323D01*
X14271Y44970D01*
X14354Y44625D01*
X14489Y44298D01*
X14674Y43996D01*
X14674Y43996D01*
X14904Y43727D01*
X14971Y43670D01*
X20170Y38471D01*
X20227Y38404D01*
X20496Y38174D01*
X20496Y38174D01*
X20798Y37989D01*
X21125Y37854D01*
X21470Y37771D01*
X21823Y37743D01*
X21911Y37750D01*
X22866D01*
X22933Y37754D01*
X23000Y37750D01*
X27068D01*
X30067Y34751D01*
X30037Y34628D01*
X29988Y34000D01*
X30037Y33372D01*
X30184Y32760D01*
X30425Y32178D01*
X30754Y31642D01*
X31163Y31163D01*
X31642Y30754D01*
X32178Y30425D01*
X32760Y30184D01*
X33372Y30037D01*
X34000Y29988D01*
X34628Y30037D01*
X35240Y30184D01*
X35822Y30425D01*
X36358Y30754D01*
X36837Y31163D01*
X37246Y31642D01*
X37312Y31750D01*
X42622D01*
Y29452D01*
G37*
G36*
X11986Y116000D02*X42622D01*
Y93750D01*
X29588D01*
X29500Y93757D01*
X29147Y93729D01*
X28803Y93646D01*
X28475Y93511D01*
X28173Y93326D01*
X28173Y93326D01*
X27904Y93096D01*
X27847Y93029D01*
X15045Y80227D01*
X14678Y80075D01*
X14142Y79746D01*
X13663Y79337D01*
X13254Y78858D01*
X13188Y78750D01*
X11986D01*
Y93750D01*
X19688D01*
X19754Y93642D01*
X20163Y93163D01*
X20642Y92754D01*
X21178Y92425D01*
X21760Y92184D01*
X22372Y92037D01*
X23000Y91988D01*
X23628Y92037D01*
X24240Y92184D01*
X24822Y92425D01*
X25358Y92754D01*
X25837Y93163D01*
X26246Y93642D01*
X26575Y94178D01*
X26816Y94760D01*
X26963Y95372D01*
X27000Y96000D01*
X26963Y96628D01*
X26816Y97240D01*
X26575Y97822D01*
X26246Y98358D01*
X25837Y98837D01*
X25358Y99246D01*
X24822Y99575D01*
X24240Y99816D01*
X23628Y99963D01*
X23000Y100012D01*
X22372Y99963D01*
X21760Y99816D01*
X21178Y99575D01*
X20642Y99246D01*
X20163Y98837D01*
X19754Y98358D01*
X19688Y98250D01*
X15601D01*
X16099Y98456D01*
X17306Y99196D01*
X18384Y100116D01*
X19304Y101194D01*
X20044Y102401D01*
X20586Y103710D01*
X20917Y105088D01*
X21000Y106500D01*
X20917Y107912D01*
X20586Y109290D01*
X20044Y110599D01*
X19304Y111806D01*
X18384Y112884D01*
X17306Y113804D01*
X16099Y114544D01*
X14790Y115086D01*
X13412Y115417D01*
X12000Y115528D01*
X11986Y115527D01*
Y116000D01*
G37*
G36*
X42622Y2000D02*X11986D01*
Y2473D01*
X12000Y2472D01*
X13412Y2583D01*
X14790Y2914D01*
X16099Y3456D01*
X17306Y4196D01*
X18384Y5116D01*
X19304Y6194D01*
X20044Y7401D01*
X20586Y8710D01*
X20917Y10088D01*
X21000Y11500D01*
X20917Y12912D01*
X20586Y14290D01*
X20044Y15599D01*
X19304Y16806D01*
X18384Y17884D01*
X17306Y18804D01*
X16099Y19544D01*
X14790Y20086D01*
X13412Y20417D01*
X12000Y20528D01*
X11986Y20527D01*
Y25485D01*
X12303Y25354D01*
X12647Y25271D01*
X13000Y25243D01*
X13088Y25250D01*
X40568D01*
X42622Y23196D01*
Y2000D01*
G37*
G36*
X11986Y78750D02*X10088D01*
X10000Y78757D01*
X9647Y78729D01*
X9303Y78646D01*
X8975Y78511D01*
X8673Y78326D01*
X8404Y78096D01*
X8174Y77827D01*
X7989Y77525D01*
X7854Y77197D01*
X7771Y76853D01*
X7771Y76853D01*
X7743Y76500D01*
X7750Y76412D01*
Y56312D01*
X7642Y56246D01*
X7163Y55837D01*
X6754Y55358D01*
X6750Y55352D01*
Y93750D01*
X11986D01*
Y78750D01*
G37*
G36*
Y2000D02*X2000D01*
Y116000D01*
X11986D01*
Y115527D01*
X10588Y115417D01*
X9210Y115086D01*
X7901Y114544D01*
X6694Y113804D01*
X5616Y112884D01*
X4696Y111806D01*
X3956Y110599D01*
X3414Y109290D01*
X3083Y107912D01*
X2972Y106500D01*
X3083Y105088D01*
X3414Y103710D01*
X3956Y102401D01*
X4696Y101194D01*
X5616Y100116D01*
X6694Y99196D01*
X7901Y98456D01*
X8399Y98250D01*
X5588D01*
X5500Y98257D01*
X5147Y98229D01*
X4803Y98146D01*
X4475Y98011D01*
X4173Y97826D01*
X4173Y97826D01*
X3904Y97596D01*
X3847Y97529D01*
X2971Y96653D01*
X2904Y96596D01*
X2674Y96327D01*
X2489Y96025D01*
X2354Y95697D01*
X2271Y95353D01*
X2271Y95353D01*
X2243Y95000D01*
X2250Y94912D01*
Y36088D01*
X2243Y36000D01*
X2271Y35647D01*
X2354Y35303D01*
X2489Y34975D01*
X2584Y34821D01*
X2537Y34628D01*
X2488Y34000D01*
X2537Y33372D01*
X2684Y32760D01*
X2925Y32178D01*
X3254Y31642D01*
X3663Y31163D01*
X4142Y30754D01*
X4678Y30425D01*
X5260Y30184D01*
X5872Y30037D01*
X6500Y29988D01*
X7128Y30037D01*
X7251Y30067D01*
X11347Y25971D01*
X11404Y25904D01*
X11673Y25674D01*
X11673Y25674D01*
X11975Y25489D01*
X11986Y25485D01*
Y20527D01*
X10588Y20417D01*
X9210Y20086D01*
X7901Y19544D01*
X6694Y18804D01*
X5616Y17884D01*
X4696Y16806D01*
X3956Y15599D01*
X3414Y14290D01*
X3083Y12912D01*
X2972Y11500D01*
X3083Y10088D01*
X3414Y8710D01*
X3956Y7401D01*
X4696Y6194D01*
X5616Y5116D01*
X6694Y4196D01*
X7901Y3456D01*
X9210Y2914D01*
X10588Y2583D01*
X11986Y2473D01*
Y2000D01*
G37*
G54D26*X10000Y76500D02*Y44000D01*
X16500Y53457D02*Y45323D01*
Y57500D02*Y53500D01*
Y76500D02*X10000D01*
X13000Y27500D02*X41500D01*
X7000Y33500D02*X13000Y27500D01*
X34000Y34000D02*X46000D01*
X10000Y44000D02*X20000Y34000D01*
X16500Y45323D02*X16764Y45059D01*
X21823Y40000D02*X16567Y45256D01*
X22866Y40000D02*X21823D01*
X20000Y34000D02*X21500D01*
X28000Y40000D02*X23000D01*
X4500Y36000D02*X6500Y34000D01*
X28000Y40000D02*X34000Y34000D01*
X4500Y36000D02*Y95000D01*
X43000Y81500D02*X73000D01*
X60500Y91500D02*X63000Y89000D01*
X29500Y91500D02*X60500D01*
X16500Y78500D02*X29500Y91500D01*
X16500Y76500D02*Y78500D01*
X23000Y96000D02*X5500D01*
X4500Y95000D01*
X75000Y23000D02*X66500Y14500D01*
X75000Y29000D02*X79000Y33000D01*
X75000Y23000D02*Y29000D01*
X54500Y14500D02*X66500D01*
X41500Y27500D02*X54500Y14500D01*
X46000Y34000D02*X57000Y23000D01*
G54D25*G36*
X40732Y59673D02*Y53673D01*
X46732D01*
Y59673D01*
X40732D01*
G37*
G54D27*X43732Y46673D03*
X53732D03*
Y56673D03*
G54D28*X83100Y83300D03*
X32900D03*
G54D27*X73000Y81500D03*
X58000D03*
X43000D03*
X63000Y89000D03*
X79000Y33000D03*
G54D29*X70898Y51555D03*
X84000Y11500D03*
G54D27*X65000Y7000D03*
X58500Y23000D03*
X34000Y34000D03*
X20000D03*
G54D29*X27197Y51555D03*
G54D27*X23000Y96000D03*
X16500Y76500D03*
X10000Y53000D03*
X16500Y57500D03*
X6500Y34000D03*
G54D29*X12000Y11500D03*
Y106500D03*
G54D30*G54D31*G54D30*G54D31*G54D30*G54D31*G54D32*G54D33*M02*
