G04 start of page 2 for group 0 idx 0 *
G04 Title: (unknown), component *
G04 Creator: pcb 1.99z *
G04 CreationDate: Wed 27 Mar 2013 05:03:31 PM GMT UTC *
G04 For: nock *
G04 Format: Gerber/RS-274X *
G04 PCB-Dimensions (mil): 6000.00 5000.00 *
G04 PCB-Coordinate-Origin: lower left *
%MOIN*%
%FSLAX25Y25*%
%LNTOP*%
%ADD25C,0.0590*%
%ADD24C,0.0420*%
%ADD23C,0.0380*%
%ADD22C,0.0350*%
%ADD21R,0.0250X0.0250*%
%ADD20R,0.0200X0.0200*%
%ADD19R,0.0512X0.0512*%
%ADD18R,0.0350X0.0350*%
%ADD17R,0.1230X0.1230*%
%ADD16C,0.0800*%
%ADD15C,0.0720*%
%ADD14C,0.0600*%
%ADD13C,0.0100*%
%ADD12C,0.0250*%
%ADD11C,0.0001*%
G54D11*G36*
X185000Y217500D02*X305000D01*
Y197500D01*
X185000D01*
Y217500D01*
G37*
G54D12*X232500Y325000D02*X230000Y327500D01*
X200000D01*
X220000Y310000D02*Y307500D01*
X232500Y325000D02*Y302500D01*
X207500Y290000D02*Y295000D01*
X200000Y327500D02*X197000Y324500D01*
X220000Y307500D02*X207500Y295000D01*
X197000Y324500D02*Y309500D01*
X185000Y297500D01*
X235000Y295000D02*X220000Y280000D01*
X230314Y281496D02*X236220Y287402D01*
X257500Y300000D02*X235000D01*
X232500Y302500D01*
X262500Y295000D02*X235000D01*
X251968Y283465D02*X248031Y287402D01*
X236220D01*
X260657Y274528D02*X256968D01*
X251968Y279528D01*
Y283465D01*
G54D13*X240157Y274528D02*X247907D01*
G54D12*X201810Y240000D02*X208190D01*
X197086Y227500D02*X212914D01*
X201810Y252500D02*Y228190D01*
X202500Y227500D01*
X208190Y252500D02*Y228190D01*
X207500Y227500D01*
X185000Y265000D02*X190000Y260000D01*
Y227500D01*
X225000Y222000D02*X191000D01*
X190000Y223000D01*
Y227000D01*
X197000Y277500D02*Y279500D01*
X207500Y290000D01*
X205000Y269500D02*X197000Y277500D01*
X185000Y297500D02*Y265000D01*
X208190Y252500D02*X201810D01*
X205000Y269500D02*Y252500D01*
X220000Y227500D02*Y280000D01*
X224409Y228347D02*Y259843D01*
X230314Y265748D01*
Y281496D01*
X220000Y227500D02*X223562D01*
X224409Y228347D01*
X225000Y222000D02*X229846Y226846D01*
G54D13*X239842Y232599D02*Y224725D01*
X240157Y224410D01*
G54D12*X229846Y226846D02*Y257406D01*
X232283Y259843D01*
X235472D01*
X240157Y264528D01*
X255000Y310000D02*Y317500D01*
X285000D01*
X270000D02*Y310000D01*
X260000D02*Y302500D01*
X257500Y300000D01*
X265000Y310000D02*Y297500D01*
X262500Y295000D01*
X285000Y310000D02*Y317500D01*
Y310000D02*X295000Y300000D01*
X275000Y310000D02*Y295000D01*
G54D13*X280000Y282500D02*Y310000D01*
G54D12*X295000Y300000D02*Y297500D01*
G54D13*X293190Y261810D02*X295000Y260000D01*
X275000Y261810D02*X293190D01*
G54D12*X302500Y245000D02*Y267500D01*
G54D13*X273033Y259843D02*X275000Y261810D01*
G54D12*X302500Y267500D02*X300000Y270000D01*
G54D13*X295000D02*Y280000D01*
X292500Y282500D01*
G54D12*X300000Y270000D02*X295000D01*
G54D13*X287500D01*
X285000Y267500D01*
X270000D01*
X285000Y277500D02*X280000Y282500D01*
X273190Y277500D02*Y277128D01*
X271654Y246654D02*X275000Y250000D01*
X295000D02*X269684D01*
X247907Y274528D02*X252907Y269528D01*
X246220D02*X248031Y267717D01*
Y259843D01*
X252907Y269528D02*X265590D01*
X240157D02*X246220D01*
X276810Y215690D02*X280000Y212500D01*
X283464Y215964D02*X280000Y212500D01*
X282500Y205000D02*X280000Y202500D01*
G54D12*X294586Y240000D02*X297500D01*
X302500Y245000D01*
G54D13*X283464Y235964D02*X287500Y240000D01*
X294586D02*Y227658D01*
X291338Y224410D01*
X283464Y235964D02*Y215964D01*
X265590Y269528D02*X273190Y277128D01*
X271654Y228347D02*Y246654D01*
X269684Y250000D02*X259842Y240158D01*
Y232284D01*
X244095Y251969D02*Y255907D01*
X248031Y259843D01*
X255905Y248032D02*X249842Y241969D01*
X255905Y248032D02*Y255906D01*
X259842Y259843D01*
X273033D01*
X249842Y232284D02*Y241969D01*
X239842Y232599D02*X236220Y236221D01*
Y255906D01*
G54D14*X220000Y202500D03*
X230000D03*
X240000D03*
X250000D03*
G54D11*G36*
X187000Y205500D02*Y199500D01*
X193000D01*
Y205500D01*
X187000D01*
G37*
G54D14*X200000Y202500D03*
X210000D03*
X240000Y212500D03*
X230000D03*
X220000D03*
X210000D03*
X200000D03*
X190000D03*
X260000Y202500D03*
Y212500D03*
X250000D03*
G54D11*G36*
X256242Y235884D02*Y228684D01*
X263442D01*
Y235884D01*
X256242D01*
G37*
G54D15*X249842Y232284D03*
X239842D03*
G54D14*X270000Y202500D03*
Y212500D03*
X280000Y202500D03*
Y212500D03*
X290000Y202500D03*
X300000D03*
Y212500D03*
X290000D03*
G54D16*X295100Y319300D03*
G54D11*G36*
X291400Y253600D02*Y246400D01*
X298600D01*
Y253600D01*
X291400D01*
G37*
G54D15*X295000Y260000D03*
Y270000D03*
G54D16*X244900Y319300D03*
G54D17*X220000Y315600D02*Y304400D01*
G54D18*X255000Y312150D02*Y307850D01*
X260000Y312150D02*Y307850D01*
G54D19*X208190Y241181D02*Y238819D01*
X220000Y241181D02*Y238819D01*
X208190Y253681D02*Y251319D01*
X220000Y253681D02*Y251319D01*
G54D17*X220000Y283100D02*Y271900D01*
X197000Y283100D02*Y271900D01*
G54D19*X190000Y241181D02*Y238819D01*
X201810Y241181D02*Y238819D01*
X190000Y253681D02*Y251319D01*
X201810Y253681D02*Y251319D01*
X190000Y227893D02*Y227107D01*
X197086Y227893D02*Y227107D01*
X212914Y227893D02*Y227107D01*
X220000Y227893D02*Y227107D01*
X283464Y229528D02*Y227166D01*
X271654Y229528D02*Y227166D01*
X273819Y250000D02*X276181D01*
X273819Y261810D02*X276181D01*
X287500Y240393D02*Y239607D01*
X294586Y240393D02*Y239607D01*
G54D18*X265000Y312150D02*Y307850D01*
X270000Y312150D02*Y307850D01*
X275000Y312150D02*Y307850D01*
X280000Y312150D02*Y307850D01*
X285000Y312150D02*Y307850D01*
G54D19*X255905Y253150D02*Y250788D01*
X244095Y253150D02*Y250788D01*
G54D20*X236907Y279528D02*X243407D01*
X236907Y274528D02*X243407D01*
X236907Y269528D02*X243407D01*
X236907Y264528D02*X243407D01*
G54D12*X290000Y295000D02*X302500D01*
X290000Y297500D02*Y290000D01*
G54D21*X302500D01*
G54D12*Y297500D02*Y290000D01*
G54D21*X290000Y297500D02*X302500D01*
G54D12*X290000Y292500D02*X302500D01*
G54D17*X197000Y315600D02*Y304400D01*
G54D20*X257407Y264528D02*X263907D01*
G54D19*X273190Y278681D02*Y276319D01*
X285000Y278681D02*Y276319D01*
G54D20*X257407Y269528D02*X263907D01*
X257407Y274528D02*X263907D01*
X257407Y279528D02*X263907D01*
G54D14*X205000Y227500D03*
X275000Y295000D03*
G54D22*G54D23*G54D24*G54D23*G54D25*G54D24*G54D25*M02*
