G04 start of page 6 for group -4063 idx -4063 *
G04 Title: (unknown), componentmask *
G04 Creator: pcb 1.99z *
G04 CreationDate: Wed 03 Jul 2013 06:17:13 PM GMT UTC *
G04 For: commonadmin *
G04 Format: Gerber/RS-274X *
G04 PCB-Dimensions: 600000 500000 *
G04 PCB-Coordinate-Origin: lower left *
%MOIN*%
%FSLAX25Y25*%
%LNTOPMASK*%
%ADD47R,0.0550X0.0550*%
%ADD46R,0.0350X0.0350*%
%ADD45R,0.0572X0.0572*%
%ADD44R,0.0300X0.0300*%
%ADD43C,0.0600*%
%ADD42C,0.1600*%
%ADD41C,0.0860*%
%ADD40C,0.0660*%
%ADD39C,0.0001*%
G54D39*G36*
X38432Y57973D02*Y51373D01*
X45032D01*
Y57973D01*
X38432D01*
G37*
G54D40*X41732Y44673D03*
X51732D03*
Y54673D03*
G54D41*X81100Y81300D03*
X30900D03*
G54D42*X68898Y49555D03*
X82000Y9500D03*
G54D43*X63000Y5000D03*
G54D42*X25197Y49555D03*
X10000Y9500D03*
Y104500D03*
G54D44*X59250Y36000D02*X65750D01*
X59250Y31000D02*X65750D01*
X59250Y26000D02*X65750D01*
X59250Y21000D02*X65750D01*
X79750D02*X86250D01*
X79750Y26000D02*X86250D01*
X79750Y31000D02*X86250D01*
X79750Y36000D02*X86250D01*
G54D45*X83819Y42000D02*X86181D01*
X83819Y53810D02*X86181D01*
X50810Y14181D02*Y11819D01*
X57000Y14181D02*Y11819D01*
X68810Y14181D02*Y11819D01*
X44319Y32500D02*X46681D01*
X44319Y20690D02*X46681D01*
G54D46*X24700Y13600D02*X25300D01*
X24700Y8500D02*X25300D01*
X31700Y11000D02*X32300D01*
G54D45*X39000Y14181D02*Y11819D01*
G54D46*X24700Y25000D02*X25300D01*
X24700Y19900D02*X25300D01*
X31700Y22400D02*X32300D01*
G54D45*X28000Y32393D02*Y31607D01*
X20914Y32393D02*Y31607D01*
X15328Y32393D02*Y31607D01*
X8242Y32393D02*Y31607D01*
X7607Y39500D02*X8393D01*
X7607Y46586D02*X8393D01*
X13319Y59500D02*X15681D01*
X5319D02*X7681D01*
X13319Y71310D02*X15681D01*
X13319Y77310D02*X15681D01*
X13319Y89120D02*X15681D01*
X5319Y71310D02*X7681D01*
X5319Y77310D02*X7681D01*
X5319Y89120D02*X7681D01*
G54D47*X41000Y74150D02*Y69850D01*
X46000Y74150D02*Y69850D01*
X51000Y74150D02*Y69850D01*
X56000Y74150D02*Y69850D01*
X61000Y74150D02*Y69850D01*
X66000Y74150D02*Y69850D01*
X71000Y74150D02*Y69850D01*
M02*
