G04 start of page 2 for group 0 idx 0 *
G04 Title: (unknown), component *
G04 Creator: pcb 1.99z *
G04 CreationDate: Wed 03 Jul 2013 06:17:13 PM GMT UTC *
G04 For: commonadmin *
G04 Format: Gerber/RS-274X *
G04 PCB-Dimensions: 600000 500000 *
G04 PCB-Coordinate-Origin: lower left *
%MOIN*%
%FSLAX25Y25*%
%LNTOP*%
%ADD24C,0.0590*%
%ADD23C,0.0380*%
%ADD22C,0.1190*%
%ADD21C,0.0350*%
%ADD20C,0.1600*%
%ADD19R,0.0350X0.0350*%
%ADD18R,0.0290X0.0290*%
%ADD17R,0.0512X0.0512*%
%ADD16R,0.0200X0.0200*%
%ADD15C,0.0800*%
%ADD14C,0.0600*%
%ADD13C,0.0100*%
%ADD12C,0.0250*%
%ADD11C,0.0001*%
G54D11*G36*
X36614Y59791D02*X56693D01*
Y39713D01*
X46296D01*
X46183Y39782D01*
X45965Y39872D01*
X45735Y39927D01*
X45500Y39946D01*
X45265Y39927D01*
X45035Y39872D01*
X44817Y39782D01*
X44704Y39713D01*
X36614D01*
Y59791D01*
G37*
G54D12*X41000Y72000D02*Y79500D01*
X46000Y66500D02*X44500Y65000D01*
X18000D02*X44500D01*
X14500Y61500D02*X18000Y65000D01*
X21000Y94000D02*X48000D01*
X21500D02*X19380D01*
X14500Y89120D01*
X25197Y49555D02*X15142Y39500D01*
X25197Y49555D02*X68898D01*
G54D13*X85000Y42000D02*X78810D01*
X45500Y38441D02*X51732Y44673D01*
X45500Y37181D02*Y38441D01*
G54D12*X18000Y30500D02*X20500Y28000D01*
X18000Y32000D02*Y30500D01*
G54D13*X45500Y32500D02*Y37189D01*
X71500Y29500D02*Y34690D01*
X78810Y42000D02*X71500Y34690D01*
X85000Y53810D02*X80190D01*
X74000Y60000D01*
X67500D01*
X57000Y13000D02*X50810D01*
X71000Y15190D02*X68810Y13000D01*
X71000Y23000D02*Y15190D01*
X62500Y31000D02*X71500D01*
X75000Y26000D02*X71500Y29500D01*
G54D12*X83000Y31000D02*X77000D01*
G54D13*X83000Y26000D02*X75000D01*
X68000D02*X71000Y23000D01*
X62500Y26000D02*X68000D01*
G54D12*X56500Y21000D02*X62500D01*
G54D13*X43790Y22400D02*X45500Y20690D01*
G54D12*X71000Y79500D02*Y72000D01*
G54D13*X66000D02*Y61500D01*
X67500Y60000D02*X66000Y61500D01*
G54D12*X51000Y91000D02*X48000Y94000D01*
X46000Y72000D02*Y66500D01*
X51000Y72000D02*Y76500D01*
X49000Y78500D01*
Y81500D01*
X51000Y83500D02*Y91000D01*
X56000Y72000D02*Y79500D01*
X49000Y81500D02*X51000Y83500D01*
X61000Y72000D02*Y76000D01*
X62500Y77500D01*
Y85500D01*
X61000Y87000D01*
X14500Y55500D02*Y61500D01*
X8000Y39500D02*X15142D01*
X14500Y59500D02*X6500D01*
X14500Y89120D02*X6500D01*
Y71310D02*X14500D01*
X6500Y77310D02*Y71310D01*
X14500Y77310D02*Y71310D01*
X14310Y77310D02*X14500Y77500D01*
X6500Y77310D02*X14310D01*
G54D13*X47500Y7500D02*X29000D01*
X50810Y10810D02*X47500Y7500D01*
X50810Y13000D02*Y10810D01*
X37000Y11000D02*X39000Y13000D01*
X32000Y11000D02*X37000D01*
X32000Y22400D02*X43790D01*
X27900Y13600D02*X28500Y13000D01*
X25000Y13600D02*X27900D01*
X28500Y24500D02*Y8000D01*
X32000Y11000D02*Y22400D01*
X29000Y7500D02*X28500Y8000D01*
G54D12*X22000Y8500D02*X25000D01*
X20500Y10000D02*X22000Y8500D01*
X20500Y28000D02*Y10000D01*
X22100Y19900D02*X20500Y21500D01*
X25000Y19900D02*X22100D01*
G54D13*X28000Y25000D02*X25000D01*
X28000D02*X28500Y24500D01*
G54D11*G36*
X38732Y57673D02*Y51673D01*
X44732D01*
Y57673D01*
X38732D01*
G37*
G54D14*X41732Y44673D03*
X51732D03*
Y54673D03*
G54D15*X81100Y81300D03*
X30900D03*
G54D16*X59250Y36000D02*X65750D01*
X59250Y31000D02*X65750D01*
X59250Y26000D02*X65750D01*
X59250Y21000D02*X65750D01*
X79750D02*X86250D01*
X79750Y26000D02*X86250D01*
X79750Y31000D02*X86250D01*
X79750Y36000D02*X86250D01*
G54D17*X83819Y42000D02*X86181D01*
X83819Y53810D02*X86181D01*
X50810Y14181D02*Y11819D01*
X57000Y14181D02*Y11819D01*
X68810Y14181D02*Y11819D01*
X44319Y32500D02*X46681D01*
X44319Y20690D02*X46681D01*
G54D18*X24700Y13600D02*X25300D01*
X24700Y8500D02*X25300D01*
X31700Y11000D02*X32300D01*
G54D17*X39000Y14181D02*Y11819D01*
G54D18*X24700Y25000D02*X25300D01*
X24700Y19900D02*X25300D01*
X31700Y22400D02*X32300D01*
G54D17*X28000Y32393D02*Y31607D01*
X20914Y32393D02*Y31607D01*
X15328Y32393D02*Y31607D01*
X8242Y32393D02*Y31607D01*
X7607Y39500D02*X8393D01*
X7607Y46586D02*X8393D01*
X13319Y59500D02*X15681D01*
X5319D02*X7681D01*
X13319Y71310D02*X15681D01*
X13319Y77310D02*X15681D01*
X13319Y89120D02*X15681D01*
X5319Y71310D02*X7681D01*
X5319Y77310D02*X7681D01*
X5319Y89120D02*X7681D01*
G54D19*X41000Y74150D02*Y69850D01*
X46000Y74150D02*Y69850D01*
X51000Y74150D02*Y69850D01*
X56000Y74150D02*Y69850D01*
X61000Y74150D02*Y69850D01*
X66000Y74150D02*Y69850D01*
X71000Y74150D02*Y69850D01*
G54D14*Y79500D03*
X56000D03*
X41000D03*
X61000Y87000D03*
X77000Y31000D03*
G54D20*X68898Y49555D03*
X82000Y9500D03*
G54D14*X63000Y5000D03*
X56500Y21000D03*
X32000Y32000D03*
X18000D03*
G54D20*X25197Y49555D03*
G54D14*X21000Y94000D03*
X14500Y74500D03*
X8000Y51000D03*
X14500Y55500D03*
X4500Y32000D03*
G54D20*X10000Y9500D03*
Y104500D03*
G54D21*G54D22*G54D21*G54D22*G54D21*G54D22*G54D23*G54D24*M02*
