M48
INCH
T38C0.035
T37C0.059
T36C0.042
T35C0.038
%
T38
X0020500Y0022750
X0027500Y0029500
T35
X0019000Y0021250
X0019000Y0020250
X0020000Y0021250
X0020000Y0020250
X0021000Y0021250
X0021000Y0020250
X0022000Y0021250
X0022000Y0020250
X0023000Y0021250
X0023000Y0020250
X0024000Y0021250
X0024000Y0020250
X0025000Y0021250
X0025000Y0020250
X0026000Y0021250
X0026000Y0020250
X0027000Y0021250
X0027000Y0020250
X0028000Y0021250
X0028000Y0020250
X0029000Y0021250
X0029000Y0020250
X0030000Y0021250
X0030000Y0020250
T36
X0023980Y0023230
X0024980Y0023230
X0025980Y0023230
X0029500Y0027000
X0029500Y0026000
X0029500Y0025000
T37
X0024490Y0031930
X0029510Y0031930
M30
