G04 start of page 3 for group 1 idx 1 *
G04 Title: (unknown), power *
G04 Creator: pcb 1.99z *
G04 CreationDate: Wed 03 Jul 2013 06:17:13 PM GMT UTC *
G04 For: commonadmin *
G04 Format: Gerber/RS-274X *
G04 PCB-Dimensions: 600000 500000 *
G04 PCB-Coordinate-Origin: lower left *
%MOIN*%
%FSLAX25Y25*%
%LNBOTTOM*%
%ADD33C,0.0590*%
%ADD32C,0.0380*%
%ADD31C,0.1190*%
%ADD30C,0.0350*%
%ADD29C,0.1600*%
%ADD28C,0.0800*%
%ADD27C,0.0600*%
%ADD26C,0.0250*%
%ADD25C,0.0001*%
G54D25*G36*
X81092Y544D02*X82000Y472D01*
X83412Y583D01*
X84790Y914D01*
X86099Y1456D01*
X87306Y2196D01*
X88384Y3116D01*
X89304Y4194D01*
X90044Y5401D01*
X90586Y6710D01*
X90917Y8088D01*
X91000Y9500D01*
Y0D01*
X81092D01*
Y544D01*
G37*
G36*
X91000Y114000D02*Y9500D01*
X90917Y10912D01*
X90586Y12290D01*
X90044Y13599D01*
X89304Y14806D01*
X88384Y15884D01*
X87306Y16804D01*
X86099Y17544D01*
X84790Y18086D01*
X83412Y18417D01*
X82000Y18528D01*
X81092Y18456D01*
Y76285D01*
X81100Y76285D01*
X81885Y76346D01*
X82650Y76530D01*
X83377Y76831D01*
X84048Y77242D01*
X84646Y77754D01*
X85158Y78352D01*
X85569Y79023D01*
X85870Y79750D01*
X86054Y80515D01*
X86100Y81300D01*
X86054Y82085D01*
X85870Y82850D01*
X85569Y83577D01*
X85158Y84248D01*
X84646Y84846D01*
X84048Y85358D01*
X83377Y85769D01*
X82650Y86070D01*
X81885Y86254D01*
X81100Y86315D01*
X81092Y86315D01*
Y114000D01*
X91000D01*
G37*
G36*
X81092Y18456D02*X80588Y18417D01*
X79210Y18086D01*
X77901Y17544D01*
X76694Y16804D01*
X75616Y15884D01*
X74696Y14806D01*
X73956Y13599D01*
X73414Y12290D01*
X73083Y10912D01*
X72972Y9500D01*
X73083Y8088D01*
X73414Y6710D01*
X73956Y5401D01*
X74696Y4194D01*
X75616Y3116D01*
X76694Y2196D01*
X77901Y1456D01*
X79210Y914D01*
X80588Y583D01*
X81092Y544D01*
Y0D01*
X68884D01*
Y13702D01*
X74529Y19347D01*
X74596Y19404D01*
X74826Y19673D01*
X74826Y19673D01*
X75011Y19975D01*
X75146Y20303D01*
X75229Y20647D01*
X75257Y21000D01*
X75250Y21088D01*
Y26068D01*
X76249Y27067D01*
X76372Y27037D01*
X77000Y26988D01*
X77628Y27037D01*
X78240Y27184D01*
X78822Y27425D01*
X79358Y27754D01*
X79837Y28163D01*
X80246Y28642D01*
X80575Y29178D01*
X80816Y29760D01*
X80963Y30372D01*
X81000Y31000D01*
X80963Y31628D01*
X80816Y32240D01*
X80575Y32822D01*
X80246Y33358D01*
X79837Y33837D01*
X79358Y34246D01*
X78822Y34575D01*
X78240Y34816D01*
X77628Y34963D01*
X77000Y35012D01*
X76372Y34963D01*
X75760Y34816D01*
X75178Y34575D01*
X74642Y34246D01*
X74163Y33837D01*
X73754Y33358D01*
X73425Y32822D01*
X73184Y32240D01*
X73037Y31628D01*
X72988Y31000D01*
X73037Y30372D01*
X73067Y30249D01*
X71471Y28653D01*
X71404Y28596D01*
X71174Y28327D01*
X70989Y28025D01*
X70854Y27697D01*
X70771Y27353D01*
X70771Y27353D01*
X70743Y27000D01*
X70750Y26912D01*
Y21932D01*
X68884Y20066D01*
Y40528D01*
X68898Y40527D01*
X70310Y40639D01*
X71687Y40969D01*
X72996Y41511D01*
X74204Y42252D01*
X75281Y43172D01*
X76201Y44249D01*
X76941Y45457D01*
X77484Y46765D01*
X77814Y48143D01*
X77898Y49555D01*
X77814Y50967D01*
X77484Y52345D01*
X76941Y53654D01*
X76201Y54862D01*
X75281Y55939D01*
X74204Y56859D01*
X72996Y57599D01*
X71687Y58141D01*
X70310Y58472D01*
X68898Y58583D01*
X68884Y58582D01*
Y114000D01*
X81092D01*
Y86315D01*
X80315Y86254D01*
X79550Y86070D01*
X78823Y85769D01*
X78152Y85358D01*
X77554Y84846D01*
X77042Y84248D01*
X76631Y83577D01*
X76330Y82850D01*
X76146Y82085D01*
X76085Y81300D01*
X76146Y80515D01*
X76330Y79750D01*
X76631Y79023D01*
X77042Y78352D01*
X77554Y77754D01*
X78152Y77242D01*
X78823Y76831D01*
X79550Y76530D01*
X80315Y76346D01*
X81092Y76285D01*
Y18456D01*
G37*
G36*
X68884Y20066D02*X63568Y14750D01*
X53432D01*
X51725Y16457D01*
Y21093D01*
X52566Y20252D01*
X52684Y19760D01*
X52925Y19178D01*
X53254Y18642D01*
X53663Y18163D01*
X54142Y17754D01*
X54678Y17425D01*
X55260Y17184D01*
X55872Y17037D01*
X56500Y16988D01*
X57128Y17037D01*
X57740Y17184D01*
X58322Y17425D01*
X58858Y17754D01*
X59337Y18163D01*
X59746Y18642D01*
X60075Y19178D01*
X60316Y19760D01*
X60463Y20372D01*
X60500Y21000D01*
X60463Y21628D01*
X60316Y22240D01*
X60075Y22822D01*
X59746Y23358D01*
X59337Y23837D01*
X58858Y24246D01*
X58322Y24575D01*
X57740Y24816D01*
X57128Y24963D01*
X56500Y25012D01*
X55872Y24963D01*
X55260Y24816D01*
X54678Y24575D01*
X54634Y24548D01*
X51725Y27457D01*
Y40160D01*
X51732Y40159D01*
X52438Y40215D01*
X53127Y40380D01*
X53782Y40651D01*
X54385Y41021D01*
X54924Y41481D01*
X55384Y42020D01*
X55754Y42624D01*
X56025Y43278D01*
X56191Y43967D01*
X56232Y44673D01*
X56191Y45379D01*
X56025Y46068D01*
X55754Y46722D01*
X55384Y47326D01*
X54924Y47865D01*
X54385Y48325D01*
X53782Y48695D01*
X53127Y48966D01*
X52438Y49132D01*
X51732Y49187D01*
X51725Y49187D01*
Y50160D01*
X51732Y50159D01*
X52438Y50215D01*
X53127Y50380D01*
X53782Y50651D01*
X54385Y51021D01*
X54924Y51481D01*
X55384Y52020D01*
X55754Y52624D01*
X56025Y53278D01*
X56191Y53967D01*
X56232Y54673D01*
X56191Y55379D01*
X56025Y56068D01*
X55754Y56722D01*
X55384Y57326D01*
X54924Y57865D01*
X54385Y58325D01*
X53782Y58695D01*
X53127Y58966D01*
X52438Y59132D01*
X51732Y59187D01*
X51725Y59187D01*
Y87250D01*
X57007D01*
X56988Y87000D01*
X57037Y86372D01*
X57184Y85760D01*
X57425Y85178D01*
X57754Y84642D01*
X58163Y84163D01*
X58642Y83754D01*
X59178Y83425D01*
X59760Y83184D01*
X60372Y83037D01*
X61000Y82988D01*
X61628Y83037D01*
X62240Y83184D01*
X62822Y83425D01*
X63358Y83754D01*
X63837Y84163D01*
X64246Y84642D01*
X64575Y85178D01*
X64816Y85760D01*
X64963Y86372D01*
X65000Y87000D01*
X64963Y87628D01*
X64816Y88240D01*
X64575Y88822D01*
X64246Y89358D01*
X63837Y89837D01*
X63358Y90246D01*
X62822Y90575D01*
X62240Y90816D01*
X61628Y90963D01*
X61000Y91012D01*
X60372Y90963D01*
X60249Y90933D01*
X60153Y91029D01*
X60096Y91096D01*
X59827Y91326D01*
X59525Y91511D01*
X59197Y91646D01*
X58853Y91729D01*
X58853Y91729D01*
X58500Y91757D01*
X58412Y91750D01*
X51725D01*
Y114000D01*
X68884D01*
Y58582D01*
X67485Y58472D01*
X66108Y58141D01*
X64799Y57599D01*
X63591Y56859D01*
X62514Y55939D01*
X61594Y54862D01*
X60854Y53654D01*
X60312Y52345D01*
X59981Y50967D01*
X59870Y49555D01*
X59981Y48143D01*
X60312Y46765D01*
X60854Y45457D01*
X61594Y44249D01*
X62514Y43172D01*
X63591Y42252D01*
X64799Y41511D01*
X66108Y40969D01*
X67485Y40639D01*
X68884Y40528D01*
Y20066D01*
G37*
G36*
X51725Y91750D02*X40622D01*
Y114000D01*
X51725D01*
Y91750D01*
G37*
G36*
Y27457D02*X45653Y33529D01*
X45596Y33596D01*
X45327Y33826D01*
X45025Y34011D01*
X44697Y34146D01*
X44353Y34229D01*
X44353Y34229D01*
X44000Y34257D01*
X43912Y34250D01*
X40622D01*
Y40312D01*
X41026Y40215D01*
X41732Y40159D01*
X42438Y40215D01*
X43127Y40380D01*
X43782Y40651D01*
X44385Y41021D01*
X44924Y41481D01*
X45384Y42020D01*
X45754Y42624D01*
X46025Y43278D01*
X46191Y43967D01*
X46232Y44673D01*
X46191Y45379D01*
X46025Y46068D01*
X45754Y46722D01*
X45384Y47326D01*
X44924Y47865D01*
X44385Y48325D01*
X43782Y48695D01*
X43127Y48966D01*
X42438Y49132D01*
X41732Y49187D01*
X41026Y49132D01*
X40622Y49034D01*
Y50177D01*
X44968Y50187D01*
X45197Y50242D01*
X45415Y50333D01*
X45617Y50456D01*
X45796Y50609D01*
X45950Y50789D01*
X46073Y50990D01*
X46163Y51208D01*
X46218Y51438D01*
X46232Y51673D01*
X46218Y57909D01*
X46163Y58138D01*
X46073Y58356D01*
X45950Y58558D01*
X45796Y58737D01*
X45617Y58890D01*
X45415Y59014D01*
X45197Y59104D01*
X44968Y59159D01*
X44732Y59173D01*
X40622Y59164D01*
Y87250D01*
X51725D01*
Y59187D01*
X51026Y59132D01*
X50337Y58966D01*
X49683Y58695D01*
X49079Y58325D01*
X48540Y57865D01*
X48080Y57326D01*
X47710Y56722D01*
X47439Y56068D01*
X47274Y55379D01*
X47218Y54673D01*
X47274Y53967D01*
X47439Y53278D01*
X47710Y52624D01*
X48080Y52020D01*
X48540Y51481D01*
X49079Y51021D01*
X49683Y50651D01*
X50337Y50380D01*
X51026Y50215D01*
X51725Y50160D01*
Y49187D01*
X51026Y49132D01*
X50337Y48966D01*
X49683Y48695D01*
X49079Y48325D01*
X48540Y47865D01*
X48080Y47326D01*
X47710Y46722D01*
X47439Y46068D01*
X47274Y45379D01*
X47218Y44673D01*
X47274Y43967D01*
X47439Y43278D01*
X47710Y42624D01*
X48080Y42020D01*
X48540Y41481D01*
X49079Y41021D01*
X49683Y40651D01*
X50337Y40380D01*
X51026Y40215D01*
X51725Y40160D01*
Y27457D01*
G37*
G36*
Y16457D02*X41153Y27029D01*
X41096Y27096D01*
X40827Y27326D01*
X40827Y27326D01*
X40712Y27396D01*
X40622Y27452D01*
Y29750D01*
X43068D01*
X51725Y21093D01*
Y16457D01*
G37*
G36*
X68884Y0D02*X40622D01*
Y21196D01*
X50847Y10971D01*
X50904Y10904D01*
X51173Y10674D01*
X51173Y10674D01*
X51361Y10559D01*
X51475Y10489D01*
X51803Y10354D01*
X52147Y10271D01*
X52147D01*
X52500Y10243D01*
X52588Y10250D01*
X64412D01*
X64500Y10243D01*
X64853Y10271D01*
X64853Y10271D01*
X65197Y10354D01*
X65525Y10489D01*
X65827Y10674D01*
X66096Y10904D01*
X66153Y10971D01*
X68884Y13702D01*
Y0D01*
G37*
G36*
X40622Y34250D02*X35312D01*
X35246Y34358D01*
X34837Y34837D01*
X34358Y35246D01*
X33822Y35575D01*
X33240Y35816D01*
X32628Y35963D01*
X32000Y36012D01*
X31372Y35963D01*
X31249Y35933D01*
X30892Y36290D01*
Y42584D01*
X31580Y43172D01*
X32500Y44249D01*
X33241Y45457D01*
X33783Y46765D01*
X34113Y48143D01*
X34197Y49555D01*
X34113Y50967D01*
X33783Y52345D01*
X33241Y53654D01*
X32500Y54862D01*
X31580Y55939D01*
X30892Y56526D01*
Y76285D01*
X30900Y76285D01*
X31685Y76346D01*
X32450Y76530D01*
X33177Y76831D01*
X33848Y77242D01*
X34446Y77754D01*
X34958Y78352D01*
X35369Y79023D01*
X35670Y79750D01*
X35854Y80515D01*
X35900Y81300D01*
X35854Y82085D01*
X35670Y82850D01*
X35369Y83577D01*
X34958Y84248D01*
X34446Y84846D01*
X33848Y85358D01*
X33177Y85769D01*
X32450Y86070D01*
X31685Y86254D01*
X30900Y86315D01*
X30892Y86315D01*
Y87250D01*
X40622D01*
Y59164D01*
X38497Y59159D01*
X38267Y59104D01*
X38049Y59014D01*
X37848Y58890D01*
X37668Y58737D01*
X37515Y58558D01*
X37392Y58356D01*
X37301Y58138D01*
X37246Y57909D01*
X37232Y57673D01*
X37246Y51438D01*
X37301Y51208D01*
X37392Y50990D01*
X37515Y50789D01*
X37668Y50609D01*
X37848Y50456D01*
X38049Y50333D01*
X38267Y50242D01*
X38497Y50187D01*
X38732Y50173D01*
X40622Y50177D01*
Y49034D01*
X40337Y48966D01*
X39683Y48695D01*
X39079Y48325D01*
X38540Y47865D01*
X38080Y47326D01*
X37710Y46722D01*
X37439Y46068D01*
X37274Y45379D01*
X37218Y44673D01*
X37274Y43967D01*
X37439Y43278D01*
X37710Y42624D01*
X38080Y42020D01*
X38540Y41481D01*
X39079Y41021D01*
X39683Y40651D01*
X40337Y40380D01*
X40622Y40312D01*
Y34250D01*
G37*
G36*
X30892Y56526D02*X30503Y56859D01*
X29295Y57599D01*
X27987Y58141D01*
X26609Y58472D01*
X25197Y58583D01*
X23785Y58472D01*
X22407Y58141D01*
X21098Y57599D01*
X19890Y56859D01*
X18813Y55939D01*
X18496Y55567D01*
X18463Y56128D01*
X18316Y56740D01*
X18075Y57322D01*
X17746Y57858D01*
X17337Y58337D01*
X16858Y58746D01*
X16322Y59075D01*
X15740Y59316D01*
X15128Y59463D01*
X14500Y59512D01*
X13872Y59463D01*
X13260Y59316D01*
X12678Y59075D01*
X12142Y58746D01*
X11663Y58337D01*
X11254Y57858D01*
X10925Y57322D01*
X10684Y56740D01*
X10537Y56128D01*
X10488Y55500D01*
X10537Y54872D01*
X10684Y54260D01*
X10880Y53787D01*
X10837Y53837D01*
X10358Y54246D01*
X10250Y54312D01*
Y72250D01*
X11188D01*
X11254Y72142D01*
X11663Y71663D01*
X12142Y71254D01*
X12678Y70925D01*
X13260Y70684D01*
X13872Y70537D01*
X14500Y70488D01*
X15128Y70537D01*
X15740Y70684D01*
X16322Y70925D01*
X16858Y71254D01*
X17337Y71663D01*
X17746Y72142D01*
X18075Y72678D01*
X18316Y73260D01*
X18463Y73872D01*
X18500Y74500D01*
X18463Y75128D01*
X18316Y75740D01*
X18075Y76322D01*
X17858Y76676D01*
X28432Y87250D01*
X30892D01*
Y86315D01*
X30115Y86254D01*
X29350Y86070D01*
X28623Y85769D01*
X27952Y85358D01*
X27354Y84846D01*
X26842Y84248D01*
X26431Y83577D01*
X26130Y82850D01*
X25946Y82085D01*
X25885Y81300D01*
X25946Y80515D01*
X26130Y79750D01*
X26431Y79023D01*
X26842Y78352D01*
X27354Y77754D01*
X27952Y77242D01*
X28623Y76831D01*
X29350Y76530D01*
X30115Y76346D01*
X30892Y76285D01*
Y56526D01*
G37*
G36*
Y36290D02*X27653Y39529D01*
X27596Y39596D01*
X27327Y39826D01*
X27025Y40011D01*
X26697Y40146D01*
X26353Y40229D01*
X26353Y40229D01*
X26000Y40257D01*
X25912Y40250D01*
X21000D01*
X20933Y40246D01*
X20866Y40250D01*
X20755D01*
X16750Y44255D01*
Y46430D01*
X17153Y45457D01*
X17893Y44249D01*
X18813Y43172D01*
X19890Y42252D01*
X21098Y41511D01*
X22407Y40969D01*
X23785Y40639D01*
X25197Y40527D01*
X26609Y40639D01*
X27987Y40969D01*
X29295Y41511D01*
X30503Y42252D01*
X30892Y42584D01*
Y36290D01*
G37*
G36*
X40622Y27452D02*X40525Y27511D01*
X40293Y27607D01*
X40197Y27646D01*
X39853Y27729D01*
X39500Y27757D01*
X39412Y27750D01*
X11932D01*
X8433Y31249D01*
X8463Y31372D01*
X8500Y32000D01*
X8463Y32628D01*
X8316Y33240D01*
X8075Y33822D01*
X7746Y34358D01*
X7337Y34837D01*
X6858Y35246D01*
X6322Y35575D01*
X5740Y35816D01*
X5128Y35963D01*
X4750Y35993D01*
Y48648D01*
X4754Y48642D01*
X5163Y48163D01*
X5642Y47754D01*
X5750Y47688D01*
Y42088D01*
X5743Y42000D01*
X5771Y41647D01*
Y41647D01*
X5854Y41303D01*
X5989Y40975D01*
X6059Y40861D01*
X6174Y40673D01*
X6174Y40673D01*
X6404Y40404D01*
X6471Y40347D01*
X14067Y32751D01*
X14037Y32628D01*
X13988Y32000D01*
X14037Y31372D01*
X14184Y30760D01*
X14425Y30178D01*
X14754Y29642D01*
X15163Y29163D01*
X15642Y28754D01*
X16178Y28425D01*
X16760Y28184D01*
X17372Y28037D01*
X18000Y27988D01*
X18628Y28037D01*
X19240Y28184D01*
X19822Y28425D01*
X20358Y28754D01*
X20837Y29163D01*
X21246Y29642D01*
X21575Y30178D01*
X21816Y30760D01*
X21963Y31372D01*
X22000Y32000D01*
X21963Y32628D01*
X21816Y33240D01*
X21575Y33822D01*
X21246Y34358D01*
X20837Y34837D01*
X20358Y35246D01*
X19822Y35575D01*
X19240Y35816D01*
X18628Y35963D01*
X18000Y36012D01*
X17372Y35963D01*
X17249Y35933D01*
X10250Y42932D01*
Y47688D01*
X10358Y47754D01*
X10837Y48163D01*
X11246Y48642D01*
X11575Y49178D01*
X11816Y49760D01*
X11963Y50372D01*
X12000Y51000D01*
X11963Y51628D01*
X11816Y52240D01*
X11620Y52713D01*
X11663Y52663D01*
X12142Y52254D01*
X12250Y52188D01*
Y51500D01*
X12251Y51478D01*
X12250Y51457D01*
Y43411D01*
X12243Y43323D01*
X12271Y42970D01*
X12354Y42625D01*
X12489Y42298D01*
X12674Y41996D01*
X12674Y41996D01*
X12904Y41727D01*
X12971Y41670D01*
X18170Y36471D01*
X18227Y36404D01*
X18496Y36174D01*
X18496Y36174D01*
X18798Y35989D01*
X19125Y35854D01*
X19470Y35771D01*
X19823Y35743D01*
X19911Y35750D01*
X20866D01*
X20933Y35754D01*
X21000Y35750D01*
X25068D01*
X28067Y32751D01*
X28037Y32628D01*
X27988Y32000D01*
X28037Y31372D01*
X28184Y30760D01*
X28425Y30178D01*
X28754Y29642D01*
X29163Y29163D01*
X29642Y28754D01*
X30178Y28425D01*
X30760Y28184D01*
X31372Y28037D01*
X32000Y27988D01*
X32628Y28037D01*
X33240Y28184D01*
X33822Y28425D01*
X34358Y28754D01*
X34837Y29163D01*
X35246Y29642D01*
X35312Y29750D01*
X40622D01*
Y27452D01*
G37*
G36*
X9986Y114000D02*X40622D01*
Y91750D01*
X27588D01*
X27500Y91757D01*
X27147Y91729D01*
X26803Y91646D01*
X26475Y91511D01*
X26173Y91326D01*
X26173Y91326D01*
X25904Y91096D01*
X25847Y91029D01*
X13045Y78227D01*
X12678Y78075D01*
X12142Y77746D01*
X11663Y77337D01*
X11254Y76858D01*
X11188Y76750D01*
X9986D01*
Y91750D01*
X17688D01*
X17754Y91642D01*
X18163Y91163D01*
X18642Y90754D01*
X19178Y90425D01*
X19760Y90184D01*
X20372Y90037D01*
X21000Y89988D01*
X21628Y90037D01*
X22240Y90184D01*
X22822Y90425D01*
X23358Y90754D01*
X23837Y91163D01*
X24246Y91642D01*
X24575Y92178D01*
X24816Y92760D01*
X24963Y93372D01*
X25000Y94000D01*
X24963Y94628D01*
X24816Y95240D01*
X24575Y95822D01*
X24246Y96358D01*
X23837Y96837D01*
X23358Y97246D01*
X22822Y97575D01*
X22240Y97816D01*
X21628Y97963D01*
X21000Y98012D01*
X20372Y97963D01*
X19760Y97816D01*
X19178Y97575D01*
X18642Y97246D01*
X18163Y96837D01*
X17754Y96358D01*
X17688Y96250D01*
X13601D01*
X14099Y96456D01*
X15306Y97196D01*
X16384Y98116D01*
X17304Y99194D01*
X18044Y100401D01*
X18586Y101710D01*
X18917Y103088D01*
X19000Y104500D01*
X18917Y105912D01*
X18586Y107290D01*
X18044Y108599D01*
X17304Y109806D01*
X16384Y110884D01*
X15306Y111804D01*
X14099Y112544D01*
X12790Y113086D01*
X11412Y113417D01*
X10000Y113528D01*
X9986Y113527D01*
Y114000D01*
G37*
G36*
X40622Y0D02*X9986D01*
Y473D01*
X10000Y472D01*
X11412Y583D01*
X12790Y914D01*
X14099Y1456D01*
X15306Y2196D01*
X16384Y3116D01*
X17304Y4194D01*
X18044Y5401D01*
X18586Y6710D01*
X18917Y8088D01*
X19000Y9500D01*
X18917Y10912D01*
X18586Y12290D01*
X18044Y13599D01*
X17304Y14806D01*
X16384Y15884D01*
X15306Y16804D01*
X14099Y17544D01*
X12790Y18086D01*
X11412Y18417D01*
X10000Y18528D01*
X9986Y18527D01*
Y23485D01*
X10303Y23354D01*
X10647Y23271D01*
X11000Y23243D01*
X11088Y23250D01*
X38568D01*
X40622Y21196D01*
Y0D01*
G37*
G36*
X9986Y76750D02*X8088D01*
X8000Y76757D01*
X7647Y76729D01*
X7303Y76646D01*
X6975Y76511D01*
X6673Y76326D01*
X6404Y76096D01*
X6174Y75827D01*
X5989Y75525D01*
X5854Y75197D01*
X5771Y74853D01*
X5771Y74853D01*
X5743Y74500D01*
X5750Y74412D01*
Y54312D01*
X5642Y54246D01*
X5163Y53837D01*
X4754Y53358D01*
X4750Y53352D01*
Y91750D01*
X9986D01*
Y76750D01*
G37*
G36*
Y0D02*X0D01*
Y114000D01*
X9986D01*
Y113527D01*
X8588Y113417D01*
X7210Y113086D01*
X5901Y112544D01*
X4694Y111804D01*
X3616Y110884D01*
X2696Y109806D01*
X1956Y108599D01*
X1414Y107290D01*
X1083Y105912D01*
X972Y104500D01*
X1083Y103088D01*
X1414Y101710D01*
X1956Y100401D01*
X2696Y99194D01*
X3616Y98116D01*
X4694Y97196D01*
X5901Y96456D01*
X6399Y96250D01*
X3588D01*
X3500Y96257D01*
X3147Y96229D01*
X2803Y96146D01*
X2475Y96011D01*
X2173Y95826D01*
X2173Y95826D01*
X1904Y95596D01*
X1847Y95529D01*
X971Y94653D01*
X904Y94596D01*
X674Y94327D01*
X489Y94025D01*
X354Y93697D01*
X271Y93353D01*
X271Y93353D01*
X243Y93000D01*
X250Y92912D01*
Y34088D01*
X243Y34000D01*
X271Y33647D01*
X354Y33303D01*
X489Y32975D01*
X584Y32821D01*
X537Y32628D01*
X488Y32000D01*
X537Y31372D01*
X684Y30760D01*
X925Y30178D01*
X1254Y29642D01*
X1663Y29163D01*
X2142Y28754D01*
X2678Y28425D01*
X3260Y28184D01*
X3872Y28037D01*
X4500Y27988D01*
X5128Y28037D01*
X5251Y28067D01*
X9347Y23971D01*
X9404Y23904D01*
X9673Y23674D01*
X9673Y23674D01*
X9975Y23489D01*
X9986Y23485D01*
Y18527D01*
X8588Y18417D01*
X7210Y18086D01*
X5901Y17544D01*
X4694Y16804D01*
X3616Y15884D01*
X2696Y14806D01*
X1956Y13599D01*
X1414Y12290D01*
X1083Y10912D01*
X972Y9500D01*
X1083Y8088D01*
X1414Y6710D01*
X1956Y5401D01*
X2696Y4194D01*
X3616Y3116D01*
X4694Y2196D01*
X5901Y1456D01*
X7210Y914D01*
X8588Y583D01*
X9986Y473D01*
Y0D01*
G37*
G54D26*X8000Y74500D02*Y42000D01*
X14500Y51457D02*Y43323D01*
Y55500D02*Y51500D01*
Y74500D02*X8000D01*
X11000Y25500D02*X39500D01*
X5000Y31500D02*X11000Y25500D01*
X32000Y32000D02*X44000D01*
X8000Y42000D02*X18000Y32000D01*
X14500Y43323D02*X14764Y43059D01*
X19823Y38000D02*X14567Y43256D01*
X20866Y38000D02*X19823D01*
X18000Y32000D02*X19500D01*
X26000Y38000D02*X21000D01*
X2500Y34000D02*X4500Y32000D01*
X26000Y38000D02*X32000Y32000D01*
X2500Y34000D02*Y93000D01*
X41000Y79500D02*X71000D01*
X58500Y89500D02*X61000Y87000D01*
X27500Y89500D02*X58500D01*
X14500Y76500D02*X27500Y89500D01*
X14500Y74500D02*Y76500D01*
X21000Y94000D02*X3500D01*
X2500Y93000D01*
X73000Y21000D02*X64500Y12500D01*
X73000Y27000D02*X77000Y31000D01*
X73000Y21000D02*Y27000D01*
X52500Y12500D02*X64500D01*
X39500Y25500D02*X52500Y12500D01*
X44000Y32000D02*X55000Y21000D01*
G54D25*G36*
X38732Y57673D02*Y51673D01*
X44732D01*
Y57673D01*
X38732D01*
G37*
G54D27*X41732Y44673D03*
X51732D03*
Y54673D03*
G54D28*X81100Y81300D03*
X30900D03*
G54D27*X71000Y79500D03*
X56000D03*
X41000D03*
X61000Y87000D03*
X77000Y31000D03*
G54D29*X68898Y49555D03*
X82000Y9500D03*
G54D27*X63000Y5000D03*
X56500Y21000D03*
X32000Y32000D03*
X18000D03*
G54D29*X25197Y49555D03*
G54D27*X21000Y94000D03*
X14500Y74500D03*
X8000Y51000D03*
X14500Y55500D03*
X4500Y32000D03*
G54D29*X10000Y9500D03*
Y104500D03*
G54D30*G54D31*G54D30*G54D31*G54D30*G54D31*G54D32*G54D33*M02*
