G04 start of page 7 for group -4062 idx -4062 *
G04 Title: (unknown), soldermask *
G04 Creator: pcb 1.99z *
G04 CreationDate: Wed 27 Mar 2013 05:03:31 PM GMT UTC *
G04 For: nock *
G04 Format: Gerber/RS-274X *
G04 PCB-Dimensions (mil): 6000.00 5000.00 *
G04 PCB-Coordinate-Origin: lower left *
%MOIN*%
%FSLAX25Y25*%
%LNBOTTOMMASK*%
%ADD52C,0.0860*%
%ADD51C,0.0780*%
%ADD50C,0.0001*%
%ADD49C,0.0660*%
G54D49*X220000Y202500D03*
X230000D03*
X240000D03*
X250000D03*
G54D50*G36*
X186700Y205800D02*Y199200D01*
X193300D01*
Y205800D01*
X186700D01*
G37*
G54D49*X200000Y202500D03*
X210000D03*
X240000Y212500D03*
X230000D03*
X220000D03*
X210000D03*
X200000D03*
X190000D03*
X260000Y202500D03*
Y212500D03*
X250000D03*
G54D50*G36*
X255942Y236184D02*Y228384D01*
X263742D01*
Y236184D01*
X255942D01*
G37*
G54D51*X249842Y232284D03*
X239842D03*
G54D49*X270000Y202500D03*
Y212500D03*
X280000Y202500D03*
Y212500D03*
X290000Y202500D03*
X300000D03*
Y212500D03*
X290000D03*
G54D52*X295100Y319300D03*
G54D50*G36*
X291100Y253900D02*Y246100D01*
X298900D01*
Y253900D01*
X291100D01*
G37*
G54D51*X295000Y260000D03*
Y270000D03*
G54D52*X244900Y319300D03*
M02*
