M48
INCH
T38C0.119
T37C0.035
T36C0.059
T35C0.038
%
T37
X0000450Y0003200
X0000800Y0005100
X0001450Y0007450
X0001450Y0005550
X0001800Y0003200
X0002100Y0009400
X0003200Y0003200
X0004100Y0007950
X0005600Y0007950
X0005650Y0002100
X0006100Y0008700
X0006300Y0000500
X0007100Y0007950
X0007700Y0003100
T35
X0004170Y0005470
X0004170Y0004470
X0005170Y0005470
X0005170Y0004470
T36
X0003090Y0008130
X0008110Y0008130
T38
X0001000Y0010450
X0001000Y0000950
X0002520Y0004960
X0006890Y0004960
X0008200Y0000950
M30
