G04 start of page 3 for group 1 idx 1 *
G04 Title: (unknown), GND *
G04 Creator: pcb 1.99z *
G04 CreationDate: Wed 27 Mar 2013 05:03:31 PM GMT UTC *
G04 For: nock *
G04 Format: Gerber/RS-274X *
G04 PCB-Dimensions (mil): 6000.00 5000.00 *
G04 PCB-Coordinate-Origin: lower left *
%MOIN*%
%FSLAX25Y25*%
%LNBOTTOM*%
%ADD33C,0.0590*%
%ADD32C,0.0420*%
%ADD31C,0.0380*%
%ADD30C,0.0350*%
%ADD29C,0.0800*%
%ADD28C,0.0720*%
%ADD27C,0.0600*%
%ADD26C,0.0001*%
G54D26*G36*
X307500Y285000D02*Y220000D01*
X294992D01*
Y244907D01*
X298835Y244914D01*
X299065Y244969D01*
X299283Y245059D01*
X299484Y245183D01*
X299664Y245336D01*
X299817Y245516D01*
X299941Y245717D01*
X300031Y245935D01*
X300086Y246165D01*
X300100Y246400D01*
X300086Y253835D01*
X300031Y254065D01*
X299941Y254283D01*
X299817Y254484D01*
X299664Y254664D01*
X299484Y254817D01*
X299283Y254941D01*
X299065Y255031D01*
X298835Y255086D01*
X298600Y255100D01*
X296420Y255096D01*
X296581Y255135D01*
X297322Y255442D01*
X298007Y255861D01*
X298617Y256383D01*
X299139Y256993D01*
X299558Y257678D01*
X299865Y258419D01*
X300053Y259200D01*
X300100Y260000D01*
X300053Y260800D01*
X299865Y261581D01*
X299558Y262322D01*
X299139Y263007D01*
X298617Y263617D01*
X298007Y264139D01*
X297322Y264558D01*
X296581Y264865D01*
X295800Y265053D01*
X295000Y265116D01*
X294992Y265115D01*
Y285000D01*
X307500D01*
G37*
G36*
X294992Y220000D02*X282500D01*
Y285000D01*
X294992D01*
Y265115D01*
X294200Y265053D01*
X293419Y264865D01*
X292678Y264558D01*
X291993Y264139D01*
X291383Y263617D01*
X290861Y263007D01*
X290442Y262322D01*
X290135Y261581D01*
X289947Y260800D01*
X289884Y260000D01*
X289947Y259200D01*
X290135Y258419D01*
X290442Y257678D01*
X290861Y256993D01*
X291383Y256383D01*
X291993Y255861D01*
X292678Y255442D01*
X293419Y255135D01*
X293602Y255091D01*
X291165Y255086D01*
X290935Y255031D01*
X290717Y254941D01*
X290516Y254817D01*
X290336Y254664D01*
X290183Y254484D01*
X290059Y254283D01*
X289969Y254065D01*
X289914Y253835D01*
X289900Y253600D01*
X289914Y246165D01*
X289969Y245935D01*
X290059Y245717D01*
X290183Y245516D01*
X290336Y245336D01*
X290516Y245183D01*
X290717Y245059D01*
X290935Y244969D01*
X291165Y244914D01*
X291400Y244900D01*
X294992Y244907D01*
Y220000D01*
G37*
G36*
X235000Y330000D02*Y220000D01*
X182500D01*
Y330000D01*
X235000D01*
G37*
G36*
X285000Y302500D02*Y220000D01*
X254834D01*
Y228163D01*
X254901Y228001D01*
X255025Y227799D01*
X255178Y227620D01*
X255358Y227467D01*
X255559Y227343D01*
X255777Y227253D01*
X256007Y227198D01*
X256242Y227184D01*
X263678Y227198D01*
X263907Y227253D01*
X264125Y227343D01*
X264327Y227467D01*
X264506Y227620D01*
X264659Y227799D01*
X264783Y228001D01*
X264873Y228219D01*
X264928Y228448D01*
X264942Y228684D01*
X264928Y236119D01*
X264873Y236349D01*
X264783Y236567D01*
X264659Y236768D01*
X264506Y236948D01*
X264327Y237101D01*
X264125Y237224D01*
X263907Y237315D01*
X263678Y237370D01*
X263442Y237384D01*
X256007Y237370D01*
X255777Y237315D01*
X255559Y237224D01*
X255358Y237101D01*
X255178Y236948D01*
X255025Y236768D01*
X254901Y236567D01*
X254834Y236405D01*
Y302500D01*
X285000D01*
G37*
G36*
X254834Y220000D02*X232500D01*
Y302500D01*
X254834D01*
Y236405D01*
X254811Y236349D01*
X254756Y236119D01*
X254742Y235884D01*
X254746Y233703D01*
X254707Y233865D01*
X254400Y234606D01*
X253981Y235291D01*
X253459Y235901D01*
X252849Y236423D01*
X252165Y236842D01*
X251423Y237149D01*
X250642Y237337D01*
X249842Y237400D01*
X249042Y237337D01*
X248261Y237149D01*
X247520Y236842D01*
X246835Y236423D01*
X246225Y235901D01*
X245703Y235291D01*
X245284Y234606D01*
X244977Y233865D01*
X244789Y233084D01*
X244726Y232284D01*
X244789Y231484D01*
X244977Y230703D01*
X245284Y229961D01*
X245703Y229277D01*
X246225Y228666D01*
X246835Y228145D01*
X247520Y227726D01*
X248261Y227419D01*
X249042Y227231D01*
X249842Y227168D01*
X250642Y227231D01*
X251423Y227419D01*
X252165Y227726D01*
X252849Y228145D01*
X253459Y228666D01*
X253981Y229277D01*
X254400Y229961D01*
X254707Y230703D01*
X254751Y230886D01*
X254756Y228448D01*
X254811Y228219D01*
X254834Y228163D01*
Y220000D01*
G37*
G54D27*X220000Y202500D03*
X230000D03*
X240000D03*
X250000D03*
G54D26*G36*
X187000Y205500D02*Y199500D01*
X193000D01*
Y205500D01*
X187000D01*
G37*
G54D27*X200000Y202500D03*
X210000D03*
X240000Y212500D03*
X230000D03*
X220000D03*
X210000D03*
X200000D03*
X190000D03*
X260000Y202500D03*
Y212500D03*
X250000D03*
G54D26*G36*
X256242Y235884D02*Y228684D01*
X263442D01*
Y235884D01*
X256242D01*
G37*
G54D28*X249842Y232284D03*
X239842D03*
G54D27*X270000Y202500D03*
Y212500D03*
X280000Y202500D03*
Y212500D03*
X290000Y202500D03*
X300000D03*
Y212500D03*
X290000D03*
G54D29*X295100Y319300D03*
G54D26*G36*
X291400Y253600D02*Y246400D01*
X298600D01*
Y253600D01*
X291400D01*
G37*
G54D28*X295000Y260000D03*
Y270000D03*
G54D29*X244900Y319300D03*
G54D27*X205000Y227500D03*
X275000Y295000D03*
G54D30*G54D31*G54D32*G54D31*G54D33*G54D32*G54D33*M02*
