G04 start of page 2 for group 0 idx 0 *
G04 Title: (unknown), component *
G04 Creator: pcb 1.99z *
G04 CreationDate: Wed 06 Nov 2013 06:55:18 PM GMT UTC *
G04 For: commonadmin *
G04 Format: Gerber/RS-274X *
G04 PCB-Dimensions: 600000 500000 *
G04 PCB-Coordinate-Origin: lower left *
%MOIN*%
%FSLAX25Y25*%
%LNTOP*%
%ADD25C,0.0810*%
%ADD24C,0.0590*%
%ADD23C,0.0420*%
%ADD22C,0.0350*%
%ADD21R,0.1230X0.1230*%
%ADD20R,0.0200X0.0200*%
%ADD19R,0.0512X0.0512*%
%ADD18R,0.0350X0.0350*%
%ADD17C,0.0600*%
%ADD16C,0.1000*%
%ADD15C,0.0800*%
%ADD14C,0.0720*%
%ADD13C,0.0001*%
%ADD12C,0.0250*%
%ADD11C,0.0100*%
G54D11*X192500Y150000D02*X187500Y155000D01*
Y180000D01*
X198000Y150000D02*X187500D01*
X182500Y155000D01*
X177500D01*
Y150000D02*X170000D01*
X175000Y180000D02*X170000D01*
X165000Y185000D01*
G54D12*X192500Y187500D02*X195000Y185000D01*
X180000Y187500D02*X192500D01*
X200000Y167500D02*X195000Y172500D01*
Y185000D01*
G54D11*X165000Y222500D02*X167500Y225000D01*
Y235000D01*
X179310Y225000D02*Y235000D01*
X182500Y221810D02*X179310Y225000D01*
X190000Y234310D02*Y240000D01*
X185000Y245000D01*
X162500D01*
X175000Y210000D02*X165000D01*
X143190Y211810D02*X145000Y210000D01*
Y200000D02*X152500D01*
X155000Y202500D01*
X120000Y220000D02*X125000D01*
X132500Y215690D02*X129310D01*
X125000Y220000D01*
X143190Y211810D02*Y228190D01*
X135000Y230000D02*X132500Y227500D01*
X143190Y228190D02*X145000Y230000D01*
X135000D01*
X145000Y240000D02*X152500D01*
X155000Y237500D01*
X162500Y245000D02*X155000Y237500D01*
Y202500D02*Y237500D01*
X157500Y141810D02*Y144310D01*
X149310Y152500D02*X157500Y144310D01*
X149310Y152500D02*X112500D01*
G54D12*X115000Y170000D02*X175000D01*
X130000Y147500D02*X132500Y145000D01*
G54D11*X187500Y217500D02*Y207500D01*
X190000Y205000D01*
X187500D02*Y205250D01*
X190000Y222500D02*Y220000D01*
X187500Y217500D01*
Y205250D02*X185250Y207500D01*
Y217250D01*
X182500Y220000D01*
Y221810D01*
X195500Y205000D02*X187500D01*
G54D12*X190000Y192500D02*X210000D01*
Y210000D02*X195500D01*
G54D11*X165000Y222500D02*Y185000D01*
G54D12*X175000Y205000D02*X180000D01*
X185000Y200000D01*
X175000D02*Y192500D01*
X180000Y187500D01*
X185000Y200000D02*Y197500D01*
X190000Y192500D02*X185000Y197500D01*
G54D11*X170000Y150000D02*X167500Y147500D01*
Y142500D01*
X170000Y140000D01*
X182500D01*
G54D12*X177500Y145000D02*X187500D01*
G54D11*X182500Y140000D02*X185000Y137500D01*
G54D12*X187500Y145000D02*X192500Y140000D01*
X210000D01*
G54D11*X162500Y107500D02*X167500Y112500D01*
X174750D01*
X162500Y107500D02*X150000D01*
X160000Y119310D02*X165690D01*
X150000Y120000D02*X159310D01*
X160000Y119310D01*
G54D12*X142914Y107500D02*Y120000D01*
X132500Y115000D02*X142914D01*
X132500Y130000D02*Y127500D01*
X137500Y137500D02*X140000Y135000D01*
G54D11*X150000Y107500D02*Y105000D01*
X157500Y97500D01*
G54D12*X190000Y102500D02*Y100000D01*
X195250Y117500D02*X210000D01*
X212500Y120000D02*Y122500D01*
X198000Y155000D02*X210000D01*
X220000Y167500D02*X200000D01*
X112500Y80000D02*X105000D01*
X112500Y65000D02*X105000D01*
X112500Y70000D02*X130000D01*
X132500Y67500D01*
X105000Y80000D02*Y50000D01*
X112500D01*
Y55000D02*X130000D01*
X132500Y52500D01*
Y50000D01*
X112500Y60000D02*X137500D01*
X140000Y57500D01*
X112500Y157500D02*X105000D01*
Y127500D01*
X112500D01*
Y142500D02*X105000D01*
X112500Y80000D02*Y127500D01*
X115000Y170000D02*X112500Y167500D01*
Y157500D01*
Y132500D02*X130000D01*
X132500Y130000D01*
X112500Y137500D02*X137500D01*
X112500Y147500D02*X130000D01*
G54D11*X157500Y85690D02*Y83190D01*
X149310Y75000D02*X157500Y83190D01*
X149310Y75000D02*X112500D01*
X190000Y65000D02*X198000D01*
X187500Y67500D02*X190000Y65000D01*
X192500D02*X190000Y67500D01*
G54D12*X177500Y65000D02*X182500D01*
G54D11*X177500Y70000D02*X167500D01*
X190000Y67500D02*Y77500D01*
X197500Y85000D01*
X167500Y82500D02*X170000Y85000D01*
X187500Y67500D02*Y79310D01*
X181810Y85000D01*
G54D12*X205000Y70000D02*X210000Y75000D01*
G54D11*X225000Y77500D02*X219310Y83190D01*
X170000Y85000D02*Y97500D01*
X181810Y85000D02*Y97500D01*
G54D12*X182500Y65000D02*X187500Y60000D01*
Y57500D01*
X192500Y52500D02*X187500Y57500D01*
G54D11*X210000Y42500D02*X177500D01*
X167500Y52500D01*
G54D12*X180000Y50000D02*X182500D01*
G54D11*X225000Y57500D02*X210000Y42500D01*
G54D12*X198000Y70000D02*X205000D01*
X192500Y52500D02*X205000D01*
X210000Y57500D01*
Y62500D01*
X212500Y65000D01*
G54D11*X225000Y57500D02*Y77500D01*
G54D12*X177500Y60000D02*Y52500D01*
G54D11*X167500D02*Y82500D01*
G54D12*X177500Y52500D02*X180000Y50000D01*
G54D11*X165690Y119310D02*X167500Y117500D01*
X174750D01*
Y122500D02*X170000D01*
X167500Y125000D01*
X150000Y120000D02*Y122500D01*
X167500Y125000D02*Y132500D01*
X190690D02*X179310D01*
X185000Y137500D02*Y132500D01*
X150000Y122500D02*X157500Y130000D01*
G54D12*X185000Y107500D02*X174750D01*
X185000D02*X190000Y102500D01*
G54D11*X197500Y105250D02*X195250Y107500D01*
Y112500D02*X205000D01*
X207500Y110000D01*
Y100000D01*
X197500Y85000D02*Y105250D01*
X219310Y100000D02*Y83190D01*
X195250Y122500D02*X200000D01*
X202500Y125000D01*
G54D12*X210000Y117500D02*X212500Y120000D01*
G54D11*X202500Y125000D02*Y132500D01*
G54D12*X220000Y167500D02*X222500Y165000D01*
G54D11*X230000Y130000D02*Y140000D01*
G54D12*X210000D02*X222500Y152500D01*
Y165000D01*
G54D11*X232500Y115000D02*X227500D01*
X225000Y117500D01*
Y127500D01*
X230000Y130000D02*X227500D01*
X225000Y127500D01*
X241810Y130000D02*Y113440D01*
X245250Y110000D02*X241810Y113440D01*
G54D12*X253000Y115000D02*X260000D01*
X255000Y95000D02*X252500Y97500D01*
X235000D01*
X232500Y100000D01*
Y105000D01*
G54D11*Y110000D02*X219310D01*
X245250D02*X262500D01*
X265000Y107500D01*
X322500Y115000D02*X315000D01*
X322500Y110000D02*X307500D01*
G54D12*X322500Y105000D02*X327500D01*
G54D11*X312500Y117500D02*Y127500D01*
X315000Y130000D01*
X320000D01*
Y140000D01*
X331810Y115000D02*Y130000D01*
G54D12*X315000Y147500D02*X350000D01*
G54D11*X318000Y80000D02*Y75000D01*
X307500D02*Y80000D01*
X312500Y70000D02*X307500Y75000D01*
X318000Y70000D02*X312500D01*
X318000Y75000D02*X325000D01*
X330000Y80000D01*
X327500Y90000D02*X322500Y95000D01*
Y97500D01*
X320000Y100000D01*
G54D12*X318000Y85000D02*Y89500D01*
X315000Y92500D01*
X260000Y115000D02*X267500Y122500D01*
G54D11*X262500Y92500D02*Y72500D01*
X265000Y70000D01*
X320000Y100000D02*X270000D01*
G54D12*X275000Y95000D02*X297500D01*
X300000Y92500D01*
G54D11*X262500D02*X270000Y100000D01*
G54D12*Y89310D02*Y90000D01*
X275000Y95000D01*
G54D11*X336810Y110000D02*X331810Y115000D01*
G54D12*X327500Y105000D02*X335000Y97500D01*
G54D11*X336810Y110000D02*X352500D01*
X355000Y107500D01*
X352500Y100000D02*X350000Y97500D01*
G54D12*X343000Y115000D02*X350000D01*
G54D11*Y97500D02*Y92500D01*
X341810Y80000D02*X357500D01*
X369310D02*X382500D01*
X402500Y100000D02*X382500Y80000D01*
X352500Y100000D02*X387500D01*
X350000Y92500D02*X347500Y90000D01*
X327500D01*
X366810Y107500D02*X377500D01*
X290000Y77500D02*X270000D01*
X265000Y70000D02*X287500D01*
X302500Y85000D02*X307500Y80000D01*
X292500Y85000D02*X302500D01*
X297500Y80000D02*X292500D01*
Y85000D02*X288190Y89310D01*
X282500D02*X288190D01*
X292500Y80000D02*X290000Y77500D01*
X297500Y75000D02*X292500D01*
X287500Y70000D02*X292500Y75000D01*
G54D12*X297500Y70000D02*Y67500D01*
X292500Y62500D01*
X257500D01*
X255000Y65000D01*
Y95000D01*
G54D11*X402500Y152500D02*X397500Y157500D01*
X362500D01*
G54D12*X372224Y129310D02*X367500Y124586D01*
X372086Y147500D02*Y144586D01*
X365000Y137500D01*
G54D11*Y147500D02*Y150000D01*
X372500Y157500D01*
G54D12*X390000Y129310D02*X372224D01*
G54D11*X366810Y107500D02*Y116810D01*
X387500Y100000D02*X390000Y102500D01*
Y117500D01*
X367500D02*X377500D01*
G54D12*X350000Y147500D02*X360000Y137500D01*
X387500D01*
G54D11*X402500Y100000D02*Y152500D01*
G54D12*X387500Y137500D02*X390000Y135000D01*
Y129310D01*
G54D11*X277500Y117500D02*Y108190D01*
X276810Y107500D01*
X287500D02*X276810D01*
X277500Y117500D02*X287500D01*
G54D12*X241810Y140000D02*X307500D01*
X300000Y129310D02*X282224D01*
G54D11*X307500Y110000D02*X305000Y107500D01*
X299310D01*
Y116810D01*
X300000Y117500D01*
X315000Y115000D02*X312500Y117500D01*
G54D12*X307500Y140000D02*X315000Y147500D01*
X317500Y212000D02*Y190000D01*
X300000Y129310D02*Y140000D01*
X332500Y147500D02*Y140690D01*
X331810Y140000D01*
G54D11*X362500Y190000D02*X367500D01*
X366810Y116810D02*X367500Y117500D01*
G54D12*X362500Y210000D02*X360000Y212500D01*
Y227500D01*
X352500Y235000D02*X360000Y227500D01*
G54D11*Y187500D02*X362500Y190000D01*
G54D12*X350000Y115000D02*X357500Y122500D01*
G54D11*X362500Y157500D02*X360000Y160000D01*
Y187500D01*
G54D12*X290000Y205690D02*Y195690D01*
X270000Y205690D02*X290000D01*
X274724Y217500D02*X290000D01*
X270000Y195690D02*X290000D01*
X270000D02*Y205690D01*
X317500Y167000D02*X306880D01*
X290000Y183880D01*
X274724D02*X290000D01*
X282224Y129310D02*X277500Y124586D01*
X274724Y217500D02*X269724Y212500D01*
X274724Y183880D02*X268604Y190000D01*
X242500D01*
X269724Y212500D02*X242500D01*
X247500Y202500D02*X270000D01*
X367500Y210000D02*X362500D01*
X367500Y205000D02*X357500D01*
X352500Y210000D01*
X367500Y195000D02*X347500D01*
X367500D02*Y200000D01*
X307500Y235000D02*X290000Y217500D01*
X307500Y235000D02*X352500D01*
X367500Y185000D02*X375000D01*
Y215000D01*
X367500D01*
Y200000D02*X375000D01*
X290000D02*X342500D01*
X347500Y195000D02*X342500Y200000D01*
G54D13*G36*
X141400Y233600D02*Y226400D01*
X148600D01*
Y233600D01*
X141400D01*
G37*
G54D14*X145000Y240000D03*
Y250000D03*
G54D13*G36*
X141400Y213600D02*Y206400D01*
X148600D01*
Y213600D01*
X141400D01*
G37*
G54D14*X145000Y200000D03*
Y190000D03*
G54D15*X103200Y167600D03*
Y117400D03*
Y90100D03*
Y39900D03*
X376800Y174900D03*
Y225100D03*
G54D13*G36*
X117000Y223000D02*Y217000D01*
X123000D01*
Y223000D01*
X117000D01*
G37*
G54D16*X100000Y240000D03*
G54D17*X120000Y210000D03*
G54D16*X100000Y200000D03*
G54D18*X110350Y50000D02*X114650D01*
X110350Y55000D02*X114650D01*
X110350Y60000D02*X114650D01*
X110350Y65000D02*X114650D01*
X110350Y70000D02*X114650D01*
X110350Y75000D02*X114650D01*
X110350Y80000D02*X114650D01*
G54D19*X179310Y133681D02*Y131319D01*
X190690Y133681D02*Y131319D01*
G54D20*X171500Y122500D02*X178000D01*
X171500Y117500D02*X178000D01*
X171500Y112500D02*X178000D01*
X171500Y107500D02*X178000D01*
X192000D02*X198500D01*
X192000Y112500D02*X198500D01*
X192000Y117500D02*X198500D01*
X192000Y122500D02*X198500D01*
G54D19*X207500Y101181D02*Y98819D01*
Y111181D02*Y108819D01*
X219310Y101181D02*Y98819D01*
Y111181D02*Y108819D01*
G54D20*X174250Y75000D02*X180750D01*
X174250Y70000D02*X180750D01*
X174250Y65000D02*X180750D01*
X174250Y60000D02*X180750D01*
X194750D02*X201250D01*
X194750Y65000D02*X201250D01*
X194750Y70000D02*X201250D01*
X194750Y75000D02*X201250D01*
G54D19*X181810Y98681D02*Y96319D01*
X170000Y98681D02*Y96319D01*
X181810Y87755D02*Y82245D01*
X170000Y87755D02*Y82245D01*
G54D20*X174250Y160000D02*X180750D01*
X174250Y155000D02*X180750D01*
X174250Y150000D02*X180750D01*
X174250Y145000D02*X180750D01*
G54D19*X202500Y133681D02*Y131319D01*
G54D20*X194750Y145000D02*X201250D01*
X194750Y150000D02*X201250D01*
X194750Y155000D02*X201250D01*
X194750Y160000D02*X201250D01*
G54D19*X186810Y181181D02*Y178819D01*
Y171181D02*Y168819D01*
X175000Y171181D02*Y168819D01*
G54D20*X192250Y200000D02*X198750D01*
X192250Y205000D02*X198750D01*
X192250Y210000D02*X198750D01*
X192250Y215000D02*X198750D01*
G54D19*X188819Y234310D02*X191181D01*
X188819Y222500D02*X191181D01*
X158819Y119310D02*X161181D01*
X158819Y107500D02*X161181D01*
X167500Y133681D02*Y131319D01*
X150000Y120393D02*Y119607D01*
X156319Y130000D02*X158681D01*
X156319Y141810D02*X158681D01*
X142914Y120393D02*Y119607D01*
X150000Y107893D02*Y107107D01*
X156319Y85690D02*X158681D01*
X156319Y97500D02*X158681D01*
X142914Y107893D02*Y107107D01*
G54D18*X110350Y127500D02*X114650D01*
X110350Y132500D02*X114650D01*
X110350Y137500D02*X114650D01*
X110350Y142500D02*X114650D01*
X110350Y147500D02*X114650D01*
X110350Y152500D02*X114650D01*
X110350Y157500D02*X114650D01*
G54D19*X175000Y181181D02*Y178819D01*
X179310Y226181D02*Y223819D01*
X167500Y226181D02*Y223819D01*
X179310Y236181D02*Y233819D01*
X167500Y236181D02*Y233819D01*
G54D20*X171750Y215000D02*X178250D01*
X171750Y210000D02*X178250D01*
X171750Y205000D02*X178250D01*
X171750Y200000D02*X178250D01*
G54D19*X143190Y221181D02*Y218819D01*
X131319Y215690D02*X133681D01*
X131319Y227500D02*X133681D01*
X155000Y221181D02*Y218819D01*
G54D20*X229250Y120000D02*X235750D01*
X249750D02*X256250D01*
G54D19*X230000Y141181D02*Y138819D01*
X241810Y141181D02*Y138819D01*
X230000Y131181D02*Y128819D01*
X241810Y131181D02*Y128819D01*
G54D20*X229250Y115000D02*X235750D01*
X229250Y110000D02*X235750D01*
X229250Y105000D02*X235750D01*
X249750D02*X256250D01*
X249750Y110000D02*X256250D01*
X249750Y115000D02*X256250D01*
G54D19*X265000Y108681D02*Y106319D01*
G54D21*X311900Y167000D02*X323100D01*
X311900Y190000D02*X323100D01*
G54D19*X288819Y217500D02*X291181D01*
X278819D02*X281181D01*
X269607Y212776D02*X270393D01*
X288819Y205690D02*X291181D01*
X278819D02*X281181D01*
X269607Y205690D02*X270393D01*
X288819Y195690D02*X291181D01*
X278819D02*X281181D01*
X269607Y195690D02*X270393D01*
X288819Y183880D02*X291181D01*
X278819D02*X281181D01*
X269607Y188604D02*X270393D01*
X276810Y108681D02*Y106319D01*
X268819Y89310D02*X271181D01*
X277107Y124586D02*X277893D01*
X286319Y129310D02*X288681D01*
X277107Y117500D02*X277893D01*
X286319Y117500D02*X288681D01*
X268819Y77500D02*X271181D01*
X281319D02*X283681D01*
X281319Y89310D02*X283681D01*
G54D20*X294250Y85000D02*X300750D01*
X294250Y80000D02*X300750D01*
G54D19*X287500Y110255D02*Y104745D01*
X299310Y110255D02*Y104745D01*
X320000Y131181D02*Y128819D01*
Y141181D02*Y138819D01*
G54D20*X319250Y120000D02*X325750D01*
X319250Y115000D02*X325750D01*
X319250Y110000D02*X325750D01*
X319250Y105000D02*X325750D01*
G54D19*X331810Y131181D02*Y128819D01*
Y141181D02*Y138819D01*
X298819Y129310D02*X301181D01*
X298819Y117500D02*X301181D01*
G54D18*X365350Y215000D02*X369650D01*
G54D12*X347500Y230000D02*Y217500D01*
X345000D02*X350000D01*
Y230000D02*Y217500D01*
X337500Y230000D02*X350000D01*
G54D18*X365350Y210000D02*X369650D01*
X365350Y205000D02*X369650D01*
X365350Y200000D02*X369650D01*
X365350Y195000D02*X369650D01*
X365350Y190000D02*X369650D01*
X365350Y185000D02*X369650D01*
G54D12*X337500Y195000D02*X352500D01*
X350000D02*Y162500D01*
X352500Y195000D02*Y162500D01*
X347500Y195000D02*Y162500D01*
X345000Y230000D02*Y162500D01*
X342500Y230000D02*Y162500D01*
X340000Y230000D02*Y162500D01*
X337500Y230000D02*Y162500D01*
X352500D01*
G54D20*X294250Y75000D02*X300750D01*
X314750D02*X321250D01*
X314750Y80000D02*X321250D01*
X314750Y85000D02*X321250D01*
X294250Y70000D02*X300750D01*
X314750D02*X321250D01*
G54D19*X330000Y81181D02*Y78819D01*
X341810Y81181D02*Y78819D01*
X357500Y82755D02*Y77245D01*
X369310Y82755D02*Y77245D01*
G54D20*X339750Y105000D02*X346250D01*
X339750Y110000D02*X346250D01*
X339750Y115000D02*X346250D01*
X339750Y120000D02*X346250D01*
G54D19*X355000Y108681D02*Y106319D01*
X367107Y124586D02*X367893D01*
X388819Y129310D02*X391181D01*
X376319D02*X378681D01*
X367107Y117500D02*X367893D01*
X388819Y117500D02*X391181D01*
X376319D02*X378681D01*
X366810Y108681D02*Y106319D01*
X377500Y110255D02*Y104745D01*
X389310Y110255D02*Y104745D01*
X365000Y147893D02*Y147107D01*
X372086Y147893D02*Y147107D01*
G54D21*X311900Y212000D02*X323100D01*
X311900Y235000D02*X323100D01*
G54D17*X212500Y65000D03*
X210000Y75000D03*
X182500Y50000D03*
X190000Y100000D03*
X210000Y155000D03*
X197500Y170000D03*
X132500Y115000D03*
Y67500D03*
Y50000D03*
X140000Y57500D03*
Y135000D03*
X132500Y127500D03*
Y145000D03*
X352500Y210000D03*
X335000Y97500D03*
X357500Y122500D03*
X267500D03*
X255000Y82500D03*
X212500Y122500D03*
X260000Y140000D03*
X300000Y92500D03*
X315000D03*
X210000Y192500D03*
X242500Y190000D03*
X210000Y210000D03*
X242500Y212500D03*
X247500Y202500D03*
X295000Y175000D03*
G54D22*G54D23*G54D24*G54D22*G54D25*G54D22*G54D25*M02*
