G04 start of page 4 for group 2 idx 4 *
G04 Title: (unknown), Vee *
G04 Creator: pcb 1.99z *
G04 CreationDate: Tue 15 Oct 2013 04:12:06 PM GMT UTC *
G04 For: commonadmin *
G04 Format: Gerber/RS-274X *
G04 PCB-Dimensions: 600000 500000 *
G04 PCB-Coordinate-Origin: lower left *
%MOIN*%
%FSLAX25Y25*%
%LNGROUP2*%
%ADD43C,0.0810*%
%ADD42C,0.0590*%
%ADD41C,0.0420*%
%ADD40C,0.0350*%
%ADD39C,0.0600*%
%ADD38C,0.1000*%
%ADD37C,0.0800*%
%ADD36C,0.0720*%
%ADD35C,0.0001*%
G54D35*G36*
X247494Y257500D02*X260000D01*
Y144012D01*
X259372Y143963D01*
X258760Y143816D01*
X258178Y143575D01*
X257642Y143246D01*
X257163Y142837D01*
X256754Y142358D01*
X256425Y141822D01*
X256184Y141240D01*
X256037Y140628D01*
X255988Y140000D01*
X256037Y139372D01*
X256184Y138760D01*
X256425Y138178D01*
X256754Y137642D01*
X257163Y137163D01*
X257642Y136754D01*
X258178Y136425D01*
X258760Y136184D01*
X259372Y136037D01*
X260000Y135988D01*
Y25000D01*
X247494D01*
Y198488D01*
X247500Y198488D01*
X248128Y198537D01*
X248740Y198684D01*
X249322Y198925D01*
X249858Y199254D01*
X250337Y199663D01*
X250746Y200142D01*
X251075Y200678D01*
X251316Y201260D01*
X251463Y201872D01*
X251500Y202500D01*
X251463Y203128D01*
X251316Y203740D01*
X251075Y204322D01*
X250746Y204858D01*
X250337Y205337D01*
X249858Y205746D01*
X249322Y206075D01*
X248740Y206316D01*
X248128Y206463D01*
X247500Y206512D01*
X247494Y206512D01*
Y257500D01*
G37*
G36*
X242494D02*X247494D01*
Y206512D01*
X246872Y206463D01*
X246260Y206316D01*
X245678Y206075D01*
X245142Y205746D01*
X244663Y205337D01*
X244254Y204858D01*
X243925Y204322D01*
X243684Y203740D01*
X243537Y203128D01*
X243488Y202500D01*
X243537Y201872D01*
X243684Y201260D01*
X243925Y200678D01*
X244254Y200142D01*
X244663Y199663D01*
X245142Y199254D01*
X245678Y198925D01*
X246260Y198684D01*
X246872Y198537D01*
X247494Y198488D01*
Y25000D01*
X242494D01*
Y185988D01*
X242500Y185988D01*
X243128Y186037D01*
X243740Y186184D01*
X244322Y186425D01*
X244858Y186754D01*
X245337Y187163D01*
X245746Y187642D01*
X246075Y188178D01*
X246316Y188760D01*
X246463Y189372D01*
X246500Y190000D01*
X246463Y190628D01*
X246316Y191240D01*
X246075Y191822D01*
X245746Y192358D01*
X245337Y192837D01*
X244858Y193246D01*
X244322Y193575D01*
X243740Y193816D01*
X243128Y193963D01*
X242500Y194012D01*
X242494Y194012D01*
Y257500D01*
G37*
G36*
X212494D02*X242494D01*
Y194012D01*
X241872Y193963D01*
X241260Y193816D01*
X240678Y193575D01*
X240142Y193246D01*
X239663Y192837D01*
X239254Y192358D01*
X238925Y191822D01*
X238684Y191240D01*
X238537Y190628D01*
X238488Y190000D01*
X238537Y189372D01*
X238684Y188760D01*
X238925Y188178D01*
X239254Y187642D01*
X239663Y187163D01*
X240142Y186754D01*
X240678Y186425D01*
X241260Y186184D01*
X241872Y186037D01*
X242494Y185988D01*
Y25000D01*
X212494D01*
Y60988D01*
X212500Y60988D01*
X213128Y61037D01*
X213740Y61184D01*
X214322Y61425D01*
X214858Y61754D01*
X215337Y62163D01*
X215746Y62642D01*
X216075Y63178D01*
X216316Y63760D01*
X216463Y64372D01*
X216500Y65000D01*
X216463Y65628D01*
X216316Y66240D01*
X216075Y66822D01*
X215746Y67358D01*
X215337Y67837D01*
X214858Y68246D01*
X214322Y68575D01*
X213740Y68816D01*
X213128Y68963D01*
X212500Y69012D01*
X212494Y69012D01*
Y71870D01*
X212837Y72163D01*
X213246Y72642D01*
X213575Y73178D01*
X213816Y73760D01*
X213963Y74372D01*
X214000Y75000D01*
X213963Y75628D01*
X213816Y76240D01*
X213575Y76822D01*
X213246Y77358D01*
X212837Y77837D01*
X212494Y78130D01*
Y118488D01*
X212500Y118488D01*
X213128Y118537D01*
X213740Y118684D01*
X214322Y118925D01*
X214858Y119254D01*
X215337Y119663D01*
X215746Y120142D01*
X216075Y120678D01*
X216316Y121260D01*
X216463Y121872D01*
X216500Y122500D01*
X216463Y123128D01*
X216316Y123740D01*
X216075Y124322D01*
X215746Y124858D01*
X215337Y125337D01*
X214858Y125746D01*
X214322Y126075D01*
X213740Y126316D01*
X213128Y126463D01*
X212500Y126512D01*
X212494Y126512D01*
Y151870D01*
X212837Y152163D01*
X213246Y152642D01*
X213575Y153178D01*
X213816Y153760D01*
X213963Y154372D01*
X214000Y155000D01*
X213963Y155628D01*
X213816Y156240D01*
X213575Y156822D01*
X213246Y157358D01*
X212837Y157837D01*
X212494Y158130D01*
Y189370D01*
X212837Y189663D01*
X213246Y190142D01*
X213575Y190678D01*
X213816Y191260D01*
X213963Y191872D01*
X214000Y192500D01*
X213963Y193128D01*
X213816Y193740D01*
X213575Y194322D01*
X213246Y194858D01*
X212837Y195337D01*
X212494Y195630D01*
Y206870D01*
X212837Y207163D01*
X213246Y207642D01*
X213575Y208178D01*
X213816Y208760D01*
X213963Y209372D01*
X214000Y210000D01*
X213963Y210628D01*
X213816Y211240D01*
X213575Y211822D01*
X213246Y212358D01*
X212837Y212837D01*
X212494Y213130D01*
Y257500D01*
G37*
G36*
X139994Y199006D02*X140135Y198419D01*
X140442Y197678D01*
X140861Y196993D01*
X141383Y196383D01*
X141993Y195861D01*
X142678Y195442D01*
X143419Y195135D01*
X143980Y195000D01*
X143419Y194865D01*
X142678Y194558D01*
X141993Y194139D01*
X141383Y193617D01*
X140861Y193007D01*
X140442Y192322D01*
X140135Y191581D01*
X139994Y190994D01*
Y199006D01*
G37*
G36*
Y205875D02*X140059Y205717D01*
X140183Y205516D01*
X140336Y205336D01*
X140516Y205183D01*
X140717Y205059D01*
X140935Y204969D01*
X141165Y204914D01*
X141400Y204900D01*
X143580Y204904D01*
X143419Y204865D01*
X142678Y204558D01*
X141993Y204139D01*
X141383Y203617D01*
X140861Y203007D01*
X140442Y202322D01*
X140135Y201581D01*
X139994Y200994D01*
Y205875D01*
G37*
G36*
Y239006D02*X140135Y238419D01*
X140442Y237678D01*
X140861Y236993D01*
X141383Y236383D01*
X141993Y235861D01*
X142678Y235442D01*
X143419Y235135D01*
X143602Y235091D01*
X141165Y235086D01*
X140935Y235031D01*
X140717Y234941D01*
X140516Y234817D01*
X140336Y234664D01*
X140183Y234484D01*
X140059Y234283D01*
X139994Y234125D01*
Y239006D01*
G37*
G36*
Y249006D02*X140135Y248419D01*
X140442Y247678D01*
X140861Y246993D01*
X141383Y246383D01*
X141993Y245861D01*
X142678Y245442D01*
X143419Y245135D01*
X143980Y245000D01*
X143419Y244865D01*
X142678Y244558D01*
X141993Y244139D01*
X141383Y243617D01*
X140861Y243007D01*
X140442Y242322D01*
X140135Y241581D01*
X139994Y240994D01*
Y249006D01*
G37*
G36*
Y257500D02*X212494D01*
Y213130D01*
X212358Y213246D01*
X211822Y213575D01*
X211240Y213816D01*
X210628Y213963D01*
X210000Y214012D01*
X209372Y213963D01*
X208760Y213816D01*
X208178Y213575D01*
X207642Y213246D01*
X207163Y212837D01*
X206754Y212358D01*
X206425Y211822D01*
X206184Y211240D01*
X206037Y210628D01*
X205988Y210000D01*
X206037Y209372D01*
X206184Y208760D01*
X206425Y208178D01*
X206754Y207642D01*
X207163Y207163D01*
X207642Y206754D01*
X208178Y206425D01*
X208760Y206184D01*
X209372Y206037D01*
X210000Y205988D01*
X210628Y206037D01*
X211240Y206184D01*
X211822Y206425D01*
X212358Y206754D01*
X212494Y206870D01*
Y195630D01*
X212358Y195746D01*
X211822Y196075D01*
X211240Y196316D01*
X210628Y196463D01*
X210000Y196512D01*
X209372Y196463D01*
X208760Y196316D01*
X208178Y196075D01*
X207642Y195746D01*
X207163Y195337D01*
X206754Y194858D01*
X206425Y194322D01*
X206184Y193740D01*
X206037Y193128D01*
X205988Y192500D01*
X206037Y191872D01*
X206184Y191260D01*
X206425Y190678D01*
X206754Y190142D01*
X207163Y189663D01*
X207642Y189254D01*
X208178Y188925D01*
X208760Y188684D01*
X209372Y188537D01*
X210000Y188488D01*
X210628Y188537D01*
X211240Y188684D01*
X211822Y188925D01*
X212358Y189254D01*
X212494Y189370D01*
Y158130D01*
X212358Y158246D01*
X211822Y158575D01*
X211240Y158816D01*
X210628Y158963D01*
X210000Y159012D01*
X209372Y158963D01*
X208760Y158816D01*
X208178Y158575D01*
X207642Y158246D01*
X207163Y157837D01*
X206754Y157358D01*
X206425Y156822D01*
X206184Y156240D01*
X206037Y155628D01*
X205988Y155000D01*
X206037Y154372D01*
X206184Y153760D01*
X206425Y153178D01*
X206754Y152642D01*
X207163Y152163D01*
X207642Y151754D01*
X208178Y151425D01*
X208760Y151184D01*
X209372Y151037D01*
X210000Y150988D01*
X210628Y151037D01*
X211240Y151184D01*
X211822Y151425D01*
X212358Y151754D01*
X212494Y151870D01*
Y126512D01*
X211872Y126463D01*
X211260Y126316D01*
X210678Y126075D01*
X210142Y125746D01*
X209663Y125337D01*
X209254Y124858D01*
X208925Y124322D01*
X208684Y123740D01*
X208537Y123128D01*
X208488Y122500D01*
X208537Y121872D01*
X208684Y121260D01*
X208925Y120678D01*
X209254Y120142D01*
X209663Y119663D01*
X210142Y119254D01*
X210678Y118925D01*
X211260Y118684D01*
X211872Y118537D01*
X212494Y118488D01*
Y78130D01*
X212358Y78246D01*
X211822Y78575D01*
X211240Y78816D01*
X210628Y78963D01*
X210000Y79012D01*
X209372Y78963D01*
X208760Y78816D01*
X208178Y78575D01*
X207642Y78246D01*
X207163Y77837D01*
X206754Y77358D01*
X206425Y76822D01*
X206184Y76240D01*
X206037Y75628D01*
X205988Y75000D01*
X206037Y74372D01*
X206184Y73760D01*
X206425Y73178D01*
X206754Y72642D01*
X207163Y72163D01*
X207642Y71754D01*
X208178Y71425D01*
X208760Y71184D01*
X209372Y71037D01*
X210000Y70988D01*
X210628Y71037D01*
X211240Y71184D01*
X211822Y71425D01*
X212358Y71754D01*
X212494Y71870D01*
Y69012D01*
X211872Y68963D01*
X211260Y68816D01*
X210678Y68575D01*
X210142Y68246D01*
X209663Y67837D01*
X209254Y67358D01*
X208925Y66822D01*
X208684Y66240D01*
X208537Y65628D01*
X208488Y65000D01*
X208537Y64372D01*
X208684Y63760D01*
X208925Y63178D01*
X209254Y62642D01*
X209663Y62163D01*
X210142Y61754D01*
X210678Y61425D01*
X211260Y61184D01*
X211872Y61037D01*
X212494Y60988D01*
Y25000D01*
X139994D01*
Y53488D01*
X140000Y53488D01*
X140628Y53537D01*
X141240Y53684D01*
X141822Y53925D01*
X142358Y54254D01*
X142837Y54663D01*
X143246Y55142D01*
X143575Y55678D01*
X143816Y56260D01*
X143963Y56872D01*
X144000Y57500D01*
X143963Y58128D01*
X143816Y58740D01*
X143575Y59322D01*
X143246Y59858D01*
X142837Y60337D01*
X142358Y60746D01*
X141822Y61075D01*
X141240Y61316D01*
X140628Y61463D01*
X140000Y61512D01*
X139994Y61512D01*
Y130988D01*
X140000Y130988D01*
X140628Y131037D01*
X141240Y131184D01*
X141822Y131425D01*
X142358Y131754D01*
X142837Y132163D01*
X143246Y132642D01*
X143575Y133178D01*
X143816Y133760D01*
X143963Y134372D01*
X144000Y135000D01*
X143963Y135628D01*
X143816Y136240D01*
X143575Y136822D01*
X143246Y137358D01*
X142837Y137837D01*
X142358Y138246D01*
X141822Y138575D01*
X141240Y138816D01*
X140628Y138963D01*
X140000Y139012D01*
X139994Y139012D01*
Y189006D01*
X140135Y188419D01*
X140442Y187678D01*
X140861Y186993D01*
X141383Y186383D01*
X141993Y185861D01*
X142678Y185442D01*
X143419Y185135D01*
X144200Y184947D01*
X145000Y184884D01*
X145800Y184947D01*
X146581Y185135D01*
X147322Y185442D01*
X148007Y185861D01*
X148617Y186383D01*
X149139Y186993D01*
X149558Y187678D01*
X149865Y188419D01*
X150053Y189200D01*
X150100Y190000D01*
X150053Y190800D01*
X149865Y191581D01*
X149558Y192322D01*
X149139Y193007D01*
X148617Y193617D01*
X148007Y194139D01*
X147322Y194558D01*
X146581Y194865D01*
X146020Y195000D01*
X146581Y195135D01*
X147322Y195442D01*
X148007Y195861D01*
X148617Y196383D01*
X149139Y196993D01*
X149558Y197678D01*
X149865Y198419D01*
X150053Y199200D01*
X150100Y200000D01*
X150053Y200800D01*
X149865Y201581D01*
X149558Y202322D01*
X149139Y203007D01*
X148617Y203617D01*
X148007Y204139D01*
X147322Y204558D01*
X146581Y204865D01*
X146398Y204909D01*
X148835Y204914D01*
X149065Y204969D01*
X149283Y205059D01*
X149484Y205183D01*
X149664Y205336D01*
X149817Y205516D01*
X149941Y205717D01*
X150031Y205935D01*
X150086Y206165D01*
X150100Y206400D01*
X150086Y213835D01*
X150031Y214065D01*
X149941Y214283D01*
X149817Y214484D01*
X149664Y214664D01*
X149484Y214817D01*
X149283Y214941D01*
X149065Y215031D01*
X148835Y215086D01*
X148600Y215100D01*
X141165Y215086D01*
X140935Y215031D01*
X140717Y214941D01*
X140516Y214817D01*
X140336Y214664D01*
X140183Y214484D01*
X140059Y214283D01*
X139994Y214125D01*
Y225875D01*
X140059Y225717D01*
X140183Y225516D01*
X140336Y225336D01*
X140516Y225183D01*
X140717Y225059D01*
X140935Y224969D01*
X141165Y224914D01*
X141400Y224900D01*
X148835Y224914D01*
X149065Y224969D01*
X149283Y225059D01*
X149484Y225183D01*
X149664Y225336D01*
X149817Y225516D01*
X149941Y225717D01*
X150031Y225935D01*
X150086Y226165D01*
X150100Y226400D01*
X150086Y233835D01*
X150031Y234065D01*
X149941Y234283D01*
X149817Y234484D01*
X149664Y234664D01*
X149484Y234817D01*
X149283Y234941D01*
X149065Y235031D01*
X148835Y235086D01*
X148600Y235100D01*
X146420Y235096D01*
X146581Y235135D01*
X147322Y235442D01*
X148007Y235861D01*
X148617Y236383D01*
X149139Y236993D01*
X149558Y237678D01*
X149865Y238419D01*
X150053Y239200D01*
X150100Y240000D01*
X150053Y240800D01*
X149865Y241581D01*
X149558Y242322D01*
X149139Y243007D01*
X148617Y243617D01*
X148007Y244139D01*
X147322Y244558D01*
X146581Y244865D01*
X146020Y245000D01*
X146581Y245135D01*
X147322Y245442D01*
X148007Y245861D01*
X148617Y246383D01*
X149139Y246993D01*
X149558Y247678D01*
X149865Y248419D01*
X150053Y249200D01*
X150100Y250000D01*
X150053Y250800D01*
X149865Y251581D01*
X149558Y252322D01*
X149139Y253007D01*
X148617Y253617D01*
X148007Y254139D01*
X147322Y254558D01*
X146581Y254865D01*
X145800Y255053D01*
X145000Y255116D01*
X144200Y255053D01*
X143419Y254865D01*
X142678Y254558D01*
X141993Y254139D01*
X141383Y253617D01*
X140861Y253007D01*
X140442Y252322D01*
X140135Y251581D01*
X139994Y250994D01*
Y257500D01*
G37*
G36*
X132494D02*X139994D01*
Y250994D01*
X139947Y250800D01*
X139884Y250000D01*
X139947Y249200D01*
X139994Y249006D01*
Y240994D01*
X139947Y240800D01*
X139884Y240000D01*
X139947Y239200D01*
X139994Y239006D01*
Y234125D01*
X139969Y234065D01*
X139914Y233835D01*
X139900Y233600D01*
X139914Y226165D01*
X139969Y225935D01*
X139994Y225875D01*
Y214125D01*
X139969Y214065D01*
X139914Y213835D01*
X139900Y213600D01*
X139914Y206165D01*
X139969Y205935D01*
X139994Y205875D01*
Y200994D01*
X139947Y200800D01*
X139884Y200000D01*
X139947Y199200D01*
X139994Y199006D01*
Y190994D01*
X139947Y190800D01*
X139884Y190000D01*
X139947Y189200D01*
X139994Y189006D01*
Y139012D01*
X139372Y138963D01*
X138760Y138816D01*
X138178Y138575D01*
X137642Y138246D01*
X137163Y137837D01*
X136754Y137358D01*
X136425Y136822D01*
X136184Y136240D01*
X136037Y135628D01*
X135988Y135000D01*
X136037Y134372D01*
X136184Y133760D01*
X136425Y133178D01*
X136754Y132642D01*
X137163Y132163D01*
X137642Y131754D01*
X138178Y131425D01*
X138760Y131184D01*
X139372Y131037D01*
X139994Y130988D01*
Y61512D01*
X139372Y61463D01*
X138760Y61316D01*
X138178Y61075D01*
X137642Y60746D01*
X137163Y60337D01*
X136754Y59858D01*
X136425Y59322D01*
X136184Y58740D01*
X136037Y58128D01*
X135988Y57500D01*
X136037Y56872D01*
X136184Y56260D01*
X136425Y55678D01*
X136754Y55142D01*
X137163Y54663D01*
X137642Y54254D01*
X138178Y53925D01*
X138760Y53684D01*
X139372Y53537D01*
X139994Y53488D01*
Y25000D01*
X132494D01*
Y63488D01*
X132500Y63488D01*
X133128Y63537D01*
X133740Y63684D01*
X134322Y63925D01*
X134858Y64254D01*
X135337Y64663D01*
X135746Y65142D01*
X136075Y65678D01*
X136316Y66260D01*
X136463Y66872D01*
X136500Y67500D01*
X136463Y68128D01*
X136316Y68740D01*
X136075Y69322D01*
X135746Y69858D01*
X135337Y70337D01*
X134858Y70746D01*
X134322Y71075D01*
X133740Y71316D01*
X133128Y71463D01*
X132500Y71512D01*
X132494Y71512D01*
Y110988D01*
X132500Y110988D01*
X133128Y111037D01*
X133740Y111184D01*
X134322Y111425D01*
X134858Y111754D01*
X135337Y112163D01*
X135746Y112642D01*
X136075Y113178D01*
X136316Y113760D01*
X136463Y114372D01*
X136500Y115000D01*
X136463Y115628D01*
X136316Y116240D01*
X136075Y116822D01*
X135746Y117358D01*
X135337Y117837D01*
X134858Y118246D01*
X134322Y118575D01*
X133740Y118816D01*
X133128Y118963D01*
X132500Y119012D01*
X132494Y119012D01*
Y140988D01*
X132500Y140988D01*
X133128Y141037D01*
X133740Y141184D01*
X134322Y141425D01*
X134858Y141754D01*
X135337Y142163D01*
X135746Y142642D01*
X136075Y143178D01*
X136316Y143760D01*
X136463Y144372D01*
X136500Y145000D01*
X136463Y145628D01*
X136316Y146240D01*
X136075Y146822D01*
X135746Y147358D01*
X135337Y147837D01*
X134858Y148246D01*
X134322Y148575D01*
X133740Y148816D01*
X133128Y148963D01*
X132500Y149012D01*
X132494Y149012D01*
Y257500D01*
G37*
G36*
X120000D02*X132494D01*
Y149012D01*
X131872Y148963D01*
X131260Y148816D01*
X130678Y148575D01*
X130142Y148246D01*
X129663Y147837D01*
X129254Y147358D01*
X128925Y146822D01*
X128684Y146240D01*
X128537Y145628D01*
X128488Y145000D01*
X128537Y144372D01*
X128684Y143760D01*
X128925Y143178D01*
X129254Y142642D01*
X129663Y142163D01*
X130142Y141754D01*
X130678Y141425D01*
X131260Y141184D01*
X131872Y141037D01*
X132494Y140988D01*
Y119012D01*
X131872Y118963D01*
X131260Y118816D01*
X130678Y118575D01*
X130142Y118246D01*
X129663Y117837D01*
X129254Y117358D01*
X128925Y116822D01*
X128684Y116240D01*
X128537Y115628D01*
X128488Y115000D01*
X128537Y114372D01*
X128684Y113760D01*
X128925Y113178D01*
X129254Y112642D01*
X129663Y112163D01*
X130142Y111754D01*
X130678Y111425D01*
X131260Y111184D01*
X131872Y111037D01*
X132494Y110988D01*
Y71512D01*
X131872Y71463D01*
X131260Y71316D01*
X130678Y71075D01*
X130142Y70746D01*
X129663Y70337D01*
X129254Y69858D01*
X128925Y69322D01*
X128684Y68740D01*
X128537Y68128D01*
X128488Y67500D01*
X128537Y66872D01*
X128684Y66260D01*
X128925Y65678D01*
X129254Y65142D01*
X129663Y64663D01*
X130142Y64254D01*
X130678Y63925D01*
X131260Y63684D01*
X131872Y63537D01*
X132494Y63488D01*
Y25000D01*
X120000D01*
Y205486D01*
X120706Y205542D01*
X121395Y205707D01*
X122049Y205978D01*
X122653Y206348D01*
X123192Y206808D01*
X123652Y207347D01*
X124022Y207951D01*
X124293Y208605D01*
X124458Y209294D01*
X124500Y210000D01*
X124458Y210706D01*
X124293Y211395D01*
X124022Y212049D01*
X123652Y212653D01*
X123192Y213192D01*
X122653Y213652D01*
X122049Y214022D01*
X121395Y214293D01*
X120706Y214458D01*
X120000Y214514D01*
Y215507D01*
X123235Y215514D01*
X123465Y215569D01*
X123683Y215659D01*
X123884Y215783D01*
X124064Y215936D01*
X124217Y216116D01*
X124341Y216317D01*
X124431Y216535D01*
X124486Y216765D01*
X124500Y217000D01*
X124486Y223235D01*
X124431Y223465D01*
X124341Y223683D01*
X124217Y223884D01*
X124064Y224064D01*
X123884Y224217D01*
X123683Y224341D01*
X123465Y224431D01*
X123235Y224486D01*
X123000Y224500D01*
X120000Y224493D01*
Y257500D01*
G37*
G36*
X103192D02*X120000D01*
Y224493D01*
X116765Y224486D01*
X116535Y224431D01*
X116317Y224341D01*
X116116Y224217D01*
X115936Y224064D01*
X115783Y223884D01*
X115659Y223683D01*
X115569Y223465D01*
X115514Y223235D01*
X115500Y223000D01*
X115514Y216765D01*
X115569Y216535D01*
X115659Y216317D01*
X115783Y216116D01*
X115936Y215936D01*
X116116Y215783D01*
X116317Y215659D01*
X116535Y215569D01*
X116765Y215514D01*
X117000Y215500D01*
X120000Y215507D01*
Y214514D01*
X119294Y214458D01*
X118605Y214293D01*
X117951Y214022D01*
X117347Y213652D01*
X116808Y213192D01*
X116348Y212653D01*
X115978Y212049D01*
X115707Y211395D01*
X115542Y210706D01*
X115486Y210000D01*
X115542Y209294D01*
X115707Y208605D01*
X115978Y207951D01*
X116348Y207347D01*
X116808Y206808D01*
X117347Y206348D01*
X117951Y205978D01*
X118605Y205707D01*
X119294Y205542D01*
X120000Y205486D01*
Y25000D01*
X103192D01*
Y34885D01*
X103200Y34885D01*
X103985Y34946D01*
X104750Y35130D01*
X105477Y35431D01*
X106148Y35842D01*
X106746Y36354D01*
X107258Y36952D01*
X107669Y37623D01*
X107970Y38350D01*
X108154Y39115D01*
X108200Y39900D01*
X108154Y40685D01*
X107970Y41450D01*
X107669Y42177D01*
X107258Y42848D01*
X106746Y43446D01*
X106148Y43958D01*
X105477Y44369D01*
X104750Y44670D01*
X103985Y44854D01*
X103200Y44915D01*
X103192Y44915D01*
Y85085D01*
X103200Y85085D01*
X103985Y85146D01*
X104750Y85330D01*
X105477Y85631D01*
X106148Y86042D01*
X106746Y86554D01*
X107258Y87152D01*
X107669Y87823D01*
X107970Y88550D01*
X108154Y89315D01*
X108200Y90100D01*
X108154Y90885D01*
X107970Y91650D01*
X107669Y92377D01*
X107258Y93048D01*
X106746Y93646D01*
X106148Y94158D01*
X105477Y94569D01*
X104750Y94870D01*
X103985Y95054D01*
X103200Y95115D01*
X103192Y95115D01*
Y112385D01*
X103200Y112385D01*
X103985Y112446D01*
X104750Y112630D01*
X105477Y112931D01*
X106148Y113342D01*
X106746Y113854D01*
X107258Y114452D01*
X107669Y115123D01*
X107970Y115850D01*
X108154Y116615D01*
X108200Y117400D01*
X108154Y118185D01*
X107970Y118950D01*
X107669Y119677D01*
X107258Y120348D01*
X106746Y120946D01*
X106148Y121458D01*
X105477Y121869D01*
X104750Y122170D01*
X103985Y122354D01*
X103200Y122415D01*
X103192Y122415D01*
Y162585D01*
X103200Y162585D01*
X103985Y162646D01*
X104750Y162830D01*
X105477Y163131D01*
X106148Y163542D01*
X106746Y164054D01*
X107258Y164652D01*
X107669Y165323D01*
X107970Y166050D01*
X108154Y166815D01*
X108200Y167600D01*
X108154Y168385D01*
X107970Y169150D01*
X107669Y169877D01*
X107258Y170548D01*
X106746Y171146D01*
X106148Y171658D01*
X105477Y172069D01*
X104750Y172370D01*
X103985Y172554D01*
X103200Y172615D01*
X103192Y172615D01*
Y194333D01*
X103832Y194725D01*
X104610Y195390D01*
X105275Y196168D01*
X105809Y197040D01*
X106201Y197985D01*
X106440Y198980D01*
X106500Y200000D01*
X106440Y201020D01*
X106201Y202015D01*
X105809Y202960D01*
X105275Y203832D01*
X104610Y204610D01*
X103832Y205275D01*
X103192Y205667D01*
Y234333D01*
X103832Y234725D01*
X104610Y235390D01*
X105275Y236168D01*
X105809Y237040D01*
X106201Y237985D01*
X106440Y238980D01*
X106500Y240000D01*
X106440Y241020D01*
X106201Y242015D01*
X105809Y242960D01*
X105275Y243832D01*
X104610Y244610D01*
X103832Y245275D01*
X103192Y245667D01*
Y257500D01*
G37*
G36*
X72500D02*X103192D01*
Y245667D01*
X102960Y245809D01*
X102015Y246201D01*
X101020Y246440D01*
X100000Y246520D01*
X98980Y246440D01*
X97985Y246201D01*
X97040Y245809D01*
X96168Y245275D01*
X95390Y244610D01*
X94725Y243832D01*
X94191Y242960D01*
X93799Y242015D01*
X93560Y241020D01*
X93480Y240000D01*
X93560Y238980D01*
X93799Y237985D01*
X94191Y237040D01*
X94725Y236168D01*
X95390Y235390D01*
X96168Y234725D01*
X97040Y234191D01*
X97985Y233799D01*
X98980Y233560D01*
X100000Y233480D01*
X101020Y233560D01*
X102015Y233799D01*
X102960Y234191D01*
X103192Y234333D01*
Y205667D01*
X102960Y205809D01*
X102015Y206201D01*
X101020Y206440D01*
X100000Y206520D01*
X98980Y206440D01*
X97985Y206201D01*
X97040Y205809D01*
X96168Y205275D01*
X95390Y204610D01*
X94725Y203832D01*
X94191Y202960D01*
X93799Y202015D01*
X93560Y201020D01*
X93480Y200000D01*
X93560Y198980D01*
X93799Y197985D01*
X94191Y197040D01*
X94725Y196168D01*
X95390Y195390D01*
X96168Y194725D01*
X97040Y194191D01*
X97985Y193799D01*
X98980Y193560D01*
X100000Y193480D01*
X101020Y193560D01*
X102015Y193799D01*
X102960Y194191D01*
X103192Y194333D01*
Y172615D01*
X102415Y172554D01*
X101650Y172370D01*
X100923Y172069D01*
X100252Y171658D01*
X99654Y171146D01*
X99142Y170548D01*
X98731Y169877D01*
X98430Y169150D01*
X98246Y168385D01*
X98185Y167600D01*
X98246Y166815D01*
X98430Y166050D01*
X98731Y165323D01*
X99142Y164652D01*
X99654Y164054D01*
X100252Y163542D01*
X100923Y163131D01*
X101650Y162830D01*
X102415Y162646D01*
X103192Y162585D01*
Y122415D01*
X102415Y122354D01*
X101650Y122170D01*
X100923Y121869D01*
X100252Y121458D01*
X99654Y120946D01*
X99142Y120348D01*
X98731Y119677D01*
X98430Y118950D01*
X98246Y118185D01*
X98185Y117400D01*
X98246Y116615D01*
X98430Y115850D01*
X98731Y115123D01*
X99142Y114452D01*
X99654Y113854D01*
X100252Y113342D01*
X100923Y112931D01*
X101650Y112630D01*
X102415Y112446D01*
X103192Y112385D01*
Y95115D01*
X102415Y95054D01*
X101650Y94870D01*
X100923Y94569D01*
X100252Y94158D01*
X99654Y93646D01*
X99142Y93048D01*
X98731Y92377D01*
X98430Y91650D01*
X98246Y90885D01*
X98185Y90100D01*
X98246Y89315D01*
X98430Y88550D01*
X98731Y87823D01*
X99142Y87152D01*
X99654Y86554D01*
X100252Y86042D01*
X100923Y85631D01*
X101650Y85330D01*
X102415Y85146D01*
X103192Y85085D01*
Y44915D01*
X102415Y44854D01*
X101650Y44670D01*
X100923Y44369D01*
X100252Y43958D01*
X99654Y43446D01*
X99142Y42848D01*
X98731Y42177D01*
X98430Y41450D01*
X98246Y40685D01*
X98185Y39900D01*
X98246Y39115D01*
X98430Y38350D01*
X98731Y37623D01*
X99142Y36952D01*
X99654Y36354D01*
X100252Y35842D01*
X100923Y35431D01*
X101650Y35130D01*
X102415Y34946D01*
X103192Y34885D01*
Y25000D01*
X72500D01*
Y257500D01*
G37*
G36*
X407500Y25000D02*X357494D01*
Y118488D01*
X357500Y118488D01*
X358128Y118537D01*
X358740Y118684D01*
X359322Y118925D01*
X359858Y119254D01*
X360337Y119663D01*
X360746Y120142D01*
X361075Y120678D01*
X361316Y121260D01*
X361463Y121872D01*
X361500Y122500D01*
X361463Y123128D01*
X361316Y123740D01*
X361075Y124322D01*
X360746Y124858D01*
X360337Y125337D01*
X359858Y125746D01*
X359322Y126075D01*
X358740Y126316D01*
X358128Y126463D01*
X357500Y126512D01*
X357494Y126512D01*
Y155000D01*
X407500D01*
Y25000D01*
G37*
G36*
X357494D02*X314994D01*
Y88488D01*
X315000Y88488D01*
X315628Y88537D01*
X316240Y88684D01*
X316822Y88925D01*
X317358Y89254D01*
X317837Y89663D01*
X318246Y90142D01*
X318575Y90678D01*
X318816Y91260D01*
X318963Y91872D01*
X319000Y92500D01*
X318963Y93128D01*
X318816Y93740D01*
X318575Y94322D01*
X318246Y94858D01*
X317837Y95337D01*
X317358Y95746D01*
X316822Y96075D01*
X316240Y96316D01*
X315628Y96463D01*
X315000Y96512D01*
X314994Y96512D01*
Y155000D01*
X357494D01*
Y126512D01*
X356872Y126463D01*
X356260Y126316D01*
X355678Y126075D01*
X355142Y125746D01*
X354663Y125337D01*
X354254Y124858D01*
X353925Y124322D01*
X353684Y123740D01*
X353537Y123128D01*
X353488Y122500D01*
X353537Y121872D01*
X353684Y121260D01*
X353925Y120678D01*
X354254Y120142D01*
X354663Y119663D01*
X355142Y119254D01*
X355678Y118925D01*
X356260Y118684D01*
X356872Y118537D01*
X357494Y118488D01*
Y25000D01*
G37*
G36*
X314994D02*X299994D01*
Y88488D01*
X300000Y88488D01*
X300628Y88537D01*
X301240Y88684D01*
X301822Y88925D01*
X302358Y89254D01*
X302837Y89663D01*
X303246Y90142D01*
X303575Y90678D01*
X303816Y91260D01*
X303963Y91872D01*
X304000Y92500D01*
X303963Y93128D01*
X303816Y93740D01*
X303575Y94322D01*
X303246Y94858D01*
X302837Y95337D01*
X302358Y95746D01*
X301822Y96075D01*
X301240Y96316D01*
X300628Y96463D01*
X300000Y96512D01*
X299994Y96512D01*
Y155000D01*
X314994D01*
Y96512D01*
X314372Y96463D01*
X313760Y96316D01*
X313178Y96075D01*
X312642Y95746D01*
X312163Y95337D01*
X311754Y94858D01*
X311425Y94322D01*
X311184Y93740D01*
X311037Y93128D01*
X310988Y92500D01*
X311037Y91872D01*
X311184Y91260D01*
X311425Y90678D01*
X311754Y90142D01*
X312163Y89663D01*
X312642Y89254D01*
X313178Y88925D01*
X313760Y88684D01*
X314372Y88537D01*
X314994Y88488D01*
Y25000D01*
G37*
G36*
X299994D02*X267494D01*
Y118488D01*
X267500Y118488D01*
X268128Y118537D01*
X268740Y118684D01*
X269322Y118925D01*
X269858Y119254D01*
X270337Y119663D01*
X270746Y120142D01*
X271075Y120678D01*
X271316Y121260D01*
X271463Y121872D01*
X271500Y122500D01*
X271463Y123128D01*
X271316Y123740D01*
X271075Y124322D01*
X270746Y124858D01*
X270337Y125337D01*
X269858Y125746D01*
X269322Y126075D01*
X268740Y126316D01*
X268128Y126463D01*
X267500Y126512D01*
X267494Y126512D01*
Y155000D01*
X299994D01*
Y96512D01*
X299372Y96463D01*
X298760Y96316D01*
X298178Y96075D01*
X297642Y95746D01*
X297163Y95337D01*
X296754Y94858D01*
X296425Y94322D01*
X296184Y93740D01*
X296037Y93128D01*
X295988Y92500D01*
X296037Y91872D01*
X296184Y91260D01*
X296425Y90678D01*
X296754Y90142D01*
X297163Y89663D01*
X297642Y89254D01*
X298178Y88925D01*
X298760Y88684D01*
X299372Y88537D01*
X299994Y88488D01*
Y25000D01*
G37*
G36*
X267494D02*X257500D01*
Y136875D01*
X257642Y136754D01*
X258178Y136425D01*
X258760Y136184D01*
X259372Y136037D01*
X260000Y135988D01*
X260628Y136037D01*
X261240Y136184D01*
X261822Y136425D01*
X262358Y136754D01*
X262837Y137163D01*
X263246Y137642D01*
X263575Y138178D01*
X263816Y138760D01*
X263963Y139372D01*
X264000Y140000D01*
X263963Y140628D01*
X263816Y141240D01*
X263575Y141822D01*
X263246Y142358D01*
X262837Y142837D01*
X262358Y143246D01*
X261822Y143575D01*
X261240Y143816D01*
X260628Y143963D01*
X260000Y144012D01*
X259372Y143963D01*
X258760Y143816D01*
X258178Y143575D01*
X257642Y143246D01*
X257500Y143125D01*
Y155000D01*
X267494D01*
Y126512D01*
X266872Y126463D01*
X266260Y126316D01*
X265678Y126075D01*
X265142Y125746D01*
X264663Y125337D01*
X264254Y124858D01*
X263925Y124322D01*
X263684Y123740D01*
X263537Y123128D01*
X263488Y122500D01*
X263537Y121872D01*
X263684Y121260D01*
X263925Y120678D01*
X264254Y120142D01*
X264663Y119663D01*
X265142Y119254D01*
X265678Y118925D01*
X266260Y118684D01*
X266872Y118537D01*
X267494Y118488D01*
Y25000D01*
G37*
G36*
X141400Y233600D02*Y226400D01*
X148600D01*
Y233600D01*
X141400D01*
G37*
G54D36*X145000Y240000D03*
Y250000D03*
G54D35*G36*
X141400Y213600D02*Y206400D01*
X148600D01*
Y213600D01*
X141400D01*
G37*
G54D36*X145000Y200000D03*
Y190000D03*
G54D37*X103200Y167600D03*
Y117400D03*
Y90100D03*
Y39900D03*
X376800Y174900D03*
Y225100D03*
G54D35*G36*
X117000Y223000D02*Y217000D01*
X123000D01*
Y223000D01*
X117000D01*
G37*
G54D38*X100000Y240000D03*
G54D39*X120000Y210000D03*
G54D38*X100000Y200000D03*
G54D39*X212500Y65000D03*
X210000Y75000D03*
X182500Y50000D03*
X190000Y100000D03*
X210000Y155000D03*
X197500Y170000D03*
X132500Y115000D03*
Y67500D03*
Y50000D03*
X140000Y57500D03*
Y135000D03*
X132500Y127500D03*
Y145000D03*
X352500Y210000D03*
X335000Y97500D03*
X357500Y122500D03*
X267500D03*
X255000Y82500D03*
X212500Y122500D03*
X260000Y140000D03*
X300000Y92500D03*
X315000D03*
X210000Y192500D03*
X242500Y190000D03*
X210000Y210000D03*
X242500Y212500D03*
X247500Y202500D03*
X295000Y175000D03*
G54D40*G54D41*G54D42*G54D40*G54D43*G54D40*G54D43*M02*
