G04 start of page 3 for group 1 idx 2 *
G04 Title: (unknown), GND *
G04 Creator: pcb 1.99z *
G04 CreationDate: Wed 03 Jul 2013 06:17:13 PM GMT UTC *
G04 For: commonadmin *
G04 Format: Gerber/RS-274X *
G04 PCB-Dimensions: 600000 500000 *
G04 PCB-Coordinate-Origin: lower left *
%MOIN*%
%FSLAX25Y25*%
%LNGROUP1*%
%ADD34C,0.0810*%
%ADD33C,0.0590*%
%ADD32C,0.0420*%
%ADD31C,0.0350*%
%ADD30C,0.0600*%
%ADD29C,0.1000*%
%ADD28C,0.0800*%
%ADD27C,0.0720*%
%ADD26C,0.0001*%
G54D26*G36*
X376792Y257500D02*X407500D01*
Y25000D01*
X376792D01*
Y169885D01*
X376800Y169885D01*
X377585Y169946D01*
X378350Y170130D01*
X379077Y170431D01*
X379748Y170842D01*
X380346Y171354D01*
X380858Y171952D01*
X381269Y172623D01*
X381570Y173350D01*
X381754Y174115D01*
X381800Y174900D01*
X381754Y175685D01*
X381570Y176450D01*
X381269Y177177D01*
X380858Y177848D01*
X380346Y178446D01*
X379748Y178958D01*
X379077Y179369D01*
X378350Y179670D01*
X377585Y179854D01*
X376800Y179915D01*
X376792Y179915D01*
Y220085D01*
X376800Y220085D01*
X377585Y220146D01*
X378350Y220330D01*
X379077Y220631D01*
X379748Y221042D01*
X380346Y221554D01*
X380858Y222152D01*
X381269Y222823D01*
X381570Y223550D01*
X381754Y224315D01*
X381800Y225100D01*
X381754Y225885D01*
X381570Y226650D01*
X381269Y227377D01*
X380858Y228048D01*
X380346Y228646D01*
X379748Y229158D01*
X379077Y229569D01*
X378350Y229870D01*
X377585Y230054D01*
X376800Y230115D01*
X376792Y230115D01*
Y257500D01*
G37*
G36*
X357494D02*X376792D01*
Y230115D01*
X376015Y230054D01*
X375250Y229870D01*
X374523Y229569D01*
X373852Y229158D01*
X373254Y228646D01*
X372742Y228048D01*
X372331Y227377D01*
X372030Y226650D01*
X371846Y225885D01*
X371785Y225100D01*
X371846Y224315D01*
X372030Y223550D01*
X372331Y222823D01*
X372742Y222152D01*
X373254Y221554D01*
X373852Y221042D01*
X374523Y220631D01*
X375250Y220330D01*
X376015Y220146D01*
X376792Y220085D01*
Y179915D01*
X376015Y179854D01*
X375250Y179670D01*
X374523Y179369D01*
X373852Y178958D01*
X373254Y178446D01*
X372742Y177848D01*
X372331Y177177D01*
X372030Y176450D01*
X371846Y175685D01*
X371785Y174900D01*
X371846Y174115D01*
X372030Y173350D01*
X372331Y172623D01*
X372742Y171952D01*
X373254Y171354D01*
X373852Y170842D01*
X374523Y170431D01*
X375250Y170130D01*
X376015Y169946D01*
X376792Y169885D01*
Y25000D01*
X357494D01*
Y118488D01*
X357500Y118488D01*
X358128Y118537D01*
X358740Y118684D01*
X359322Y118925D01*
X359858Y119254D01*
X360337Y119663D01*
X360746Y120142D01*
X361075Y120678D01*
X361316Y121260D01*
X361463Y121872D01*
X361500Y122500D01*
X361463Y123128D01*
X361316Y123740D01*
X361075Y124322D01*
X360746Y124858D01*
X360337Y125337D01*
X359858Y125746D01*
X359322Y126075D01*
X358740Y126316D01*
X358128Y126463D01*
X357500Y126512D01*
X357494Y126512D01*
Y257500D01*
G37*
G36*
X352494D02*X357494D01*
Y126512D01*
X356872Y126463D01*
X356260Y126316D01*
X355678Y126075D01*
X355142Y125746D01*
X354663Y125337D01*
X354254Y124858D01*
X353925Y124322D01*
X353684Y123740D01*
X353537Y123128D01*
X353488Y122500D01*
X353537Y121872D01*
X353684Y121260D01*
X353925Y120678D01*
X354254Y120142D01*
X354663Y119663D01*
X355142Y119254D01*
X355678Y118925D01*
X356260Y118684D01*
X356872Y118537D01*
X357494Y118488D01*
Y25000D01*
X352494D01*
Y205988D01*
X352500Y205988D01*
X353128Y206037D01*
X353740Y206184D01*
X354322Y206425D01*
X354858Y206754D01*
X355337Y207163D01*
X355746Y207642D01*
X356075Y208178D01*
X356316Y208760D01*
X356463Y209372D01*
X356500Y210000D01*
X356463Y210628D01*
X356316Y211240D01*
X356075Y211822D01*
X355746Y212358D01*
X355337Y212837D01*
X354858Y213246D01*
X354322Y213575D01*
X353740Y213816D01*
X353128Y213963D01*
X352500Y214012D01*
X352494Y214012D01*
Y257500D01*
G37*
G36*
X334994D02*X352494D01*
Y214012D01*
X351872Y213963D01*
X351260Y213816D01*
X350678Y213575D01*
X350142Y213246D01*
X349663Y212837D01*
X349254Y212358D01*
X348925Y211822D01*
X348684Y211240D01*
X348537Y210628D01*
X348488Y210000D01*
X348537Y209372D01*
X348684Y208760D01*
X348925Y208178D01*
X349254Y207642D01*
X349663Y207163D01*
X350142Y206754D01*
X350678Y206425D01*
X351260Y206184D01*
X351872Y206037D01*
X352494Y205988D01*
Y25000D01*
X334994D01*
Y93488D01*
X335000Y93488D01*
X335628Y93537D01*
X336240Y93684D01*
X336822Y93925D01*
X337358Y94254D01*
X337837Y94663D01*
X338246Y95142D01*
X338575Y95678D01*
X338816Y96260D01*
X338963Y96872D01*
X339000Y97500D01*
X338963Y98128D01*
X338816Y98740D01*
X338575Y99322D01*
X338246Y99858D01*
X337837Y100337D01*
X337358Y100746D01*
X336822Y101075D01*
X336240Y101316D01*
X335628Y101463D01*
X335000Y101512D01*
X334994Y101512D01*
Y257500D01*
G37*
G36*
X314994D02*X334994D01*
Y101512D01*
X334372Y101463D01*
X333760Y101316D01*
X333178Y101075D01*
X332642Y100746D01*
X332163Y100337D01*
X331754Y99858D01*
X331425Y99322D01*
X331184Y98740D01*
X331037Y98128D01*
X330988Y97500D01*
X331037Y96872D01*
X331184Y96260D01*
X331425Y95678D01*
X331754Y95142D01*
X332163Y94663D01*
X332642Y94254D01*
X333178Y93925D01*
X333760Y93684D01*
X334372Y93537D01*
X334994Y93488D01*
Y25000D01*
X314994D01*
Y88488D01*
X315000Y88488D01*
X315628Y88537D01*
X316240Y88684D01*
X316822Y88925D01*
X317358Y89254D01*
X317837Y89663D01*
X318246Y90142D01*
X318575Y90678D01*
X318816Y91260D01*
X318963Y91872D01*
X319000Y92500D01*
X318963Y93128D01*
X318816Y93740D01*
X318575Y94322D01*
X318246Y94858D01*
X317837Y95337D01*
X317358Y95746D01*
X316822Y96075D01*
X316240Y96316D01*
X315628Y96463D01*
X315000Y96512D01*
X314994Y96512D01*
Y257500D01*
G37*
G36*
X294994D02*X314994D01*
Y96512D01*
X314372Y96463D01*
X313760Y96316D01*
X313178Y96075D01*
X312642Y95746D01*
X312163Y95337D01*
X311754Y94858D01*
X311425Y94322D01*
X311184Y93740D01*
X311037Y93128D01*
X310988Y92500D01*
X311037Y91872D01*
X311184Y91260D01*
X311425Y90678D01*
X311754Y90142D01*
X312163Y89663D01*
X312642Y89254D01*
X313178Y88925D01*
X313760Y88684D01*
X314372Y88537D01*
X314994Y88488D01*
Y25000D01*
X294994D01*
Y170988D01*
X295000Y170988D01*
X295628Y171037D01*
X296240Y171184D01*
X296822Y171425D01*
X297358Y171754D01*
X297837Y172163D01*
X298246Y172642D01*
X298575Y173178D01*
X298816Y173760D01*
X298963Y174372D01*
X299000Y175000D01*
X298963Y175628D01*
X298816Y176240D01*
X298575Y176822D01*
X298246Y177358D01*
X297837Y177837D01*
X297358Y178246D01*
X296822Y178575D01*
X296240Y178816D01*
X295628Y178963D01*
X295000Y179012D01*
X294994Y179012D01*
Y257500D01*
G37*
G36*
X267494D02*X294994D01*
Y179012D01*
X294372Y178963D01*
X293760Y178816D01*
X293178Y178575D01*
X292642Y178246D01*
X292163Y177837D01*
X291754Y177358D01*
X291425Y176822D01*
X291184Y176240D01*
X291037Y175628D01*
X290988Y175000D01*
X291037Y174372D01*
X291184Y173760D01*
X291425Y173178D01*
X291754Y172642D01*
X292163Y172163D01*
X292642Y171754D01*
X293178Y171425D01*
X293760Y171184D01*
X294372Y171037D01*
X294994Y170988D01*
Y25000D01*
X267494D01*
Y118488D01*
X267500Y118488D01*
X268128Y118537D01*
X268740Y118684D01*
X269322Y118925D01*
X269858Y119254D01*
X270337Y119663D01*
X270746Y120142D01*
X271075Y120678D01*
X271316Y121260D01*
X271463Y121872D01*
X271500Y122500D01*
X271463Y123128D01*
X271316Y123740D01*
X271075Y124322D01*
X270746Y124858D01*
X270337Y125337D01*
X269858Y125746D01*
X269322Y126075D01*
X268740Y126316D01*
X268128Y126463D01*
X267500Y126512D01*
X267494Y126512D01*
Y257500D01*
G37*
G36*
X254994D02*X267494D01*
Y126512D01*
X266872Y126463D01*
X266260Y126316D01*
X265678Y126075D01*
X265142Y125746D01*
X264663Y125337D01*
X264254Y124858D01*
X263925Y124322D01*
X263684Y123740D01*
X263537Y123128D01*
X263488Y122500D01*
X263537Y121872D01*
X263684Y121260D01*
X263925Y120678D01*
X264254Y120142D01*
X264663Y119663D01*
X265142Y119254D01*
X265678Y118925D01*
X266260Y118684D01*
X266872Y118537D01*
X267494Y118488D01*
Y25000D01*
X254994D01*
Y78488D01*
X255000Y78488D01*
X255628Y78537D01*
X256240Y78684D01*
X256822Y78925D01*
X257358Y79254D01*
X257837Y79663D01*
X258246Y80142D01*
X258575Y80678D01*
X258816Y81260D01*
X258963Y81872D01*
X259000Y82500D01*
X258963Y83128D01*
X258816Y83740D01*
X258575Y84322D01*
X258246Y84858D01*
X257837Y85337D01*
X257358Y85746D01*
X256822Y86075D01*
X256240Y86316D01*
X255628Y86463D01*
X255000Y86512D01*
X254994Y86512D01*
Y257500D01*
G37*
G36*
X242494D02*X254994D01*
Y86512D01*
X254372Y86463D01*
X253760Y86316D01*
X253178Y86075D01*
X252642Y85746D01*
X252163Y85337D01*
X251754Y84858D01*
X251425Y84322D01*
X251184Y83740D01*
X251037Y83128D01*
X250988Y82500D01*
X251037Y81872D01*
X251184Y81260D01*
X251425Y80678D01*
X251754Y80142D01*
X252163Y79663D01*
X252642Y79254D01*
X253178Y78925D01*
X253760Y78684D01*
X254372Y78537D01*
X254994Y78488D01*
Y25000D01*
X242494D01*
Y185988D01*
X242500Y185988D01*
X243128Y186037D01*
X243740Y186184D01*
X244322Y186425D01*
X244858Y186754D01*
X245337Y187163D01*
X245746Y187642D01*
X246075Y188178D01*
X246316Y188760D01*
X246463Y189372D01*
X246500Y190000D01*
X246463Y190628D01*
X246316Y191240D01*
X246075Y191822D01*
X245746Y192358D01*
X245337Y192837D01*
X244858Y193246D01*
X244322Y193575D01*
X243740Y193816D01*
X243128Y193963D01*
X242500Y194012D01*
X242494Y194012D01*
Y208488D01*
X242500Y208488D01*
X243128Y208537D01*
X243740Y208684D01*
X244322Y208925D01*
X244858Y209254D01*
X245337Y209663D01*
X245746Y210142D01*
X246075Y210678D01*
X246316Y211260D01*
X246463Y211872D01*
X246500Y212500D01*
X246463Y213128D01*
X246316Y213740D01*
X246075Y214322D01*
X245746Y214858D01*
X245337Y215337D01*
X244858Y215746D01*
X244322Y216075D01*
X243740Y216316D01*
X243128Y216463D01*
X242500Y216512D01*
X242494Y216512D01*
Y257500D01*
G37*
G36*
X209994D02*X242494D01*
Y216512D01*
X241872Y216463D01*
X241260Y216316D01*
X240678Y216075D01*
X240142Y215746D01*
X239663Y215337D01*
X239254Y214858D01*
X238925Y214322D01*
X238684Y213740D01*
X238537Y213128D01*
X238488Y212500D01*
X238537Y211872D01*
X238684Y211260D01*
X238925Y210678D01*
X239254Y210142D01*
X239663Y209663D01*
X240142Y209254D01*
X240678Y208925D01*
X241260Y208684D01*
X241872Y208537D01*
X242494Y208488D01*
Y194012D01*
X241872Y193963D01*
X241260Y193816D01*
X240678Y193575D01*
X240142Y193246D01*
X239663Y192837D01*
X239254Y192358D01*
X238925Y191822D01*
X238684Y191240D01*
X238537Y190628D01*
X238488Y190000D01*
X238537Y189372D01*
X238684Y188760D01*
X238925Y188178D01*
X239254Y187642D01*
X239663Y187163D01*
X240142Y186754D01*
X240678Y186425D01*
X241260Y186184D01*
X241872Y186037D01*
X242494Y185988D01*
Y25000D01*
X209994D01*
Y70988D01*
X210000Y70988D01*
X210628Y71037D01*
X211240Y71184D01*
X211822Y71425D01*
X212358Y71754D01*
X212837Y72163D01*
X213246Y72642D01*
X213575Y73178D01*
X213816Y73760D01*
X213963Y74372D01*
X214000Y75000D01*
X213963Y75628D01*
X213816Y76240D01*
X213575Y76822D01*
X213246Y77358D01*
X212837Y77837D01*
X212358Y78246D01*
X211822Y78575D01*
X211240Y78816D01*
X210628Y78963D01*
X210000Y79012D01*
X209994Y79012D01*
Y119380D01*
X210142Y119254D01*
X210678Y118925D01*
X211260Y118684D01*
X211872Y118537D01*
X212500Y118488D01*
X213128Y118537D01*
X213740Y118684D01*
X214322Y118925D01*
X214858Y119254D01*
X215337Y119663D01*
X215746Y120142D01*
X216075Y120678D01*
X216316Y121260D01*
X216463Y121872D01*
X216500Y122500D01*
X216463Y123128D01*
X216316Y123740D01*
X216075Y124322D01*
X215746Y124858D01*
X215337Y125337D01*
X214858Y125746D01*
X214322Y126075D01*
X213740Y126316D01*
X213128Y126463D01*
X212500Y126512D01*
X211872Y126463D01*
X211260Y126316D01*
X210678Y126075D01*
X210142Y125746D01*
X209994Y125620D01*
Y150988D01*
X210000Y150988D01*
X210628Y151037D01*
X211240Y151184D01*
X211822Y151425D01*
X212358Y151754D01*
X212837Y152163D01*
X213246Y152642D01*
X213575Y153178D01*
X213816Y153760D01*
X213963Y154372D01*
X214000Y155000D01*
X213963Y155628D01*
X213816Y156240D01*
X213575Y156822D01*
X213246Y157358D01*
X212837Y157837D01*
X212358Y158246D01*
X211822Y158575D01*
X211240Y158816D01*
X210628Y158963D01*
X210000Y159012D01*
X209994Y159012D01*
Y205988D01*
X210000Y205988D01*
X210628Y206037D01*
X211240Y206184D01*
X211822Y206425D01*
X212358Y206754D01*
X212837Y207163D01*
X213246Y207642D01*
X213575Y208178D01*
X213816Y208760D01*
X213963Y209372D01*
X214000Y210000D01*
X213963Y210628D01*
X213816Y211240D01*
X213575Y211822D01*
X213246Y212358D01*
X212837Y212837D01*
X212358Y213246D01*
X211822Y213575D01*
X211240Y213816D01*
X210628Y213963D01*
X210000Y214012D01*
X209994Y214012D01*
Y257500D01*
G37*
G36*
X197494D02*X209994D01*
Y214012D01*
X209372Y213963D01*
X208760Y213816D01*
X208178Y213575D01*
X207642Y213246D01*
X207163Y212837D01*
X206754Y212358D01*
X206425Y211822D01*
X206184Y211240D01*
X206037Y210628D01*
X205988Y210000D01*
X206037Y209372D01*
X206184Y208760D01*
X206425Y208178D01*
X206754Y207642D01*
X207163Y207163D01*
X207642Y206754D01*
X208178Y206425D01*
X208760Y206184D01*
X209372Y206037D01*
X209994Y205988D01*
Y159012D01*
X209372Y158963D01*
X208760Y158816D01*
X208178Y158575D01*
X207642Y158246D01*
X207163Y157837D01*
X206754Y157358D01*
X206425Y156822D01*
X206184Y156240D01*
X206037Y155628D01*
X205988Y155000D01*
X206037Y154372D01*
X206184Y153760D01*
X206425Y153178D01*
X206754Y152642D01*
X207163Y152163D01*
X207642Y151754D01*
X208178Y151425D01*
X208760Y151184D01*
X209372Y151037D01*
X209994Y150988D01*
Y125620D01*
X209663Y125337D01*
X209254Y124858D01*
X208925Y124322D01*
X208684Y123740D01*
X208537Y123128D01*
X208488Y122500D01*
X208537Y121872D01*
X208684Y121260D01*
X208925Y120678D01*
X209254Y120142D01*
X209663Y119663D01*
X209994Y119380D01*
Y79012D01*
X209372Y78963D01*
X208760Y78816D01*
X208178Y78575D01*
X207642Y78246D01*
X207163Y77837D01*
X206754Y77358D01*
X206425Y76822D01*
X206184Y76240D01*
X206037Y75628D01*
X205988Y75000D01*
X206037Y74372D01*
X206184Y73760D01*
X206425Y73178D01*
X206754Y72642D01*
X207163Y72163D01*
X207642Y71754D01*
X208178Y71425D01*
X208760Y71184D01*
X209372Y71037D01*
X209994Y70988D01*
Y25000D01*
X197494D01*
Y165988D01*
X197500Y165988D01*
X198128Y166037D01*
X198740Y166184D01*
X199322Y166425D01*
X199858Y166754D01*
X200337Y167163D01*
X200746Y167642D01*
X201075Y168178D01*
X201316Y168760D01*
X201463Y169372D01*
X201500Y170000D01*
X201463Y170628D01*
X201316Y171240D01*
X201075Y171822D01*
X200746Y172358D01*
X200337Y172837D01*
X199858Y173246D01*
X199322Y173575D01*
X198740Y173816D01*
X198128Y173963D01*
X197500Y174012D01*
X197494Y174012D01*
Y257500D01*
G37*
G36*
X189994D02*X197494D01*
Y174012D01*
X196872Y173963D01*
X196260Y173816D01*
X195678Y173575D01*
X195142Y173246D01*
X194663Y172837D01*
X194254Y172358D01*
X193925Y171822D01*
X193684Y171240D01*
X193537Y170628D01*
X193488Y170000D01*
X193537Y169372D01*
X193684Y168760D01*
X193925Y168178D01*
X194254Y167642D01*
X194663Y167163D01*
X195142Y166754D01*
X195678Y166425D01*
X196260Y166184D01*
X196872Y166037D01*
X197494Y165988D01*
Y25000D01*
X189994D01*
Y95988D01*
X190000Y95988D01*
X190628Y96037D01*
X191240Y96184D01*
X191822Y96425D01*
X192358Y96754D01*
X192837Y97163D01*
X193246Y97642D01*
X193575Y98178D01*
X193816Y98760D01*
X193963Y99372D01*
X194000Y100000D01*
X193963Y100628D01*
X193816Y101240D01*
X193575Y101822D01*
X193246Y102358D01*
X192837Y102837D01*
X192358Y103246D01*
X191822Y103575D01*
X191240Y103816D01*
X190628Y103963D01*
X190000Y104012D01*
X189994Y104012D01*
Y257500D01*
G37*
G36*
X182494D02*X189994D01*
Y104012D01*
X189372Y103963D01*
X188760Y103816D01*
X188178Y103575D01*
X187642Y103246D01*
X187163Y102837D01*
X186754Y102358D01*
X186425Y101822D01*
X186184Y101240D01*
X186037Y100628D01*
X185988Y100000D01*
X186037Y99372D01*
X186184Y98760D01*
X186425Y98178D01*
X186754Y97642D01*
X187163Y97163D01*
X187642Y96754D01*
X188178Y96425D01*
X188760Y96184D01*
X189372Y96037D01*
X189994Y95988D01*
Y25000D01*
X182494D01*
Y45988D01*
X182500Y45988D01*
X183128Y46037D01*
X183740Y46184D01*
X184322Y46425D01*
X184858Y46754D01*
X185337Y47163D01*
X185746Y47642D01*
X186075Y48178D01*
X186316Y48760D01*
X186463Y49372D01*
X186500Y50000D01*
X186463Y50628D01*
X186316Y51240D01*
X186075Y51822D01*
X185746Y52358D01*
X185337Y52837D01*
X184858Y53246D01*
X184322Y53575D01*
X183740Y53816D01*
X183128Y53963D01*
X182500Y54012D01*
X182494Y54012D01*
Y257500D01*
G37*
G36*
X139994Y205875D02*X140059Y205717D01*
X140183Y205516D01*
X140336Y205336D01*
X140516Y205183D01*
X140717Y205059D01*
X140935Y204969D01*
X141165Y204914D01*
X141400Y204900D01*
X143580Y204904D01*
X143419Y204865D01*
X142678Y204558D01*
X141993Y204139D01*
X141383Y203617D01*
X140861Y203007D01*
X140442Y202322D01*
X140135Y201581D01*
X139994Y200994D01*
Y205875D01*
G37*
G36*
Y239006D02*X140135Y238419D01*
X140442Y237678D01*
X140861Y236993D01*
X141383Y236383D01*
X141993Y235861D01*
X142678Y235442D01*
X143419Y235135D01*
X143602Y235091D01*
X141165Y235086D01*
X140935Y235031D01*
X140717Y234941D01*
X140516Y234817D01*
X140336Y234664D01*
X140183Y234484D01*
X140059Y234283D01*
X139994Y234125D01*
Y239006D01*
G37*
G36*
Y257500D02*X182494D01*
Y54012D01*
X181872Y53963D01*
X181260Y53816D01*
X180678Y53575D01*
X180142Y53246D01*
X179663Y52837D01*
X179254Y52358D01*
X178925Y51822D01*
X178684Y51240D01*
X178537Y50628D01*
X178488Y50000D01*
X178537Y49372D01*
X178684Y48760D01*
X178925Y48178D01*
X179254Y47642D01*
X179663Y47163D01*
X180142Y46754D01*
X180678Y46425D01*
X181260Y46184D01*
X181872Y46037D01*
X182494Y45988D01*
Y25000D01*
X139994D01*
Y53488D01*
X140000Y53488D01*
X140628Y53537D01*
X141240Y53684D01*
X141822Y53925D01*
X142358Y54254D01*
X142837Y54663D01*
X143246Y55142D01*
X143575Y55678D01*
X143816Y56260D01*
X143963Y56872D01*
X144000Y57500D01*
X143963Y58128D01*
X143816Y58740D01*
X143575Y59322D01*
X143246Y59858D01*
X142837Y60337D01*
X142358Y60746D01*
X141822Y61075D01*
X141240Y61316D01*
X140628Y61463D01*
X140000Y61512D01*
X139994Y61512D01*
Y130988D01*
X140000Y130988D01*
X140628Y131037D01*
X141240Y131184D01*
X141822Y131425D01*
X142358Y131754D01*
X142837Y132163D01*
X143246Y132642D01*
X143575Y133178D01*
X143816Y133760D01*
X143963Y134372D01*
X144000Y135000D01*
X143963Y135628D01*
X143816Y136240D01*
X143575Y136822D01*
X143246Y137358D01*
X142837Y137837D01*
X142358Y138246D01*
X141822Y138575D01*
X141240Y138816D01*
X140628Y138963D01*
X140000Y139012D01*
X139994Y139012D01*
Y199006D01*
X140135Y198419D01*
X140442Y197678D01*
X140861Y196993D01*
X141383Y196383D01*
X141993Y195861D01*
X142678Y195442D01*
X143419Y195135D01*
X144200Y194947D01*
X145000Y194884D01*
X145800Y194947D01*
X146581Y195135D01*
X147322Y195442D01*
X148007Y195861D01*
X148617Y196383D01*
X149139Y196993D01*
X149558Y197678D01*
X149865Y198419D01*
X150053Y199200D01*
X150100Y200000D01*
X150053Y200800D01*
X149865Y201581D01*
X149558Y202322D01*
X149139Y203007D01*
X148617Y203617D01*
X148007Y204139D01*
X147322Y204558D01*
X146581Y204865D01*
X146398Y204909D01*
X148835Y204914D01*
X149065Y204969D01*
X149283Y205059D01*
X149484Y205183D01*
X149664Y205336D01*
X149817Y205516D01*
X149941Y205717D01*
X150031Y205935D01*
X150086Y206165D01*
X150100Y206400D01*
X150086Y213835D01*
X150031Y214065D01*
X149941Y214283D01*
X149817Y214484D01*
X149664Y214664D01*
X149484Y214817D01*
X149283Y214941D01*
X149065Y215031D01*
X148835Y215086D01*
X148600Y215100D01*
X141165Y215086D01*
X140935Y215031D01*
X140717Y214941D01*
X140516Y214817D01*
X140336Y214664D01*
X140183Y214484D01*
X140059Y214283D01*
X139994Y214125D01*
Y225875D01*
X140059Y225717D01*
X140183Y225516D01*
X140336Y225336D01*
X140516Y225183D01*
X140717Y225059D01*
X140935Y224969D01*
X141165Y224914D01*
X141400Y224900D01*
X148835Y224914D01*
X149065Y224969D01*
X149283Y225059D01*
X149484Y225183D01*
X149664Y225336D01*
X149817Y225516D01*
X149941Y225717D01*
X150031Y225935D01*
X150086Y226165D01*
X150100Y226400D01*
X150086Y233835D01*
X150031Y234065D01*
X149941Y234283D01*
X149817Y234484D01*
X149664Y234664D01*
X149484Y234817D01*
X149283Y234941D01*
X149065Y235031D01*
X148835Y235086D01*
X148600Y235100D01*
X146420Y235096D01*
X146581Y235135D01*
X147322Y235442D01*
X148007Y235861D01*
X148617Y236383D01*
X149139Y236993D01*
X149558Y237678D01*
X149865Y238419D01*
X150053Y239200D01*
X150100Y240000D01*
X150053Y240800D01*
X149865Y241581D01*
X149558Y242322D01*
X149139Y243007D01*
X148617Y243617D01*
X148007Y244139D01*
X147322Y244558D01*
X146581Y244865D01*
X145800Y245053D01*
X145000Y245116D01*
X144200Y245053D01*
X143419Y244865D01*
X142678Y244558D01*
X141993Y244139D01*
X141383Y243617D01*
X140861Y243007D01*
X140442Y242322D01*
X140135Y241581D01*
X139994Y240994D01*
Y257500D01*
G37*
G36*
X132494D02*X139994D01*
Y240994D01*
X139947Y240800D01*
X139884Y240000D01*
X139947Y239200D01*
X139994Y239006D01*
Y234125D01*
X139969Y234065D01*
X139914Y233835D01*
X139900Y233600D01*
X139914Y226165D01*
X139969Y225935D01*
X139994Y225875D01*
Y214125D01*
X139969Y214065D01*
X139914Y213835D01*
X139900Y213600D01*
X139914Y206165D01*
X139969Y205935D01*
X139994Y205875D01*
Y200994D01*
X139947Y200800D01*
X139884Y200000D01*
X139947Y199200D01*
X139994Y199006D01*
Y139012D01*
X139372Y138963D01*
X138760Y138816D01*
X138178Y138575D01*
X137642Y138246D01*
X137163Y137837D01*
X136754Y137358D01*
X136425Y136822D01*
X136184Y136240D01*
X136037Y135628D01*
X135988Y135000D01*
X136037Y134372D01*
X136184Y133760D01*
X136425Y133178D01*
X136754Y132642D01*
X137163Y132163D01*
X137642Y131754D01*
X138178Y131425D01*
X138760Y131184D01*
X139372Y131037D01*
X139994Y130988D01*
Y61512D01*
X139372Y61463D01*
X138760Y61316D01*
X138178Y61075D01*
X137642Y60746D01*
X137163Y60337D01*
X136754Y59858D01*
X136425Y59322D01*
X136184Y58740D01*
X136037Y58128D01*
X135988Y57500D01*
X136037Y56872D01*
X136184Y56260D01*
X136425Y55678D01*
X136754Y55142D01*
X137163Y54663D01*
X137642Y54254D01*
X138178Y53925D01*
X138760Y53684D01*
X139372Y53537D01*
X139994Y53488D01*
Y25000D01*
X132494D01*
Y45988D01*
X132500Y45988D01*
X133128Y46037D01*
X133740Y46184D01*
X134322Y46425D01*
X134858Y46754D01*
X135337Y47163D01*
X135746Y47642D01*
X136075Y48178D01*
X136316Y48760D01*
X136463Y49372D01*
X136500Y50000D01*
X136463Y50628D01*
X136316Y51240D01*
X136075Y51822D01*
X135746Y52358D01*
X135337Y52837D01*
X134858Y53246D01*
X134322Y53575D01*
X133740Y53816D01*
X133128Y53963D01*
X132500Y54012D01*
X132494Y54012D01*
Y123488D01*
X132500Y123488D01*
X133128Y123537D01*
X133740Y123684D01*
X134322Y123925D01*
X134858Y124254D01*
X135337Y124663D01*
X135746Y125142D01*
X136075Y125678D01*
X136316Y126260D01*
X136463Y126872D01*
X136500Y127500D01*
X136463Y128128D01*
X136316Y128740D01*
X136075Y129322D01*
X135746Y129858D01*
X135337Y130337D01*
X134858Y130746D01*
X134322Y131075D01*
X133740Y131316D01*
X133128Y131463D01*
X132500Y131512D01*
X132494Y131512D01*
Y257500D01*
G37*
G36*
X120000D02*X132494D01*
Y131512D01*
X131872Y131463D01*
X131260Y131316D01*
X130678Y131075D01*
X130142Y130746D01*
X129663Y130337D01*
X129254Y129858D01*
X128925Y129322D01*
X128684Y128740D01*
X128537Y128128D01*
X128488Y127500D01*
X128537Y126872D01*
X128684Y126260D01*
X128925Y125678D01*
X129254Y125142D01*
X129663Y124663D01*
X130142Y124254D01*
X130678Y123925D01*
X131260Y123684D01*
X131872Y123537D01*
X132494Y123488D01*
Y54012D01*
X131872Y53963D01*
X131260Y53816D01*
X130678Y53575D01*
X130142Y53246D01*
X129663Y52837D01*
X129254Y52358D01*
X128925Y51822D01*
X128684Y51240D01*
X128537Y50628D01*
X128488Y50000D01*
X128537Y49372D01*
X128684Y48760D01*
X128925Y48178D01*
X129254Y47642D01*
X129663Y47163D01*
X130142Y46754D01*
X130678Y46425D01*
X131260Y46184D01*
X131872Y46037D01*
X132494Y45988D01*
Y25000D01*
X120000D01*
Y215507D01*
X123235Y215514D01*
X123465Y215569D01*
X123683Y215659D01*
X123884Y215783D01*
X124064Y215936D01*
X124217Y216116D01*
X124341Y216317D01*
X124431Y216535D01*
X124486Y216765D01*
X124500Y217000D01*
X124486Y223235D01*
X124431Y223465D01*
X124341Y223683D01*
X124217Y223884D01*
X124064Y224064D01*
X123884Y224217D01*
X123683Y224341D01*
X123465Y224431D01*
X123235Y224486D01*
X123000Y224500D01*
X120000Y224493D01*
Y257500D01*
G37*
G36*
X103192D02*X120000D01*
Y224493D01*
X116765Y224486D01*
X116535Y224431D01*
X116317Y224341D01*
X116116Y224217D01*
X115936Y224064D01*
X115783Y223884D01*
X115659Y223683D01*
X115569Y223465D01*
X115514Y223235D01*
X115500Y223000D01*
X115514Y216765D01*
X115569Y216535D01*
X115659Y216317D01*
X115783Y216116D01*
X115936Y215936D01*
X116116Y215783D01*
X116317Y215659D01*
X116535Y215569D01*
X116765Y215514D01*
X117000Y215500D01*
X120000Y215507D01*
Y25000D01*
X103192D01*
Y34885D01*
X103200Y34885D01*
X103985Y34946D01*
X104750Y35130D01*
X105477Y35431D01*
X106148Y35842D01*
X106746Y36354D01*
X107258Y36952D01*
X107669Y37623D01*
X107970Y38350D01*
X108154Y39115D01*
X108200Y39900D01*
X108154Y40685D01*
X107970Y41450D01*
X107669Y42177D01*
X107258Y42848D01*
X106746Y43446D01*
X106148Y43958D01*
X105477Y44369D01*
X104750Y44670D01*
X103985Y44854D01*
X103200Y44915D01*
X103192Y44915D01*
Y85085D01*
X103200Y85085D01*
X103985Y85146D01*
X104750Y85330D01*
X105477Y85631D01*
X106148Y86042D01*
X106746Y86554D01*
X107258Y87152D01*
X107669Y87823D01*
X107970Y88550D01*
X108154Y89315D01*
X108200Y90100D01*
X108154Y90885D01*
X107970Y91650D01*
X107669Y92377D01*
X107258Y93048D01*
X106746Y93646D01*
X106148Y94158D01*
X105477Y94569D01*
X104750Y94870D01*
X103985Y95054D01*
X103200Y95115D01*
X103192Y95115D01*
Y112385D01*
X103200Y112385D01*
X103985Y112446D01*
X104750Y112630D01*
X105477Y112931D01*
X106148Y113342D01*
X106746Y113854D01*
X107258Y114452D01*
X107669Y115123D01*
X107970Y115850D01*
X108154Y116615D01*
X108200Y117400D01*
X108154Y118185D01*
X107970Y118950D01*
X107669Y119677D01*
X107258Y120348D01*
X106746Y120946D01*
X106148Y121458D01*
X105477Y121869D01*
X104750Y122170D01*
X103985Y122354D01*
X103200Y122415D01*
X103192Y122415D01*
Y162585D01*
X103200Y162585D01*
X103985Y162646D01*
X104750Y162830D01*
X105477Y163131D01*
X106148Y163542D01*
X106746Y164054D01*
X107258Y164652D01*
X107669Y165323D01*
X107970Y166050D01*
X108154Y166815D01*
X108200Y167600D01*
X108154Y168385D01*
X107970Y169150D01*
X107669Y169877D01*
X107258Y170548D01*
X106746Y171146D01*
X106148Y171658D01*
X105477Y172069D01*
X104750Y172370D01*
X103985Y172554D01*
X103200Y172615D01*
X103192Y172615D01*
Y194333D01*
X103832Y194725D01*
X104610Y195390D01*
X105275Y196168D01*
X105809Y197040D01*
X106201Y197985D01*
X106440Y198980D01*
X106500Y200000D01*
X106440Y201020D01*
X106201Y202015D01*
X105809Y202960D01*
X105275Y203832D01*
X104610Y204610D01*
X103832Y205275D01*
X103192Y205667D01*
Y234333D01*
X103832Y234725D01*
X104610Y235390D01*
X105275Y236168D01*
X105809Y237040D01*
X106201Y237985D01*
X106440Y238980D01*
X106500Y240000D01*
X106440Y241020D01*
X106201Y242015D01*
X105809Y242960D01*
X105275Y243832D01*
X104610Y244610D01*
X103832Y245275D01*
X103192Y245667D01*
Y257500D01*
G37*
G36*
X72500Y25000D02*Y257500D01*
X103192D01*
Y245667D01*
X102960Y245809D01*
X102015Y246201D01*
X101020Y246440D01*
X100000Y246520D01*
X98980Y246440D01*
X97985Y246201D01*
X97040Y245809D01*
X96168Y245275D01*
X95390Y244610D01*
X94725Y243832D01*
X94191Y242960D01*
X93799Y242015D01*
X93560Y241020D01*
X93480Y240000D01*
X93560Y238980D01*
X93799Y237985D01*
X94191Y237040D01*
X94725Y236168D01*
X95390Y235390D01*
X96168Y234725D01*
X97040Y234191D01*
X97985Y233799D01*
X98980Y233560D01*
X100000Y233480D01*
X101020Y233560D01*
X102015Y233799D01*
X102960Y234191D01*
X103192Y234333D01*
Y205667D01*
X102960Y205809D01*
X102015Y206201D01*
X101020Y206440D01*
X100000Y206520D01*
X98980Y206440D01*
X97985Y206201D01*
X97040Y205809D01*
X96168Y205275D01*
X95390Y204610D01*
X94725Y203832D01*
X94191Y202960D01*
X93799Y202015D01*
X93560Y201020D01*
X93480Y200000D01*
X93560Y198980D01*
X93799Y197985D01*
X94191Y197040D01*
X94725Y196168D01*
X95390Y195390D01*
X96168Y194725D01*
X97040Y194191D01*
X97985Y193799D01*
X98980Y193560D01*
X100000Y193480D01*
X101020Y193560D01*
X102015Y193799D01*
X102960Y194191D01*
X103192Y194333D01*
Y172615D01*
X102415Y172554D01*
X101650Y172370D01*
X100923Y172069D01*
X100252Y171658D01*
X99654Y171146D01*
X99142Y170548D01*
X98731Y169877D01*
X98430Y169150D01*
X98246Y168385D01*
X98185Y167600D01*
X98246Y166815D01*
X98430Y166050D01*
X98731Y165323D01*
X99142Y164652D01*
X99654Y164054D01*
X100252Y163542D01*
X100923Y163131D01*
X101650Y162830D01*
X102415Y162646D01*
X103192Y162585D01*
Y122415D01*
X102415Y122354D01*
X101650Y122170D01*
X100923Y121869D01*
X100252Y121458D01*
X99654Y120946D01*
X99142Y120348D01*
X98731Y119677D01*
X98430Y118950D01*
X98246Y118185D01*
X98185Y117400D01*
X98246Y116615D01*
X98430Y115850D01*
X98731Y115123D01*
X99142Y114452D01*
X99654Y113854D01*
X100252Y113342D01*
X100923Y112931D01*
X101650Y112630D01*
X102415Y112446D01*
X103192Y112385D01*
Y95115D01*
X102415Y95054D01*
X101650Y94870D01*
X100923Y94569D01*
X100252Y94158D01*
X99654Y93646D01*
X99142Y93048D01*
X98731Y92377D01*
X98430Y91650D01*
X98246Y90885D01*
X98185Y90100D01*
X98246Y89315D01*
X98430Y88550D01*
X98731Y87823D01*
X99142Y87152D01*
X99654Y86554D01*
X100252Y86042D01*
X100923Y85631D01*
X101650Y85330D01*
X102415Y85146D01*
X103192Y85085D01*
Y44915D01*
X102415Y44854D01*
X101650Y44670D01*
X100923Y44369D01*
X100252Y43958D01*
X99654Y43446D01*
X99142Y42848D01*
X98731Y42177D01*
X98430Y41450D01*
X98246Y40685D01*
X98185Y39900D01*
X98246Y39115D01*
X98430Y38350D01*
X98731Y37623D01*
X99142Y36952D01*
X99654Y36354D01*
X100252Y35842D01*
X100923Y35431D01*
X101650Y35130D01*
X102415Y34946D01*
X103192Y34885D01*
Y25000D01*
X72500D01*
G37*
G36*
X141400Y233600D02*Y226400D01*
X148600D01*
Y233600D01*
X141400D01*
G37*
G54D27*X145000Y240000D03*
Y250000D03*
G54D26*G36*
X141400Y213600D02*Y206400D01*
X148600D01*
Y213600D01*
X141400D01*
G37*
G54D27*X145000Y200000D03*
Y190000D03*
G54D28*X103200Y167600D03*
Y117400D03*
Y90100D03*
Y39900D03*
X376800Y174900D03*
Y225100D03*
G54D26*G36*
X117000Y223000D02*Y217000D01*
X123000D01*
Y223000D01*
X117000D01*
G37*
G54D29*X100000Y240000D03*
G54D30*X120000Y210000D03*
G54D29*X100000Y200000D03*
G54D30*X212500Y65000D03*
X210000Y75000D03*
X182500Y50000D03*
X190000Y100000D03*
X210000Y155000D03*
X197500Y170000D03*
X132500Y115000D03*
Y67500D03*
Y50000D03*
X140000Y57500D03*
Y135000D03*
X132500Y127500D03*
Y145000D03*
X352500Y210000D03*
X335000Y97500D03*
X357500Y122500D03*
X267500D03*
X255000Y82500D03*
X212500Y122500D03*
X260000Y140000D03*
X300000Y92500D03*
X315000D03*
X210000Y192500D03*
X242500Y190000D03*
X210000Y210000D03*
X242500Y212500D03*
X247500Y202500D03*
X295000Y175000D03*
G54D31*G54D32*G54D33*G54D31*G54D34*G54D31*G54D34*M02*
