G04 start of page 8 for group -4063 idx -4063 *
G04 Title: (unknown), componentmask *
G04 Creator: pcb 1.99z *
G04 CreationDate: Wed 27 Mar 2013 05:03:31 PM GMT UTC *
G04 For: nock *
G04 Format: Gerber/RS-274X *
G04 PCB-Dimensions (mil): 6000.00 5000.00 *
G04 PCB-Coordinate-Origin: lower left *
%MOIN*%
%FSLAX25Y25*%
%LNTOPMASK*%
%ADD68C,0.0450*%
%ADD67R,0.1290X0.1290*%
%ADD66R,0.0300X0.0300*%
%ADD65R,0.0572X0.0572*%
%ADD64R,0.0550X0.0550*%
%ADD63C,0.0660*%
%ADD62C,0.1060*%
%ADD61C,0.0860*%
%ADD60C,0.0780*%
%ADD59C,0.0001*%
G54D59*G36*
X141100Y233900D02*Y226100D01*
X148900D01*
Y233900D01*
X141100D01*
G37*
G54D60*X145000Y240000D03*
Y250000D03*
G54D59*G36*
X141100Y213900D02*Y206100D01*
X148900D01*
Y213900D01*
X141100D01*
G37*
G54D60*X145000Y200000D03*
Y190000D03*
G54D61*X103200Y167600D03*
Y117400D03*
Y90100D03*
Y39900D03*
X376800Y174900D03*
Y225100D03*
G54D59*G36*
X116700Y223300D02*Y216700D01*
X123300D01*
Y223300D01*
X116700D01*
G37*
G54D62*X100000Y240000D03*
G54D63*X120000Y210000D03*
G54D62*X100000Y200000D03*
G54D64*X110350Y50000D02*X114650D01*
X110350Y55000D02*X114650D01*
X110350Y60000D02*X114650D01*
X110350Y65000D02*X114650D01*
X110350Y70000D02*X114650D01*
X110350Y75000D02*X114650D01*
X110350Y80000D02*X114650D01*
G54D65*X179310Y133681D02*Y131319D01*
X190690Y133681D02*Y131319D01*
G54D66*X171500Y122500D02*X178000D01*
X171500Y117500D02*X178000D01*
X171500Y112500D02*X178000D01*
X171500Y107500D02*X178000D01*
X192000D02*X198500D01*
X192000Y112500D02*X198500D01*
X192000Y117500D02*X198500D01*
X192000Y122500D02*X198500D01*
G54D65*X207500Y101181D02*Y98819D01*
Y111181D02*Y108819D01*
X219310Y101181D02*Y98819D01*
Y111181D02*Y108819D01*
G54D66*X174250Y75000D02*X180750D01*
X174250Y70000D02*X180750D01*
X174250Y65000D02*X180750D01*
X174250Y60000D02*X180750D01*
X194750D02*X201250D01*
X194750Y65000D02*X201250D01*
X194750Y70000D02*X201250D01*
X194750Y75000D02*X201250D01*
G54D65*X181810Y98681D02*Y96319D01*
X170000Y98681D02*Y96319D01*
X181810Y87755D02*Y82245D01*
X170000Y87755D02*Y82245D01*
G54D66*X174250Y160000D02*X180750D01*
X174250Y155000D02*X180750D01*
X174250Y150000D02*X180750D01*
X174250Y145000D02*X180750D01*
G54D65*X202500Y133681D02*Y131319D01*
G54D66*X194750Y145000D02*X201250D01*
X194750Y150000D02*X201250D01*
X194750Y155000D02*X201250D01*
X194750Y160000D02*X201250D01*
G54D65*X186810Y181181D02*Y178819D01*
Y171181D02*Y168819D01*
X175000Y171181D02*Y168819D01*
G54D66*X192250Y200000D02*X198750D01*
X192250Y205000D02*X198750D01*
X192250Y210000D02*X198750D01*
X192250Y215000D02*X198750D01*
G54D65*X188819Y234310D02*X191181D01*
X188819Y222500D02*X191181D01*
X158819Y119310D02*X161181D01*
X158819Y107500D02*X161181D01*
X167500Y133681D02*Y131319D01*
X150000Y120393D02*Y119607D01*
X156319Y130000D02*X158681D01*
X156319Y141810D02*X158681D01*
X142914Y120393D02*Y119607D01*
X150000Y107893D02*Y107107D01*
X156319Y85690D02*X158681D01*
X156319Y97500D02*X158681D01*
X142914Y107893D02*Y107107D01*
G54D64*X110350Y127500D02*X114650D01*
X110350Y132500D02*X114650D01*
X110350Y137500D02*X114650D01*
X110350Y142500D02*X114650D01*
X110350Y147500D02*X114650D01*
X110350Y152500D02*X114650D01*
X110350Y157500D02*X114650D01*
G54D65*X175000Y181181D02*Y178819D01*
X179310Y226181D02*Y223819D01*
X167500Y226181D02*Y223819D01*
X179310Y236181D02*Y233819D01*
X167500Y236181D02*Y233819D01*
G54D66*X171750Y215000D02*X178250D01*
X171750Y210000D02*X178250D01*
X171750Y205000D02*X178250D01*
X171750Y200000D02*X178250D01*
G54D65*X143190Y221181D02*Y218819D01*
X131319Y215690D02*X133681D01*
X131319Y227500D02*X133681D01*
X155000Y221181D02*Y218819D01*
G54D66*X229250Y120000D02*X235750D01*
X249750D02*X256250D01*
G54D65*X230000Y141181D02*Y138819D01*
X241810Y141181D02*Y138819D01*
X230000Y131181D02*Y128819D01*
X241810Y131181D02*Y128819D01*
G54D66*X229250Y115000D02*X235750D01*
X229250Y110000D02*X235750D01*
X229250Y105000D02*X235750D01*
X249750D02*X256250D01*
X249750Y110000D02*X256250D01*
X249750Y115000D02*X256250D01*
G54D65*X265000Y108681D02*Y106319D01*
G54D67*X311900Y167000D02*X323100D01*
X311900Y190000D02*X323100D01*
G54D65*X288819Y217500D02*X291181D01*
X278819D02*X281181D01*
X269607Y212776D02*X270393D01*
X288819Y205690D02*X291181D01*
X278819D02*X281181D01*
X269607Y205690D02*X270393D01*
X288819Y195690D02*X291181D01*
X278819D02*X281181D01*
X269607Y195690D02*X270393D01*
X288819Y183880D02*X291181D01*
X278819D02*X281181D01*
X269607Y188604D02*X270393D01*
X276810Y108681D02*Y106319D01*
X268819Y89310D02*X271181D01*
X277107Y124586D02*X277893D01*
X286319Y129310D02*X288681D01*
X277107Y117500D02*X277893D01*
X286319Y117500D02*X288681D01*
X268819Y77500D02*X271181D01*
X281319D02*X283681D01*
X281319Y89310D02*X283681D01*
G54D66*X294250Y85000D02*X300750D01*
X294250Y80000D02*X300750D01*
G54D65*X287500Y110255D02*Y104745D01*
X299310Y110255D02*Y104745D01*
X320000Y131181D02*Y128819D01*
Y141181D02*Y138819D01*
G54D66*X319250Y120000D02*X325750D01*
X319250Y115000D02*X325750D01*
X319250Y110000D02*X325750D01*
X319250Y105000D02*X325750D01*
G54D65*X331810Y131181D02*Y128819D01*
Y141181D02*Y138819D01*
X298819Y129310D02*X301181D01*
X298819Y117500D02*X301181D01*
G54D64*X365350Y215000D02*X369650D01*
G54D68*X347500Y230000D02*Y217500D01*
X345000D02*X350000D01*
Y230000D02*Y217500D01*
X337500Y230000D02*X350000D01*
G54D64*X365350Y210000D02*X369650D01*
X365350Y205000D02*X369650D01*
X365350Y200000D02*X369650D01*
X365350Y195000D02*X369650D01*
X365350Y190000D02*X369650D01*
X365350Y185000D02*X369650D01*
G54D68*X337500Y195000D02*X352500D01*
X350000D02*Y162500D01*
X352500Y195000D02*Y162500D01*
X347500Y195000D02*Y162500D01*
X345000Y230000D02*Y162500D01*
X342500Y230000D02*Y162500D01*
X340000Y230000D02*Y162500D01*
X337500Y230000D02*Y162500D01*
X352500D01*
G54D66*X294250Y75000D02*X300750D01*
X314750D02*X321250D01*
X314750Y80000D02*X321250D01*
X314750Y85000D02*X321250D01*
X294250Y70000D02*X300750D01*
X314750D02*X321250D01*
G54D65*X330000Y81181D02*Y78819D01*
X341810Y81181D02*Y78819D01*
X357500Y82755D02*Y77245D01*
X369310Y82755D02*Y77245D01*
G54D66*X339750Y105000D02*X346250D01*
X339750Y110000D02*X346250D01*
X339750Y115000D02*X346250D01*
X339750Y120000D02*X346250D01*
G54D65*X355000Y108681D02*Y106319D01*
X367107Y124586D02*X367893D01*
X388819Y129310D02*X391181D01*
X376319D02*X378681D01*
X367107Y117500D02*X367893D01*
X388819Y117500D02*X391181D01*
X376319D02*X378681D01*
X366810Y108681D02*Y106319D01*
X377500Y110255D02*Y104745D01*
X389310Y110255D02*Y104745D01*
X365000Y147893D02*Y147107D01*
X372086Y147893D02*Y147107D01*
G54D67*X311900Y212000D02*X323100D01*
X311900Y235000D02*X323100D01*
M02*
