G04 start of page 10 for group -4079 idx -4079 *
G04 Title: (unknown), topsilk *
G04 Creator: pcb 1.99z *
G04 CreationDate: Wed 03 Jul 2013 06:17:13 PM GMT UTC *
G04 For: commonadmin *
G04 Format: Gerber/RS-274X *
G04 PCB-Dimensions: 600000 500000 *
G04 PCB-Coordinate-Origin: lower left *
%MOIN*%
%FSLAX25Y25*%
%LNTOPSILK*%
%ADD76C,0.0200*%
%ADD75C,0.0100*%
%ADD74C,0.0080*%
G54D74*X194233Y136240D02*X198957D01*
X194233Y128760D02*X198957D01*
G54D75*X172250Y162000D02*Y143000D01*
X203250D01*
Y162000D01*
X172250D02*X185250D01*
X203250D02*X190250D01*
X185250D02*G75*G03X190250Y162000I2500J0D01*G01*
G54D74*X178543Y173740D02*X183267D01*
X178543Y166260D02*X183267D01*
G54D75*X92500Y177500D02*X122500D01*
X92500Y107500D02*X122500D01*
X91600Y177500D02*Y107500D01*
X115600Y177500D02*Y175500D01*
Y109500D02*Y107500D01*
X122500Y177500D02*Y107500D01*
X70300D02*X92600D01*
X70300Y177500D02*X92600D01*
X70300D02*Y107500D01*
X71000Y191000D02*X126000D01*
X71000Y249000D02*Y191000D01*
Y249000D02*X126000D01*
Y191000D01*
G54D74*X153760Y138267D02*Y133543D01*
X161240Y138267D02*Y133543D01*
X178543Y176260D02*X183267D01*
X178543Y183740D02*X183267D01*
X171043Y221260D02*X175767D01*
X171043Y228740D02*X175767D01*
X171043Y231260D02*X175767D01*
X171043Y238740D02*X175767D01*
G54D75*X169750Y217000D02*Y198000D01*
X200750D01*
Y217000D01*
X169750D02*X182750D01*
X200750D02*X187750D01*
X182750D02*G75*G03X187750Y217000I2500J0D01*G01*
G54D74*X193740Y230767D02*Y226043D01*
X186260Y230767D02*Y226043D01*
X146733Y223740D02*X151457D01*
X146733Y216260D02*X151457D01*
X128760Y223957D02*Y219233D01*
X136240Y223957D02*Y219233D01*
G54D75*X138000Y207000D02*Y193000D01*
X137929Y192929D02*G75*G03X137929Y207071I7071J7071D01*G01*
X152000Y247000D02*Y233000D01*
X152071Y247071D02*G75*G03X152071Y232929I-7071J-7071D01*G01*
G54D74*X163740Y115767D02*Y111043D01*
X156260Y115767D02*Y111043D01*
X171043Y128760D02*X175767D01*
X171043Y136240D02*X175767D01*
X146064Y117245D02*X146850D01*
X146064Y122755D02*X146850D01*
X146064Y104745D02*X146850D01*
X146064Y110255D02*X146850D01*
G54D75*X169500Y124500D02*Y105500D01*
X200500D01*
Y124500D01*
X169500D02*X182500D01*
X200500D02*X187500D01*
X182500D02*G75*G03X187500Y124500I2500J0D01*G01*
X92500Y100000D02*X122500D01*
X92500Y30000D02*X122500D01*
X91600Y100000D02*Y30000D01*
X115600Y100000D02*Y98000D01*
Y32000D02*Y30000D01*
X122500Y100000D02*Y30000D01*
X70300D02*X92600D01*
X70300Y100000D02*X92600D01*
X70300D02*Y30000D01*
G54D74*X153760Y93957D02*Y89233D01*
X161240Y93957D02*Y89233D01*
G54D75*X172250Y77000D02*Y58000D01*
X203250D01*
Y77000D01*
X172250D02*X185250D01*
X203250D02*X190250D01*
X185250D02*G75*G03X190250Y77000I2500J0D01*G01*
G54D74*X173543Y93760D02*X178267D01*
X173543Y101240D02*X178267D01*
X173937Y79686D02*X177873D01*
X173937Y90314D02*X177873D01*
X211043Y103740D02*X215767D01*
X211043Y96260D02*X215767D01*
X211043Y113740D02*X215767D01*
X211043Y106260D02*X215767D01*
G54D75*X227250Y122000D02*Y103000D01*
X258250D01*
Y122000D01*
X227250D02*X240250D01*
X258250D02*X245250D01*
X240250D02*G75*G03X245250Y122000I2500J0D01*G01*
G54D74*X233543Y143740D02*X238267D01*
X233543Y136260D02*X238267D01*
X233543Y133740D02*X238267D01*
X233543Y126260D02*X238267D01*
X273740Y85767D02*Y81043D01*
X266260Y85767D02*Y81043D01*
X278760Y85767D02*Y81043D01*
X286240Y85767D02*Y81043D01*
X291437Y112814D02*X295373D01*
X291437Y102186D02*X295373D01*
X291240Y125767D02*Y121043D01*
X283760Y125767D02*Y121043D01*
G54D75*X292250Y87000D02*Y68000D01*
X323250D01*
Y87000D01*
X292250D02*X305250D01*
X323250D02*X310250D01*
X305250D02*G75*G03X310250Y87000I2500J0D01*G01*
G54D74*X333543Y83740D02*X338267D01*
X333543Y76260D02*X338267D01*
X361437Y85314D02*X365373D01*
X361437Y74686D02*X365373D01*
X268543Y111240D02*X273267D01*
X268543Y103760D02*X273267D01*
X323543Y133740D02*X328267D01*
X323543Y126260D02*X328267D01*
X323543Y136260D02*X328267D01*
X323543Y143740D02*X328267D01*
X280255Y121436D02*Y120650D01*
X274745Y121436D02*Y120650D01*
X303740Y125767D02*Y121043D01*
X296260Y125767D02*Y121043D01*
G54D75*X317250Y122000D02*Y103000D01*
X348250D01*
Y122000D01*
X317250D02*X330250D01*
X348250D02*X335250D01*
X330250D02*G75*G03X335250Y122000I2500J0D01*G01*
G54D74*X358543Y111240D02*X363267D01*
X358543Y103760D02*X363267D01*
X370255Y121436D02*Y120650D01*
X364745Y121436D02*Y120650D01*
X393740Y125767D02*Y121043D01*
X386260Y125767D02*Y121043D01*
X381437Y112814D02*X385373D01*
X381437Y102186D02*X385373D01*
X368150Y150255D02*X368936D01*
X368150Y144745D02*X368936D01*
X381240Y125767D02*Y121043D01*
X373760Y125767D02*Y121043D01*
G54D75*X357500Y165000D02*X387500D01*
X357500Y235000D02*X387500D01*
X388400D02*Y165000D01*
X364400Y167000D02*Y165000D01*
Y235000D02*Y233000D01*
X357500Y235000D02*Y165000D01*
X387400Y235000D02*X409700D01*
X387400Y165000D02*X409700D01*
Y235000D02*Y165000D01*
G54D76*X305800Y201600D02*X329200D01*
G54D75*X332500Y207700D01*
Y244400D02*Y207700D01*
X302500Y244400D02*X332500D01*
X302500D02*Y207700D01*
X305800Y201600D01*
G54D74*X293740Y213957D02*Y209233D01*
X286260Y213957D02*Y209233D01*
G54D76*X305800Y156600D02*X329200D01*
G54D75*X332500Y162700D01*
Y199400D02*Y162700D01*
X302500Y199400D02*X332500D01*
X302500D02*Y162700D01*
X305800Y156600D01*
G54D74*X283740Y213957D02*Y209233D01*
X276260Y213957D02*Y209233D01*
X272755Y209626D02*Y208840D01*
X267245Y209626D02*Y208840D01*
X293740Y192147D02*Y187423D01*
X286260Y192147D02*Y187423D01*
X283740Y192147D02*Y187423D01*
X276260Y192147D02*Y187423D01*
X272755Y192540D02*Y191754D01*
X267245Y192540D02*Y191754D01*
G54D75*X177755Y172150D02*X179755D01*
X180255Y171650D01*
Y170650D01*
X179755Y170150D02*X180255Y170650D01*
X178255Y170150D02*X179755D01*
X178255Y172150D02*Y168150D01*
X179055Y170150D02*X180255Y168150D01*
X182955Y172150D02*X183455Y171650D01*
X181955Y172150D02*X182955D01*
X181455Y171650D02*X181955Y172150D01*
X181455Y171650D02*Y168650D01*
X181955Y168150D01*
X182955Y170350D02*X183455Y169850D01*
X181455Y170350D02*X182955D01*
X181955Y168150D02*X182955D01*
X183455Y168650D01*
Y169850D02*Y168650D01*
X183250Y212500D02*Y209000D01*
X183750Y208500D01*
X184750D01*
X185250Y209000D01*
Y212500D02*Y209000D01*
X186450Y210000D02*X188450Y212500D01*
X186450Y210000D02*X188950D01*
X188450Y212500D02*Y208500D01*
X174555Y226850D02*X175855D01*
X176555Y226150D02*X175855Y226850D01*
X176555Y226150D02*Y223550D01*
X175855Y222850D01*
X174555D02*X175855D01*
X172855Y226850D02*X171355Y224850D01*
Y223350D01*
X171855Y222850D02*X171355Y223350D01*
X171855Y222850D02*X172855D01*
X173355Y223350D02*X172855Y222850D01*
X173355Y224350D02*Y223350D01*
Y224350D02*X172855Y224850D01*
X171355D02*X172855D01*
X174555Y232850D02*X176555D01*
X174555D02*X174055Y233350D01*
Y234350D02*Y233350D01*
X174555Y234850D02*X174055Y234350D01*
X174555Y234850D02*X176055D01*
Y236850D02*Y232850D01*
X175255Y234850D02*X174055Y236850D01*
X170855Y232850D02*X172855D01*
Y234850D02*Y232850D01*
Y234850D02*X172355Y234350D01*
X171355D02*X172355D01*
X171355D02*X170855Y234850D01*
Y236350D02*Y234850D01*
X171355Y236850D02*X170855Y236350D01*
X171355Y236850D02*X172355D01*
X172855Y236350D02*X172355Y236850D01*
X192150Y231555D02*Y229555D01*
X191650Y229055D01*
X190650D02*X191650D01*
X190150Y229555D02*X190650Y229055D01*
X190150Y231055D02*Y229555D01*
X188150Y231055D02*X192150D01*
X190150Y230255D02*X188150Y229055D01*
X191650Y227855D02*X192150Y227355D01*
Y226355D01*
X191650Y225855D01*
X188150Y226355D02*X188650Y225855D01*
X188150Y227355D02*Y226355D01*
X188650Y227855D02*X188150Y227355D01*
X190350D02*Y226355D01*
X190850Y225855D02*X191650D01*
X188650D02*X189850D01*
X190350Y226355D01*
X190850Y225855D02*X190350Y226355D01*
X145945Y222150D02*X147945D01*
X148445Y221650D01*
Y220650D01*
X147945Y220150D02*X148445Y220650D01*
X146445Y220150D02*X147945D01*
X146445Y222150D02*Y218150D01*
X147245Y220150D02*X148445Y218150D01*
X149645Y221650D02*X150145Y222150D01*
X151645D01*
X152145Y221650D01*
Y220650D01*
X149645Y218150D02*X152145Y220650D01*
X149645Y218150D02*X152145D01*
X153500Y249000D02*X156500D01*
X157000Y248500D01*
Y247500D01*
X156500Y247000D01*
X154000D02*X156500D01*
X153000Y248000D02*X154000Y247000D01*
X153000Y248500D02*Y248000D01*
X153500Y249000D02*X153000Y248500D01*
X154500Y248000D02*X153000Y247000D01*
X156200Y245800D02*X157000Y245000D01*
X153000D02*X157000D01*
X153000Y245800D02*Y244300D01*
X130350Y220445D02*Y218445D01*
Y220445D02*X130850Y220945D01*
X131850D01*
X132350Y220445D02*X131850Y220945D01*
X132350Y220445D02*Y218945D01*
X130350D02*X134350D01*
X132350Y219745D02*X134350Y220945D01*
X131150Y222145D02*X130350Y222945D01*
X134350D01*
Y223645D02*Y222145D01*
X105000Y222000D02*Y220000D01*
Y222000D02*X104500Y222500D01*
X103300D02*X104500D01*
X102800Y222000D02*X103300Y222500D01*
X102800Y222000D02*Y220500D01*
X101000D02*X105000D01*
X101000Y222000D02*Y220000D01*
Y222000D02*X101500Y222500D01*
X102300D01*
X102800Y222000D02*X102300Y222500D01*
X101000Y223700D02*X105000D01*
X101000D02*X105000Y226200D01*
X101000D02*X105000D01*
Y229400D02*Y228100D01*
X104300Y227400D02*X105000Y228100D01*
X101700Y227400D02*X104300D01*
X101700D02*X101000Y228100D01*
Y229400D02*Y228100D01*
X101800Y230600D02*X101000Y231400D01*
X105000D01*
Y232100D02*Y230600D01*
X133500Y191000D02*X136500D01*
X133500D02*X133000Y191500D01*
Y192500D02*Y191500D01*
Y192500D02*X133500Y193000D01*
X136000D01*
X137000Y192000D02*X136000Y193000D01*
X137000Y192000D02*Y191500D01*
X136500Y191000D02*X137000Y191500D01*
X135500Y192000D02*X137000Y193000D01*
X133500Y194200D02*X133000Y194700D01*
Y196200D02*Y194700D01*
Y196200D02*X133500Y196700D01*
X134500D01*
X137000Y194200D02*X134500Y196700D01*
X137000D02*Y194200D01*
X193445Y134650D02*X195445D01*
X195945Y134150D01*
Y133150D01*
X195445Y132650D02*X195945Y133150D01*
X193945Y132650D02*X195445D01*
X193945Y134650D02*Y130650D01*
X194745Y132650D02*X195945Y130650D01*
X197645D02*X199645Y134650D01*
X197145D02*X199645D01*
X185750Y157500D02*Y154000D01*
X186250Y153500D01*
X187250D01*
X187750Y154000D01*
Y157500D02*Y154000D01*
X188950Y157000D02*X189450Y157500D01*
X190450D01*
X190950Y157000D01*
X190450Y153500D02*X190950Y154000D01*
X189450Y153500D02*X190450D01*
X188950Y154000D02*X189450Y153500D01*
Y155700D02*X190450D01*
X190950Y157000D02*Y156200D01*
Y155200D02*Y154000D01*
Y155200D02*X190450Y155700D01*
X190950Y156200D02*X190450Y155700D01*
X182055Y177850D02*X184055D01*
X182055D02*X181555Y178350D01*
Y179350D02*Y178350D01*
X182055Y179850D02*X181555Y179350D01*
X182055Y179850D02*X183555D01*
Y181850D02*Y177850D01*
X182755Y179850D02*X181555Y181850D01*
X180355Y180350D02*X178355Y177850D01*
X177855Y180350D02*X180355D01*
X178355Y181850D02*Y177850D01*
X158150Y115855D02*Y114555D01*
X158850Y116555D02*X158150Y115855D01*
X158850Y116555D02*X161450D01*
X162150Y115855D01*
Y114555D01*
X161350Y113355D02*X162150Y112555D01*
X158150D02*X162150D01*
X158150Y113355D02*Y111855D01*
X161650Y110655D02*X162150Y110155D01*
Y108655D01*
X161650Y108155D01*
X160650D02*X161650D01*
X158150Y110655D02*X160650Y108155D01*
X158150Y110655D02*Y108155D01*
X174555Y130350D02*X176555D01*
X174555D02*X174055Y130850D01*
Y131850D02*Y130850D01*
X174555Y132350D02*X174055Y131850D01*
X174555Y132350D02*X176055D01*
Y134350D02*Y130350D01*
X175255Y132350D02*X174055Y134350D01*
X172855Y133850D02*X172355Y134350D01*
X172855Y133850D02*Y133050D01*
X172155Y132350D01*
X171555D02*X172155D01*
X171555D02*X170855Y133050D01*
Y133850D02*Y133050D01*
X171355Y134350D02*X170855Y133850D01*
X171355Y134350D02*X172355D01*
X172855Y131650D02*X172155Y132350D01*
X172855Y131650D02*Y130850D01*
X172355Y130350D01*
X171355D02*X172355D01*
X171355D02*X170855Y130850D01*
Y131650D02*Y130850D01*
X171555Y132350D02*X170855Y131650D01*
X147607Y121850D02*X148907D01*
X149607Y121150D02*X148907Y121850D01*
X149607Y121150D02*Y118550D01*
X148907Y117850D01*
X147607D02*X148907D01*
X146407Y118650D02*X145607Y117850D01*
Y121850D02*Y117850D01*
X144907Y121850D02*X146407D01*
X143707Y118650D02*X142907Y117850D01*
Y121850D02*Y117850D01*
X142207Y121850D02*X143707D01*
X147607Y109350D02*X148907D01*
X149607Y108650D02*X148907Y109350D01*
X149607Y108650D02*Y106050D01*
X148907Y105350D01*
X147607D02*X148907D01*
X146407Y106150D02*X145607Y105350D01*
Y109350D02*Y105350D01*
X144907Y109350D02*X146407D01*
X143707Y108850D02*X143207Y109350D01*
X143707Y108850D02*Y105850D01*
X143207Y105350D01*
X142207D02*X143207D01*
X142207D02*X141707Y105850D01*
Y108850D02*Y105850D01*
X142207Y109350D02*X141707Y108850D01*
X142207Y109350D02*X143207D01*
X143707Y108350D02*X141707Y106350D01*
X183000Y120000D02*Y116500D01*
X183500Y116000D01*
X184500D01*
X185000Y116500D01*
Y120000D02*Y116500D01*
X186200Y119200D02*X187000Y120000D01*
Y116000D01*
X186200D02*X187700D01*
X117500Y142500D02*X113500Y145000D01*
Y142500D02*X117500Y145000D01*
X114000Y146200D02*X113500Y146700D01*
Y148200D02*Y146700D01*
Y148200D02*X114000Y148700D01*
X115000D01*
X117500Y146200D02*X115000Y148700D01*
X117500D02*Y146200D01*
Y65000D02*X113500Y67500D01*
Y65000D02*X117500Y67500D01*
X114300Y68700D02*X113500Y69500D01*
X117500D01*
Y70200D02*Y68700D01*
X185750Y72500D02*Y69000D01*
X186250Y68500D01*
X187250D01*
X187750Y69000D01*
Y72500D02*Y69000D01*
X188950Y72000D02*X189450Y72500D01*
X190950D01*
X191450Y72000D01*
Y71000D01*
X188950Y68500D02*X191450Y71000D01*
X188950Y68500D02*X191450D01*
X155350Y134755D02*Y132755D01*
Y134755D02*X155850Y135255D01*
X156850D01*
X157350Y134755D02*X156850Y135255D01*
X157350Y134755D02*Y133255D01*
X155350D02*X159350D01*
X157350Y134055D02*X159350Y135255D01*
Y136955D02*X157350Y138455D01*
X155850D02*X157350D01*
X155350Y137955D02*X155850Y138455D01*
X155350Y137955D02*Y136955D01*
X155850Y136455D02*X155350Y136955D01*
X155850Y136455D02*X156850D01*
X157350Y136955D01*
Y138455D02*Y136955D01*
X155350Y90445D02*Y88445D01*
Y90445D02*X155850Y90945D01*
X156850D01*
X157350Y90445D02*X156850Y90945D01*
X157350Y90445D02*Y88945D01*
X155350D02*X159350D01*
X157350Y89745D02*X159350Y90945D01*
X156150Y92145D02*X155350Y92945D01*
X159350D01*
Y93645D02*Y92145D01*
X158850Y94845D02*X159350Y95345D01*
X155850Y94845D02*X158850D01*
X155850D02*X155350Y95345D01*
Y96345D02*Y95345D01*
Y96345D02*X155850Y96845D01*
X158850D01*
X159350Y96345D02*X158850Y96845D01*
X159350Y96345D02*Y95345D01*
X158350Y94845D02*X156350Y96845D01*
X177055Y95350D02*X179055D01*
X177055D02*X176555Y95850D01*
Y96850D02*Y95850D01*
X177055Y97350D02*X176555Y96850D01*
X177055Y97350D02*X178555D01*
Y99350D02*Y95350D01*
X177755Y97350D02*X176555Y99350D01*
X175355Y96150D02*X174555Y95350D01*
Y99350D02*Y95350D01*
X173855Y99350D02*X175355D01*
X172655Y95850D02*X172155Y95350D01*
X170655D02*X172155D01*
X170655D02*X170155Y95850D01*
Y96850D02*Y95850D01*
X172655Y99350D02*X170155Y96850D01*
Y99350D02*X172655D01*
X177055Y86850D02*X178355D01*
X179055Y86150D02*X178355Y86850D01*
X179055Y86150D02*Y83550D01*
X178355Y82850D01*
X177055D02*X178355D01*
X175855Y83650D02*X175055Y82850D01*
Y86850D02*Y82850D01*
X174355Y86850D02*X175855D01*
X173155Y83350D02*X172655Y82850D01*
X171655D02*X172655D01*
X171655D02*X171155Y83350D01*
X171655Y86850D02*X171155Y86350D01*
X171655Y86850D02*X172655D01*
X173155Y86350D02*X172655Y86850D01*
X171655Y84650D02*X172655D01*
X171155Y84150D02*Y83350D01*
Y86350D02*Y85150D01*
X171655Y84650D01*
X171155Y84150D02*X171655Y84650D01*
X210255Y102150D02*X212255D01*
X212755Y101650D01*
Y100650D01*
X212255Y100150D02*X212755Y100650D01*
X210755Y100150D02*X212255D01*
X210755Y102150D02*Y98150D01*
X211555Y100150D02*X212755Y98150D01*
X213955Y101350D02*X214755Y102150D01*
Y98150D01*
X213955D02*X215455D01*
X216655Y101350D02*X217455Y102150D01*
Y98150D01*
X216655D02*X218155D01*
X210255Y112150D02*X212255D01*
X212755Y111650D01*
Y110650D01*
X212255Y110150D02*X212755Y110650D01*
X210755Y110150D02*X212255D01*
X210755Y112150D02*Y108150D01*
X211555Y110150D02*X212755Y108150D01*
X213955Y111350D02*X214755Y112150D01*
Y108150D01*
X213955D02*X215455D01*
X216655Y111650D02*X217155Y112150D01*
X218155D01*
X218655Y111650D01*
X218155Y108150D02*X218655Y108650D01*
X217155Y108150D02*X218155D01*
X216655Y108650D02*X217155Y108150D01*
Y110350D02*X218155D01*
X218655Y111650D02*Y110850D01*
Y109850D02*Y108650D01*
Y109850D02*X218155Y110350D01*
X218655Y110850D02*X218155Y110350D01*
X240750Y117500D02*Y114000D01*
X241250Y113500D01*
X242250D01*
X242750Y114000D01*
Y117500D02*Y114000D01*
X243950Y117500D02*X245950D01*
X243950D02*Y115500D01*
X244450Y116000D01*
X245450D01*
X245950Y115500D01*
Y114000D01*
X245450Y113500D02*X245950Y114000D01*
X244450Y113500D02*X245450D01*
X243950Y114000D02*X244450Y113500D01*
X232755Y142150D02*X234755D01*
X235255Y141650D01*
Y140650D01*
X234755Y140150D02*X235255Y140650D01*
X233255Y140150D02*X234755D01*
X233255Y142150D02*Y138150D01*
X234055Y140150D02*X235255Y138150D01*
X236455Y141350D02*X237255Y142150D01*
Y138150D01*
X236455D02*X237955D01*
X239155Y139650D02*X241155Y142150D01*
X239155Y139650D02*X241655D01*
X241155Y142150D02*Y138150D01*
X232755Y132150D02*X234755D01*
X235255Y131650D01*
Y130650D01*
X234755Y130150D02*X235255Y130650D01*
X233255Y130150D02*X234755D01*
X233255Y132150D02*Y128150D01*
X234055Y130150D02*X235255Y128150D01*
X236455Y131350D02*X237255Y132150D01*
Y128150D01*
X236455D02*X237955D01*
X239155Y132150D02*X241155D01*
X239155D02*Y130150D01*
X239655Y130650D01*
X240655D01*
X241155Y130150D01*
Y128650D01*
X240655Y128150D02*X241155Y128650D01*
X239655Y128150D02*X240655D01*
X239155Y128650D02*X239655Y128150D01*
X267755Y109650D02*X269755D01*
X270255Y109150D01*
Y108150D01*
X269755Y107650D02*X270255Y108150D01*
X268255Y107650D02*X269755D01*
X268255Y109650D02*Y105650D01*
X269055Y107650D02*X270255Y105650D01*
X271455Y108850D02*X272255Y109650D01*
Y105650D01*
X271455D02*X272955D01*
X275655Y109650D02*X276155Y109150D01*
X274655Y109650D02*X275655D01*
X274155Y109150D02*X274655Y109650D01*
X274155Y109150D02*Y106150D01*
X274655Y105650D01*
X275655Y107850D02*X276155Y107350D01*
X274155Y107850D02*X275655D01*
X274655Y105650D02*X275655D01*
X276155Y106150D01*
Y107350D02*Y106150D01*
X322755Y132150D02*X324755D01*
X325255Y131650D01*
Y130650D01*
X324755Y130150D02*X325255Y130650D01*
X323255Y130150D02*X324755D01*
X323255Y132150D02*Y128150D01*
X324055Y130150D02*X325255Y128150D01*
X326455Y131350D02*X327255Y132150D01*
Y128150D01*
X326455D02*X327955D01*
X329655D02*X331155Y130150D01*
Y131650D02*Y130150D01*
X330655Y132150D02*X331155Y131650D01*
X329655Y132150D02*X330655D01*
X329155Y131650D02*X329655Y132150D01*
X329155Y131650D02*Y130650D01*
X329655Y130150D01*
X331155D01*
X275650Y123493D02*Y122193D01*
X276350Y124193D02*X275650Y123493D01*
X276350Y124193D02*X278950D01*
X279650Y123493D01*
Y122193D01*
X278850Y120993D02*X279650Y120193D01*
X275650D02*X279650D01*
X275650Y120993D02*Y119493D01*
X277150Y118293D02*X279650Y116293D01*
X277150Y118293D02*Y115793D01*
X275650Y116293D02*X279650D01*
X302150Y126555D02*Y124555D01*
X301650Y124055D01*
X300650D02*X301650D01*
X300150Y124555D02*X300650Y124055D01*
X300150Y126055D02*Y124555D01*
X298150Y126055D02*X302150D01*
X300150Y125255D02*X298150Y124055D01*
X301350Y122855D02*X302150Y122055D01*
X298150D02*X302150D01*
X298150Y122855D02*Y121355D01*
Y119655D02*X302150Y117655D01*
Y120155D02*Y117655D01*
X290955Y105650D02*X292255D01*
X290255Y106350D02*X290955Y105650D01*
X290255Y108950D02*Y106350D01*
Y108950D02*X290955Y109650D01*
X292255D01*
X293455Y108850D02*X294255Y109650D01*
Y105650D01*
X293455D02*X294955D01*
X296155Y109650D02*X298155D01*
X296155D02*Y107650D01*
X296655Y108150D01*
X297655D01*
X298155Y107650D01*
Y106150D01*
X297655Y105650D02*X298155Y106150D01*
X296655Y105650D02*X297655D01*
X296155Y106150D02*X296655Y105650D01*
X285650Y125855D02*Y124555D01*
X286350Y126555D02*X285650Y125855D01*
X286350Y126555D02*X288950D01*
X289650Y125855D01*
Y124555D01*
X288850Y123355D02*X289650Y122555D01*
X285650D02*X289650D01*
X285650Y123355D02*Y121855D01*
Y120155D02*X287650Y118655D01*
X289150D01*
X289650Y119155D02*X289150Y118655D01*
X289650Y120155D02*Y119155D01*
X289150Y120655D02*X289650Y120155D01*
X288150Y120655D02*X289150D01*
X288150D02*X287650Y120155D01*
Y118655D01*
X330750Y117500D02*Y114000D01*
X331250Y113500D01*
X332250D01*
X332750Y114000D01*
Y117500D02*Y114000D01*
X335450Y117500D02*X335950Y117000D01*
X334450Y117500D02*X335450D01*
X333950Y117000D02*X334450Y117500D01*
X333950Y117000D02*Y114000D01*
X334450Y113500D01*
X335450Y115700D02*X335950Y115200D01*
X333950Y115700D02*X335450D01*
X334450Y113500D02*X335450D01*
X335950Y114000D01*
Y115200D02*Y114000D01*
X392150Y126555D02*Y124555D01*
X391650Y124055D01*
X390650D02*X391650D01*
X390150Y124555D02*X390650Y124055D01*
X390150Y126055D02*Y124555D01*
X388150Y126055D02*X392150D01*
X390150Y125255D02*X388150Y124055D01*
X391650Y122855D02*X392150Y122355D01*
Y120855D01*
X391650Y120355D01*
X390650D02*X391650D01*
X388150Y122855D02*X390650Y120355D01*
X388150Y122855D02*Y120355D01*
X391350Y119155D02*X392150Y118355D01*
X388150D02*X392150D01*
X388150Y119155D02*Y117655D01*
X380955Y105650D02*X382255D01*
X380255Y106350D02*X380955Y105650D01*
X380255Y108950D02*Y106350D01*
Y108950D02*X380955Y109650D01*
X382255D01*
X383455Y108850D02*X384255Y109650D01*
Y105650D01*
X383455D02*X384955D01*
X386655D02*X388655Y109650D01*
X386155D02*X388655D01*
X375650Y125855D02*Y124555D01*
X376350Y126555D02*X375650Y125855D01*
X376350Y126555D02*X378950D01*
X379650Y125855D01*
Y124555D01*
X379150Y123355D02*X379650Y122855D01*
Y121355D01*
X379150Y120855D01*
X378150D02*X379150D01*
X375650Y123355D02*X378150Y120855D01*
X375650Y123355D02*Y120855D01*
X376150Y119655D02*X375650Y119155D01*
X376150Y119655D02*X379150D01*
X379650Y119155D01*
Y118155D01*
X379150Y117655D01*
X376150D02*X379150D01*
X375650Y118155D02*X376150Y117655D01*
X375650Y119155D02*Y118155D01*
X376650Y119655D02*X378650Y117655D01*
X327055Y137850D02*X329055D01*
X327055D02*X326555Y138350D01*
Y139350D02*Y138350D01*
X327055Y139850D02*X326555Y139350D01*
X327055Y139850D02*X328555D01*
Y141850D02*Y137850D01*
X327755Y139850D02*X326555Y141850D01*
X325355Y138650D02*X324555Y137850D01*
Y141850D02*Y137850D01*
X323855Y141850D02*X325355D01*
X322655Y141350D02*X322155Y141850D01*
X322655Y141350D02*Y140550D01*
X321955Y139850D01*
X321355D02*X321955D01*
X321355D02*X320655Y140550D01*
Y141350D02*Y140550D01*
X321155Y141850D02*X320655Y141350D01*
X321155Y141850D02*X322155D01*
X322655Y139150D02*X321955Y139850D01*
X322655Y139150D02*Y138350D01*
X322155Y137850D01*
X321155D02*X322155D01*
X321155D02*X320655Y138350D01*
Y139150D02*Y138350D01*
X321355Y139850D02*X320655Y139150D01*
X318200Y241400D02*X319500D01*
X317500Y242100D02*X318200Y241400D01*
X317500Y244700D02*Y242100D01*
Y244700D02*X318200Y245400D01*
X319500D01*
X320700Y244900D02*X321200Y245400D01*
X322700D01*
X323200Y244900D01*
Y243900D01*
X320700Y241400D02*X323200Y243900D01*
X320700Y241400D02*X323200D01*
X318200Y196400D02*X319500D01*
X317500Y197100D02*X318200Y196400D01*
X317500Y199700D02*Y197100D01*
Y199700D02*X318200Y200400D01*
X319500D01*
X320700Y199600D02*X321500Y200400D01*
Y196400D01*
X320700D02*X322200D01*
X357755Y109650D02*X359755D01*
X360255Y109150D01*
Y108150D01*
X359755Y107650D02*X360255Y108150D01*
X358255Y107650D02*X359755D01*
X358255Y109650D02*Y105650D01*
X359055Y107650D02*X360255Y105650D01*
X361455Y109150D02*X361955Y109650D01*
X363455D01*
X363955Y109150D01*
Y108150D01*
X361455Y105650D02*X363955Y108150D01*
X361455Y105650D02*X363955D01*
X365155Y106150D02*X365655Y105650D01*
X365155Y109150D02*Y106150D01*
Y109150D02*X365655Y109650D01*
X366655D01*
X367155Y109150D01*
Y106150D01*
X366655Y105650D02*X367155Y106150D01*
X365655Y105650D02*X366655D01*
X365155Y106650D02*X367155Y108650D01*
X360955Y78150D02*X362255D01*
X360255Y78850D02*X360955Y78150D01*
X360255Y81450D02*Y78850D01*
Y81450D02*X360955Y82150D01*
X362255D01*
X363455Y81350D02*X364255Y82150D01*
Y78150D01*
X363455D02*X364955D01*
X366155Y78650D02*X366655Y78150D01*
X366155Y79450D02*Y78650D01*
Y79450D02*X366855Y80150D01*
X367455D01*
X368155Y79450D01*
Y78650D01*
X367655Y78150D02*X368155Y78650D01*
X366655Y78150D02*X367655D01*
X366155Y80850D02*X366855Y80150D01*
X366155Y81650D02*Y80850D01*
Y81650D02*X366655Y82150D01*
X367655D01*
X368155Y81650D01*
Y80850D01*
X367455Y80150D02*X368155Y80850D01*
X362500Y200000D02*X366500Y197500D01*
Y200000D02*X362500Y197500D01*
X366000Y196300D02*X366500Y195800D01*
Y194800D01*
X366000Y194300D01*
X362500Y194800D02*X363000Y194300D01*
X362500Y195800D02*Y194800D01*
X363000Y196300D02*X362500Y195800D01*
X364700D02*Y194800D01*
X365200Y194300D02*X366000D01*
X363000D02*X364200D01*
X364700Y194800D01*
X365200Y194300D02*X364700Y194800D01*
X288150Y214045D02*Y212745D01*
X288850Y214745D02*X288150Y214045D01*
X288850Y214745D02*X291450D01*
X292150Y214045D01*
Y212745D01*
X289650Y211545D02*X292150Y209545D01*
X289650Y211545D02*Y209045D01*
X288150Y209545D02*X292150D01*
X278150Y214045D02*Y212745D01*
X278850Y214745D02*X278150Y214045D01*
X278850Y214745D02*X281450D01*
X282150Y214045D01*
Y212745D01*
Y210045D02*X281650Y209545D01*
X282150Y211045D02*Y210045D01*
X281650Y211545D02*X282150Y211045D01*
X278650Y211545D02*X281650D01*
X278650D02*X278150Y211045D01*
X280350Y210045D02*X279850Y209545D01*
X280350Y211545D02*Y210045D01*
X278150Y211045D02*Y210045D01*
X278650Y209545D01*
X279850D01*
X268150Y211683D02*Y210383D01*
X268850Y212383D02*X268150Y211683D01*
X268850Y212383D02*X271450D01*
X272150Y211683D01*
Y210383D01*
X268650Y209183D02*X268150Y208683D01*
X268650Y209183D02*X269450D01*
X270150Y208483D01*
Y207883D01*
X269450Y207183D01*
X268650D02*X269450D01*
X268150Y207683D02*X268650Y207183D01*
X268150Y208683D02*Y207683D01*
X270850Y209183D02*X270150Y208483D01*
X270850Y209183D02*X271650D01*
X272150Y208683D01*
Y207683D01*
X271650Y207183D01*
X270850D02*X271650D01*
X270150Y207883D02*X270850Y207183D01*
X288150Y192235D02*Y190935D01*
X288850Y192935D02*X288150Y192235D01*
X288850Y192935D02*X291450D01*
X292150Y192235D01*
Y190935D01*
X291650Y189735D02*X292150Y189235D01*
Y188235D01*
X291650Y187735D01*
X288150Y188235D02*X288650Y187735D01*
X288150Y189235D02*Y188235D01*
X288650Y189735D02*X288150Y189235D01*
X290350D02*Y188235D01*
X290850Y187735D02*X291650D01*
X288650D02*X289850D01*
X290350Y188235D01*
X290850Y187735D02*X290350Y188235D01*
X278150Y192235D02*Y190935D01*
X278850Y192935D02*X278150Y192235D01*
X278850Y192935D02*X281450D01*
X282150Y192235D01*
Y190935D01*
Y189735D02*Y187735D01*
X280150Y189735D02*X282150D01*
X280150D02*X280650Y189235D01*
Y188235D01*
X280150Y187735D01*
X278650D02*X280150D01*
X278150Y188235D02*X278650Y187735D01*
X278150Y189235D02*Y188235D01*
X278650Y189735D02*X278150Y189235D01*
X268150Y194597D02*Y193297D01*
X268850Y195297D02*X268150Y194597D01*
X268850Y195297D02*X271450D01*
X272150Y194597D01*
Y193297D01*
X268150Y191597D02*X272150Y189597D01*
Y192097D02*Y189597D01*
X365650Y123493D02*Y122193D01*
X366350Y124193D02*X365650Y123493D01*
X366350Y124193D02*X368950D01*
X369650Y123493D01*
Y122193D01*
X368850Y120993D02*X369650Y120193D01*
X365650D02*X369650D01*
X365650Y120993D02*Y119493D01*
X369650Y116793D02*X369150Y116293D01*
X369650Y117793D02*Y116793D01*
X369150Y118293D02*X369650Y117793D01*
X366150Y118293D02*X369150D01*
X366150D02*X365650Y117793D01*
X367850Y116793D02*X367350Y116293D01*
X367850Y118293D02*Y116793D01*
X365650Y117793D02*Y116793D01*
X366150Y116293D01*
X367350D01*
X365393Y149650D02*X367393D01*
X367893Y149150D01*
Y148150D01*
X367393Y147650D02*X367893Y148150D01*
X365893Y147650D02*X367393D01*
X365893Y149650D02*Y145650D01*
X366693Y147650D02*X367893Y145650D01*
X369093Y149150D02*X369593Y149650D01*
X371093D01*
X371593Y149150D01*
Y148150D01*
X369093Y145650D02*X371593Y148150D01*
X369093Y145650D02*X371593D01*
X372793Y149650D02*X374793D01*
X372793D02*Y147650D01*
X373293Y148150D01*
X374293D01*
X374793Y147650D01*
Y146150D01*
X374293Y145650D02*X374793Y146150D01*
X373293Y145650D02*X374293D01*
X372793Y146150D02*X373293Y145650D01*
X272150Y86555D02*Y84555D01*
X271650Y84055D01*
X270650D02*X271650D01*
X270150Y84555D02*X270650Y84055D01*
X270150Y86055D02*Y84555D01*
X268150Y86055D02*X272150D01*
X270150Y85255D02*X268150Y84055D01*
X271650Y82855D02*X272150Y82355D01*
Y80855D01*
X271650Y80355D01*
X270650D02*X271650D01*
X268150Y82855D02*X270650Y80355D01*
X268150Y82855D02*Y80355D01*
X271650Y79155D02*X272150Y78655D01*
Y77155D01*
X271650Y76655D01*
X270650D02*X271650D01*
X268150Y79155D02*X270650Y76655D01*
X268150Y79155D02*Y76655D01*
X280350Y82255D02*Y80255D01*
Y82255D02*X280850Y82755D01*
X281850D01*
X282350Y82255D02*X281850Y82755D01*
X282350Y82255D02*Y80755D01*
X280350D02*X284350D01*
X282350Y81555D02*X284350Y82755D01*
X280850Y83955D02*X280350Y84455D01*
Y85955D02*Y84455D01*
Y85955D02*X280850Y86455D01*
X281850D01*
X284350Y83955D02*X281850Y86455D01*
X284350D02*Y83955D01*
X280850Y87655D02*X280350Y88155D01*
Y89155D02*Y88155D01*
Y89155D02*X280850Y89655D01*
X284350Y89155D02*X283850Y89655D01*
X284350Y89155D02*Y88155D01*
X283850Y87655D02*X284350Y88155D01*
X282150Y89155D02*Y88155D01*
X280850Y89655D02*X281650D01*
X282650D02*X283850D01*
X282650D02*X282150Y89155D01*
X281650Y89655D02*X282150Y89155D01*
X305750Y82500D02*Y79000D01*
X306250Y78500D01*
X307250D01*
X307750Y79000D01*
Y82500D02*Y79000D01*
X309450Y78500D02*X311450Y82500D01*
X308950D02*X311450D01*
X332755Y82150D02*X334755D01*
X335255Y81650D01*
Y80650D01*
X334755Y80150D02*X335255Y80650D01*
X333255Y80150D02*X334755D01*
X333255Y82150D02*Y78150D01*
X334055Y80150D02*X335255Y78150D01*
X336455Y81650D02*X336955Y82150D01*
X338455D01*
X338955Y81650D01*
Y80650D01*
X336455Y78150D02*X338955Y80650D01*
X336455Y78150D02*X338955D01*
X340155Y79650D02*X342155Y82150D01*
X340155Y79650D02*X342655D01*
X342155Y82150D02*Y78150D01*
M02*
