M48
INCH
T58C0.081
T57C0.035
T56C0.059
T55C0.042
%
T57
X0012000Y0022000
X0012000Y0021000
X0013250Y0014500
X0013250Y0012750
X0013250Y0011500
X0013250Y0006750
X0013250Y0005000
X0014000Y0013500
X0014000Y0005750
X0018250Y0005000
X0019000Y0010000
X0019750Y0017000
X0021000Y0021000
X0021000Y0019250
X0021000Y0015500
X0021000Y0007500
X0021250Y0012250
X0021250Y0006500
X0024250Y0021250
X0024250Y0019000
X0024750Y0020250
X0025500Y0008250
X0026000Y0014000
X0026750Y0012250
X0029500Y0017500
X0030000Y0009250
X0031500Y0009250
X0033500Y0009750
X0035250Y0021000
X0035750Y0012250
T55
X0014500Y0025000
X0014500Y0024000
X0014500Y0023000
X0014500Y0021000
X0014500Y0020000
X0014500Y0019000
T56
X0010320Y0016760
X0010320Y0011740
X0010320Y0009010
X0010320Y0003990
X0037680Y0022510
X0037680Y0017490
T58
X0010000Y0024000
X0010000Y0020000
M30
