M48
INCH
T71C0.119
T70C0.059
T69C0.038
T68C0.090
T67C0.028
T66C0.030
T65C0.081
T64C0.035
T63C0.020
%
T63
X0018840Y0011910
X0019190Y0011610
X0019590Y0011320
X0020920Y0011540
X0022850Y0009460
X0024490Y0017370
X0024740Y0014220
X0025340Y0019120
X0025440Y0021260
X0025490Y0017370
X0025870Y0021460
X0025940Y0020220
X0025990Y0014220
X0026990Y0013110
X0027140Y0021010
X0028240Y0015220
X0028990Y0016470
X0030540Y0017220
X0030890Y0016020
X0034440Y0018470
X0034890Y0016020
X0038440Y0018470
T67
X0016510Y0015030
X0016510Y0014050
X0017290Y0015030
X0017290Y0014050
X0020990Y0030670
X0020990Y0029670
X0020990Y0028670
X0020990Y0027670
X0020990Y0026670
X0020990Y0025670
X0020990Y0024670
X0020990Y0023670
X0023990Y0030670
X0023990Y0029670
X0023990Y0028670
X0023990Y0027670
X0023990Y0026670
X0023990Y0025670
X0023990Y0024670
X0023990Y0023670
T66
X0023140Y0008010
X0025140Y0008010
T64
X0014170Y0029920
X0016240Y0025670
X0016490Y0023920
X0018170Y0029920
X0019040Y0013500
X0019040Y0008710
X0022040Y0014570
X0024110Y0012490
X0024190Y0006160
X0024940Y0013210
X0024990Y0016520
X0025140Y0011510
X0025750Y0019590
X0025990Y0016520
X0026170Y0031990
X0026540Y0008110
X0027640Y0018720
X0028190Y0010070
X0028240Y0020320
X0030190Y0013460
X0030440Y0009220
X0030790Y0009970
X0033740Y0015220
X0033940Y0016470
X0035690Y0013470
X0035690Y0012470
T69
X0011990Y0031920
X0011990Y0030920
X0012990Y0031920
X0012990Y0030920
X0016040Y0010110
X0016040Y0009110
X0017040Y0010110
X0017040Y0009110
X0018040Y0010110
X0018040Y0009110
X0030740Y0027420
X0030740Y0026420
X0031740Y0027420
X0031740Y0026420
X0034990Y0027420
X0034990Y0026420
X0035990Y0027420
X0035990Y0026420
T70
X0013570Y0028170
X0013570Y0023150
T65
X0037690Y0014470
X0037690Y0010470
T68
X0015440Y0016910
X0015440Y0012170
T71
X0011810Y0018500
X0011810Y0006300
X0038980Y0020870
X0039760Y0035830
X0039760Y0006300
M30
