G04 start of page 7 for group -4062 idx -4062 *
G04 Title: (unknown), soldermask *
G04 Creator: pcb 1.99z *
G04 CreationDate: Wed 06 Nov 2013 06:55:18 PM GMT UTC *
G04 For: commonadmin *
G04 Format: Gerber/RS-274X *
G04 PCB-Dimensions: 600000 500000 *
G04 PCB-Coordinate-Origin: lower left *
%MOIN*%
%FSLAX25Y25*%
%LNBOTTOMMASK*%
%ADD98C,0.0860*%
%ADD97C,0.0610*%
%ADD96C,0.1740*%
%ADD95C,0.0680*%
%ADD94C,0.1060*%
%ADD93C,0.0660*%
%ADD92C,0.0560*%
%ADD91C,0.0001*%
G54D91*G36*
X235023Y296646D02*Y291046D01*
X240623D01*
Y296646D01*
X235023D01*
G37*
G54D92*X197823Y293846D03*
G54D91*G36*
X242523Y261646D02*Y255046D01*
X249123D01*
Y261646D01*
X242523D01*
G37*
G54D93*X245823Y268346D03*
G54D94*X265823Y278346D03*
Y238346D03*
G54D91*G36*
X270523Y321146D02*Y315546D01*
X276123D01*
Y321146D01*
X270523D01*
G37*
G54D92*X233323Y318346D03*
G54D91*G36*
X191700Y240800D02*Y234200D01*
X198300D01*
Y240800D01*
X191700D01*
G37*
G54D93*X195000Y247500D03*
G54D91*G36*
X137273Y216796D02*Y210696D01*
X143373D01*
Y216796D01*
X137273D01*
G37*
G54D95*X54023Y274146D03*
Y283946D03*
X61823D03*
Y274146D03*
G54D96*X43323Y255346D03*
Y302746D03*
G54D97*X120323Y213746D03*
G54D91*G36*
X66023Y238046D02*Y231446D01*
X72623D01*
Y238046D01*
X66023D01*
G37*
G36*
X78200Y273300D02*Y266700D01*
X84800D01*
Y273300D01*
X78200D01*
G37*
G54D93*X81500Y260000D03*
X69323Y224746D03*
X59323D03*
X49323D03*
X59323Y234746D03*
X49323D03*
G54D98*X49737Y408602D03*
Y358402D03*
G54D91*G36*
X40637Y449402D02*Y442802D01*
X47237D01*
Y449402D01*
X40637D01*
G37*
G54D93*X33937Y446102D03*
Y436102D03*
X43937D03*
G54D91*G36*
X218137Y404402D02*Y397802D01*
X224737D01*
Y404402D01*
X218137D01*
G37*
G54D93*X231437Y401102D03*
X273937D03*
X263937D03*
X221437Y391102D03*
X231437D03*
G54D91*G36*
X270637Y394402D02*Y387802D01*
X277237D01*
Y394402D01*
X270637D01*
G37*
G54D93*X263937Y391102D03*
G54D91*G36*
X150637Y366902D02*Y360302D01*
X157237D01*
Y366902D01*
X150637D01*
G37*
G54D93*X153937Y373602D03*
X123937D03*
Y363602D03*
X153937Y423602D03*
Y433602D03*
X123937D03*
Y423602D03*
M02*
