G04 start of page 12 for group -3984 idx -3984 *
G04 Title: (unknown), fab *
G04 Creator: pcb 1.99z *
G04 CreationDate: Tue 15 Oct 2013 04:03:47 AM GMT UTC *
G04 For: commonadmin *
G04 Format: Gerber/RS-274X *
G04 PCB-Dimensions: 600000 500000 *
G04 PCB-Coordinate-Origin: lower left *
%MOIN*%
%FSLAX25Y25*%
%LNFAB*%
%ADD117C,0.0100*%
%ADD116C,0.0075*%
%ADD115C,0.0060*%
%ADD114R,0.0080X0.0080*%
G54D114*X117334Y62992D02*G75*G03X118934Y62992I800J0D01*G01*
G75*G03X117334Y62992I-800J0D01*G01*
X115734D02*G75*G03X120534Y62992I2400J0D01*G01*
G75*G03X115734Y62992I-2400J0D01*G01*
X396838D02*G75*G03X398438Y62992I800J0D01*G01*
G75*G03X396838Y62992I-800J0D01*G01*
X395238D02*G75*G03X400038Y62992I2400J0D01*G01*
G75*G03X395238Y62992I-2400J0D01*G01*
X388964Y208661D02*G75*G03X390564Y208661I800J0D01*G01*
G75*G03X388964Y208661I-800J0D01*G01*
X387364D02*G75*G03X392164Y208661I2400J0D01*G01*
G75*G03X387364Y208661I-2400J0D01*G01*
X117310Y185039D02*G75*G03X118910Y185039I800J0D01*G01*
G75*G03X117310Y185039I-800J0D01*G01*
X115710D02*G75*G03X120510Y185039I2400J0D01*G01*
G75*G03X115710Y185039I-2400J0D01*G01*
X396838Y358268D02*G75*G03X398438Y358268I800J0D01*G01*
G75*G03X396838Y358268I-800J0D01*G01*
X395238D02*G75*G03X400038Y358268I2400J0D01*G01*
G75*G03X395238Y358268I-2400J0D01*G01*
X14200Y511250D02*G75*G03X15800Y511250I800J0D01*G01*
G75*G03X14200Y511250I-800J0D01*G01*
X12600D02*G75*G03X17400Y511250I2400J0D01*G01*
G75*G03X12600Y511250I-2400J0D01*G01*
G54D115*X135000Y513500D02*X136500Y510500D01*
X138000Y513500D01*
X136500Y510500D02*Y507500D01*
X139800Y510800D02*X142050D01*
X139800Y507500D02*X142800D01*
X139800Y513500D02*Y507500D01*
Y513500D02*X142800D01*
X147600D02*X148350Y512750D01*
X145350Y513500D02*X147600D01*
X144600Y512750D02*X145350Y513500D01*
X144600Y512750D02*Y511250D01*
X145350Y510500D01*
X147600D01*
X148350Y509750D01*
Y508250D01*
X147600Y507500D02*X148350Y508250D01*
X145350Y507500D02*X147600D01*
X144600Y508250D02*X145350Y507500D01*
X98000Y513500D02*X101000D01*
X98000D02*Y510500D01*
X98750Y511250D01*
X100250D01*
X101000Y510500D01*
Y508250D01*
X100250Y507500D02*X101000Y508250D01*
X98750Y507500D02*X100250D01*
X98000Y508250D02*X98750Y507500D01*
X45000Y508250D02*X45750Y507500D01*
X45000Y512750D02*Y508250D01*
Y512750D02*X45750Y513500D01*
X47250D01*
X48000Y512750D01*
Y508250D01*
X47250Y507500D02*X48000Y508250D01*
X45750Y507500D02*X47250D01*
X45000Y509000D02*X48000Y512000D01*
X49800Y507500D02*X50550D01*
X52350Y512300D02*X53550Y513500D01*
Y507500D01*
X52350D02*X54600D01*
X56400Y512300D02*X57600Y513500D01*
Y507500D01*
X56400D02*X58650D01*
X61200D02*X63450Y510500D01*
Y512750D02*Y510500D01*
X62700Y513500D02*X63450Y512750D01*
X61200Y513500D02*X62700D01*
X60450Y512750D02*X61200Y513500D01*
X60450Y512750D02*Y511250D01*
X61200Y510500D01*
X63450D01*
X151986Y124144D02*X156786Y119344D01*
X151986D02*X156786Y124144D01*
X152786Y123344D02*X155986D01*
X152786D02*Y120144D01*
X155986D01*
Y123344D02*Y120144D01*
X151986Y171544D02*X156786Y166744D01*
X151986D02*X156786Y171544D01*
X152786Y170744D02*X155986D01*
X152786D02*Y167544D01*
X155986D01*
Y170744D02*Y167544D01*
X12600Y528650D02*X17400Y523850D01*
X12600D02*X17400Y528650D01*
X13400Y527850D02*X16600D01*
X13400D02*Y524650D01*
X16600D01*
Y527850D02*Y524650D01*
X135000Y528500D02*X136500Y525500D01*
X138000Y528500D01*
X136500Y525500D02*Y522500D01*
X139800Y525800D02*X142050D01*
X139800Y522500D02*X142800D01*
X139800Y528500D02*Y522500D01*
Y528500D02*X142800D01*
X147600D02*X148350Y527750D01*
X145350Y528500D02*X147600D01*
X144600Y527750D02*X145350Y528500D01*
X144600Y527750D02*Y526250D01*
X145350Y525500D01*
X147600D01*
X148350Y524750D01*
Y523250D01*
X147600Y522500D02*X148350Y523250D01*
X145350Y522500D02*X147600D01*
X144600Y523250D02*X145350Y522500D01*
X98000Y527750D02*X98750Y528500D01*
X101000D01*
X101750Y527750D01*
Y526250D01*
X98000Y522500D02*X101750Y526250D01*
X98000Y522500D02*X101750D01*
X45000Y523250D02*X45750Y522500D01*
X45000Y527750D02*Y523250D01*
Y527750D02*X45750Y528500D01*
X47250D01*
X48000Y527750D01*
Y523250D01*
X47250Y522500D02*X48000Y523250D01*
X45750Y522500D02*X47250D01*
X45000Y524000D02*X48000Y527000D01*
X49800Y522500D02*X50550D01*
X52350Y523250D02*X53100Y522500D01*
X52350Y527750D02*Y523250D01*
Y527750D02*X53100Y528500D01*
X54600D01*
X55350Y527750D01*
Y523250D01*
X54600Y522500D02*X55350Y523250D01*
X53100Y522500D02*X54600D01*
X52350Y524000D02*X55350Y527000D01*
X57900Y522500D02*X60150Y525500D01*
Y527750D02*Y525500D01*
X59400Y528500D02*X60150Y527750D01*
X57900Y528500D02*X59400D01*
X57150Y527750D02*X57900Y528500D01*
X57150Y527750D02*Y526250D01*
X57900Y525500D01*
X60150D01*
X61950Y527300D02*X63150Y528500D01*
Y522500D01*
X61950D02*X64200D01*
X376886Y147944D02*Y141544D01*
X373686Y144744D02*X380086D01*
X375286Y146344D02*X378486D01*
X375286D02*Y143144D01*
X378486D01*
Y146344D02*Y143144D01*
X376886Y107944D02*Y101544D01*
X373686Y104744D02*X380086D01*
X375286Y106344D02*X378486D01*
X375286D02*Y103144D01*
X378486D01*
Y106344D02*Y103144D01*
X15000Y544450D02*Y538050D01*
X11800Y541250D02*X18200D01*
X13400Y542850D02*X16600D01*
X13400D02*Y539650D01*
X16600D01*
Y542850D02*Y539650D01*
X135000Y543500D02*X136500Y540500D01*
X138000Y543500D01*
X136500Y540500D02*Y537500D01*
X139800Y540800D02*X142050D01*
X139800Y537500D02*X142800D01*
X139800Y543500D02*Y537500D01*
Y543500D02*X142800D01*
X147600D02*X148350Y542750D01*
X145350Y543500D02*X147600D01*
X144600Y542750D02*X145350Y543500D01*
X144600Y542750D02*Y541250D01*
X145350Y540500D01*
X147600D01*
X148350Y539750D01*
Y538250D01*
X147600Y537500D02*X148350Y538250D01*
X145350Y537500D02*X147600D01*
X144600Y538250D02*X145350Y537500D01*
X98000Y542750D02*X98750Y543500D01*
X101000D01*
X101750Y542750D01*
Y541250D01*
X98000Y537500D02*X101750Y541250D01*
X98000Y537500D02*X101750D01*
X45000Y538250D02*X45750Y537500D01*
X45000Y542750D02*Y538250D01*
Y542750D02*X45750Y543500D01*
X47250D01*
X48000Y542750D01*
Y538250D01*
X47250Y537500D02*X48000Y538250D01*
X45750Y537500D02*X47250D01*
X45000Y539000D02*X48000Y542000D01*
X49800Y537500D02*X50550D01*
X52350Y538250D02*X53100Y537500D01*
X52350Y542750D02*Y538250D01*
Y542750D02*X53100Y543500D01*
X54600D01*
X55350Y542750D01*
Y538250D01*
X54600Y537500D02*X55350Y538250D01*
X53100Y537500D02*X54600D01*
X52350Y539000D02*X55350Y542000D01*
X57150Y538250D02*X57900Y537500D01*
X57150Y539450D02*Y538250D01*
Y539450D02*X58200Y540500D01*
X59100D01*
X60150Y539450D01*
Y538250D01*
X59400Y537500D02*X60150Y538250D01*
X57900Y537500D02*X59400D01*
X57150Y541550D02*X58200Y540500D01*
X57150Y542750D02*Y541550D01*
Y542750D02*X57900Y543500D01*
X59400D01*
X60150Y542750D01*
Y541550D01*
X59100Y540500D02*X60150Y541550D01*
X61950Y542300D02*X63150Y543500D01*
Y537500D01*
X61950D02*X64200D01*
X135686Y281744D02*Y278544D01*
Y281744D02*X138459Y283344D01*
X135686Y281744D02*X132912Y283344D01*
X134086Y281744D02*G75*G03X137286Y281744I1600J0D01*G01*
G75*G03X134086Y281744I-1600J0D01*G01*
X135686Y231544D02*Y228344D01*
Y231544D02*X138459Y233144D01*
X135686Y231544D02*X132912Y233144D01*
X134086Y231544D02*G75*G03X137286Y231544I1600J0D01*G01*
G75*G03X134086Y231544I-1600J0D01*G01*
X15000Y556250D02*Y553050D01*
Y556250D02*X17773Y557850D01*
X15000Y556250D02*X12227Y557850D01*
X13400Y556250D02*G75*G03X16600Y556250I1600J0D01*G01*
G75*G03X13400Y556250I-1600J0D01*G01*
X135000Y558500D02*X136500Y555500D01*
X138000Y558500D01*
X136500Y555500D02*Y552500D01*
X139800Y555800D02*X142050D01*
X139800Y552500D02*X142800D01*
X139800Y558500D02*Y552500D01*
Y558500D02*X142800D01*
X147600D02*X148350Y557750D01*
X145350Y558500D02*X147600D01*
X144600Y557750D02*X145350Y558500D01*
X144600Y557750D02*Y556250D01*
X145350Y555500D01*
X147600D01*
X148350Y554750D01*
Y553250D01*
X147600Y552500D02*X148350Y553250D01*
X145350Y552500D02*X147600D01*
X144600Y553250D02*X145350Y552500D01*
X98000Y557750D02*X98750Y558500D01*
X101000D01*
X101750Y557750D01*
Y556250D01*
X98000Y552500D02*X101750Y556250D01*
X98000Y552500D02*X101750D01*
X45000Y553250D02*X45750Y552500D01*
X45000Y557750D02*Y553250D01*
Y557750D02*X45750Y558500D01*
X47250D01*
X48000Y557750D01*
Y553250D01*
X47250Y552500D02*X48000Y553250D01*
X45750Y552500D02*X47250D01*
X45000Y554000D02*X48000Y557000D01*
X49800Y552500D02*X50550D01*
X52350Y553250D02*X53100Y552500D01*
X52350Y557750D02*Y553250D01*
Y557750D02*X53100Y558500D01*
X54600D01*
X55350Y557750D01*
Y553250D01*
X54600Y552500D02*X55350Y553250D01*
X53100Y552500D02*X54600D01*
X52350Y554000D02*X55350Y557000D01*
X57150Y558500D02*X60150D01*
X57150D02*Y555500D01*
X57900Y556250D01*
X59400D01*
X60150Y555500D01*
Y553250D01*
X59400Y552500D02*X60150Y553250D01*
X57900Y552500D02*X59400D01*
X57150Y553250D02*X57900Y552500D01*
X62700D02*X64950Y555500D01*
Y557750D02*Y555500D01*
X64200Y558500D02*X64950Y557750D01*
X62700Y558500D02*X64200D01*
X61950Y557750D02*X62700Y558500D01*
X61950Y557750D02*Y556250D01*
X62700Y555500D01*
X64950D01*
X178786Y102744D02*X181986D01*
X178786D02*Y99544D01*
X181986D01*
Y102744D02*Y99544D01*
X178786Y92744D02*X181986D01*
X178786D02*Y89544D01*
X181986D01*
Y92744D02*Y89544D01*
X168786Y102744D02*X171986D01*
X168786D02*Y99544D01*
X171986D01*
Y102744D02*Y99544D01*
X168786Y92744D02*X171986D01*
X168786D02*Y89544D01*
X171986D01*
Y92744D02*Y89544D01*
X158786Y102744D02*X161986D01*
X158786D02*Y99544D01*
X161986D01*
Y102744D02*Y99544D01*
X158786Y92744D02*X161986D01*
X158786D02*Y89544D01*
X161986D01*
Y92744D02*Y89544D01*
X128286Y320844D02*X131486D01*
X128286D02*Y317644D01*
X131486D01*
Y320844D02*Y317644D01*
X118286Y320844D02*X121486D01*
X118286D02*Y317644D01*
X121486D01*
Y320844D02*Y317644D01*
X118286Y310844D02*X121486D01*
X118286D02*Y307644D01*
X121486D01*
Y310844D02*Y307644D01*
X128286Y310844D02*X131486D01*
X128286D02*Y307644D01*
X131486D01*
Y310844D02*Y307644D01*
X305786Y275844D02*X308986D01*
X305786D02*Y272644D01*
X308986D01*
Y275844D02*Y272644D01*
X305786Y265844D02*X308986D01*
X305786D02*Y262644D01*
X308986D01*
Y265844D02*Y262644D01*
X315786Y265844D02*X318986D01*
X315786D02*Y262644D01*
X318986D01*
Y265844D02*Y262644D01*
X315786Y275844D02*X318986D01*
X315786D02*Y272644D01*
X318986D01*
Y275844D02*Y272644D01*
X358286Y265844D02*X361486D01*
X358286D02*Y262644D01*
X361486D01*
Y265844D02*Y262644D01*
X358286Y275844D02*X361486D01*
X358286D02*Y272644D01*
X361486D01*
Y275844D02*Y272644D01*
X348286Y275844D02*X351486D01*
X348286D02*Y272644D01*
X351486D01*
Y275844D02*Y272644D01*
X348286Y265844D02*X351486D01*
X348286D02*Y262644D01*
X351486D01*
Y265844D02*Y262644D01*
X13400Y572850D02*X16600D01*
X13400D02*Y569650D01*
X16600D01*
Y572850D02*Y569650D01*
X135000Y573500D02*X136500Y570500D01*
X138000Y573500D01*
X136500Y570500D02*Y567500D01*
X139800Y570800D02*X142050D01*
X139800Y567500D02*X142800D01*
X139800Y573500D02*Y567500D01*
Y573500D02*X142800D01*
X147600D02*X148350Y572750D01*
X145350Y573500D02*X147600D01*
X144600Y572750D02*X145350Y573500D01*
X144600Y572750D02*Y571250D01*
X145350Y570500D01*
X147600D01*
X148350Y569750D01*
Y568250D01*
X147600Y567500D02*X148350Y568250D01*
X145350Y567500D02*X147600D01*
X144600Y568250D02*X145350Y567500D01*
X98000Y572300D02*X99200Y573500D01*
Y567500D01*
X98000D02*X100250D01*
X102050Y568250D02*X102800Y567500D01*
X102050Y569450D02*Y568250D01*
Y569450D02*X103100Y570500D01*
X104000D01*
X105050Y569450D01*
Y568250D01*
X104300Y567500D02*X105050Y568250D01*
X102800Y567500D02*X104300D01*
X102050Y571550D02*X103100Y570500D01*
X102050Y572750D02*Y571550D01*
Y572750D02*X102800Y573500D01*
X104300D01*
X105050Y572750D01*
Y571550D01*
X104000Y570500D02*X105050Y571550D01*
X45000Y568250D02*X45750Y567500D01*
X45000Y572750D02*Y568250D01*
Y572750D02*X45750Y573500D01*
X47250D01*
X48000Y572750D01*
Y568250D01*
X47250Y567500D02*X48000Y568250D01*
X45750Y567500D02*X47250D01*
X45000Y569000D02*X48000Y572000D01*
X49800Y567500D02*X50550D01*
X52350Y568250D02*X53100Y567500D01*
X52350Y572750D02*Y568250D01*
Y572750D02*X53100Y573500D01*
X54600D01*
X55350Y572750D01*
Y568250D01*
X54600Y567500D02*X55350Y568250D01*
X53100Y567500D02*X54600D01*
X52350Y569000D02*X55350Y572000D01*
X57150Y572750D02*X57900Y573500D01*
X59400D01*
X60150Y572750D01*
X59400Y567500D02*X60150Y568250D01*
X57900Y567500D02*X59400D01*
X57150Y568250D02*X57900Y567500D01*
Y570800D02*X59400D01*
X60150Y572750D02*Y571550D01*
Y570050D02*Y568250D01*
Y570050D02*X59400Y570800D01*
X60150Y571550D02*X59400Y570800D01*
X61950Y568250D02*X62700Y567500D01*
X61950Y569450D02*Y568250D01*
Y569450D02*X63000Y570500D01*
X63900D01*
X64950Y569450D01*
Y568250D01*
X64200Y567500D02*X64950Y568250D01*
X62700Y567500D02*X64200D01*
X61950Y571550D02*X63000Y570500D01*
X61950Y572750D02*Y571550D01*
Y572750D02*X62700Y573500D01*
X64200D01*
X64950Y572750D01*
Y571550D01*
X63900Y570500D02*X64950Y571550D01*
X356086Y124744D02*G75*G03X357686Y124744I800J0D01*G01*
G75*G03X356086Y124744I-800J0D01*G01*
Y134744D02*G75*G03X357686Y134744I800J0D01*G01*
G75*G03X356086Y134744I-800J0D01*G01*
X240271Y124892D02*G75*G03X241871Y124892I800J0D01*G01*
G75*G03X240271Y124892I-800J0D01*G01*
X248586Y132144D02*G75*G03X250186Y132144I800J0D01*G01*
G75*G03X248586Y132144I-800J0D01*G01*
X189586Y134954D02*G75*G03X191186Y134954I800J0D01*G01*
G75*G03X189586Y134954I-800J0D01*G01*
X250586Y115144D02*G75*G03X252186Y115144I800J0D01*G01*
G75*G03X250586Y115144I-800J0D01*G01*
X264586Y81144D02*G75*G03X266186Y81144I800J0D01*G01*
G75*G03X264586Y81144I-800J0D01*G01*
X219586Y145744D02*G75*G03X221186Y145744I800J0D01*G01*
G75*G03X219586Y145744I-800J0D01*G01*
X256686Y195944D02*G75*G03X258286Y195944I800J0D01*G01*
G75*G03X256686Y195944I-800J0D01*G01*
X275586Y187244D02*G75*G03X277186Y187244I800J0D01*G01*
G75*G03X275586Y187244I-800J0D01*G01*
X281586Y203244D02*G75*G03X283186Y203244I800J0D01*G01*
G75*G03X281586Y203244I-800J0D01*G01*
X301086Y134568D02*G75*G03X302686Y134568I800J0D01*G01*
G75*G03X301086Y134568I-800J0D01*G01*
X303586Y92244D02*G75*G03X305186Y92244I800J0D01*G01*
G75*G03X303586Y92244I-800J0D01*G01*
X281086Y100744D02*G75*G03X282686Y100744I800J0D01*G01*
G75*G03X281086Y100744I-800J0D01*G01*
X307086Y99744D02*G75*G03X308686Y99744I800J0D01*G01*
G75*G03X307086Y99744I-800J0D01*G01*
X338586Y164744D02*G75*G03X340186Y164744I800J0D01*G01*
G75*G03X338586Y164744I-800J0D01*G01*
X336586Y152244D02*G75*G03X338186Y152244I800J0D01*G01*
G75*G03X336586Y152244I-800J0D01*G01*
X249086Y165244D02*G75*G03X250686Y165244I800J0D01*G01*
G75*G03X249086Y165244I-800J0D01*G01*
X259086D02*G75*G03X260686Y165244I800J0D01*G01*
G75*G03X259086Y165244I-800J0D01*G01*
X241071Y61619D02*G75*G03X242671Y61619I800J0D01*G01*
G75*G03X241071Y61619I-800J0D01*G01*
X189586Y87144D02*G75*G03X191186Y87144I800J0D01*G01*
G75*G03X189586Y87144I-800J0D01*G01*
X164086Y239244D02*G75*G03X165686Y239244I800J0D01*G01*
G75*G03X164086Y239244I-800J0D01*G01*
X161586Y256744D02*G75*G03X163186Y256744I800J0D01*G01*
G75*G03X161586Y256744I-800J0D01*G01*
X180896Y299244D02*G75*G03X182496Y299244I800J0D01*G01*
G75*G03X180896Y299244I-800J0D01*G01*
X140896D02*G75*G03X142496Y299244I800J0D01*G01*
G75*G03X140896Y299244I-800J0D01*G01*
X260896Y319934D02*G75*G03X262496Y319934I800J0D01*G01*
G75*G03X260896Y319934I-800J0D01*G01*
X14200Y586250D02*G75*G03X15800Y586250I800J0D01*G01*
G75*G03X14200Y586250I-800J0D01*G01*
X135000Y588500D02*X136500Y585500D01*
X138000Y588500D01*
X136500Y585500D02*Y582500D01*
X139800Y585800D02*X142050D01*
X139800Y582500D02*X142800D01*
X139800Y588500D02*Y582500D01*
Y588500D02*X142800D01*
X147600D02*X148350Y587750D01*
X145350Y588500D02*X147600D01*
X144600Y587750D02*X145350Y588500D01*
X144600Y587750D02*Y586250D01*
X145350Y585500D01*
X147600D01*
X148350Y584750D01*
Y583250D01*
X147600Y582500D02*X148350Y583250D01*
X145350Y582500D02*X147600D01*
X144600Y583250D02*X145350Y582500D01*
X98000Y587750D02*X98750Y588500D01*
X101000D01*
X101750Y587750D01*
Y586250D01*
X98000Y582500D02*X101750Y586250D01*
X98000Y582500D02*X101750D01*
X105800Y588500D02*X106550Y587750D01*
X104300Y588500D02*X105800D01*
X103550Y587750D02*X104300Y588500D01*
X103550Y587750D02*Y583250D01*
X104300Y582500D01*
X105800Y585800D02*X106550Y585050D01*
X103550Y585800D02*X105800D01*
X104300Y582500D02*X105800D01*
X106550Y583250D01*
Y585050D02*Y583250D01*
X45000D02*X45750Y582500D01*
X45000Y587750D02*Y583250D01*
Y587750D02*X45750Y588500D01*
X47250D01*
X48000Y587750D01*
Y583250D01*
X47250Y582500D02*X48000Y583250D01*
X45750Y582500D02*X47250D01*
X45000Y584000D02*X48000Y587000D01*
X49800Y582500D02*X50550D01*
X52350Y583250D02*X53100Y582500D01*
X52350Y587750D02*Y583250D01*
Y587750D02*X53100Y588500D01*
X54600D01*
X55350Y587750D01*
Y583250D01*
X54600Y582500D02*X55350Y583250D01*
X53100Y582500D02*X54600D01*
X52350Y584000D02*X55350Y587000D01*
X57150Y587750D02*X57900Y588500D01*
X59400D01*
X60150Y587750D01*
X59400Y582500D02*X60150Y583250D01*
X57900Y582500D02*X59400D01*
X57150Y583250D02*X57900Y582500D01*
Y585800D02*X59400D01*
X60150Y587750D02*Y586550D01*
Y585050D02*Y583250D01*
Y585050D02*X59400Y585800D01*
X60150Y586550D02*X59400Y585800D01*
X61950Y588500D02*X64950D01*
X61950D02*Y585500D01*
X62700Y586250D01*
X64200D01*
X64950Y585500D01*
Y583250D01*
X64200Y582500D02*X64950Y583250D01*
X62700Y582500D02*X64200D01*
X61950Y583250D02*X62700Y582500D01*
X250186Y81344D02*X252586Y78944D01*
X250186D02*X252586Y81344D01*
X230186D02*X232586Y78944D01*
X230186D02*X232586Y81344D01*
X13800Y602450D02*X16200Y600050D01*
X13800D02*X16200Y602450D01*
X135000Y603500D02*X136500Y600500D01*
X138000Y603500D01*
X136500Y600500D02*Y597500D01*
X139800Y600800D02*X142050D01*
X139800Y597500D02*X142800D01*
X139800Y603500D02*Y597500D01*
Y603500D02*X142800D01*
X147600D02*X148350Y602750D01*
X145350Y603500D02*X147600D01*
X144600Y602750D02*X145350Y603500D01*
X144600Y602750D02*Y601250D01*
X145350Y600500D01*
X147600D01*
X148350Y599750D01*
Y598250D01*
X147600Y597500D02*X148350Y598250D01*
X145350Y597500D02*X147600D01*
X144600Y598250D02*X145350Y597500D01*
X98000Y602750D02*X98750Y603500D01*
X101000D01*
X101750Y602750D01*
Y601250D01*
X98000Y597500D02*X101750Y601250D01*
X98000Y597500D02*X101750D01*
X45000Y598250D02*X45750Y597500D01*
X45000Y602750D02*Y598250D01*
Y602750D02*X45750Y603500D01*
X47250D01*
X48000Y602750D01*
Y598250D01*
X47250Y597500D02*X48000Y598250D01*
X45750Y597500D02*X47250D01*
X45000Y599000D02*X48000Y602000D01*
X49800Y597500D02*X50550D01*
X52350Y598250D02*X53100Y597500D01*
X52350Y602750D02*Y598250D01*
Y602750D02*X53100Y603500D01*
X54600D01*
X55350Y602750D01*
Y598250D01*
X54600Y597500D02*X55350Y598250D01*
X53100Y597500D02*X54600D01*
X52350Y599000D02*X55350Y602000D01*
X57150Y602750D02*X57900Y603500D01*
X59400D01*
X60150Y602750D01*
X59400Y597500D02*X60150Y598250D01*
X57900Y597500D02*X59400D01*
X57150Y598250D02*X57900Y597500D01*
Y600800D02*X59400D01*
X60150Y602750D02*Y601550D01*
Y600050D02*Y598250D01*
Y600050D02*X59400Y600800D01*
X60150Y601550D02*X59400Y600800D01*
X61950Y598250D02*X62700Y597500D01*
X61950Y602750D02*Y598250D01*
Y602750D02*X62700Y603500D01*
X64200D01*
X64950Y602750D01*
Y598250D01*
X64200Y597500D02*X64950Y598250D01*
X62700Y597500D02*X64200D01*
X61950Y599000D02*X64950Y602000D01*
X165086Y142144D02*Y138944D01*
X163486Y140544D02*X166686D01*
X165086Y151944D02*Y148744D01*
X163486Y150344D02*X166686D01*
X172886Y151944D02*Y148744D01*
X171286Y150344D02*X174486D01*
X172886Y142144D02*Y138944D01*
X171286Y140544D02*X174486D01*
X239886Y238344D02*Y235144D01*
X238286Y236744D02*X241486D01*
X239886Y248344D02*Y245144D01*
X238286Y246744D02*X241486D01*
X239886Y258344D02*Y255144D01*
X238286Y256744D02*X241486D01*
X239886Y268344D02*Y265144D01*
X238286Y266744D02*X241486D01*
X239886Y278344D02*Y275144D01*
X238286Y276744D02*X241486D01*
X239886Y288344D02*Y285144D01*
X238286Y286744D02*X241486D01*
X239886Y298344D02*Y295144D01*
X238286Y296744D02*X241486D01*
X239886Y308344D02*Y305144D01*
X238286Y306744D02*X241486D01*
X209886Y308344D02*Y305144D01*
X208286Y306744D02*X211486D01*
X209886Y298344D02*Y295144D01*
X208286Y296744D02*X211486D01*
X209886Y288344D02*Y285144D01*
X208286Y286744D02*X211486D01*
X209886Y278344D02*Y275144D01*
X208286Y276744D02*X211486D01*
X209886Y268344D02*Y265144D01*
X208286Y266744D02*X211486D01*
X209886Y258344D02*Y255144D01*
X208286Y256744D02*X211486D01*
X209886Y248344D02*Y245144D01*
X208286Y246744D02*X211486D01*
X209886Y238344D02*Y235144D01*
X208286Y236744D02*X211486D01*
X15000Y617850D02*Y614650D01*
X13400Y616250D02*X16600D01*
X135000Y618500D02*X136500Y615500D01*
X138000Y618500D01*
X136500Y615500D02*Y612500D01*
X139800Y615800D02*X142050D01*
X139800Y612500D02*X142800D01*
X139800Y618500D02*Y612500D01*
Y618500D02*X142800D01*
X147600D02*X148350Y617750D01*
X145350Y618500D02*X147600D01*
X144600Y617750D02*X145350Y618500D01*
X144600Y617750D02*Y616250D01*
X145350Y615500D01*
X147600D01*
X148350Y614750D01*
Y613250D01*
X147600Y612500D02*X148350Y613250D01*
X145350Y612500D02*X147600D01*
X144600Y613250D02*X145350Y612500D01*
X98000Y617750D02*X98750Y618500D01*
X101000D01*
X101750Y617750D01*
Y616250D01*
X98000Y612500D02*X101750Y616250D01*
X98000Y612500D02*X101750D01*
X103550Y613250D02*X104300Y612500D01*
X103550Y617750D02*Y613250D01*
Y617750D02*X104300Y618500D01*
X105800D01*
X106550Y617750D01*
Y613250D01*
X105800Y612500D02*X106550Y613250D01*
X104300Y612500D02*X105800D01*
X103550Y614000D02*X106550Y617000D01*
X45000Y613250D02*X45750Y612500D01*
X45000Y617750D02*Y613250D01*
Y617750D02*X45750Y618500D01*
X47250D01*
X48000Y617750D01*
Y613250D01*
X47250Y612500D02*X48000Y613250D01*
X45750Y612500D02*X47250D01*
X45000Y614000D02*X48000Y617000D01*
X49800Y612500D02*X50550D01*
X52350Y613250D02*X53100Y612500D01*
X52350Y617750D02*Y613250D01*
Y617750D02*X53100Y618500D01*
X54600D01*
X55350Y617750D01*
Y613250D01*
X54600Y612500D02*X55350Y613250D01*
X53100Y612500D02*X54600D01*
X52350Y614000D02*X55350Y617000D01*
X57150Y617750D02*X57900Y618500D01*
X60150D01*
X60900Y617750D01*
Y616250D01*
X57150Y612500D02*X60900Y616250D01*
X57150Y612500D02*X60900D01*
X62700Y613250D02*X63450Y612500D01*
X62700Y614450D02*Y613250D01*
Y614450D02*X63750Y615500D01*
X64650D01*
X65700Y614450D01*
Y613250D01*
X64950Y612500D02*X65700Y613250D01*
X63450Y612500D02*X64950D01*
X62700Y616550D02*X63750Y615500D01*
X62700Y617750D02*Y616550D01*
Y617750D02*X63450Y618500D01*
X64950D01*
X65700Y617750D01*
Y616550D01*
X64650Y615500D02*X65700Y616550D01*
X348886Y160244D02*Y158644D01*
Y160244D02*X350272Y161044D01*
X348886Y160244D02*X347499Y161044D01*
X308886Y160244D02*Y158644D01*
Y160244D02*X310272Y161044D01*
X308886Y160244D02*X307499Y161044D01*
X384386Y184744D02*Y183144D01*
Y184744D02*X385772Y185544D01*
X384386Y184744D02*X382999Y185544D01*
X344386Y184744D02*Y183144D01*
Y184744D02*X345772Y185544D01*
X344386Y184744D02*X342999Y185544D01*
X228472Y94640D02*Y93040D01*
Y94640D02*X229858Y95440D01*
X228472Y94640D02*X227085Y95440D01*
X188386Y119144D02*Y117544D01*
Y119144D02*X189772Y119944D01*
X188386Y119144D02*X186999Y119944D01*
X191886Y116144D02*Y114544D01*
Y116144D02*X193272Y116944D01*
X191886Y116144D02*X190499Y116944D01*
X258686Y214644D02*Y213044D01*
Y214644D02*X260072Y215444D01*
X258686Y214644D02*X257299Y215444D01*
X254386Y212644D02*Y211044D01*
Y212644D02*X255772Y213444D01*
X254386Y212644D02*X252999Y213444D01*
X271386Y210144D02*Y208544D01*
Y210144D02*X272772Y210944D01*
X271386Y210144D02*X269999Y210944D01*
X195886Y113244D02*Y111644D01*
Y113244D02*X197272Y114044D01*
X195886Y113244D02*X194499Y114044D01*
X209186Y115444D02*Y113844D01*
Y115444D02*X210572Y116244D01*
X209186Y115444D02*X207799Y116244D01*
X259886Y142244D02*Y140644D01*
Y142244D02*X261272Y143044D01*
X259886Y142244D02*X258499Y143044D01*
X259386Y202244D02*Y200644D01*
Y202244D02*X260772Y203044D01*
X259386Y202244D02*X257999Y203044D01*
X269886Y131144D02*Y129544D01*
Y131144D02*X271272Y131944D01*
X269886Y131144D02*X268499Y131944D01*
X247386Y142244D02*Y140644D01*
Y142244D02*X248772Y143044D01*
X247386Y142244D02*X245999Y143044D01*
X254886Y173744D02*Y172144D01*
Y173744D02*X256272Y174544D01*
X254886Y173744D02*X253499Y174544D01*
X305386Y172244D02*Y170644D01*
Y172244D02*X306772Y173044D01*
X305386Y172244D02*X303999Y173044D01*
X282386Y152244D02*Y150644D01*
Y152244D02*X283772Y153044D01*
X282386Y152244D02*X280999Y153044D01*
X289886Y164744D02*Y163144D01*
Y164744D02*X291272Y165544D01*
X289886Y164744D02*X288499Y165544D01*
X244886Y173744D02*Y172144D01*
Y173744D02*X246272Y174544D01*
X244886Y173744D02*X243499Y174544D01*
X253386Y191244D02*Y189644D01*
Y191244D02*X254772Y192044D01*
X253386Y191244D02*X251999Y192044D01*
X15000Y631250D02*Y629650D01*
Y631250D02*X16387Y632050D01*
X15000Y631250D02*X13613Y632050D01*
X135000Y633500D02*X136500Y630500D01*
X138000Y633500D01*
X136500Y630500D02*Y627500D01*
X139800Y630800D02*X142050D01*
X139800Y627500D02*X142800D01*
X139800Y633500D02*Y627500D01*
Y633500D02*X142800D01*
X147600D02*X148350Y632750D01*
X145350Y633500D02*X147600D01*
X144600Y632750D02*X145350Y633500D01*
X144600Y632750D02*Y631250D01*
X145350Y630500D01*
X147600D01*
X148350Y629750D01*
Y628250D01*
X147600Y627500D02*X148350Y628250D01*
X145350Y627500D02*X147600D01*
X144600Y628250D02*X145350Y627500D01*
X98000Y632750D02*X98750Y633500D01*
X101000D01*
X101750Y632750D01*
Y631250D01*
X98000Y627500D02*X101750Y631250D01*
X98000Y627500D02*X101750D01*
X103550Y632750D02*X104300Y633500D01*
X106550D01*
X107300Y632750D01*
Y631250D01*
X103550Y627500D02*X107300Y631250D01*
X103550Y627500D02*X107300D01*
X45000Y628250D02*X45750Y627500D01*
X45000Y632750D02*Y628250D01*
Y632750D02*X45750Y633500D01*
X47250D01*
X48000Y632750D01*
Y628250D01*
X47250Y627500D02*X48000Y628250D01*
X45750Y627500D02*X47250D01*
X45000Y629000D02*X48000Y632000D01*
X49800Y627500D02*X50550D01*
X52350Y628250D02*X53100Y627500D01*
X52350Y632750D02*Y628250D01*
Y632750D02*X53100Y633500D01*
X54600D01*
X55350Y632750D01*
Y628250D01*
X54600Y627500D02*X55350Y628250D01*
X53100Y627500D02*X54600D01*
X52350Y629000D02*X55350Y632000D01*
X57150Y632750D02*X57900Y633500D01*
X60150D01*
X60900Y632750D01*
Y631250D01*
X57150Y627500D02*X60900Y631250D01*
X57150Y627500D02*X60900D01*
X62700Y628250D02*X63450Y627500D01*
X62700Y632750D02*Y628250D01*
Y632750D02*X63450Y633500D01*
X64950D01*
X65700Y632750D01*
Y628250D01*
X64950Y627500D02*X65700Y628250D01*
X63450Y627500D02*X64950D01*
X62700Y629000D02*X65700Y632000D01*
X3000Y648500D02*X3750Y647750D01*
X750Y648500D02*X3000D01*
X0Y647750D02*X750Y648500D01*
X0Y647750D02*Y646250D01*
X750Y645500D01*
X3000D01*
X3750Y644750D01*
Y643250D01*
X3000Y642500D02*X3750Y643250D01*
X750Y642500D02*X3000D01*
X0Y643250D02*X750Y642500D01*
X5550Y645500D02*Y643250D01*
X6300Y642500D01*
X8550Y645500D02*Y641000D01*
X7800Y640250D02*X8550Y641000D01*
X6300Y640250D02*X7800D01*
X5550Y641000D02*X6300Y640250D01*
Y642500D02*X7800D01*
X8550Y643250D01*
X11100Y644750D02*Y642500D01*
Y644750D02*X11850Y645500D01*
X12600D01*
X13350Y644750D01*
Y642500D01*
Y644750D02*X14100Y645500D01*
X14850D01*
X15600Y644750D01*
Y642500D01*
X10350Y645500D02*X11100Y644750D01*
X17400Y648500D02*Y642500D01*
Y643250D02*X18150Y642500D01*
X19650D01*
X20400Y643250D01*
Y644750D02*Y643250D01*
X19650Y645500D02*X20400Y644750D01*
X18150Y645500D02*X19650D01*
X17400Y644750D02*X18150Y645500D01*
X22200Y644750D02*Y643250D01*
Y644750D02*X22950Y645500D01*
X24450D01*
X25200Y644750D01*
Y643250D01*
X24450Y642500D02*X25200Y643250D01*
X22950Y642500D02*X24450D01*
X22200Y643250D02*X22950Y642500D01*
X27000Y648500D02*Y643250D01*
X27750Y642500D01*
X0Y639250D02*X29250D01*
X41750Y648500D02*Y642500D01*
X43700Y648500D02*X44750Y647450D01*
Y643550D01*
X43700Y642500D02*X44750Y643550D01*
X41000Y642500D02*X43700D01*
X41000Y648500D02*X43700D01*
G54D116*X46550Y647000D02*Y646850D01*
G54D115*Y644750D02*Y642500D01*
X50300Y645500D02*X51050Y644750D01*
X48800Y645500D02*X50300D01*
X48050Y644750D02*X48800Y645500D01*
X48050Y644750D02*Y643250D01*
X48800Y642500D01*
X51050Y645500D02*Y643250D01*
X51800Y642500D01*
X48800D02*X50300D01*
X51050Y643250D01*
X54350Y644750D02*Y642500D01*
Y644750D02*X55100Y645500D01*
X55850D01*
X56600Y644750D01*
Y642500D01*
Y644750D02*X57350Y645500D01*
X58100D01*
X58850Y644750D01*
Y642500D01*
X53600Y645500D02*X54350Y644750D01*
X60650Y642500D02*X61400D01*
X65900Y643250D02*X66650Y642500D01*
X65900Y647750D02*X66650Y648500D01*
X65900Y647750D02*Y643250D01*
X68450Y648500D02*X69950D01*
X69200D02*Y642500D01*
X68450D02*X69950D01*
X72500Y644750D02*Y642500D01*
Y644750D02*X73250Y645500D01*
X74000D01*
X74750Y644750D01*
Y642500D01*
X71750Y645500D02*X72500Y644750D01*
X77300Y645500D02*X79550D01*
X76550Y644750D02*X77300Y645500D01*
X76550Y644750D02*Y643250D01*
X77300Y642500D01*
X79550D01*
X81350Y648500D02*Y642500D01*
Y644750D02*X82100Y645500D01*
X83600D01*
X84350Y644750D01*
Y642500D01*
X86150Y648500D02*X86900Y647750D01*
Y643250D01*
X86150Y642500D02*X86900Y643250D01*
X41000Y639250D02*X88700D01*
X96050Y642500D02*X98000D01*
X95000Y643550D02*X96050Y642500D01*
X95000Y647450D02*Y643550D01*
Y647450D02*X96050Y648500D01*
X98000D01*
X99800Y644750D02*Y643250D01*
Y644750D02*X100550Y645500D01*
X102050D01*
X102800Y644750D01*
Y643250D01*
X102050Y642500D02*X102800Y643250D01*
X100550Y642500D02*X102050D01*
X99800Y643250D02*X100550Y642500D01*
X104600Y645500D02*Y643250D01*
X105350Y642500D01*
X106850D01*
X107600Y643250D01*
Y645500D02*Y643250D01*
X110150Y644750D02*Y642500D01*
Y644750D02*X110900Y645500D01*
X111650D01*
X112400Y644750D01*
Y642500D01*
X109400Y645500D02*X110150Y644750D01*
X114950Y648500D02*Y643250D01*
X115700Y642500D01*
X114200Y646250D02*X115700D01*
X95000Y639250D02*X117200D01*
X130750Y648500D02*Y642500D01*
X130000Y648500D02*X133000D01*
X133750Y647750D01*
Y646250D01*
X133000Y645500D02*X133750Y646250D01*
X130750Y645500D02*X133000D01*
X135550Y648500D02*Y643250D01*
X136300Y642500D01*
X140050Y645500D02*X140800Y644750D01*
X138550Y645500D02*X140050D01*
X137800Y644750D02*X138550Y645500D01*
X137800Y644750D02*Y643250D01*
X138550Y642500D01*
X140800Y645500D02*Y643250D01*
X141550Y642500D01*
X138550D02*X140050D01*
X140800Y643250D01*
X144100Y648500D02*Y643250D01*
X144850Y642500D01*
X143350Y646250D02*X144850D01*
X147100Y642500D02*X149350D01*
X146350Y643250D02*X147100Y642500D01*
X146350Y644750D02*Y643250D01*
Y644750D02*X147100Y645500D01*
X148600D01*
X149350Y644750D01*
X146350Y644000D02*X149350D01*
Y644750D02*Y644000D01*
X154150Y648500D02*Y642500D01*
X153400D02*X154150Y643250D01*
X151900Y642500D02*X153400D01*
X151150Y643250D02*X151900Y642500D01*
X151150Y644750D02*Y643250D01*
Y644750D02*X151900Y645500D01*
X153400D01*
X154150Y644750D01*
X157450Y645500D02*Y644750D01*
Y643250D02*Y642500D01*
X155950Y647750D02*Y647000D01*
Y647750D02*X156700Y648500D01*
X158200D01*
X158950Y647750D01*
Y647000D01*
X157450Y645500D02*X158950Y647000D01*
X130000Y639250D02*X160750D01*
X0Y663500D02*X3000D01*
X1500D02*Y657500D01*
X4800Y663500D02*Y657500D01*
Y659750D02*X5550Y660500D01*
X7050D01*
X7800Y659750D01*
Y657500D01*
X10350D02*X12600D01*
X9600Y658250D02*X10350Y657500D01*
X9600Y659750D02*Y658250D01*
Y659750D02*X10350Y660500D01*
X11850D01*
X12600Y659750D01*
X9600Y659000D02*X12600D01*
Y659750D02*Y659000D01*
X15150Y659750D02*Y657500D01*
Y659750D02*X15900Y660500D01*
X17400D01*
X14400D02*X15150Y659750D01*
X19950Y657500D02*X22200D01*
X19200Y658250D02*X19950Y657500D01*
X19200Y659750D02*Y658250D01*
Y659750D02*X19950Y660500D01*
X21450D01*
X22200Y659750D01*
X19200Y659000D02*X22200D01*
Y659750D02*Y659000D01*
X28950Y660500D02*X29700Y659750D01*
X27450Y660500D02*X28950D01*
X26700Y659750D02*X27450Y660500D01*
X26700Y659750D02*Y658250D01*
X27450Y657500D01*
X29700Y660500D02*Y658250D01*
X30450Y657500D01*
X27450D02*X28950D01*
X29700Y658250D01*
X33000Y659750D02*Y657500D01*
Y659750D02*X33750Y660500D01*
X35250D01*
X32250D02*X33000Y659750D01*
X37800Y657500D02*X40050D01*
X37050Y658250D02*X37800Y657500D01*
X37050Y659750D02*Y658250D01*
Y659750D02*X37800Y660500D01*
X39300D01*
X40050Y659750D01*
X37050Y659000D02*X40050D01*
Y659750D02*Y659000D01*
X45300Y657500D02*X47550Y660500D01*
Y662750D02*Y660500D01*
X46800Y663500D02*X47550Y662750D01*
X45300Y663500D02*X46800D01*
X44550Y662750D02*X45300Y663500D01*
X44550Y662750D02*Y661250D01*
X45300Y660500D01*
X47550D01*
X55050Y663500D02*Y657500D01*
X54300D02*X55050Y658250D01*
X52800Y657500D02*X54300D01*
X52050Y658250D02*X52800Y657500D01*
X52050Y659750D02*Y658250D01*
Y659750D02*X52800Y660500D01*
X54300D01*
X55050Y659750D01*
G54D116*X56850Y662000D02*Y661850D01*
G54D115*Y659750D02*Y657500D01*
X59100Y662750D02*Y657500D01*
Y662750D02*X59850Y663500D01*
X60600D01*
X58350Y660500D02*X59850D01*
X62850Y662750D02*Y657500D01*
Y662750D02*X63600Y663500D01*
X64350D01*
X62100Y660500D02*X63600D01*
X66600Y657500D02*X68850D01*
X65850Y658250D02*X66600Y657500D01*
X65850Y659750D02*Y658250D01*
Y659750D02*X66600Y660500D01*
X68100D01*
X68850Y659750D01*
X65850Y659000D02*X68850D01*
Y659750D02*Y659000D01*
X71400Y659750D02*Y657500D01*
Y659750D02*X72150Y660500D01*
X73650D01*
X70650D02*X71400Y659750D01*
X76200Y657500D02*X78450D01*
X75450Y658250D02*X76200Y657500D01*
X75450Y659750D02*Y658250D01*
Y659750D02*X76200Y660500D01*
X77700D01*
X78450Y659750D01*
X75450Y659000D02*X78450D01*
Y659750D02*Y659000D01*
X81000Y659750D02*Y657500D01*
Y659750D02*X81750Y660500D01*
X82500D01*
X83250Y659750D01*
Y657500D01*
X80250Y660500D02*X81000Y659750D01*
X85800Y663500D02*Y658250D01*
X86550Y657500D01*
X85050Y661250D02*X86550D01*
X93750Y663500D02*Y657500D01*
X93000D02*X93750Y658250D01*
X91500Y657500D02*X93000D01*
X90750Y658250D02*X91500Y657500D01*
X90750Y659750D02*Y658250D01*
Y659750D02*X91500Y660500D01*
X93000D01*
X93750Y659750D01*
X96300D02*Y657500D01*
Y659750D02*X97050Y660500D01*
X98550D01*
X95550D02*X96300Y659750D01*
G54D116*X100350Y662000D02*Y661850D01*
G54D115*Y659750D02*Y657500D01*
X101850Y663500D02*Y658250D01*
X102600Y657500D01*
X104100Y663500D02*Y658250D01*
X104850Y657500D01*
X109800D02*X112050D01*
X112800Y658250D01*
X112050Y659000D02*X112800Y658250D01*
X109800Y659000D02*X112050D01*
X109050Y659750D02*X109800Y659000D01*
X109050Y659750D02*X109800Y660500D01*
X112050D01*
X112800Y659750D01*
X109050Y658250D02*X109800Y657500D01*
G54D116*X114600Y662000D02*Y661850D01*
G54D115*Y659750D02*Y657500D01*
X116100Y660500D02*X119100D01*
X116100Y657500D02*X119100Y660500D01*
X116100Y657500D02*X119100D01*
X121650D02*X123900D01*
X120900Y658250D02*X121650Y657500D01*
X120900Y659750D02*Y658250D01*
Y659750D02*X121650Y660500D01*
X123150D01*
X123900Y659750D01*
X120900Y659000D02*X123900D01*
Y659750D02*Y659000D01*
X126450Y657500D02*X128700D01*
X129450Y658250D01*
X128700Y659000D02*X129450Y658250D01*
X126450Y659000D02*X128700D01*
X125700Y659750D02*X126450Y659000D01*
X125700Y659750D02*X126450Y660500D01*
X128700D01*
X129450Y659750D01*
X125700Y658250D02*X126450Y657500D01*
X133950Y660500D02*Y658250D01*
X134700Y657500D01*
X136200D01*
X136950Y658250D01*
Y660500D02*Y658250D01*
X139500Y657500D02*X141750D01*
X142500Y658250D01*
X141750Y659000D02*X142500Y658250D01*
X139500Y659000D02*X141750D01*
X138750Y659750D02*X139500Y659000D01*
X138750Y659750D02*X139500Y660500D01*
X141750D01*
X142500Y659750D01*
X138750Y658250D02*X139500Y657500D01*
X145050D02*X147300D01*
X144300Y658250D02*X145050Y657500D01*
X144300Y659750D02*Y658250D01*
Y659750D02*X145050Y660500D01*
X146550D01*
X147300Y659750D01*
X144300Y659000D02*X147300D01*
Y659750D02*Y659000D01*
X152100Y663500D02*Y657500D01*
X151350D02*X152100Y658250D01*
X149850Y657500D02*X151350D01*
X149100Y658250D02*X149850Y657500D01*
X149100Y659750D02*Y658250D01*
Y659750D02*X149850Y660500D01*
X151350D01*
X152100Y659750D01*
G54D116*X156600Y662000D02*Y661850D01*
G54D115*Y659750D02*Y657500D01*
X158850Y659750D02*Y657500D01*
Y659750D02*X159600Y660500D01*
X160350D01*
X161100Y659750D01*
Y657500D01*
X158100Y660500D02*X158850Y659750D01*
X166350Y663500D02*Y658250D01*
X167100Y657500D01*
X165600Y661250D02*X167100D01*
X168600Y663500D02*Y657500D01*
Y659750D02*X169350Y660500D01*
X170850D01*
X171600Y659750D01*
Y657500D01*
G54D116*X173400Y662000D02*Y661850D01*
G54D115*Y659750D02*Y657500D01*
X175650D02*X177900D01*
X178650Y658250D01*
X177900Y659000D02*X178650Y658250D01*
X175650Y659000D02*X177900D01*
X174900Y659750D02*X175650Y659000D01*
X174900Y659750D02*X175650Y660500D01*
X177900D01*
X178650Y659750D01*
X174900Y658250D02*X175650Y657500D01*
X183150Y663500D02*Y658250D01*
X183900Y657500D01*
X187650Y660500D02*X188400Y659750D01*
X186150Y660500D02*X187650D01*
X185400Y659750D02*X186150Y660500D01*
X185400Y659750D02*Y658250D01*
X186150Y657500D01*
X188400Y660500D02*Y658250D01*
X189150Y657500D01*
X186150D02*X187650D01*
X188400Y658250D01*
X190950Y660500D02*Y658250D01*
X191700Y657500D01*
X193950Y660500D02*Y656000D01*
X193200Y655250D02*X193950Y656000D01*
X191700Y655250D02*X193200D01*
X190950Y656000D02*X191700Y655250D01*
Y657500D02*X193200D01*
X193950Y658250D01*
X195750Y659750D02*Y658250D01*
Y659750D02*X196500Y660500D01*
X198000D01*
X198750Y659750D01*
Y658250D01*
X198000Y657500D02*X198750Y658250D01*
X196500Y657500D02*X198000D01*
X195750Y658250D02*X196500Y657500D01*
X200550Y660500D02*Y658250D01*
X201300Y657500D01*
X202800D01*
X203550Y658250D01*
Y660500D02*Y658250D01*
X206100Y663500D02*Y658250D01*
X206850Y657500D01*
X205350Y661250D02*X206850D01*
X208350Y656000D02*X209850Y657500D01*
X215100D02*X217350Y660500D01*
Y662750D02*Y660500D01*
X216600Y663500D02*X217350Y662750D01*
X215100Y663500D02*X216600D01*
X214350Y662750D02*X215100Y663500D01*
X214350Y662750D02*Y661250D01*
X215100Y660500D01*
X217350D01*
X219900Y657500D02*X222150Y660500D01*
Y662750D02*Y660500D01*
X221400Y663500D02*X222150Y662750D01*
X219900Y663500D02*X221400D01*
X219150Y662750D02*X219900Y663500D01*
X219150Y662750D02*Y661250D01*
X219900Y660500D01*
X222150D01*
X226650Y663500D02*Y657500D01*
Y659750D02*X227400Y660500D01*
X228900D01*
X229650Y659750D01*
Y657500D01*
X231450Y659750D02*Y658250D01*
Y659750D02*X232200Y660500D01*
X233700D01*
X234450Y659750D01*
Y658250D01*
X233700Y657500D02*X234450Y658250D01*
X232200Y657500D02*X233700D01*
X231450Y658250D02*X232200Y657500D01*
X236250Y663500D02*Y658250D01*
X237000Y657500D01*
X239250D02*X241500D01*
X238500Y658250D02*X239250Y657500D01*
X238500Y659750D02*Y658250D01*
Y659750D02*X239250Y660500D01*
X240750D01*
X241500Y659750D01*
X238500Y659000D02*X241500D01*
Y659750D02*Y659000D01*
X244050Y657500D02*X246300D01*
X247050Y658250D01*
X246300Y659000D02*X247050Y658250D01*
X244050Y659000D02*X246300D01*
X243300Y659750D02*X244050Y659000D01*
X243300Y659750D02*X244050Y660500D01*
X246300D01*
X247050Y659750D01*
X243300Y658250D02*X244050Y657500D01*
X252300Y663500D02*Y658250D01*
X253050Y657500D01*
X251550Y661250D02*X253050D01*
X254550Y659750D02*Y658250D01*
Y659750D02*X255300Y660500D01*
X256800D01*
X257550Y659750D01*
Y658250D01*
X256800Y657500D02*X257550Y658250D01*
X255300Y657500D02*X256800D01*
X254550Y658250D02*X255300Y657500D01*
X260100Y663500D02*Y658250D01*
X260850Y657500D01*
X259350Y661250D02*X260850D01*
X264600Y660500D02*X265350Y659750D01*
X263100Y660500D02*X264600D01*
X262350Y659750D02*X263100Y660500D01*
X262350Y659750D02*Y658250D01*
X263100Y657500D01*
X265350Y660500D02*Y658250D01*
X266100Y657500D01*
X263100D02*X264600D01*
X265350Y658250D01*
X267900Y663500D02*Y658250D01*
X268650Y657500D01*
G54D117*X102386Y47244D02*X413386D01*
X102386D02*Y374744D01*
X413386Y47244D02*Y374744D01*
X102386D01*
G54D115*X213675Y-9500D02*X216675D01*
X217425Y-8750D01*
Y-6950D02*Y-8750D01*
X216675Y-6200D02*X217425Y-6950D01*
X214425Y-6200D02*X216675D01*
X214425Y-3500D02*Y-9500D01*
X213675Y-3500D02*X216675D01*
X217425Y-4250D01*
Y-5450D01*
X216675Y-6200D02*X217425Y-5450D01*
X219225Y-7250D02*Y-8750D01*
Y-7250D02*X219975Y-6500D01*
X221475D01*
X222225Y-7250D01*
Y-8750D01*
X221475Y-9500D02*X222225Y-8750D01*
X219975Y-9500D02*X221475D01*
X219225Y-8750D02*X219975Y-9500D01*
X226275Y-6500D02*X227025Y-7250D01*
X224775Y-6500D02*X226275D01*
X224025Y-7250D02*X224775Y-6500D01*
X224025Y-7250D02*Y-8750D01*
X224775Y-9500D01*
X227025Y-6500D02*Y-8750D01*
X227775Y-9500D01*
X224775D02*X226275D01*
X227025Y-8750D01*
X230325Y-7250D02*Y-9500D01*
Y-7250D02*X231075Y-6500D01*
X232575D01*
X229575D02*X230325Y-7250D01*
X237375Y-3500D02*Y-9500D01*
X236625D02*X237375Y-8750D01*
X235125Y-9500D02*X236625D01*
X234375Y-8750D02*X235125Y-9500D01*
X234375Y-7250D02*Y-8750D01*
Y-7250D02*X235125Y-6500D01*
X236625D01*
X237375Y-7250D01*
X241875D02*Y-8750D01*
Y-7250D02*X242625Y-6500D01*
X244125D01*
X244875Y-7250D01*
Y-8750D01*
X244125Y-9500D02*X244875Y-8750D01*
X242625Y-9500D02*X244125D01*
X241875Y-8750D02*X242625Y-9500D01*
X246675Y-6500D02*Y-8750D01*
X247425Y-9500D01*
X248925D01*
X249675Y-8750D01*
Y-6500D02*Y-8750D01*
X252225Y-3500D02*Y-8750D01*
X252975Y-9500D01*
X251475Y-5750D02*X252975D01*
X254475Y-3500D02*Y-8750D01*
X255225Y-9500D01*
G54D116*X256725Y-5000D02*Y-5150D01*
G54D115*Y-7250D02*Y-9500D01*
X258975Y-7250D02*Y-9500D01*
Y-7250D02*X259725Y-6500D01*
X260475D01*
X261225Y-7250D01*
Y-9500D01*
X258225Y-6500D02*X258975Y-7250D01*
X263775Y-9500D02*X266025D01*
X263025Y-8750D02*X263775Y-9500D01*
X263025Y-7250D02*Y-8750D01*
Y-7250D02*X263775Y-6500D01*
X265275D01*
X266025Y-7250D01*
X263025Y-8000D02*X266025D01*
Y-7250D02*Y-8000D01*
G54D116*X270525Y-5000D02*Y-5150D01*
G54D115*Y-7250D02*Y-9500D01*
X272775D02*X275025D01*
X275775Y-8750D01*
X275025Y-8000D02*X275775Y-8750D01*
X272775Y-8000D02*X275025D01*
X272025Y-7250D02*X272775Y-8000D01*
X272025Y-7250D02*X272775Y-6500D01*
X275025D01*
X275775Y-7250D01*
X272025Y-8750D02*X272775Y-9500D01*
X281025Y-3500D02*Y-8750D01*
X281775Y-9500D01*
X280275Y-5750D02*X281775D01*
X283275Y-3500D02*Y-9500D01*
Y-7250D02*X284025Y-6500D01*
X285525D01*
X286275Y-7250D01*
Y-9500D01*
X288825D02*X291075D01*
X288075Y-8750D02*X288825Y-9500D01*
X288075Y-7250D02*Y-8750D01*
Y-7250D02*X288825Y-6500D01*
X290325D01*
X291075Y-7250D01*
X288075Y-8000D02*X291075D01*
Y-7250D02*Y-8000D01*
X296325Y-6500D02*X298575D01*
X295575Y-7250D02*X296325Y-6500D01*
X295575Y-7250D02*Y-8750D01*
X296325Y-9500D01*
X298575D01*
X301125D02*X303375D01*
X300375Y-8750D02*X301125Y-9500D01*
X300375Y-7250D02*Y-8750D01*
Y-7250D02*X301125Y-6500D01*
X302625D01*
X303375Y-7250D01*
X300375Y-8000D02*X303375D01*
Y-7250D02*Y-8000D01*
X305925Y-7250D02*Y-9500D01*
Y-7250D02*X306675Y-6500D01*
X307425D01*
X308175Y-7250D01*
Y-9500D01*
X305175Y-6500D02*X305925Y-7250D01*
X310725Y-3500D02*Y-8750D01*
X311475Y-9500D01*
X309975Y-5750D02*X311475D01*
X313725Y-9500D02*X315975D01*
X312975Y-8750D02*X313725Y-9500D01*
X312975Y-7250D02*Y-8750D01*
Y-7250D02*X313725Y-6500D01*
X315225D01*
X315975Y-7250D01*
X312975Y-8000D02*X315975D01*
Y-7250D02*Y-8000D01*
X318525Y-7250D02*Y-9500D01*
Y-7250D02*X319275Y-6500D01*
X320775D01*
X317775D02*X318525Y-7250D01*
X322575Y-3500D02*Y-8750D01*
X323325Y-9500D01*
G54D116*X324825Y-5000D02*Y-5150D01*
G54D115*Y-7250D02*Y-9500D01*
X327075Y-7250D02*Y-9500D01*
Y-7250D02*X327825Y-6500D01*
X328575D01*
X329325Y-7250D01*
Y-9500D01*
X326325Y-6500D02*X327075Y-7250D01*
X331875Y-9500D02*X334125D01*
X331125Y-8750D02*X331875Y-9500D01*
X331125Y-7250D02*Y-8750D01*
Y-7250D02*X331875Y-6500D01*
X333375D01*
X334125Y-7250D01*
X331125Y-8000D02*X334125D01*
Y-7250D02*Y-8000D01*
X338625Y-7250D02*Y-8750D01*
Y-7250D02*X339375Y-6500D01*
X340875D01*
X341625Y-7250D01*
Y-8750D01*
X340875Y-9500D02*X341625Y-8750D01*
X339375Y-9500D02*X340875D01*
X338625Y-8750D02*X339375Y-9500D01*
X344175Y-4250D02*Y-9500D01*
Y-4250D02*X344925Y-3500D01*
X345675D01*
X343425Y-6500D02*X344925D01*
X350625Y-3500D02*Y-8750D01*
X351375Y-9500D01*
X349875Y-5750D02*X351375D01*
X352875Y-3500D02*Y-9500D01*
Y-7250D02*X353625Y-6500D01*
X355125D01*
X355875Y-7250D01*
Y-9500D01*
G54D116*X357675Y-5000D02*Y-5150D01*
G54D115*Y-7250D02*Y-9500D01*
X359925D02*X362175D01*
X362925Y-8750D01*
X362175Y-8000D02*X362925Y-8750D01*
X359925Y-8000D02*X362175D01*
X359175Y-7250D02*X359925Y-8000D01*
X359175Y-7250D02*X359925Y-6500D01*
X362175D01*
X362925Y-7250D01*
X359175Y-8750D02*X359925Y-9500D01*
X368175Y-7250D02*Y-11750D01*
X367425Y-6500D02*X368175Y-7250D01*
X368925Y-6500D01*
X370425D01*
X371175Y-7250D01*
Y-8750D01*
X370425Y-9500D02*X371175Y-8750D01*
X368925Y-9500D02*X370425D01*
X368175Y-8750D02*X368925Y-9500D01*
X375225Y-6500D02*X375975Y-7250D01*
X373725Y-6500D02*X375225D01*
X372975Y-7250D02*X373725Y-6500D01*
X372975Y-7250D02*Y-8750D01*
X373725Y-9500D01*
X375975Y-6500D02*Y-8750D01*
X376725Y-9500D01*
X373725D02*X375225D01*
X375975Y-8750D01*
X379275Y-3500D02*Y-8750D01*
X380025Y-9500D01*
X378525Y-5750D02*X380025D01*
X381525Y-3500D02*Y-9500D01*
Y-7250D02*X382275Y-6500D01*
X383775D01*
X384525Y-7250D01*
Y-9500D01*
X200750Y528500D02*Y522500D01*
X202700Y528500D02*X203750Y527450D01*
Y523550D01*
X202700Y522500D02*X203750Y523550D01*
X200000Y522500D02*X202700D01*
X200000Y528500D02*X202700D01*
X207800Y525500D02*X208550Y524750D01*
X206300Y525500D02*X207800D01*
X205550Y524750D02*X206300Y525500D01*
X205550Y524750D02*Y523250D01*
X206300Y522500D01*
X208550Y525500D02*Y523250D01*
X209300Y522500D01*
X206300D02*X207800D01*
X208550Y523250D01*
X211850Y528500D02*Y523250D01*
X212600Y522500D01*
X211100Y526250D02*X212600D01*
X214850Y522500D02*X217100D01*
X214100Y523250D02*X214850Y522500D01*
X214100Y524750D02*Y523250D01*
Y524750D02*X214850Y525500D01*
X216350D01*
X217100Y524750D01*
X214100Y524000D02*X217100D01*
Y524750D02*Y524000D01*
X218900Y526250D02*X219650D01*
X218900Y524750D02*X219650D01*
X224150Y528500D02*X227150D01*
X225650D02*Y522500D01*
X228950Y525500D02*Y523250D01*
X229700Y522500D01*
X231200D01*
X231950Y523250D01*
Y525500D02*Y523250D01*
X234500Y522500D02*X236750D01*
X233750Y523250D02*X234500Y522500D01*
X233750Y524750D02*Y523250D01*
Y524750D02*X234500Y525500D01*
X236000D01*
X236750Y524750D01*
X233750Y524000D02*X236750D01*
Y524750D02*Y524000D01*
X241250Y527300D02*X242450Y528500D01*
Y522500D01*
X241250D02*X243500D01*
X245300Y528500D02*X248300D01*
X245300D02*Y525500D01*
X246050Y526250D01*
X247550D01*
X248300Y525500D01*
Y523250D01*
X247550Y522500D02*X248300Y523250D01*
X246050Y522500D02*X247550D01*
X245300Y523250D02*X246050Y522500D01*
X252800Y527750D02*Y523250D01*
Y527750D02*X253550Y528500D01*
X255050D01*
X255800Y527750D01*
Y523250D01*
X255050Y522500D02*X255800Y523250D01*
X253550Y522500D02*X255050D01*
X252800Y523250D02*X253550Y522500D01*
X258350Y525500D02*X260600D01*
X257600Y524750D02*X258350Y525500D01*
X257600Y524750D02*Y523250D01*
X258350Y522500D01*
X260600D01*
X263150Y528500D02*Y523250D01*
X263900Y522500D01*
X262400Y526250D02*X263900D01*
X268100Y527750D02*X268850Y528500D01*
X271100D01*
X271850Y527750D01*
Y526250D01*
X268100Y522500D02*X271850Y526250D01*
X268100Y522500D02*X271850D01*
X273650Y523250D02*X274400Y522500D01*
X273650Y527750D02*Y523250D01*
Y527750D02*X274400Y528500D01*
X275900D01*
X276650Y527750D01*
Y523250D01*
X275900Y522500D02*X276650Y523250D01*
X274400Y522500D02*X275900D01*
X273650Y524000D02*X276650Y527000D01*
X278450Y527300D02*X279650Y528500D01*
Y522500D01*
X278450D02*X280700D01*
X282500Y527750D02*X283250Y528500D01*
X284750D01*
X285500Y527750D01*
X284750Y522500D02*X285500Y523250D01*
X283250Y522500D02*X284750D01*
X282500Y523250D02*X283250Y522500D01*
Y525800D02*X284750D01*
X285500Y527750D02*Y526550D01*
Y525050D02*Y523250D01*
Y525050D02*X284750Y525800D01*
X285500Y526550D02*X284750Y525800D01*
X290000Y523250D02*X290750Y522500D01*
X290000Y527750D02*Y523250D01*
Y527750D02*X290750Y528500D01*
X292250D01*
X293000Y527750D01*
Y523250D01*
X292250Y522500D02*X293000Y523250D01*
X290750Y522500D02*X292250D01*
X290000Y524000D02*X293000Y527000D01*
X294800Y524750D02*X297800Y528500D01*
X294800Y524750D02*X298550D01*
X297800Y528500D02*Y522500D01*
X300350Y526250D02*X301100D01*
X300350Y524750D02*X301100D01*
X302900Y523250D02*X303650Y522500D01*
X302900Y527750D02*Y523250D01*
Y527750D02*X303650Y528500D01*
X305150D01*
X305900Y527750D01*
Y523250D01*
X305150Y522500D02*X305900Y523250D01*
X303650Y522500D02*X305150D01*
X302900Y524000D02*X305900Y527000D01*
X307700Y527750D02*X308450Y528500D01*
X309950D01*
X310700Y527750D01*
X309950Y522500D02*X310700Y523250D01*
X308450Y522500D02*X309950D01*
X307700Y523250D02*X308450Y522500D01*
Y525800D02*X309950D01*
X310700Y527750D02*Y526550D01*
Y525050D02*Y523250D01*
Y525050D02*X309950Y525800D01*
X310700Y526550D02*X309950Y525800D01*
X312500Y526250D02*X313250D01*
X312500Y524750D02*X313250D01*
X315050D02*X318050Y528500D01*
X315050Y524750D02*X318800D01*
X318050Y528500D02*Y522500D01*
X321350D02*X324350Y528500D01*
X320600D02*X324350D01*
X328850Y527000D02*Y522500D01*
Y527000D02*X329900Y528500D01*
X331550D01*
X332600Y527000D01*
Y522500D01*
X328850Y525500D02*X332600D01*
X334400Y528500D02*Y522500D01*
Y528500D02*X336650Y525500D01*
X338900Y528500D01*
Y522500D01*
X346400Y528500D02*X347150Y527750D01*
X344150Y528500D02*X346400D01*
X343400Y527750D02*X344150Y528500D01*
X343400Y527750D02*Y523250D01*
X344150Y522500D01*
X346400D01*
X347150Y523250D01*
Y524750D02*Y523250D01*
X346400Y525500D02*X347150Y524750D01*
X344900Y525500D02*X346400D01*
X348950Y528500D02*Y522500D01*
Y528500D02*X351200Y525500D01*
X353450Y528500D01*
Y522500D01*
X355250Y528500D02*X358250D01*
X356750D02*Y522500D01*
X362750Y528500D02*Y523250D01*
X363500Y522500D01*
X365000D01*
X365750Y523250D01*
Y528500D02*Y523250D01*
X367550Y528500D02*X370550D01*
X369050D02*Y522500D01*
X373400D02*X375350D01*
X372350Y523550D02*X373400Y522500D01*
X372350Y527450D02*Y523550D01*
Y527450D02*X373400Y528500D01*
X375350D01*
X200000Y542000D02*Y537500D01*
Y542000D02*X201050Y543500D01*
X202700D01*
X203750Y542000D01*
Y537500D01*
X200000Y540500D02*X203750D01*
X205550D02*Y538250D01*
X206300Y537500D01*
X207800D01*
X208550Y538250D01*
Y540500D02*Y538250D01*
X211100Y543500D02*Y538250D01*
X211850Y537500D01*
X210350Y541250D02*X211850D01*
X213350Y543500D02*Y537500D01*
Y539750D02*X214100Y540500D01*
X215600D01*
X216350Y539750D01*
Y537500D01*
X218150Y539750D02*Y538250D01*
Y539750D02*X218900Y540500D01*
X220400D01*
X221150Y539750D01*
Y538250D01*
X220400Y537500D02*X221150Y538250D01*
X218900Y537500D02*X220400D01*
X218150Y538250D02*X218900Y537500D01*
X223700Y539750D02*Y537500D01*
Y539750D02*X224450Y540500D01*
X225950D01*
X222950D02*X223700Y539750D01*
X227750Y541250D02*X228500D01*
X227750Y539750D02*X228500D01*
X200000Y558500D02*X203000D01*
X201500D02*Y552500D01*
G54D116*X204800Y557000D02*Y556850D01*
G54D115*Y554750D02*Y552500D01*
X207050Y558500D02*Y553250D01*
X207800Y552500D01*
X206300Y556250D02*X207800D01*
X209300Y558500D02*Y553250D01*
X210050Y552500D01*
X212300D02*X214550D01*
X211550Y553250D02*X212300Y552500D01*
X211550Y554750D02*Y553250D01*
Y554750D02*X212300Y555500D01*
X213800D01*
X214550Y554750D01*
X211550Y554000D02*X214550D01*
Y554750D02*Y554000D01*
X216350Y556250D02*X217100D01*
X216350Y554750D02*X217100D01*
X221600Y553250D02*X222350Y552500D01*
X221600Y557750D02*X222350Y558500D01*
X221600Y557750D02*Y553250D01*
X224150Y555500D02*Y553250D01*
X224900Y552500D01*
X226400D01*
X227150Y553250D01*
Y555500D02*Y553250D01*
X229700Y554750D02*Y552500D01*
Y554750D02*X230450Y555500D01*
X231200D01*
X231950Y554750D01*
Y552500D01*
X228950Y555500D02*X229700Y554750D01*
X233750Y558500D02*Y552500D01*
Y554750D02*X236000Y552500D01*
X233750Y554750D02*X235250Y556250D01*
X238550Y554750D02*Y552500D01*
Y554750D02*X239300Y555500D01*
X240050D01*
X240800Y554750D01*
Y552500D01*
X237800Y555500D02*X238550Y554750D01*
X242600D02*Y553250D01*
Y554750D02*X243350Y555500D01*
X244850D01*
X245600Y554750D01*
Y553250D01*
X244850Y552500D02*X245600Y553250D01*
X243350Y552500D02*X244850D01*
X242600Y553250D02*X243350Y552500D01*
X247400Y555500D02*Y553250D01*
X248150Y552500D01*
X248900D01*
X249650Y553250D01*
Y555500D02*Y553250D01*
X250400Y552500D01*
X251150D01*
X251900Y553250D01*
Y555500D02*Y553250D01*
X254450Y554750D02*Y552500D01*
Y554750D02*X255200Y555500D01*
X255950D01*
X256700Y554750D01*
Y552500D01*
X253700Y555500D02*X254450Y554750D01*
X258500Y558500D02*X259250Y557750D01*
Y553250D01*
X258500Y552500D02*X259250Y553250D01*
X263750Y555500D02*X266750D01*
X271250Y558500D02*Y552500D01*
Y558500D02*X274250D01*
X271250Y555800D02*X273500D01*
X278300Y555500D02*X279050Y554750D01*
X276800Y555500D02*X278300D01*
X276050Y554750D02*X276800Y555500D01*
X276050Y554750D02*Y553250D01*
X276800Y552500D01*
X279050Y555500D02*Y553250D01*
X279800Y552500D01*
X276800D02*X278300D01*
X279050Y553250D01*
X281600Y558500D02*Y552500D01*
Y553250D02*X282350Y552500D01*
X283850D01*
X284600Y553250D01*
Y554750D02*Y553250D01*
X283850Y555500D02*X284600Y554750D01*
X282350Y555500D02*X283850D01*
X281600Y554750D02*X282350Y555500D01*
X287150Y554750D02*Y552500D01*
Y554750D02*X287900Y555500D01*
X289400D01*
X286400D02*X287150Y554750D01*
G54D116*X291200Y557000D02*Y556850D01*
G54D115*Y554750D02*Y552500D01*
X293450Y555500D02*X295700D01*
X292700Y554750D02*X293450Y555500D01*
X292700Y554750D02*Y553250D01*
X293450Y552500D01*
X295700D01*
X299750Y555500D02*X300500Y554750D01*
X298250Y555500D02*X299750D01*
X297500Y554750D02*X298250Y555500D01*
X297500Y554750D02*Y553250D01*
X298250Y552500D01*
X300500Y555500D02*Y553250D01*
X301250Y552500D01*
X298250D02*X299750D01*
X300500Y553250D01*
X303800Y558500D02*Y553250D01*
X304550Y552500D01*
X303050Y556250D02*X304550D01*
G54D116*X306050Y557000D02*Y556850D01*
G54D115*Y554750D02*Y552500D01*
X307550Y554750D02*Y553250D01*
Y554750D02*X308300Y555500D01*
X309800D01*
X310550Y554750D01*
Y553250D01*
X309800Y552500D02*X310550Y553250D01*
X308300Y552500D02*X309800D01*
X307550Y553250D02*X308300Y552500D01*
X313100Y554750D02*Y552500D01*
Y554750D02*X313850Y555500D01*
X314600D01*
X315350Y554750D01*
Y552500D01*
X312350Y555500D02*X313100Y554750D01*
X320600Y558500D02*Y552500D01*
X322550Y558500D02*X323600Y557450D01*
Y553550D01*
X322550Y552500D02*X323600Y553550D01*
X319850Y552500D02*X322550D01*
X319850Y558500D02*X322550D01*
X326150Y554750D02*Y552500D01*
Y554750D02*X326900Y555500D01*
X328400D01*
X325400D02*X326150Y554750D01*
X332450Y555500D02*X333200Y554750D01*
X330950Y555500D02*X332450D01*
X330200Y554750D02*X330950Y555500D01*
X330200Y554750D02*Y553250D01*
X330950Y552500D01*
X333200Y555500D02*Y553250D01*
X333950Y552500D01*
X330950D02*X332450D01*
X333200Y553250D01*
X335750Y555500D02*Y553250D01*
X336500Y552500D01*
X337250D01*
X338000Y553250D01*
Y555500D02*Y553250D01*
X338750Y552500D01*
X339500D01*
X340250Y553250D01*
Y555500D02*Y553250D01*
G54D116*X342050Y557000D02*Y556850D01*
G54D115*Y554750D02*Y552500D01*
X344300Y554750D02*Y552500D01*
Y554750D02*X345050Y555500D01*
X345800D01*
X346550Y554750D01*
Y552500D01*
X343550Y555500D02*X344300Y554750D01*
X350600Y555500D02*X351350Y554750D01*
X349100Y555500D02*X350600D01*
X348350Y554750D02*X349100Y555500D01*
X348350Y554750D02*Y553250D01*
X349100Y552500D01*
X350600D01*
X351350Y553250D01*
X348350Y551000D02*X349100Y550250D01*
X350600D01*
X351350Y551000D01*
Y555500D02*Y551000D01*
M02*
