G04 start of page 3 for group 1 idx 1 *
G04 Title: (unknown), power *
G04 Creator: pcb 1.99z *
G04 CreationDate: Wed 06 Nov 2013 06:55:18 PM GMT UTC *
G04 For: commonadmin *
G04 Format: Gerber/RS-274X *
G04 PCB-Dimensions: 600000 500000 *
G04 PCB-Coordinate-Origin: lower left *
%MOIN*%
%FSLAX25Y25*%
%LNBOTTOM*%
%ADD61C,0.0590*%
%ADD60C,0.0905*%
%ADD59C,0.0280*%
%ADD58C,0.0300*%
%ADD57C,0.0380*%
%ADD56C,0.0810*%
%ADD55C,0.1181*%
%ADD54C,0.0200*%
%ADD53C,0.0350*%
%ADD52C,0.1437*%
%ADD51C,0.0360*%
%ADD50C,0.0800*%
%ADD49C,0.0550*%
%ADD48C,0.1660*%
%ADD47C,0.1000*%
%ADD46C,0.0600*%
%ADD45C,0.0500*%
%ADD44C,0.0100*%
%ADD43C,0.0250*%
%ADD42C,0.0001*%
G54D42*G36*
X286323Y310846D02*X273323D01*
Y314353D01*
X276058Y314360D01*
X276288Y314415D01*
X276506Y314506D01*
X276707Y314629D01*
X276887Y314783D01*
X277040Y314962D01*
X277163Y315163D01*
X277254Y315382D01*
X277309Y315611D01*
X277323Y315846D01*
X277309Y321082D01*
X277254Y321311D01*
X277163Y321530D01*
X277040Y321731D01*
X276887Y321910D01*
X276707Y322064D01*
X276506Y322187D01*
X276288Y322277D01*
X276058Y322333D01*
X275823Y322346D01*
X273323Y322340D01*
Y323596D01*
X282891D01*
X286323Y320164D01*
Y310846D01*
G37*
G36*
X273323D02*X188823D01*
Y347664D01*
X189505Y348346D01*
X260641D01*
X261573Y347414D01*
Y333435D01*
X261566Y333346D01*
X261594Y332993D01*
X261676Y332649D01*
X261812Y332322D01*
X261997Y332020D01*
X261997Y332020D01*
X262227Y331751D01*
X262294Y331693D01*
X269669Y324318D01*
X269727Y324251D01*
X269996Y324021D01*
X269996Y324021D01*
X270183Y323906D01*
X270298Y323836D01*
X270625Y323700D01*
X270970Y323617D01*
X270970D01*
X271323Y323590D01*
X271411Y323596D01*
X273323D01*
Y322340D01*
X270587Y322333D01*
X270358Y322277D01*
X270140Y322187D01*
X269938Y322064D01*
X269759Y321910D01*
X269606Y321731D01*
X269482Y321530D01*
X269392Y321311D01*
X269337Y321082D01*
X269323Y320846D01*
X269337Y315611D01*
X269392Y315382D01*
X269482Y315163D01*
X269606Y314962D01*
X269759Y314783D01*
X269938Y314629D01*
X270140Y314506D01*
X270358Y314415D01*
X270587Y314360D01*
X270823Y314346D01*
X273323Y314353D01*
Y310846D01*
G37*
G36*
X287071Y268413D02*Y254346D01*
X251944D01*
X250321Y255969D01*
X250309Y261582D01*
X250254Y261811D01*
X250163Y262030D01*
X250040Y262231D01*
X249887Y262410D01*
X249707Y262564D01*
X249506Y262687D01*
X249288Y262777D01*
X249058Y262833D01*
X248823Y262846D01*
X242587Y262833D01*
X242358Y262777D01*
X242140Y262687D01*
X241938Y262564D01*
X241759Y262410D01*
X241606Y262231D01*
X241482Y262030D01*
X241392Y261811D01*
X241337Y261582D01*
X241323Y261346D01*
X241337Y255111D01*
X241392Y254882D01*
X241482Y254663D01*
X241606Y254462D01*
X241759Y254283D01*
X241938Y254129D01*
X242140Y254006D01*
X242358Y253915D01*
X242587Y253860D01*
X242823Y253846D01*
X248190Y253858D01*
X250221Y251827D01*
X250259Y251783D01*
X250438Y251629D01*
X250438Y251629D01*
X250640Y251506D01*
X250858Y251415D01*
X251087Y251360D01*
X251289Y251344D01*
X240503D01*
X239321Y252526D01*
Y273163D01*
X240503Y274344D01*
X253639D01*
X260418Y267566D01*
X260475Y267499D01*
X260744Y267269D01*
X260744Y267269D01*
X261046Y267084D01*
X261373Y266948D01*
X261718Y266865D01*
X262071Y266838D01*
X262159Y266844D01*
X284483D01*
X284571Y266838D01*
X284924Y266865D01*
X284924Y266865D01*
X285268Y266948D01*
X285595Y267084D01*
X285897Y267269D01*
X286167Y267499D01*
X286224Y267566D01*
X287071Y268413D01*
G37*
G36*
X265813Y246844D02*X281139D01*
X286323Y241661D01*
Y221028D01*
X286141Y220846D01*
X265813D01*
Y231827D01*
X265823Y231826D01*
X266843Y231907D01*
X267838Y232146D01*
X268783Y232537D01*
X269655Y233072D01*
X270433Y233736D01*
X271098Y234514D01*
X271632Y235386D01*
X272024Y236332D01*
X272263Y237326D01*
X272323Y238346D01*
X272263Y239366D01*
X272024Y240361D01*
X271632Y241306D01*
X271098Y242179D01*
X270433Y242957D01*
X269655Y243621D01*
X268783Y244156D01*
X267838Y244547D01*
X266843Y244786D01*
X265823Y244867D01*
X265813Y244866D01*
Y246844D01*
G37*
G36*
X286323Y310846D02*Y274028D01*
X283639Y271344D01*
X265813D01*
Y271827D01*
X265823Y271826D01*
X266843Y271907D01*
X267838Y272146D01*
X268783Y272537D01*
X269655Y273072D01*
X270433Y273736D01*
X271098Y274514D01*
X271632Y275386D01*
X272024Y276332D01*
X272263Y277326D01*
X272323Y278346D01*
X272263Y279366D01*
X272024Y280361D01*
X271632Y281306D01*
X271098Y282179D01*
X270433Y282957D01*
X269655Y283621D01*
X268783Y284156D01*
X267838Y284547D01*
X266843Y284786D01*
X265823Y284867D01*
X265813Y284866D01*
Y310846D01*
X286323D01*
G37*
G36*
X265813Y271344D02*X263003D01*
X256224Y278123D01*
X256167Y278190D01*
X255898Y278420D01*
X255897Y278420D01*
X255783Y278491D01*
X255595Y278605D01*
X255364Y278701D01*
X255268Y278741D01*
X254924Y278824D01*
X254571Y278851D01*
X254483Y278844D01*
X239659D01*
X239571Y278851D01*
X239218Y278824D01*
X238873Y278741D01*
X238546Y278605D01*
X238244Y278420D01*
X238244Y278420D01*
X237975Y278190D01*
X237918Y278123D01*
X235542Y275748D01*
X235475Y275690D01*
X235245Y275421D01*
X235060Y275119D01*
X234924Y274792D01*
X234842Y274448D01*
X234842Y274447D01*
X234814Y274094D01*
X234821Y274006D01*
Y251683D01*
X234814Y251594D01*
X234842Y251241D01*
X234924Y250897D01*
X235060Y250570D01*
X235245Y250268D01*
X235245Y250268D01*
X235475Y249999D01*
X235542Y249941D01*
X237918Y247566D01*
X237975Y247499D01*
X238244Y247269D01*
X238244Y247269D01*
X238546Y247084D01*
X238873Y246948D01*
X239218Y246865D01*
X239571Y246838D01*
X239659Y246844D01*
X265813D01*
Y244866D01*
X264803Y244786D01*
X263808Y244547D01*
X262863Y244156D01*
X261990Y243621D01*
X261212Y242957D01*
X260548Y242179D01*
X260013Y241306D01*
X259622Y240361D01*
X259383Y239366D01*
X259303Y238346D01*
X259383Y237326D01*
X259622Y236332D01*
X260013Y235386D01*
X260548Y234514D01*
X261212Y233736D01*
X261990Y233072D01*
X262863Y232537D01*
X263808Y232146D01*
X264803Y231907D01*
X265813Y231827D01*
Y220846D01*
X210405D01*
Y226747D01*
X216851Y233193D01*
X216919Y233251D01*
X217149Y233520D01*
X217149Y233520D01*
X217334Y233822D01*
X217469Y234149D01*
X217552Y234493D01*
X217580Y234846D01*
X217573Y234935D01*
Y246245D01*
X218578Y247250D01*
X224188D01*
X224254Y247142D01*
X224663Y246663D01*
X225142Y246254D01*
X225678Y245925D01*
X226260Y245684D01*
X226872Y245537D01*
X227500Y245488D01*
X228128Y245537D01*
X228740Y245684D01*
X229322Y245925D01*
X229858Y246254D01*
X230337Y246663D01*
X230746Y247142D01*
X231075Y247678D01*
X231316Y248260D01*
X231463Y248872D01*
X231500Y249500D01*
X231463Y250128D01*
X231316Y250740D01*
X231075Y251322D01*
X230746Y251858D01*
X230337Y252337D01*
X229858Y252746D01*
X229322Y253075D01*
X228740Y253316D01*
X228128Y253463D01*
X227500Y253512D01*
X226872Y253463D01*
X226260Y253316D01*
X225678Y253075D01*
X225142Y252746D01*
X224663Y252337D01*
X224254Y251858D01*
X224188Y251750D01*
X217734D01*
X217646Y251757D01*
X217573Y251751D01*
Y273914D01*
X225572Y281913D01*
X225695Y281884D01*
X226323Y281834D01*
X226951Y281884D01*
X227563Y282030D01*
X228144Y282271D01*
X228681Y282600D01*
X229160Y283009D01*
X229569Y283488D01*
X229898Y284025D01*
X230139Y284607D01*
X230286Y285219D01*
X230323Y285846D01*
X230286Y286474D01*
X230139Y287086D01*
X229898Y287668D01*
X229569Y288205D01*
X229160Y288684D01*
X228681Y289093D01*
X228144Y289421D01*
X227563Y289662D01*
X226951Y289809D01*
X226323Y289859D01*
X225695Y289809D01*
X225083Y289662D01*
X224501Y289421D01*
X223964Y289093D01*
X223486Y288684D01*
X223077Y288205D01*
X222748Y287668D01*
X222507Y287086D01*
X222360Y286474D01*
X222310Y285846D01*
X222360Y285219D01*
X222390Y285095D01*
X213794Y276500D01*
X213727Y276442D01*
X213497Y276173D01*
X213312Y275871D01*
X213176Y275544D01*
X213094Y275200D01*
X213094Y275199D01*
X213066Y274846D01*
X213073Y274758D01*
Y247265D01*
X213066Y247177D01*
X213073Y247089D01*
Y235778D01*
X210405Y233111D01*
Y296846D01*
X213764D01*
X213823Y296842D01*
X214058Y296860D01*
X214058Y296860D01*
X214288Y296915D01*
X214506Y297006D01*
X214707Y297129D01*
X214887Y297283D01*
X214925Y297327D01*
X224444Y306846D01*
X225702D01*
X234796Y297752D01*
X234640Y297687D01*
X234438Y297564D01*
X234259Y297410D01*
X234106Y297231D01*
X233982Y297030D01*
X233892Y296811D01*
X233837Y296582D01*
X233823Y296346D01*
X233837Y291111D01*
X233892Y290882D01*
X233982Y290663D01*
X234106Y290462D01*
X234259Y290283D01*
X234438Y290129D01*
X234640Y290006D01*
X234858Y289915D01*
X235087Y289860D01*
X235323Y289846D01*
X240558Y289860D01*
X240788Y289915D01*
X241006Y290006D01*
X241207Y290129D01*
X241387Y290283D01*
X241540Y290462D01*
X241663Y290663D01*
X241754Y290882D01*
X241809Y291111D01*
X241823Y291346D01*
X241809Y296582D01*
X241754Y296811D01*
X241663Y297030D01*
X241540Y297231D01*
X241387Y297410D01*
X241207Y297564D01*
X241006Y297687D01*
X240788Y297777D01*
X240558Y297833D01*
X240323Y297846D01*
X238944Y297843D01*
X238887Y297910D01*
X238842Y297949D01*
X227425Y309366D01*
X227387Y309410D01*
X227207Y309564D01*
X227006Y309687D01*
X226788Y309777D01*
X226558Y309833D01*
X226558Y309833D01*
X226323Y309851D01*
X226264Y309846D01*
X223882D01*
X223823Y309851D01*
X223587Y309833D01*
X223358Y309777D01*
X223140Y309687D01*
X222938Y309564D01*
X222938Y309564D01*
X222759Y309410D01*
X222721Y309366D01*
X213202Y299846D01*
X210405D01*
Y310846D01*
X265813D01*
Y284866D01*
X264803Y284786D01*
X263808Y284547D01*
X262863Y284156D01*
X261990Y283621D01*
X261212Y282957D01*
X260548Y282179D01*
X260013Y281306D01*
X259622Y280361D01*
X259383Y279366D01*
X259303Y278346D01*
X259383Y277326D01*
X259622Y276332D01*
X260013Y275386D01*
X260548Y274514D01*
X261212Y273736D01*
X261990Y273072D01*
X262863Y272537D01*
X263808Y272146D01*
X264803Y271907D01*
X265813Y271827D01*
Y271344D01*
G37*
G36*
X210405Y299846D02*X188823D01*
Y304346D01*
X191958D01*
X192051Y304196D01*
X192337Y303860D01*
X192672Y303574D01*
X193048Y303344D01*
X193455Y303175D01*
X193883Y303072D01*
X194323Y303038D01*
X194762Y303072D01*
X195191Y303175D01*
X195598Y303344D01*
X195974Y303574D01*
X196309Y303860D01*
X196595Y304196D01*
X196825Y304571D01*
X196994Y304979D01*
X197097Y305407D01*
X197123Y305846D01*
X197097Y306286D01*
X196994Y306714D01*
X196825Y307122D01*
X196595Y307497D01*
X196309Y307832D01*
X195974Y308119D01*
X195598Y308349D01*
X195191Y308518D01*
X194762Y308621D01*
X194323Y308655D01*
X193883Y308621D01*
X193455Y308518D01*
X193048Y308349D01*
X192672Y308119D01*
X192337Y307832D01*
X192051Y307497D01*
X191958Y307346D01*
X188823D01*
Y310846D01*
X210405D01*
Y299846D01*
G37*
G36*
X194993Y296846D02*X210405D01*
Y233111D01*
X205391Y228096D01*
X196635D01*
X196569Y228205D01*
X196160Y228684D01*
X195681Y229093D01*
X195144Y229421D01*
X194993Y229484D01*
Y242987D01*
X195000Y242986D01*
X195706Y243042D01*
X196395Y243207D01*
X197049Y243478D01*
X197653Y243848D01*
X198192Y244308D01*
X198652Y244847D01*
X199022Y245451D01*
X199293Y246105D01*
X199458Y246794D01*
X199500Y247500D01*
X199458Y248206D01*
X199293Y248895D01*
X199022Y249549D01*
X198652Y250153D01*
X198192Y250692D01*
X197653Y251152D01*
X197049Y251522D01*
X196395Y251793D01*
X195706Y251958D01*
X195000Y252014D01*
X194993Y252013D01*
Y296846D01*
G37*
G36*
X210405Y220846D02*X194993D01*
Y222209D01*
X195144Y222271D01*
X195681Y222600D01*
X196160Y223009D01*
X196569Y223488D01*
X196635Y223596D01*
X206235D01*
X206323Y223590D01*
X206676Y223617D01*
X206676Y223617D01*
X207020Y223700D01*
X207347Y223836D01*
X207649Y224021D01*
X207919Y224251D01*
X207976Y224318D01*
X210405Y226747D01*
Y220846D01*
G37*
G36*
X194993D02*X188823D01*
Y265920D01*
X190823D01*
X191176Y265941D01*
X191520Y266024D01*
X191847Y266159D01*
X192149Y266344D01*
X192419Y266574D01*
X192649Y266843D01*
X192834Y267145D01*
X192969Y267473D01*
X193052Y267817D01*
X193080Y268170D01*
X193052Y268523D01*
X192969Y268867D01*
X192834Y269195D01*
X192649Y269497D01*
X192419Y269766D01*
X192149Y269996D01*
X191847Y270181D01*
X191520Y270316D01*
X191176Y270399D01*
X190823Y270420D01*
X188823D01*
Y296846D01*
X194993D01*
Y252013D01*
X194294Y251958D01*
X193605Y251793D01*
X192951Y251522D01*
X192347Y251152D01*
X191808Y250692D01*
X191348Y250153D01*
X190978Y249549D01*
X190707Y248895D01*
X190542Y248206D01*
X190486Y247500D01*
X190542Y246794D01*
X190707Y246105D01*
X190978Y245451D01*
X191348Y244847D01*
X191808Y244308D01*
X192347Y243848D01*
X192951Y243478D01*
X193605Y243207D01*
X194294Y243042D01*
X194993Y242987D01*
Y229484D01*
X194563Y229662D01*
X193951Y229809D01*
X193323Y229859D01*
X192695Y229809D01*
X192083Y229662D01*
X191501Y229421D01*
X190964Y229093D01*
X190486Y228684D01*
X190077Y228205D01*
X189748Y227668D01*
X189507Y227086D01*
X189360Y226474D01*
X189310Y225846D01*
X189360Y225219D01*
X189507Y224607D01*
X189748Y224025D01*
X190077Y223488D01*
X190486Y223009D01*
X190964Y222600D01*
X191501Y222271D01*
X192083Y222030D01*
X192695Y221884D01*
X193323Y221834D01*
X193951Y221884D01*
X194563Y222030D01*
X194993Y222209D01*
Y220846D01*
G37*
G36*
X154419Y343846D02*X157522D01*
X157514Y343746D01*
X157549Y343307D01*
X157652Y342879D01*
X157820Y342471D01*
X158051Y342096D01*
X158337Y341760D01*
X158672Y341474D01*
X159048Y341244D01*
X159455Y341075D01*
X159883Y340972D01*
X160323Y340938D01*
X160762Y340972D01*
X161191Y341075D01*
X161598Y341244D01*
X161974Y341474D01*
X162309Y341760D01*
X162595Y342096D01*
X162825Y342471D01*
X162994Y342879D01*
X163097Y343307D01*
X163123Y343746D01*
X163117Y343846D01*
X175323D01*
Y339096D01*
X171323D01*
X170970Y339076D01*
X170625Y338993D01*
X170298Y338857D01*
X169996Y338672D01*
X169727Y338442D01*
X169497Y338173D01*
X169312Y337871D01*
X169176Y337544D01*
X169094Y337200D01*
X169066Y336846D01*
X169094Y336493D01*
X169176Y336149D01*
X169312Y335822D01*
X169497Y335520D01*
X169727Y335251D01*
X169996Y335021D01*
X170298Y334836D01*
X170625Y334700D01*
X170970Y334617D01*
X171323Y334596D01*
X175323D01*
Y314846D01*
X169444D01*
X168625Y315666D01*
X168587Y315710D01*
X168407Y315864D01*
X168206Y315987D01*
X167988Y316077D01*
X167758Y316133D01*
X167523Y316151D01*
X167464Y316146D01*
X154419D01*
Y322096D01*
X154891D01*
X157669Y319318D01*
X157727Y319251D01*
X157996Y319021D01*
X157996Y319021D01*
X158183Y318906D01*
X158298Y318836D01*
X158625Y318700D01*
X158970Y318617D01*
X158970D01*
X159323Y318590D01*
X159411Y318596D01*
X162010D01*
X162077Y318488D01*
X162486Y318009D01*
X162964Y317600D01*
X163501Y317271D01*
X164083Y317030D01*
X164695Y316884D01*
X165323Y316834D01*
X165951Y316884D01*
X166563Y317030D01*
X167144Y317271D01*
X167681Y317600D01*
X168160Y318009D01*
X168569Y318488D01*
X168898Y319025D01*
X169139Y319607D01*
X169286Y320219D01*
X169323Y320846D01*
X169286Y321474D01*
X169139Y322086D01*
X168898Y322668D01*
X168569Y323205D01*
X168160Y323684D01*
X167681Y324093D01*
X167144Y324421D01*
X166563Y324662D01*
X165951Y324809D01*
X165323Y324859D01*
X164695Y324809D01*
X164083Y324662D01*
X163501Y324421D01*
X162964Y324093D01*
X162486Y323684D01*
X162077Y323205D01*
X162010Y323096D01*
X160255D01*
X157476Y325875D01*
X157419Y325942D01*
X157150Y326172D01*
X157149Y326172D01*
X157035Y326243D01*
X156847Y326357D01*
X156616Y326453D01*
X156520Y326493D01*
X156176Y326576D01*
X155823Y326603D01*
X155735Y326596D01*
X154419D01*
Y343846D01*
G37*
G36*
X134323D02*X141880D01*
X142048Y343744D01*
X142455Y343575D01*
X142883Y343472D01*
X143323Y343438D01*
X143762Y343472D01*
X144191Y343575D01*
X144598Y343744D01*
X144765Y343846D01*
X154419D01*
Y326596D01*
X144510D01*
X144309Y326832D01*
X143974Y327119D01*
X143598Y327349D01*
X143191Y327518D01*
X142762Y327621D01*
X142323Y327655D01*
X141883Y327621D01*
X141455Y327518D01*
X141048Y327349D01*
X140672Y327119D01*
X140337Y326832D01*
X140051Y326497D01*
X139820Y326122D01*
X139652Y325714D01*
X139549Y325286D01*
X139514Y324846D01*
X139549Y324407D01*
X139652Y323979D01*
X139820Y323571D01*
X140051Y323196D01*
X140337Y322860D01*
X140672Y322574D01*
X141048Y322344D01*
X141455Y322175D01*
X141883Y322072D01*
X142323Y322038D01*
X142762Y322072D01*
X142839Y322091D01*
X142911Y322096D01*
X154419D01*
Y316146D01*
X147682D01*
X147623Y316151D01*
X147387Y316133D01*
X147158Y316077D01*
X146940Y315987D01*
X146738Y315864D01*
X146738Y315863D01*
X146559Y315710D01*
X146521Y315666D01*
X145702Y314846D01*
X134323D01*
Y315725D01*
X136342Y317744D01*
X136387Y317783D01*
X136540Y317962D01*
X136540Y317962D01*
X136663Y318163D01*
X136754Y318382D01*
X136809Y318611D01*
X136827Y318846D01*
X136823Y318905D01*
Y326225D01*
X144944Y334346D01*
X145958D01*
X146051Y334196D01*
X146337Y333860D01*
X146672Y333574D01*
X147048Y333344D01*
X147455Y333175D01*
X147883Y333072D01*
X148323Y333038D01*
X148762Y333072D01*
X149191Y333175D01*
X149598Y333344D01*
X149974Y333574D01*
X150309Y333860D01*
X150595Y334196D01*
X150825Y334571D01*
X150994Y334979D01*
X151097Y335407D01*
X151123Y335846D01*
X151097Y336286D01*
X150994Y336714D01*
X150825Y337122D01*
X150595Y337497D01*
X150309Y337832D01*
X149974Y338119D01*
X149598Y338349D01*
X149191Y338518D01*
X148762Y338621D01*
X148323Y338655D01*
X147883Y338621D01*
X147455Y338518D01*
X147048Y338349D01*
X146672Y338119D01*
X146337Y337832D01*
X146051Y337497D01*
X145958Y337346D01*
X144382D01*
X144323Y337351D01*
X144087Y337333D01*
X143858Y337277D01*
X143640Y337187D01*
X143438Y337064D01*
X143438Y337063D01*
X143259Y336910D01*
X143221Y336866D01*
X134323Y327968D01*
Y343846D01*
G37*
G36*
X175323Y304728D02*Y294846D01*
X164444D01*
X163925Y295366D01*
X163887Y295410D01*
X163707Y295564D01*
X163506Y295687D01*
X163288Y295777D01*
X163058Y295833D01*
X162823Y295851D01*
X162764Y295846D01*
X129444D01*
X127823Y297468D01*
Y300225D01*
X132482Y304884D01*
X132548Y304844D01*
X132955Y304675D01*
X133383Y304572D01*
X133823Y304538D01*
X134262Y304572D01*
X134691Y304675D01*
X135098Y304844D01*
X135474Y305074D01*
X135809Y305360D01*
X136095Y305696D01*
X136325Y306071D01*
X136494Y306479D01*
X136597Y306907D01*
X136623Y307346D01*
X136597Y307786D01*
X136494Y308214D01*
X136325Y308622D01*
X136095Y308997D01*
X135809Y309332D01*
X135474Y309619D01*
X135098Y309849D01*
X134691Y310018D01*
X134262Y310121D01*
X133823Y310155D01*
X133383Y310121D01*
X132955Y310018D01*
X132548Y309849D01*
X132172Y309619D01*
X131837Y309332D01*
X131551Y308997D01*
X131320Y308622D01*
X131152Y308214D01*
X131049Y307786D01*
X131041Y307686D01*
X127323Y303968D01*
Y313346D01*
X131264D01*
X131323Y313342D01*
X131558Y313360D01*
X131558Y313360D01*
X131788Y313415D01*
X132006Y313506D01*
X132207Y313629D01*
X132387Y313783D01*
X132425Y313827D01*
X134444Y315846D01*
X146718D01*
X146559Y315710D01*
X146521Y315666D01*
X142804Y311949D01*
X142759Y311910D01*
X142606Y311731D01*
X142482Y311530D01*
X142392Y311311D01*
X142337Y311082D01*
X142337Y311081D01*
X142318Y310846D01*
X142323Y310788D01*
Y309711D01*
X142172Y309619D01*
X141837Y309332D01*
X141551Y308997D01*
X141320Y308622D01*
X141152Y308214D01*
X141049Y307786D01*
X141014Y307346D01*
X141049Y306907D01*
X141152Y306479D01*
X141320Y306071D01*
X141551Y305696D01*
X141837Y305360D01*
X142172Y305074D01*
X142548Y304844D01*
X142818Y304732D01*
X142938Y304629D01*
X143140Y304506D01*
X143358Y304415D01*
X143587Y304360D01*
X143823Y304342D01*
X144058Y304360D01*
X144288Y304415D01*
X144506Y304506D01*
X144707Y304629D01*
X144828Y304732D01*
X145098Y304844D01*
X145474Y305074D01*
X145809Y305360D01*
X146095Y305696D01*
X146325Y306071D01*
X146494Y306479D01*
X146597Y306907D01*
X146623Y307346D01*
X146597Y307786D01*
X146494Y308214D01*
X146325Y308622D01*
X146095Y308997D01*
X145809Y309332D01*
X145474Y309619D01*
X145323Y309711D01*
Y310225D01*
X148244Y313146D01*
X166902D01*
X175221Y304827D01*
X175259Y304783D01*
X175323Y304728D01*
G37*
G36*
X134159Y284846D02*X156323D01*
Y266008D01*
X156281Y265927D01*
X156253Y265853D01*
X156237Y265776D01*
X156234Y265697D01*
X156243Y265618D01*
X156264Y265542D01*
X156297Y265471D01*
X156323Y265432D01*
Y264058D01*
X156299Y264022D01*
X156266Y263950D01*
X156245Y263874D01*
X156236Y263796D01*
X156239Y263717D01*
X156254Y263640D01*
X156283Y263567D01*
X156323Y263489D01*
Y231846D01*
X134159D01*
Y258401D01*
X137572Y261813D01*
X137695Y261784D01*
X138323Y261734D01*
X138951Y261784D01*
X139563Y261930D01*
X140144Y262171D01*
X140681Y262500D01*
X141160Y262909D01*
X141569Y263388D01*
X141898Y263925D01*
X142139Y264507D01*
X142286Y265119D01*
X142323Y265746D01*
X142286Y266374D01*
X142139Y266986D01*
X141898Y267568D01*
X141569Y268105D01*
X141160Y268584D01*
X140681Y268993D01*
X140144Y269321D01*
X139563Y269562D01*
X138951Y269709D01*
X138323Y269759D01*
X137695Y269709D01*
X137083Y269562D01*
X136501Y269321D01*
X135964Y268993D01*
X135486Y268584D01*
X135077Y268105D01*
X134748Y267568D01*
X134507Y266986D01*
X134360Y266374D01*
X134310Y265746D01*
X134360Y265119D01*
X134390Y264995D01*
X134159Y264765D01*
Y284846D01*
G37*
G36*
X103323D02*X134159D01*
Y264765D01*
X131571Y262177D01*
X131248Y262310D01*
X130636Y262457D01*
X130008Y262507D01*
X129380Y262457D01*
X128768Y262310D01*
X128186Y262070D01*
X127649Y261741D01*
X127171Y261332D01*
X126762Y260853D01*
X126433Y260316D01*
X126192Y259734D01*
X126045Y259122D01*
X125996Y258494D01*
X126045Y257867D01*
X126192Y257255D01*
X126433Y256673D01*
X126762Y256136D01*
X127171Y255657D01*
X127649Y255248D01*
X128186Y254919D01*
X128768Y254679D01*
X129380Y254532D01*
X130008Y254482D01*
X130636Y254532D01*
X131248Y254679D01*
X131829Y254919D01*
X132366Y255248D01*
X132845Y255657D01*
X133254Y256136D01*
X133583Y256673D01*
X133824Y257255D01*
X133971Y257867D01*
X133992Y258234D01*
X134159Y258401D01*
Y231846D01*
X104017D01*
X104052Y231993D01*
X104080Y232346D01*
X104052Y232700D01*
X103969Y233044D01*
X103834Y233371D01*
X103649Y233673D01*
X103419Y233942D01*
X103323Y234024D01*
Y284846D01*
G37*
G36*
X188823Y220846D02*X178573D01*
Y228758D01*
X178580Y228846D01*
X178552Y229200D01*
X178469Y229544D01*
X178430Y229640D01*
X178334Y229871D01*
X178219Y230058D01*
X178149Y230173D01*
X178149Y230173D01*
X177919Y230442D01*
X177851Y230500D01*
X172414Y235937D01*
X172149Y236172D01*
X171847Y236357D01*
X171520Y236493D01*
X171176Y236576D01*
X170823Y236603D01*
X170470Y236576D01*
X170125Y236493D01*
X169798Y236357D01*
X169496Y236172D01*
X169227Y235942D01*
X168997Y235673D01*
X168823Y235389D01*
Y284567D01*
X169051Y284196D01*
X169337Y283860D01*
X169672Y283574D01*
X170048Y283344D01*
X170455Y283175D01*
X170883Y283072D01*
X171323Y283038D01*
X171762Y283072D01*
X172191Y283175D01*
X172598Y283344D01*
X172974Y283574D01*
X173309Y283860D01*
X173595Y284196D01*
X173825Y284571D01*
X173994Y284979D01*
X174097Y285407D01*
X174123Y285846D01*
X174097Y286286D01*
X173994Y286714D01*
X173825Y287122D01*
X173595Y287497D01*
X173309Y287832D01*
X172974Y288119D01*
X172598Y288349D01*
X172191Y288518D01*
X171762Y288621D01*
X171323Y288655D01*
X170883Y288621D01*
X170711Y288579D01*
X168823Y290468D01*
Y293346D01*
X188823D01*
Y270420D01*
X186147D01*
X185794Y270399D01*
X185449Y270316D01*
X185122Y270181D01*
X184820Y269996D01*
X184551Y269766D01*
X184321Y269497D01*
X184136Y269195D01*
X184000Y268867D01*
X183918Y268523D01*
X183890Y268170D01*
X183918Y267817D01*
X184000Y267473D01*
X184136Y267145D01*
X184321Y266843D01*
X184551Y266574D01*
X184820Y266344D01*
X185122Y266159D01*
X185449Y266024D01*
X185794Y265941D01*
X186147Y265920D01*
X188823D01*
Y220846D01*
G37*
G54D43*X49323Y224746D02*X44323D01*
X42323Y226746D01*
G54D44*X59323Y224746D02*Y226746D01*
G54D43*X36323Y214746D02*X33323Y217746D01*
G54D44*X54323Y221846D02*X57823Y218346D01*
G54D43*X33323Y217746D02*Y236746D01*
X42323Y226746D02*Y239346D01*
G54D44*X49323Y234746D02*X49423D01*
X54323Y229846D01*
Y221846D01*
G54D43*X28823Y238346D02*Y214246D01*
X33323Y209746D01*
X33423D01*
X35323Y207846D01*
X36323Y214746D02*X72423D01*
X35323Y207846D02*X71323D01*
G54D44*X57823Y218346D02*X74323D01*
G54D43*X72423Y214746D02*X75323Y211846D01*
X71323Y207846D02*X73823Y205346D01*
G54D44*X59323Y234746D02*Y244746D01*
Y226746D02*X64323Y231746D01*
Y244746D01*
X67323Y252746D02*X77323D01*
X59323Y244746D02*X67323Y252746D01*
X69323Y234746D02*Y244746D01*
X71323Y246746D01*
X64323Y244746D02*X69323Y249746D01*
X71423Y246846D02*X71123Y246546D01*
X92323Y246846D02*X71423D01*
X69323Y249746D02*X87723D01*
X93823Y255846D02*X87723Y249746D01*
G54D43*X67500Y270000D02*X65000Y267500D01*
X60669D01*
X67500Y270000D02*X81500D01*
G54D44*X49323Y234746D02*Y233746D01*
G54D43*X46823Y255346D02*X53823Y248346D01*
Y243346D01*
X54023Y274146D02*Y273477D01*
X60669Y267500D02*X54023Y274146D01*
X53823Y243346D02*X51323Y240846D01*
X43823D02*X51323D01*
X43323Y255346D02*Y246746D01*
X33323Y236746D02*X43323Y246746D01*
X42323Y239346D02*X43823Y240846D01*
X43323Y255346D02*Y252846D01*
X28823Y238346D01*
X43323Y255346D02*X46823D01*
X143323Y251746D02*X130808Y239231D01*
X101823Y232346D02*X117823Y248346D01*
X140323Y248746D02*X118223D01*
X117323Y247846D01*
X87223Y220746D02*X98823Y232346D01*
X101823D01*
G54D44*X69323Y224746D02*X71323D01*
G54D43*X79323Y220746D02*X87223D01*
X75323Y211846D02*X97223D01*
X73823Y205346D02*X96723D01*
G54D44*X74323Y218346D02*X76323Y216346D01*
X105513D01*
X117409Y228243D01*
G54D43*X138323Y265746D02*Y266746D01*
X130008Y258494D02*X131071D01*
X138323Y265746D01*
X129323Y268746D02*X123323Y262746D01*
Y253746D01*
G54D44*X126323Y300846D02*Y296846D01*
X128823Y294346D01*
X132823Y307346D02*X126323Y300846D01*
G54D43*X123323Y253746D02*X128323Y248746D01*
G54D44*X131323Y314846D02*X103323D01*
X143823Y305846D02*Y310846D01*
X147623Y314646D01*
X167523D01*
X176323Y305846D01*
X133823Y307346D02*X132823D01*
X103323Y287846D02*X156323D01*
X128823Y294346D02*X162823D01*
X171323Y285846D01*
G54D43*X112323Y189746D02*X145323D01*
X146323Y190746D01*
Y193746D01*
X142323Y197746D01*
X106323Y202346D02*Y202746D01*
X142323Y197746D02*Y205746D01*
X130808Y195221D02*Y239231D01*
X142323Y205746D02*X147323Y210746D01*
X178823Y208346D02*X176323Y205846D01*
X147323Y210746D02*X150323D01*
X154323Y214746D01*
X176323Y191746D02*Y228846D01*
Y191746D02*X170323Y185746D01*
X109323D01*
X102323Y192746D01*
X146323Y260746D02*Y275746D01*
X151323Y280746D01*
G54D44*X159323Y284846D02*Y265246D01*
X158823Y264746D01*
X156323Y287846D02*X159323Y284846D01*
G54D43*X140323Y248746D02*X128323D01*
X140323Y247746D02*Y259746D01*
X143323Y251746D02*Y257746D01*
X140323Y259746D02*X143323Y262746D01*
Y257746D02*X146323Y260746D01*
X142623Y270446D02*X143323Y269746D01*
Y262746D01*
X186147Y268170D02*X174823Y256846D01*
X190823Y268170D02*X186147D01*
X187500Y255000D02*Y240000D01*
X181085Y233585D01*
X106323Y202746D02*Y195746D01*
X112323Y189746D01*
X102323Y192746D02*Y199746D01*
X106323Y202746D02*X97223Y211846D01*
X96723Y205346D02*X102323Y199746D01*
G54D44*X98823Y314746D02*Y249746D01*
X103323Y314846D02*X101323Y312846D01*
Y289846D01*
X103323Y287846D01*
X98823Y249746D02*X98123Y249046D01*
X96323Y254646D02*X94423Y252746D01*
Y248946D01*
X93823Y318346D02*Y255846D01*
X96323Y315846D02*Y254646D01*
X92323Y246846D02*X94423Y248946D01*
X128823Y317746D02*X131823Y320746D01*
X128323Y324246D02*X125073Y320996D01*
X135323Y318846D02*X131323Y314846D01*
X131823Y320746D02*Y344746D01*
X128323D02*Y324246D01*
X124323Y344746D02*Y326746D01*
X121823Y324246D01*
X128823Y317746D02*X101823D01*
X125073Y320996D02*X101473D01*
X121823Y324246D02*X99723D01*
X93823Y318346D01*
X98823Y314746D02*X101823Y317746D01*
X101473Y320996D02*X96323Y315846D01*
X133323Y346246D02*X143323D01*
X131823Y348246D02*X139823D01*
X141823Y350246D01*
X138323Y351246D02*X130823D01*
X141823Y350246D02*X145623D01*
X149323Y352746D02*X139823D01*
X138323Y351246D01*
X145623Y350246D02*X147623Y348246D01*
X151323Y347246D02*Y350746D01*
X149323Y352746D01*
X148323Y335846D02*X144323D01*
X133323Y346246D02*X131823Y344746D01*
Y348246D02*X128323Y344746D01*
X130823Y351246D02*X124323Y344746D01*
G54D43*X258823Y353346D02*X191323D01*
X186323Y348346D01*
Y340846D01*
X171323Y336846D02*X182323D01*
X186323Y340846D02*X182323Y336846D01*
X263823Y348346D02*X258823Y353346D01*
X263823Y333346D02*Y348346D01*
X271323Y325846D02*X263823Y333346D01*
X283823Y325846D02*X271323D01*
X288823Y320846D02*X283823Y325846D01*
X263937Y401102D02*X231437D01*
G54D44*X277437Y406102D02*X294571Y388969D01*
X289073Y386000D02*X291573Y383500D01*
X289073Y386000D02*X236539D01*
X231437Y391102D01*
X221437D02*X216437Y396102D01*
Y403602D01*
X218937Y406102D01*
X277437D01*
X160323Y343746D02*X157823Y346246D01*
X152323D01*
X151323Y347246D01*
G54D43*X159323Y320846D02*X165323D01*
X146423Y329546D02*X164023D01*
X171323Y336846D02*X164023Y329546D01*
X155823Y324346D02*X159323Y320846D01*
X155823Y324346D02*X142823D01*
G54D44*X144323Y335846D02*X135323Y326846D01*
Y318846D01*
G54D43*X142823Y324346D02*X142323Y324846D01*
X78937Y366102D02*X86437Y373602D01*
Y421793D01*
X76437Y383602D02*Y418602D01*
X90747Y426102D02*X95747D01*
X55747D02*X68937D01*
X86437Y421793D02*X90747Y426102D01*
X68937D02*X76437Y418602D01*
X95747Y426102D02*Y410162D01*
X114051Y381858D02*X91551Y359358D01*
X95747Y410162D02*X116551Y389358D01*
X91551Y359358D02*X74051D01*
X69051Y364358D01*
Y376217D01*
X76437Y383602D01*
X175747Y446793D02*X152127D01*
X128937Y423602D01*
X123937D01*
X153937Y363602D02*X144807D01*
X126551Y381858D01*
X114051D01*
X153937Y373602D02*X144807D01*
X129051Y389358D01*
X116551D02*X129051D01*
X215323Y274846D02*Y234846D01*
X227500Y249500D02*X217646D01*
X215323Y247177D01*
X226323Y285846D02*X215323Y274846D01*
X210323Y284346D02*X224323Y298346D01*
X192323Y259846D02*X197823Y265346D01*
Y293846D02*Y265346D01*
G54D44*X194323Y305846D02*X176323D01*
G54D43*X192500Y260024D02*Y260000D01*
G54D44*X213823Y298346D02*X178823D01*
G54D43*X192500Y260000D02*X187500Y255000D01*
X210323Y284346D02*Y237823D01*
X228323Y298346D02*X224323D01*
G54D44*X237823Y293846D02*Y296846D01*
X226323Y308346D01*
X223823D01*
X213823Y298346D01*
G54D43*X237071Y251594D02*Y274094D01*
X239571Y276594D01*
X254571D01*
G54D44*X245823Y258346D02*X251323Y252846D01*
G54D43*X254571Y276594D02*X262071Y269094D01*
X284571D01*
X288823Y320846D02*Y273346D01*
X284571Y269094D02*X288823Y273346D01*
G54D44*X294571Y256594D02*Y388969D01*
X291573Y271596D02*Y383467D01*
X245823Y268346D02*X257819D01*
X261071Y265094D01*
X285071D01*
X291571Y271594D01*
G54D43*X288823Y220346D02*X284323Y215846D01*
X288823Y226346D02*Y220346D01*
Y225846D02*Y242343D01*
X282071Y249094D01*
G54D44*X290823Y252846D02*X294571Y256594D01*
G54D43*X282071Y249094D02*X239571D01*
X237071Y251594D01*
G54D44*X251323Y252846D02*X290823D01*
G54D43*X284323Y215846D02*X271323D01*
X263823Y208346D01*
X178823D01*
X215323Y234846D02*X206323Y225846D01*
X193323D02*X206323D01*
X186323Y233346D02*Y233846D01*
X174823Y239846D02*X181323Y233346D01*
X171823D02*X170823Y234346D01*
X176323Y228846D02*X170823Y234346D01*
X174823Y256846D02*Y239846D01*
X171823Y233346D02*X205846D01*
X210323Y237823D01*
G54D42*G36*
X235323Y296346D02*Y291346D01*
X240323D01*
Y296346D01*
X235323D01*
G37*
G54D45*X197823Y293846D03*
G54D42*G36*
X242823Y261346D02*Y255346D01*
X248823D01*
Y261346D01*
X242823D01*
G37*
G54D46*X245823Y268346D03*
G54D47*X265823Y278346D03*
Y238346D03*
G54D42*G36*
X270823Y320846D02*Y315846D01*
X275823D01*
Y320846D01*
X270823D01*
G37*
G54D45*X233323Y318346D03*
G54D42*G36*
X192000Y240500D02*Y234500D01*
X198000D01*
Y240500D01*
X192000D01*
G37*
G54D46*X195000Y247500D03*
G54D42*G36*
X137573Y216496D02*Y210996D01*
X143073D01*
Y216496D01*
X137573D01*
G37*
G54D46*X54023Y274146D03*
Y283946D03*
X61823D03*
Y274146D03*
G54D48*X43323Y255346D03*
Y302746D03*
G54D49*X120323Y213746D03*
G54D42*G36*
X66323Y237746D02*Y231746D01*
X72323D01*
Y237746D01*
X66323D01*
G37*
G36*
X78500Y273000D02*Y267000D01*
X84500D01*
Y273000D01*
X78500D01*
G37*
G54D46*X81500Y260000D03*
X69323Y224746D03*
X59323D03*
X49323D03*
X59323Y234746D03*
X49323D03*
G54D50*X49737Y408602D03*
Y358402D03*
G54D42*G36*
X40937Y449102D02*Y443102D01*
X46937D01*
Y449102D01*
X40937D01*
G37*
G54D46*X33937Y446102D03*
Y436102D03*
X43937D03*
G54D42*G36*
X218437Y404102D02*Y398102D01*
X224437D01*
Y404102D01*
X218437D01*
G37*
G54D46*X231437Y401102D03*
X273937D03*
X263937D03*
X221437Y391102D03*
X231437D03*
G54D42*G36*
X270937Y394102D02*Y388102D01*
X276937D01*
Y394102D01*
X270937D01*
G37*
G54D46*X263937Y391102D03*
G54D42*G36*
X150937Y366602D02*Y360602D01*
X156937D01*
Y366602D01*
X150937D01*
G37*
G54D46*X153937Y373602D03*
X123937D03*
Y363602D03*
X153937Y423602D03*
Y433602D03*
X123937D03*
Y423602D03*
X140323Y248746D03*
X154323Y214746D03*
X193323Y225846D03*
X170823Y234346D03*
X130008Y258494D03*
X138323Y265746D03*
G54D51*X148823Y275846D03*
X158823Y264746D03*
X136323Y275846D03*
G54D46*X190823Y268170D03*
X130808Y195221D03*
G54D52*X19685Y196850D03*
X283465D03*
G54D46*X227500Y249500D03*
G54D51*X117409Y228243D03*
X77323Y252746D03*
X80823Y249746D03*
X84823Y246846D03*
X98123Y249046D03*
G54D46*X109323Y279346D03*
X79323Y220746D03*
X78937Y366102D03*
X76437Y383602D03*
G54D52*X19685Y322835D03*
G54D46*X95747Y426102D03*
X55747D03*
G54D51*X147623Y348246D03*
G54D46*X146423Y329546D03*
G54D51*X148323Y335846D03*
X142323Y324846D03*
X143323Y346246D03*
G54D52*X275591Y366142D03*
G54D51*X160323Y343746D03*
G54D46*X165323Y320846D03*
X171323Y336846D03*
G54D51*Y285846D03*
X194323Y305846D03*
G54D46*X228323Y298346D03*
X226323Y285846D03*
G54D51*X143823Y307346D03*
X178823Y298346D03*
X133823Y307346D03*
G54D46*X138823Y298846D03*
X148823D03*
X175747Y446793D03*
G54D52*X133858Y480315D03*
G54D53*G54D54*G54D53*G54D55*G54D53*G54D54*G54D53*G54D55*G54D53*G54D54*G54D53*G54D54*G54D55*G54D54*G54D53*G54D54*G54D53*G54D54*G54D53*G54D55*G54D54*G54D53*G54D56*G54D54*G54D57*G54D58*G54D59*G54D60*G54D58*G54D57*G54D61*G54D57*G54D59*M02*
