G04 start of page 8 for group -4079 idx -4079 *
G04 Title: (unknown), topsilk *
G04 Creator: pcb 1.99z *
G04 CreationDate: Tue 15 Oct 2013 04:03:47 AM GMT UTC *
G04 For: commonadmin *
G04 Format: Gerber/RS-274X *
G04 PCB-Dimensions: 600000 500000 *
G04 PCB-Coordinate-Origin: lower left *
%MOIN*%
%FSLAX25Y25*%
%LNTOPSILK*%
%ADD102C,0.0040*%
%ADD101C,0.0200*%
%ADD100C,0.0080*%
%ADD99C,0.0100*%
G54D99*X112386Y321744D02*Y306744D01*
X137386Y310744D02*Y307744D01*
X136386Y319244D02*X138386D01*
X137386Y320244D02*Y318244D01*
X362386Y281744D02*X347386D01*
X359886Y256744D02*Y251744D01*
X357386Y254244D02*X362386D01*
X347386D02*X352386D01*
X307386Y257244D02*Y252244D01*
X304886Y254744D01*
X307386Y252244D02*X309886Y254744D01*
X317386Y257244D02*Y252244D01*
X113886Y121744D02*X148386D01*
X113886Y169144D02*Y121744D01*
Y169144D02*X148386D01*
X160386Y121744D02*X177886D01*
Y169144D02*Y121744D01*
X160386Y169144D02*X177886D01*
X154386Y115744D02*G75*G03X154386Y115744I0J6000D01*G01*
Y163144D02*G75*G03X154386Y163144I0J6000D01*G01*
X155386Y106144D02*X185386D01*
X155386D02*Y86144D01*
X185386D01*
Y106144D02*Y86144D01*
X175386Y106144D02*Y96144D01*
X185386D01*
G54D100*X121929Y119884D02*X126653D01*
X121929Y112404D02*X126653D01*
X193929Y105184D02*X198653D01*
X193929Y97704D02*X198653D01*
X193929Y96184D02*X198653D01*
X193929Y88704D02*X198653D01*
X200126Y131411D02*Y126687D01*
X192646Y131411D02*Y126687D01*
X185536Y144899D02*X186322D01*
X185536Y139389D02*X186322D01*
X185536Y152899D02*X186322D01*
X185536Y147389D02*X186322D01*
G54D99*X246386Y80144D02*X251386D01*
X231386D02*X236386D01*
Y78544D02*X246386D01*
X236386Y81744D02*Y78544D01*
Y81744D02*X246386D01*
Y78544D01*
G54D100*X272929Y84884D02*X277653D01*
X272929Y77404D02*X277653D01*
X243631Y69080D02*Y68294D01*
X249141Y69080D02*Y68294D01*
X234631Y69080D02*Y68294D01*
X240141Y69080D02*Y68294D01*
X240929Y85404D02*X245653D01*
X240929Y92884D02*X245653D01*
X285929Y95984D02*X290653D01*
X285929Y88504D02*X290653D01*
X222131Y166180D02*Y165394D01*
X227641Y166180D02*Y165394D01*
X211146Y173701D02*Y168977D01*
X218626Y173701D02*Y168977D01*
X211146Y156201D02*Y151477D01*
X218626Y156201D02*Y151477D01*
X215934Y94109D02*X220658D01*
X215934Y86629D02*X220658D01*
X224686Y144177D02*X260356D01*
Y105607D01*
X221786D02*X260356D01*
X221786Y141277D02*Y105607D01*
Y141277D02*X224686Y144177D01*
X223686Y141277D02*G75*G03X223686Y141277I1000J0D01*G01*
G54D99*X278986Y115044D02*X292886D01*
X278986D02*Y102244D01*
X292886D01*
Y115044D02*Y102244D01*
G54D100*X270626Y155201D02*Y150477D01*
X263146Y155201D02*Y150477D01*
X261146Y173701D02*Y168977D01*
X268626Y173701D02*Y168977D01*
X286126Y195511D02*Y190787D01*
X278646Y195511D02*Y190787D01*
G54D99*X246186Y193744D02*Y182744D01*
Y209744D02*Y198744D01*
Y209744D02*X268586D01*
Y182744D01*
X246186D02*X268586D01*
X246186Y193744D02*G75*G03X246186Y198744I0J2500D01*G01*
G54D100*X251146Y173701D02*Y168977D01*
X258626Y173701D02*Y168977D01*
X241146Y173701D02*Y168977D01*
X248626Y173701D02*Y168977D01*
X281619Y211004D02*X286343D01*
X281619Y218484D02*X286343D01*
X302104Y120378D02*X306828D01*
X302104Y127858D02*X306828D01*
X304130Y112385D02*Y107661D01*
X311610Y112385D02*Y107661D01*
X302626Y112511D02*Y107787D01*
X295146Y112511D02*Y107787D01*
X304146Y143011D02*Y138287D01*
X311626Y143011D02*Y138287D01*
X294131Y138404D02*Y137618D01*
X299641Y138404D02*Y137618D01*
X294131Y152490D02*Y151704D01*
X299641Y152490D02*Y151704D01*
X312619Y168504D02*X317343D01*
X312619Y175984D02*X317343D01*
G54D99*X335586Y160244D02*X348886D01*
X308886D02*X322186D01*
X335586D02*X322186Y153644D01*
Y166844D02*Y153644D01*
Y166844D02*X335586Y160244D01*
Y166844D02*Y153644D01*
G54D100*X342929Y173484D02*X347653D01*
X342929Y166004D02*X347653D01*
G54D99*X371086Y184744D02*X384386D01*
X344386D02*X357686D01*
X371086D02*X357686Y178144D01*
Y191344D02*Y178144D01*
Y191344D02*X371086Y184744D01*
Y191344D02*Y178144D01*
G54D100*X362118Y173484D02*X366842D01*
X362118Y166004D02*X366842D01*
X380450Y172499D02*X381236D01*
X380450Y166989D02*X381236D01*
X336429Y130984D02*X341153D01*
X336429Y123504D02*X341153D01*
G54D99*X313636Y151744D02*Y132744D01*
X344636D01*
Y151744D01*
X313636D02*X326636D01*
X344636D02*X331636D01*
X326636D02*G75*G03X331636Y151744I2500J0D01*G01*
X314136Y121744D02*Y102744D01*
X345136D01*
Y121744D01*
X314136D02*X327136D01*
X345136D02*X332136D01*
X327136D02*G75*G03X332136Y121744I2500J0D01*G01*
X350886Y153744D02*X405886D01*
Y95744D01*
X350886D01*
Y153744D01*
X124986Y291644D02*X154986D01*
X124986Y221644D02*X154986D01*
X124086Y291644D02*Y221644D01*
X148086Y291644D02*Y289644D01*
Y223644D02*Y221644D01*
X154986Y291644D02*Y221644D01*
X102786D02*X125086D01*
X102786Y291644D02*X125086D01*
X102786D02*Y221644D01*
G54D100*X145929Y320504D02*X150653D01*
X145929Y327984D02*X150653D01*
X145929Y315484D02*X150653D01*
X145929Y308004D02*X150653D01*
G54D99*X114886Y324244D02*X134886D01*
X114886D02*Y304244D01*
X134886D01*
Y324244D02*Y304244D01*
X124886Y324244D02*Y314244D01*
X134886D01*
G54D101*X115686Y353444D02*Y335044D01*
G54D99*X122886Y332444D01*
X158086D01*
Y356044D02*Y332444D01*
X122886Y356044D02*X158086D01*
X122886D02*X115686Y353444D01*
G54D100*X172739Y320504D02*X177463D01*
X172739Y327984D02*X177463D01*
G54D101*X163186Y353444D02*Y335044D01*
G54D99*X170386Y332444D01*
X205586D01*
Y356044D02*Y332444D01*
X170386Y356044D02*X205586D01*
X170386D02*X163186Y353444D01*
G54D100*X172739Y315484D02*X177463D01*
X172739Y308004D02*X177463D01*
X185929Y243674D02*X190653D01*
X185929Y236194D02*X190653D01*
X186126Y258201D02*Y253477D01*
X178646Y258201D02*Y253477D01*
X198626Y258201D02*Y253477D01*
X191146Y258201D02*Y253477D01*
G54D99*X244886Y311744D02*Y231744D01*
X204886Y311744D02*X244886D01*
X204886D02*Y231744D01*
X229886D02*X244886D01*
X204886D02*X219886D01*
X229886D02*G75*G03X219886Y231744I-5000J0D01*G01*
G54D100*X235929Y350504D02*X240653D01*
X235929Y357984D02*X240653D01*
X235929Y338004D02*X240653D01*
X235929Y345484D02*X240653D01*
X240260Y327179D02*X241046D01*
X240260Y332689D02*X241046D01*
X255929Y300484D02*X260653D01*
X255929Y293004D02*X260653D01*
X259119Y338004D02*X263843D01*
X259119Y345484D02*X263843D01*
X257346Y327179D02*X258132D01*
X257346Y332689D02*X258132D01*
G54D101*X320286Y320944D02*Y297544D01*
G54D99*Y320944D02*X314186Y324244D01*
X277486D02*X314186D01*
X277486D02*Y294244D01*
X314186D01*
X320286Y297544D01*
G54D101*Y355944D02*Y332544D01*
G54D99*Y355944D02*X314186Y359244D01*
X277486D02*X314186D01*
X277486D02*Y329244D01*
X314186D01*
X320286Y332544D01*
G54D101*X324786Y350944D02*Y332544D01*
G54D99*X331986Y329944D01*
X367186D01*
Y353544D01*
X331986D01*
X324786Y350944D01*
G54D101*Y320944D02*Y302544D01*
G54D99*X331986Y299944D01*
X367186D01*
Y323544D01*
X331986D01*
X324786Y320944D01*
X302386Y279244D02*Y259244D01*
X322386D01*
Y279244D02*Y259244D01*
X302386Y279244D02*X322386D01*
X302386Y269244D02*X312386D01*
Y279244D02*Y269244D01*
G54D101*X294086Y283444D02*Y265044D01*
G54D99*Y283444D02*X286886Y286044D01*
X251686D02*X286886D01*
X251686D02*Y262444D01*
X286886D01*
X294086Y265044D01*
X364886Y279244D02*Y259244D01*
X344886Y279244D02*X364886D01*
X344886D02*Y259244D01*
X364886D01*
X354886Y269244D02*X364886D01*
X354886D02*Y259244D01*
G54D100*X259119Y350504D02*X263843D01*
X259119Y357984D02*X263843D01*
G54D102*X251386Y83044D02*Y79544D01*
Y83044D02*X250886Y83544D01*
X249886D02*X250886D01*
X249886D02*X249386Y83044D01*
Y79544D01*
X248186Y80044D02*X247686Y79544D01*
X246186D02*X247686D01*
X246186D02*X245686Y80044D01*
Y81044D02*Y80044D01*
X248186Y83544D02*X245686Y81044D01*
Y83544D02*X248186D01*
X244486Y83044D02*X243986Y83544D01*
X244486Y83044D02*Y80044D01*
X243986Y79544D01*
X242986D02*X243986D01*
X242986D02*X242486Y80044D01*
Y83044D02*Y80044D01*
X242986Y83544D02*X242486Y83044D01*
X242986Y83544D02*X243986D01*
X244486Y82544D02*X242486Y80544D01*
X241286Y80044D02*X240786Y79544D01*
X239286D02*X240786D01*
X239286D02*X238786Y80044D01*
Y81044D02*Y80044D01*
X241286Y83544D02*X238786Y81044D01*
Y83544D02*X241286D01*
X272841Y79294D02*X274141D01*
X272141Y79994D02*X272841Y79294D01*
X272141Y82594D02*Y79994D01*
Y82594D02*X272841Y83294D01*
X274141D01*
X275341Y82794D02*X275841Y83294D01*
X277341D01*
X277841Y82794D01*
Y81794D01*
X275341Y79294D02*X277841Y81794D01*
X275341Y79294D02*X277841D01*
X279041Y79794D02*X279541Y79294D01*
X279041Y82794D02*Y79794D01*
Y82794D02*X279541Y83294D01*
X280541D01*
X281041Y82794D01*
Y79794D01*
X280541Y79294D02*X281041Y79794D01*
X279541Y79294D02*X280541D01*
X279041Y80294D02*X281041Y82294D01*
X282241Y80794D02*X284241Y83294D01*
X282241Y80794D02*X284741D01*
X284241Y83294D02*Y79294D01*
X248236Y67537D02*Y66237D01*
X247536Y65537D02*X248236Y66237D01*
X244936Y65537D02*X247536D01*
X244936D02*X244236Y66237D01*
Y67537D02*Y66237D01*
X244736Y68737D02*X244236Y69237D01*
Y70737D02*Y69237D01*
Y70737D02*X244736Y71237D01*
X245736D01*
X248236Y68737D02*X245736Y71237D01*
X248236D02*Y68737D01*
X247736Y72437D02*X248236Y72937D01*
X244736Y72437D02*X247736D01*
X244736D02*X244236Y72937D01*
Y73937D02*Y72937D01*
Y73937D02*X244736Y74437D01*
X247736D01*
X248236Y73937D02*X247736Y74437D01*
X248236Y73937D02*Y72937D01*
X247236Y72437D02*X245236Y74437D01*
X244236Y77637D02*Y75637D01*
X246236D01*
X245736Y76137D01*
Y77137D02*Y76137D01*
Y77137D02*X246236Y77637D01*
X247736D01*
X248236Y77137D02*X247736Y77637D01*
X248236Y77137D02*Y76137D01*
X247736Y75637D02*X248236Y76137D01*
X239236Y67537D02*Y66237D01*
X238536Y65537D02*X239236Y66237D01*
X235936Y65537D02*X238536D01*
X235936D02*X235236Y66237D01*
Y67537D02*Y66237D01*
X235736Y68737D02*X235236Y69237D01*
Y70737D02*Y69237D01*
Y70737D02*X235736Y71237D01*
X236736D01*
X239236Y68737D02*X236736Y71237D01*
X239236D02*Y68737D01*
X238736Y72437D02*X239236Y72937D01*
X235736Y72437D02*X238736D01*
X235736D02*X235236Y72937D01*
Y73937D02*Y72937D01*
Y73937D02*X235736Y74437D01*
X238736D01*
X239236Y73937D02*X238736Y74437D01*
X239236Y73937D02*Y72937D01*
X238236Y72437D02*X236236Y74437D01*
X235236Y77137D02*X235736Y77637D01*
X235236Y77137D02*Y76137D01*
X235736Y75637D02*X235236Y76137D01*
X235736Y75637D02*X238736D01*
X239236Y76137D01*
X237036Y77137D02*X237536Y77637D01*
X237036Y77137D02*Y75637D01*
X239236Y77137D02*Y76137D01*
Y77137D02*X238736Y77637D01*
X237536D02*X238736D01*
X215146Y92519D02*X217146D01*
X217646Y92019D01*
Y91019D01*
X217146Y90519D02*X217646Y91019D01*
X215646Y90519D02*X217146D01*
X215646Y92519D02*Y88519D01*
X216446Y90519D02*X217646Y88519D01*
X218846Y92019D02*X219346Y92519D01*
X220846D01*
X221346Y92019D01*
Y91019D01*
X218846Y88519D02*X221346Y91019D01*
X218846Y88519D02*X221346D01*
X222546Y89019D02*X223046Y88519D01*
X222546Y92019D02*Y89019D01*
Y92019D02*X223046Y92519D01*
X224046D01*
X224546Y92019D01*
Y89019D01*
X224046Y88519D02*X224546Y89019D01*
X223046Y88519D02*X224046D01*
X222546Y89519D02*X224546Y91519D01*
X227246Y92519D02*X227746Y92019D01*
X226246Y92519D02*X227246D01*
X225746Y92019D02*X226246Y92519D01*
X225746Y92019D02*Y89019D01*
X226246Y88519D01*
X227246Y90719D02*X227746Y90219D01*
X225746Y90719D02*X227246D01*
X226246Y88519D02*X227246D01*
X227746Y89019D01*
Y90219D02*Y89019D01*
X244441Y86994D02*X246441D01*
X244441D02*X243941Y87494D01*
Y88494D02*Y87494D01*
X244441Y88994D02*X243941Y88494D01*
X244441Y88994D02*X245941D01*
Y90994D02*Y86994D01*
X245141Y88994D02*X243941Y90994D01*
X242741Y87494D02*X242241Y86994D01*
X240741D02*X242241D01*
X240741D02*X240241Y87494D01*
Y88494D02*Y87494D01*
X242741Y90994D02*X240241Y88494D01*
Y90994D02*X242741D01*
X239041Y90494D02*X238541Y90994D01*
X239041Y90494D02*Y87494D01*
X238541Y86994D01*
X237541D02*X238541D01*
X237541D02*X237041Y87494D01*
Y90494D02*Y87494D01*
X237541Y90994D02*X237041Y90494D01*
X237541Y90994D02*X238541D01*
X239041Y89994D02*X237041Y87994D01*
X233841Y86994D02*X235841D01*
Y88994D02*Y86994D01*
Y88994D02*X235341Y88494D01*
X234341D02*X235341D01*
X234341D02*X233841Y88994D01*
Y90494D02*Y88994D01*
X234341Y90994D02*X233841Y90494D01*
X234341Y90994D02*X235341D01*
X235841Y90494D02*X235341Y90994D01*
X285841Y90394D02*X287141D01*
X285141Y91094D02*X285841Y90394D01*
X285141Y93694D02*Y91094D01*
Y93694D02*X285841Y94394D01*
X287141D01*
X288341Y93894D02*X288841Y94394D01*
X290341D01*
X290841Y93894D01*
Y92894D01*
X288341Y90394D02*X290841Y92894D01*
X288341Y90394D02*X290841D01*
X292041Y93594D02*X292841Y94394D01*
Y90394D01*
X292041D02*X293541D01*
X294741Y90894D02*X295241Y90394D01*
X294741Y93894D02*Y90894D01*
Y93894D02*X295241Y94394D01*
X296241D01*
X296741Y93894D01*
Y90894D01*
X296241Y90394D02*X296741Y90894D01*
X295241Y90394D02*X296241D01*
X294741Y91394D02*X296741Y93394D01*
X290386Y101244D02*X292886D01*
Y105244D02*X290386Y101244D01*
Y105244D02*X292886D01*
X289186Y101744D02*X288686Y101244D01*
X287186D02*X288686D01*
X287186D02*X286686Y101744D01*
Y102744D02*Y101744D01*
X289186Y105244D02*X286686Y102744D01*
Y105244D02*X289186D01*
X285486Y104744D02*X284986Y105244D01*
X285486Y104744D02*Y101744D01*
X284986Y101244D01*
X283986D02*X284986D01*
X283986D02*X283486Y101744D01*
Y104744D02*Y101744D01*
X283986Y105244D02*X283486Y104744D01*
X283986Y105244D02*X284986D01*
X285486Y104244D02*X283486Y102244D01*
X282286Y101744D02*X281786Y101244D01*
X280786D02*X281786D01*
X280786D02*X280286Y101744D01*
X280786Y105244D02*X280286Y104744D01*
X280786Y105244D02*X281786D01*
X282286Y104744D02*X281786Y105244D01*
X280786Y103044D02*X281786D01*
X280286Y102544D02*Y101744D01*
Y104744D02*Y103544D01*
X280786Y103044D01*
X280286Y102544D02*X280786Y103044D01*
X174977Y176494D02*Y172994D01*
Y176494D02*X174477Y176994D01*
X173477D02*X174477D01*
X173477D02*X172977Y176494D01*
Y172994D01*
X171777Y173494D02*X171277Y172994D01*
X169777D02*X171277D01*
X169777D02*X169277Y173494D01*
Y174494D02*Y173494D01*
X171777Y176994D02*X169277Y174494D01*
Y176994D02*X171777D01*
X168077Y176494D02*X167577Y176994D01*
X168077Y176494D02*Y173494D01*
X167577Y172994D01*
X166577D02*X167577D01*
X166577D02*X166077Y173494D01*
Y176494D02*Y173494D01*
X166577Y176994D02*X166077Y176494D01*
X166577Y176994D02*X167577D01*
X168077Y175994D02*X166077Y173994D01*
X164877Y175494D02*X162877Y172994D01*
X162377Y175494D02*X164877D01*
X162877Y176994D02*Y172994D01*
X168677Y185294D02*Y181794D01*
X169177Y181294D01*
X170177D01*
X170677Y181794D01*
Y185294D02*Y181794D01*
X171877Y184794D02*X172377Y185294D01*
X173877D01*
X174377Y184794D01*
Y183794D01*
X171877Y181294D02*X174377Y183794D01*
X171877Y181294D02*X174377D01*
X175577Y181794D02*X176077Y181294D01*
X175577Y184794D02*Y181794D01*
Y184794D02*X176077Y185294D01*
X177077D01*
X177577Y184794D01*
Y181794D01*
X177077Y181294D02*X177577Y181794D01*
X176077Y181294D02*X177077D01*
X175577Y182294D02*X177577Y184294D01*
X178777Y184794D02*X179277Y185294D01*
X180277D01*
X180777Y184794D01*
X180277Y181294D02*X180777Y181794D01*
X179277Y181294D02*X180277D01*
X178777Y181794D02*X179277Y181294D01*
Y183494D02*X180277D01*
X180777Y184794D02*Y183994D01*
Y182994D02*Y181794D01*
Y182994D02*X180277Y183494D01*
X180777Y183994D02*X180277Y183494D01*
G54D100*X113886Y125744D02*Y123144D01*
X112486Y121744D02*X113886Y123144D01*
X107286Y121744D02*X112486D01*
X107286D02*X105886Y123144D01*
Y125744D02*Y123144D01*
X106886Y128144D02*X112886D01*
X106886D02*X105886Y129144D01*
Y131144D02*Y129144D01*
Y131144D02*X106886Y132144D01*
X112886D01*
X113886Y131144D02*X112886Y132144D01*
X113886Y131144D02*Y129144D01*
X112886Y128144D02*X113886Y129144D01*
X105886Y134544D02*X113886D01*
X105886D02*X113886Y139544D01*
X105886D02*X113886D01*
X105886Y141944D02*X113886D01*
X105886D02*X113886Y146944D01*
X105886D02*X113886D01*
X106886Y149344D02*X105886Y150344D01*
Y153344D02*Y150344D01*
Y153344D02*X106886Y154344D01*
X108886D01*
X113886Y149344D02*X108886Y154344D01*
X113886D02*Y149344D01*
X112886Y156744D02*X113886Y157744D01*
X106886Y156744D02*X112886D01*
X106886D02*X105886Y157744D01*
Y159744D02*Y157744D01*
Y159744D02*X106886Y160744D01*
X112886D01*
X113886Y159744D02*X112886Y160744D01*
X113886Y159744D02*Y157744D01*
X111886Y156744D02*X107886Y160744D01*
X107486Y163144D02*X105886Y164744D01*
X113886D01*
Y166144D02*Y163144D01*
G54D102*X183386Y111144D02*X184686D01*
X185386Y110444D02*X184686Y111144D01*
X185386Y110444D02*Y107844D01*
X184686Y107144D01*
X183386D02*X184686D01*
X182186Y110644D02*Y107644D01*
X181686Y107144D01*
X180686D02*X181686D01*
X180686D02*X180186Y107644D01*
Y110644D02*Y107644D01*
X180686Y111144D02*X180186Y110644D01*
X180686Y111144D02*X181686D01*
X182186Y110644D02*X181686Y111144D01*
X178986D02*Y107144D01*
X176486Y111144D01*
Y107144D01*
X175286Y111144D02*Y107144D01*
X172786Y111144D01*
Y107144D01*
X171586Y107644D02*X171086Y107144D01*
X169586D02*X171086D01*
X169586D02*X169086Y107644D01*
Y108644D02*Y107644D01*
X171586Y111144D02*X169086Y108644D01*
Y111144D02*X171586D01*
X167886Y110644D02*X167386Y111144D01*
X167886Y110644D02*Y107644D01*
X167386Y107144D01*
X166386D02*X167386D01*
X166386D02*X165886Y107644D01*
Y110644D02*Y107644D01*
X166386Y111144D02*X165886Y110644D01*
X166386Y111144D02*X167386D01*
X167886Y110144D02*X165886Y108144D01*
X164686Y107644D02*X164186Y107144D01*
X162686D02*X164186D01*
X162686D02*X162186Y107644D01*
Y108644D02*Y107644D01*
X164686Y111144D02*X162186Y108644D01*
Y111144D02*X164686D01*
X121141Y118294D02*X123141D01*
X123641Y117794D01*
Y116794D01*
X123141Y116294D02*X123641Y116794D01*
X121641Y116294D02*X123141D01*
X121641Y118294D02*Y114294D01*
X122441Y116294D02*X123641Y114294D01*
X124841Y117794D02*X125341Y118294D01*
X126841D01*
X127341Y117794D01*
Y116794D01*
X124841Y114294D02*X127341Y116794D01*
X124841Y114294D02*X127341D01*
X128541Y114794D02*X129041Y114294D01*
X128541Y117794D02*Y114794D01*
Y117794D02*X129041Y118294D01*
X130041D01*
X130541Y117794D01*
Y114794D01*
X130041Y114294D02*X130541Y114794D01*
X129041Y114294D02*X130041D01*
X128541Y115294D02*X130541Y117294D01*
X131741Y117794D02*X132241Y118294D01*
X133241D01*
X133741Y117794D01*
X133241Y114294D02*X133741Y114794D01*
X132241Y114294D02*X133241D01*
X131741Y114794D02*X132241Y114294D01*
Y116494D02*X133241D01*
X133741Y117794D02*Y116994D01*
Y115994D02*Y114794D01*
Y115994D02*X133241Y116494D01*
X133741Y116994D02*X133241Y116494D01*
X193841Y99594D02*X195141D01*
X193141Y100294D02*X193841Y99594D01*
X193141Y102894D02*Y100294D01*
Y102894D02*X193841Y103594D01*
X195141D01*
X196341Y103094D02*X196841Y103594D01*
X198341D01*
X198841Y103094D01*
Y102094D01*
X196341Y99594D02*X198841Y102094D01*
X196341Y99594D02*X198841D01*
X200041Y100094D02*X200541Y99594D01*
X200041Y103094D02*Y100094D01*
Y103094D02*X200541Y103594D01*
X201541D01*
X202041Y103094D01*
Y100094D01*
X201541Y99594D02*X202041Y100094D01*
X200541Y99594D02*X201541D01*
X200041Y100594D02*X202041Y102594D01*
X203241Y102794D02*X204041Y103594D01*
Y99594D01*
X203241D02*X204741D01*
X193841Y90594D02*X195141D01*
X193141Y91294D02*X193841Y90594D01*
X193141Y93894D02*Y91294D01*
Y93894D02*X193841Y94594D01*
X195141D01*
X196341Y94094D02*X196841Y94594D01*
X198341D01*
X198841Y94094D01*
Y93094D01*
X196341Y90594D02*X198841Y93094D01*
X196341Y90594D02*X198841D01*
X200041Y91094D02*X200541Y90594D01*
X200041Y94094D02*Y91094D01*
Y94094D02*X200541Y94594D01*
X201541D01*
X202041Y94094D01*
Y91094D01*
X201541Y90594D02*X202041Y91094D01*
X200541Y90594D02*X201541D01*
X200041Y91594D02*X202041Y93594D01*
X203241Y94094D02*X203741Y94594D01*
X205241D01*
X205741Y94094D01*
Y93094D01*
X203241Y90594D02*X205741Y93094D01*
X203241Y90594D02*X205741D01*
X194536Y131499D02*Y130199D01*
X195236Y132199D02*X194536Y131499D01*
X195236Y132199D02*X197836D01*
X198536Y131499D01*
Y130199D01*
X198036Y128999D02*X198536Y128499D01*
Y126999D01*
X198036Y126499D01*
X197036D02*X198036D01*
X194536Y128999D02*X197036Y126499D01*
X194536Y128999D02*Y126499D01*
X195036Y125299D02*X194536Y124799D01*
X195036Y125299D02*X198036D01*
X198536Y124799D01*
Y123799D01*
X198036Y123299D01*
X195036D02*X198036D01*
X194536Y123799D02*X195036Y123299D01*
X194536Y124799D02*Y123799D01*
X195536Y125299D02*X197536Y123299D01*
X194536Y121599D02*X198536Y119599D01*
Y122099D02*Y119599D01*
X182779Y144294D02*X184779D01*
X185279Y143794D01*
Y142794D01*
X184779Y142294D02*X185279Y142794D01*
X183279Y142294D02*X184779D01*
X183279Y144294D02*Y140294D01*
X184079Y142294D02*X185279Y140294D01*
X186479Y143794D02*X186979Y144294D01*
X188479D01*
X188979Y143794D01*
Y142794D01*
X186479Y140294D02*X188979Y142794D01*
X186479Y140294D02*X188979D01*
X190179Y140794D02*X190679Y140294D01*
X190179Y143794D02*Y140794D01*
Y143794D02*X190679Y144294D01*
X191679D01*
X192179Y143794D01*
Y140794D01*
X191679Y140294D02*X192179Y140794D01*
X190679Y140294D02*X191679D01*
X190179Y141294D02*X192179Y143294D01*
X193379Y143494D02*X194179Y144294D01*
Y140294D01*
X193379D02*X194879D01*
X182779Y152294D02*X184779D01*
X185279Y151794D01*
Y150794D01*
X184779Y150294D02*X185279Y150794D01*
X183279Y150294D02*X184779D01*
X183279Y152294D02*Y148294D01*
X184079Y150294D02*X185279Y148294D01*
X186479Y151794D02*X186979Y152294D01*
X188479D01*
X188979Y151794D01*
Y150794D01*
X186479Y148294D02*X188979Y150794D01*
X186479Y148294D02*X188979D01*
X190179Y148794D02*X190679Y148294D01*
X190179Y151794D02*Y148794D01*
Y151794D02*X190679Y152294D01*
X191679D01*
X192179Y151794D01*
Y148794D01*
X191679Y148294D02*X192179Y148794D01*
X190679Y148294D02*X191679D01*
X190179Y149294D02*X192179Y151294D01*
X193379Y151794D02*X193879Y152294D01*
X195379D01*
X195879Y151794D01*
Y150794D01*
X193379Y148294D02*X195879Y150794D01*
X193379Y148294D02*X195879D01*
X222736Y164637D02*Y162637D01*
Y164637D02*X223236Y165137D01*
X224236D01*
X224736Y164637D02*X224236Y165137D01*
X224736Y164637D02*Y163137D01*
X222736D02*X226736D01*
X224736Y163937D02*X226736Y165137D01*
X223236Y166337D02*X222736Y166837D01*
Y168337D02*Y166837D01*
Y168337D02*X223236Y168837D01*
X224236D01*
X226736Y166337D02*X224236Y168837D01*
X226736D02*Y166337D01*
X226236Y170037D02*X226736Y170537D01*
X223236Y170037D02*X226236D01*
X223236D02*X222736Y170537D01*
Y171537D02*Y170537D01*
Y171537D02*X223236Y172037D01*
X226236D01*
X226736Y171537D02*X226236Y172037D01*
X226736Y171537D02*Y170537D01*
X225736Y170037D02*X223736Y172037D01*
X226736Y173737D02*X224736Y175237D01*
X223236D02*X224736D01*
X222736Y174737D02*X223236Y175237D01*
X222736Y174737D02*Y173737D01*
X223236Y173237D02*X222736Y173737D01*
X223236Y173237D02*X224236D01*
X224736Y173737D01*
Y175237D02*Y173737D01*
X223886Y241744D02*X227386D01*
X227886Y242244D01*
Y243244D02*Y242244D01*
Y243244D02*X227386Y243744D01*
X223886D02*X227386D01*
X224686Y244944D02*X223886Y245744D01*
X227886D01*
Y246444D02*Y244944D01*
X227386Y247644D02*X227886Y248144D01*
X224386Y247644D02*X227386D01*
X224386D02*X223886Y248144D01*
Y249144D02*Y248144D01*
Y249144D02*X224386Y249644D01*
X227386D01*
X227886Y249144D02*X227386Y249644D01*
X227886Y249144D02*Y248144D01*
X226886Y247644D02*X224886Y249644D01*
X224686Y250844D02*X223886Y251644D01*
X227886D01*
Y252344D02*Y250844D01*
X239441Y356094D02*X240741D01*
X241441Y355394D02*X240741Y356094D01*
X241441Y355394D02*Y352794D01*
X240741Y352094D01*
X239441D02*X240741D01*
X238241Y352894D02*X237441Y352094D01*
Y356094D02*Y352094D01*
X236741Y356094D02*X238241D01*
X235541Y355594D02*X235041Y356094D01*
X235541Y355594D02*Y352594D01*
X235041Y352094D01*
X234041D02*X235041D01*
X234041D02*X233541Y352594D01*
Y355594D02*Y352594D01*
X234041Y356094D02*X233541Y355594D01*
X234041Y356094D02*X235041D01*
X235541Y355094D02*X233541Y353094D01*
X232341Y354594D02*X230341Y352094D01*
X229841Y354594D02*X232341D01*
X230341Y356094D02*Y352094D01*
X239441Y343594D02*X240741D01*
X241441Y342894D02*X240741Y343594D01*
X241441Y342894D02*Y340294D01*
X240741Y339594D01*
X239441D02*X240741D01*
X238241Y340394D02*X237441Y339594D01*
Y343594D02*Y339594D01*
X236741Y343594D02*X238241D01*
X235541Y343094D02*X235041Y343594D01*
X235541Y343094D02*Y340094D01*
X235041Y339594D01*
X234041D02*X235041D01*
X234041D02*X233541Y340094D01*
Y343094D02*Y340094D01*
X234041Y343594D02*X233541Y343094D01*
X234041Y343594D02*X235041D01*
X235541Y342594D02*X233541Y340594D01*
X230841Y339594D02*X230341Y340094D01*
X230841Y339594D02*X231841D01*
X232341Y340094D02*X231841Y339594D01*
X232341Y343094D02*Y340094D01*
Y343094D02*X231841Y343594D01*
X230841Y341394D02*X230341Y341894D01*
X230841Y341394D02*X232341D01*
X230841Y343594D02*X231841D01*
X230841D02*X230341Y343094D01*
Y341894D01*
X241803Y331784D02*X243103D01*
X243803Y331084D02*X243103Y331784D01*
X243803Y331084D02*Y328484D01*
X243103Y327784D01*
X241803D02*X243103D01*
X240603Y328584D02*X239803Y327784D01*
Y331784D02*Y327784D01*
X239103Y331784D02*X240603D01*
X237903Y331284D02*X237403Y331784D01*
X237903Y331284D02*Y328284D01*
X237403Y327784D01*
X236403D02*X237403D01*
X236403D02*X235903Y328284D01*
Y331284D02*Y328284D01*
X236403Y331784D02*X235903Y331284D01*
X236403Y331784D02*X237403D01*
X237903Y330784D02*X235903Y328784D01*
X234703Y331284D02*X234203Y331784D01*
X234703Y331284D02*Y330484D01*
X234003Y329784D01*
X233403D02*X234003D01*
X233403D02*X232703Y330484D01*
Y331284D02*Y330484D01*
X233203Y331784D02*X232703Y331284D01*
X233203Y331784D02*X234203D01*
X234703Y329084D02*X234003Y329784D01*
X234703Y329084D02*Y328284D01*
X234203Y327784D01*
X233203D02*X234203D01*
X233203D02*X232703Y328284D01*
Y329084D02*Y328284D01*
X233403Y329784D02*X232703Y329084D01*
X250686Y274744D02*X254686D01*
X250686Y276044D02*X251386Y276744D01*
X253986D01*
X254686Y276044D02*X253986Y276744D01*
X254686Y276044D02*Y274244D01*
X250686Y276044D02*Y274244D01*
X251486Y277944D02*X250686Y278744D01*
X254686D01*
Y279444D02*Y277944D01*
X254186Y280644D02*X254686Y281144D01*
X251186Y280644D02*X254186D01*
X251186D02*X250686Y281144D01*
Y282144D02*Y281144D01*
Y282144D02*X251186Y282644D01*
X254186D01*
X254686Y282144D02*X254186Y282644D01*
X254686Y282144D02*Y281144D01*
X253686Y280644D02*X251686Y282644D01*
X251186Y283844D02*X250686Y284344D01*
Y285344D02*Y284344D01*
Y285344D02*X251186Y285844D01*
X254686Y285344D02*X254186Y285844D01*
X254686Y285344D02*Y284344D01*
X254186Y283844D02*X254686Y284344D01*
X252486Y285344D02*Y284344D01*
X251186Y285844D02*X251986D01*
X252986D02*X254186D01*
X252986D02*X252486Y285344D01*
X251986Y285844D02*X252486Y285344D01*
X280536Y195599D02*Y194299D01*
X281236Y196299D02*X280536Y195599D01*
X281236Y196299D02*X283836D01*
X284536Y195599D01*
Y194299D01*
X284036Y193099D02*X284536Y192599D01*
Y191099D01*
X284036Y190599D01*
X283036D02*X284036D01*
X280536Y193099D02*X283036Y190599D01*
X280536Y193099D02*Y190599D01*
X283736Y189399D02*X284536Y188599D01*
X280536D02*X284536D01*
X280536Y189399D02*Y187899D01*
X284536Y186699D02*Y184699D01*
X282536Y186699D02*X284536D01*
X282536D02*X283036Y186199D01*
Y185199D01*
X282536Y184699D01*
X281036D02*X282536D01*
X280536Y185199D02*X281036Y184699D01*
X280536Y186199D02*Y185199D01*
X281036Y186699D02*X280536Y186199D01*
X216736Y170189D02*Y168889D01*
X216036Y168189D02*X216736Y168889D01*
X213436Y168189D02*X216036D01*
X213436D02*X212736Y168889D01*
Y170189D02*Y168889D01*
X213236Y171389D02*X212736Y171889D01*
Y173389D02*Y171889D01*
Y173389D02*X213236Y173889D01*
X214236D01*
X216736Y171389D02*X214236Y173889D01*
X216736D02*Y171389D01*
X216236Y175089D02*X216736Y175589D01*
X213236Y175089D02*X216236D01*
X213236D02*X212736Y175589D01*
Y176589D02*Y175589D01*
Y176589D02*X213236Y177089D01*
X216236D01*
X216736Y176589D02*X216236Y177089D01*
X216736Y176589D02*Y175589D01*
X215736Y175089D02*X213736Y177089D01*
X213236Y178289D02*X212736Y178789D01*
Y179789D02*Y178789D01*
Y179789D02*X213236Y180289D01*
X216736Y179789D02*X216236Y180289D01*
X216736Y179789D02*Y178789D01*
X216236Y178289D02*X216736Y178789D01*
X214536Y179789D02*Y178789D01*
X213236Y180289D02*X214036D01*
X215036D02*X216236D01*
X215036D02*X214536Y179789D01*
X214036Y180289D02*X214536Y179789D01*
X212736Y152689D02*Y150689D01*
Y152689D02*X213236Y153189D01*
X214236D01*
X214736Y152689D02*X214236Y153189D01*
X214736Y152689D02*Y151189D01*
X212736D02*X216736D01*
X214736Y151989D02*X216736Y153189D01*
X213236Y154389D02*X212736Y154889D01*
Y156389D02*Y154889D01*
Y156389D02*X213236Y156889D01*
X214236D01*
X216736Y154389D02*X214236Y156889D01*
X216736D02*Y154389D01*
X216236Y158089D02*X216736Y158589D01*
X213236Y158089D02*X216236D01*
X213236D02*X212736Y158589D01*
Y159589D02*Y158589D01*
Y159589D02*X213236Y160089D01*
X216236D01*
X216736Y159589D02*X216236Y160089D01*
X216736Y159589D02*Y158589D01*
X215736Y158089D02*X213736Y160089D01*
X215236Y161289D02*X212736Y163289D01*
X215236Y163789D02*Y161289D01*
X212736Y163289D02*X216736D01*
X202586Y343744D02*X206586D01*
Y342444D02*X205886Y341744D01*
X203286D02*X205886D01*
X202586Y342444D02*X203286Y341744D01*
X202586Y344244D02*Y342444D01*
X206586Y344244D02*Y342444D01*
X205786Y340544D02*X206586Y339744D01*
X202586D02*X206586D01*
X202586Y340544D02*Y339044D01*
X203086Y337844D02*X202586Y337344D01*
X203086Y337844D02*X206086D01*
X206586Y337344D01*
Y336344D01*
X206086Y335844D01*
X203086D02*X206086D01*
X202586Y336344D02*X203086Y335844D01*
X202586Y337344D02*Y336344D01*
X203586Y337844D02*X205586Y335844D01*
X205786Y334644D02*X206586Y333844D01*
X202586D02*X206586D01*
X202586Y334644D02*Y333144D01*
X261186Y199744D02*Y196244D01*
X261686Y195744D01*
X262686D01*
X263186Y196244D01*
Y199744D02*Y196244D01*
X264386Y199244D02*X264886Y199744D01*
X266386D01*
X266886Y199244D01*
Y198244D01*
X264386Y195744D02*X266886Y198244D01*
X264386Y195744D02*X266886D01*
X268086Y196244D02*X268586Y195744D01*
X268086Y199244D02*Y196244D01*
Y199244D02*X268586Y199744D01*
X269586D01*
X270086Y199244D01*
Y196244D01*
X269586Y195744D02*X270086Y196244D01*
X268586Y195744D02*X269586D01*
X268086Y196744D02*X270086Y198744D01*
X271286Y199744D02*X273286D01*
X271286D02*Y197744D01*
X271786Y198244D01*
X272786D01*
X273286Y197744D01*
Y196244D01*
X272786Y195744D02*X273286Y196244D01*
X271786Y195744D02*X272786D01*
X271286Y196244D02*X271786Y195744D01*
X256736Y170189D02*Y168889D01*
X256036Y168189D02*X256736Y168889D01*
X253436Y168189D02*X256036D01*
X253436D02*X252736Y168889D01*
Y170189D02*Y168889D01*
X253236Y171389D02*X252736Y171889D01*
Y173389D02*Y171889D01*
Y173389D02*X253236Y173889D01*
X254236D01*
X256736Y171389D02*X254236Y173889D01*
X256736D02*Y171389D01*
X253536Y175089D02*X252736Y175889D01*
X256736D01*
Y176589D02*Y175089D01*
X253236Y177789D02*X252736Y178289D01*
Y179289D02*Y178289D01*
Y179289D02*X253236Y179789D01*
X256736Y179289D02*X256236Y179789D01*
X256736Y179289D02*Y178289D01*
X256236Y177789D02*X256736Y178289D01*
X254536Y179289D02*Y178289D01*
X253236Y179789D02*X254036D01*
X255036D02*X256236D01*
X255036D02*X254536Y179289D01*
X254036Y179789D02*X254536Y179289D01*
X246736Y170189D02*Y168889D01*
X246036Y168189D02*X246736Y168889D01*
X243436Y168189D02*X246036D01*
X243436D02*X242736Y168889D01*
Y170189D02*Y168889D01*
X243236Y171389D02*X242736Y171889D01*
Y173389D02*Y171889D01*
Y173389D02*X243236Y173889D01*
X244236D01*
X246736Y171389D02*X244236Y173889D01*
X246736D02*Y171389D01*
X243536Y175089D02*X242736Y175889D01*
X246736D01*
Y176589D02*Y175089D01*
X245236Y177789D02*X242736Y179789D01*
X245236Y180289D02*Y177789D01*
X242736Y179789D02*X246736D01*
X266736Y170189D02*Y168889D01*
X266036Y168189D02*X266736Y168889D01*
X263436Y168189D02*X266036D01*
X263436D02*X262736Y168889D01*
Y170189D02*Y168889D01*
X263236Y171389D02*X262736Y171889D01*
Y173389D02*Y171889D01*
Y173389D02*X263236Y173889D01*
X264236D01*
X266736Y171389D02*X264236Y173889D01*
X266736D02*Y171389D01*
X263536Y175089D02*X262736Y175889D01*
X266736D01*
Y176589D02*Y175089D01*
X263536Y177789D02*X262736Y178589D01*
X266736D01*
Y179289D02*Y177789D01*
X285131Y212594D02*X287131D01*
X285131D02*X284631Y213094D01*
Y214094D02*Y213094D01*
X285131Y214594D02*X284631Y214094D01*
X285131Y214594D02*X286631D01*
Y216594D02*Y212594D01*
X285831Y214594D02*X284631Y216594D01*
X283431Y213094D02*X282931Y212594D01*
X281431D02*X282931D01*
X281431D02*X280931Y213094D01*
Y214094D02*Y213094D01*
X283431Y216594D02*X280931Y214094D01*
Y216594D02*X283431D01*
X279731Y213394D02*X278931Y212594D01*
Y216594D02*Y212594D01*
X278231Y216594D02*X279731D01*
X276531D02*X274531Y212594D01*
X277031D01*
X236310Y159394D02*Y155394D01*
X237610Y159394D02*X238310Y158694D01*
Y156094D01*
X237610Y155394D02*X238310Y156094D01*
X235810Y155394D02*X237610D01*
X235810Y159394D02*X237610D01*
X239510Y158894D02*X240010Y159394D01*
X241510D01*
X242010Y158894D01*
Y157894D01*
X239510Y155394D02*X242010Y157894D01*
X239510Y155394D02*X242010D01*
X243210Y155894D02*X243710Y155394D01*
X243210Y158894D02*Y155894D01*
Y158894D02*X243710Y159394D01*
X244710D01*
X245210Y158894D01*
Y155894D01*
X244710Y155394D02*X245210Y155894D01*
X243710Y155394D02*X244710D01*
X243210Y156394D02*X245210Y158394D01*
X246410Y158594D02*X247210Y159394D01*
Y155394D01*
X246410D02*X247910D01*
X239071Y129892D02*Y126392D01*
X239571Y125892D01*
X240571D01*
X241071Y126392D01*
Y129892D02*Y126392D01*
X242271Y129392D02*X242771Y129892D01*
X244271D01*
X244771Y129392D01*
Y128392D01*
X242271Y125892D02*X244771Y128392D01*
X242271Y125892D02*X244771D01*
X245971Y126392D02*X246471Y125892D01*
X245971Y129392D02*Y126392D01*
Y129392D02*X246471Y129892D01*
X247471D01*
X247971Y129392D01*
Y126392D01*
X247471Y125892D02*X247971Y126392D01*
X246471Y125892D02*X247471D01*
X245971Y126892D02*X247971Y128892D01*
X249171Y129092D02*X249971Y129892D01*
Y125892D01*
X249171D02*X250671D01*
X269036Y155989D02*Y153989D01*
X268536Y153489D01*
X267536D02*X268536D01*
X267036Y153989D02*X267536Y153489D01*
X267036Y155489D02*Y153989D01*
X265036Y155489D02*X269036D01*
X267036Y154689D02*X265036Y153489D01*
X268536Y152289D02*X269036Y151789D01*
Y150289D01*
X268536Y149789D01*
X267536D02*X268536D01*
X265036Y152289D02*X267536Y149789D01*
X265036Y152289D02*Y149789D01*
X268236Y148589D02*X269036Y147789D01*
X265036D02*X269036D01*
X265036Y148589D02*Y147089D01*
X268536Y145889D02*X269036Y145389D01*
Y143889D01*
X268536Y143389D01*
X267536D02*X268536D01*
X265036Y145889D02*X267536Y143389D01*
X265036Y145889D02*Y143389D01*
X305616Y121968D02*X307616D01*
X305616D02*X305116Y122468D01*
Y123468D02*Y122468D01*
X305616Y123968D02*X305116Y123468D01*
X305616Y123968D02*X307116D01*
Y125968D02*Y121968D01*
X306316Y123968D02*X305116Y125968D01*
X303916Y122468D02*X303416Y121968D01*
X301916D02*X303416D01*
X301916D02*X301416Y122468D01*
Y123468D02*Y122468D01*
X303916Y125968D02*X301416Y123468D01*
Y125968D02*X303916D01*
X300216Y122768D02*X299416Y121968D01*
Y125968D02*Y121968D01*
X298716Y125968D02*X300216D01*
X297516Y124468D02*X295516Y121968D01*
X295016Y124468D02*X297516D01*
X295516Y125968D02*Y121968D01*
X309720Y108873D02*Y107573D01*
X309020Y106873D02*X309720Y107573D01*
X306420Y106873D02*X309020D01*
X306420D02*X305720Y107573D01*
Y108873D02*Y107573D01*
X306220Y110073D02*X305720Y110573D01*
Y112073D02*Y110573D01*
Y112073D02*X306220Y112573D01*
X307220D01*
X309720Y110073D02*X307220Y112573D01*
X309720D02*Y110073D01*
X306520Y113773D02*X305720Y114573D01*
X309720D01*
Y115273D02*Y113773D01*
X306220Y116473D02*X305720Y116973D01*
Y118473D02*Y116973D01*
Y118473D02*X306220Y118973D01*
X307220D01*
X309720Y116473D02*X307220Y118973D01*
X309720D02*Y116473D01*
X301036Y113299D02*Y111299D01*
X300536Y110799D01*
X299536D02*X300536D01*
X299036Y111299D02*X299536Y110799D01*
X299036Y112799D02*Y111299D01*
X297036Y112799D02*X301036D01*
X299036Y111999D02*X297036Y110799D01*
X300536Y109599D02*X301036Y109099D01*
Y107599D01*
X300536Y107099D01*
X299536D02*X300536D01*
X297036Y109599D02*X299536Y107099D01*
X297036Y109599D02*Y107099D01*
X300236Y105899D02*X301036Y105099D01*
X297036D02*X301036D01*
X297036Y105899D02*Y104399D01*
X301036Y101699D02*X300536Y101199D01*
X301036Y102699D02*Y101699D01*
X300536Y103199D02*X301036Y102699D01*
X297536Y103199D02*X300536D01*
X297536D02*X297036Y102699D01*
X299236Y101699D02*X298736Y101199D01*
X299236Y103199D02*Y101699D01*
X297036Y102699D02*Y101699D01*
X297536Y101199D01*
X298736D01*
X309736Y139499D02*Y138199D01*
X309036Y137499D02*X309736Y138199D01*
X306436Y137499D02*X309036D01*
X306436D02*X305736Y138199D01*
Y139499D02*Y138199D01*
X306236Y140699D02*X305736Y141199D01*
Y142699D02*Y141199D01*
Y142699D02*X306236Y143199D01*
X307236D01*
X309736Y140699D02*X307236Y143199D01*
X309736D02*Y140699D01*
X309236Y144399D02*X309736Y144899D01*
X306236Y144399D02*X309236D01*
X306236D02*X305736Y144899D01*
Y145899D02*Y144899D01*
Y145899D02*X306236Y146399D01*
X309236D01*
X309736Y145899D02*X309236Y146399D01*
X309736Y145899D02*Y144899D01*
X308736Y144399D02*X306736Y146399D01*
X309236Y147599D02*X309736Y148099D01*
X308436Y147599D02*X309236D01*
X308436D02*X307736Y148299D01*
Y148899D02*Y148299D01*
Y148899D02*X308436Y149599D01*
X309236D01*
X309736Y149099D02*X309236Y149599D01*
X309736Y149099D02*Y148099D01*
X307036Y147599D02*X307736Y148299D01*
X306236Y147599D02*X307036D01*
X306236D02*X305736Y148099D01*
Y149099D02*Y148099D01*
Y149099D02*X306236Y149599D01*
X307036D01*
X307736Y148899D02*X307036Y149599D01*
X294736Y136861D02*Y134861D01*
Y136861D02*X295236Y137361D01*
X296236D01*
X296736Y136861D02*X296236Y137361D01*
X296736Y136861D02*Y135361D01*
X294736D02*X298736D01*
X296736Y136161D02*X298736Y137361D01*
X295236Y138561D02*X294736Y139061D01*
Y140561D02*Y139061D01*
Y140561D02*X295236Y141061D01*
X296236D01*
X298736Y138561D02*X296236Y141061D01*
X298736D02*Y138561D01*
X298236Y142261D02*X298736Y142761D01*
X295236Y142261D02*X298236D01*
X295236D02*X294736Y142761D01*
Y143761D02*Y142761D01*
Y143761D02*X295236Y144261D01*
X298236D01*
X298736Y143761D02*X298236Y144261D01*
X298736Y143761D02*Y142761D01*
X297736Y142261D02*X295736Y144261D01*
X298736Y145961D02*X294736Y147961D01*
Y145461D01*
Y150947D02*Y148947D01*
Y150947D02*X295236Y151447D01*
X296236D01*
X296736Y150947D02*X296236Y151447D01*
X296736Y150947D02*Y149447D01*
X294736D02*X298736D01*
X296736Y150247D02*X298736Y151447D01*
X295236Y152647D02*X294736Y153147D01*
Y154647D02*Y153147D01*
Y154647D02*X295236Y155147D01*
X296236D01*
X298736Y152647D02*X296236Y155147D01*
X298736D02*Y152647D01*
X298236Y156347D02*X298736Y156847D01*
X295236Y156347D02*X298236D01*
X295236D02*X294736Y156847D01*
Y157847D02*Y156847D01*
Y157847D02*X295236Y158347D01*
X298236D01*
X298736Y157847D02*X298236Y158347D01*
X298736Y157847D02*Y156847D01*
X297736Y156347D02*X295736Y158347D01*
X298236Y159547D02*X298736Y160047D01*
X297436Y159547D02*X298236D01*
X297436D02*X296736Y160247D01*
Y160847D02*Y160247D01*
Y160847D02*X297436Y161547D01*
X298236D01*
X298736Y161047D02*X298236Y161547D01*
X298736Y161047D02*Y160047D01*
X296036Y159547D02*X296736Y160247D01*
X295236Y159547D02*X296036D01*
X295236D02*X294736Y160047D01*
Y161047D02*Y160047D01*
Y161047D02*X295236Y161547D01*
X296036D01*
X296736Y160847D02*X296036Y161547D01*
X316131Y170094D02*X318131D01*
X316131D02*X315631Y170594D01*
Y171594D02*Y170594D01*
X316131Y172094D02*X315631Y171594D01*
X316131Y172094D02*X317631D01*
Y174094D02*Y170094D01*
X316831Y172094D02*X315631Y174094D01*
X314431Y170594D02*X313931Y170094D01*
X312431D02*X313931D01*
X312431D02*X311931Y170594D01*
Y171594D02*Y170594D01*
X314431Y174094D02*X311931Y171594D01*
Y174094D02*X314431D01*
X310731Y170894D02*X309931Y170094D01*
Y174094D02*Y170094D01*
X309231Y174094D02*X310731D01*
X306031Y170094D02*X308031D01*
Y172094D02*Y170094D01*
Y172094D02*X307531Y171594D01*
X306531D02*X307531D01*
X306531D02*X306031Y172094D01*
Y173594D02*Y172094D01*
X306531Y174094D02*X306031Y173594D01*
X306531Y174094D02*X307531D01*
X308031Y173594D02*X307531Y174094D01*
X317686Y154644D02*X320186D01*
Y158644D02*X317686Y154644D01*
Y158644D02*X320186D01*
X316486Y155144D02*X315986Y154644D01*
X314486D02*X315986D01*
X314486D02*X313986Y155144D01*
Y156144D02*Y155144D01*
X316486Y158644D02*X313986Y156144D01*
Y158644D02*X316486D01*
X312786Y158144D02*X312286Y158644D01*
X312786Y158144D02*Y155144D01*
X312286Y154644D01*
X311286D02*X312286D01*
X311286D02*X310786Y155144D01*
Y158144D02*Y155144D01*
X311286Y158644D02*X310786Y158144D01*
X311286Y158644D02*X312286D01*
X312786Y157644D02*X310786Y155644D01*
X309586Y155144D02*X309086Y154644D01*
X307586D02*X309086D01*
X307586D02*X307086Y155144D01*
Y156144D02*Y155144D01*
X309586Y158644D02*X307086Y156144D01*
Y158644D02*X309586D01*
X335641Y129394D02*X337641D01*
X338141Y128894D01*
Y127894D01*
X337641Y127394D02*X338141Y127894D01*
X336141Y127394D02*X337641D01*
X336141Y129394D02*Y125394D01*
X336941Y127394D02*X338141Y125394D01*
X339341Y128894D02*X339841Y129394D01*
X341341D01*
X341841Y128894D01*
Y127894D01*
X339341Y125394D02*X341841Y127894D01*
X339341Y125394D02*X341841D01*
X343041Y128594D02*X343841Y129394D01*
Y125394D01*
X343041D02*X344541D01*
X345741Y128894D02*X346241Y129394D01*
X347241D01*
X347741Y128894D01*
X347241Y125394D02*X347741Y125894D01*
X346241Y125394D02*X347241D01*
X345741Y125894D02*X346241Y125394D01*
Y127594D02*X347241D01*
X347741Y128894D02*Y128094D01*
Y127094D02*Y125894D01*
Y127094D02*X347241Y127594D01*
X347741Y128094D02*X347241Y127594D01*
X327136Y147244D02*Y143744D01*
X327636Y143244D01*
X328636D01*
X329136Y143744D01*
Y147244D02*Y143744D01*
X330336Y146744D02*X330836Y147244D01*
X332336D01*
X332836Y146744D01*
Y145744D01*
X330336Y143244D02*X332836Y145744D01*
X330336Y143244D02*X332836D01*
X334036Y143744D02*X334536Y143244D01*
X334036Y146744D02*Y143744D01*
Y146744D02*X334536Y147244D01*
X335536D01*
X336036Y146744D01*
Y143744D01*
X335536Y143244D02*X336036Y143744D01*
X334536Y143244D02*X335536D01*
X334036Y144244D02*X336036Y146244D01*
X338736Y147244D02*X339236Y146744D01*
X337736Y147244D02*X338736D01*
X337236Y146744D02*X337736Y147244D01*
X337236Y146744D02*Y143744D01*
X337736Y143244D01*
X338736Y145444D02*X339236Y144944D01*
X337236Y145444D02*X338736D01*
X337736Y143244D02*X338736D01*
X339236Y143744D01*
Y144944D02*Y143744D01*
X327636Y117244D02*Y113744D01*
X328136Y113244D01*
X329136D01*
X329636Y113744D01*
Y117244D02*Y113744D01*
X330836Y116744D02*X331336Y117244D01*
X332836D01*
X333336Y116744D01*
Y115744D01*
X330836Y113244D02*X333336Y115744D01*
X330836Y113244D02*X333336D01*
X334536Y113744D02*X335036Y113244D01*
X334536Y116744D02*Y113744D01*
Y116744D02*X335036Y117244D01*
X336036D01*
X336536Y116744D01*
Y113744D01*
X336036Y113244D02*X336536Y113744D01*
X335036Y113244D02*X336036D01*
X334536Y114244D02*X336536Y116244D01*
X338236Y113244D02*X340236Y117244D01*
X337736D02*X340236D01*
X323386Y278544D02*Y277244D01*
X324086Y279244D02*X323386Y278544D01*
X324086Y279244D02*X326686D01*
X327386Y278544D01*
Y277244D01*
X323886Y276044D02*X326886D01*
X327386Y275544D01*
Y274544D01*
X326886Y274044D01*
X323886D02*X326886D01*
X323386Y274544D02*X323886Y274044D01*
X323386Y275544D02*Y274544D01*
X323886Y276044D02*X323386Y275544D01*
Y272844D02*X327386D01*
X323386Y270344D01*
X327386D01*
X323386Y269144D02*X327386D01*
X323386Y266644D01*
X327386D01*
X326586Y265444D02*X327386Y264644D01*
X323386D02*X327386D01*
X323386Y265444D02*Y263944D01*
X323886Y262744D02*X323386Y262244D01*
X323886Y262744D02*X326886D01*
X327386Y262244D01*
Y261244D01*
X326886Y260744D01*
X323886D02*X326886D01*
X323386Y261244D02*X323886Y260744D01*
X323386Y262244D02*Y261244D01*
X324386Y262744D02*X326386Y260744D01*
X326886Y259544D02*X327386Y259044D01*
Y258044D01*
X326886Y257544D01*
X323386Y258044D02*X323886Y257544D01*
X323386Y259044D02*Y258044D01*
X323886Y259544D02*X323386Y259044D01*
X325586D02*Y258044D01*
X326086Y257544D02*X326886D01*
X323886D02*X325086D01*
X325586Y258044D01*
X326086Y257544D02*X325586Y258044D01*
X343886Y261244D02*Y259944D01*
X343186Y259244D02*X343886Y259944D01*
X340586Y259244D02*X343186D01*
X340586D02*X339886Y259944D01*
Y261244D02*Y259944D01*
X340386Y262444D02*X343386D01*
X340386D02*X339886Y262944D01*
Y263944D02*Y262944D01*
Y263944D02*X340386Y264444D01*
X343386D01*
X343886Y263944D02*X343386Y264444D01*
X343886Y263944D02*Y262944D01*
X343386Y262444D02*X343886Y262944D01*
X339886Y265644D02*X343886D01*
X339886D02*X343886Y268144D01*
X339886D02*X343886D01*
X339886Y269344D02*X343886D01*
X339886D02*X343886Y271844D01*
X339886D02*X343886D01*
X340686Y273044D02*X339886Y273844D01*
X343886D01*
Y274544D02*Y273044D01*
X343386Y275744D02*X343886Y276244D01*
X340386Y275744D02*X343386D01*
X340386D02*X339886Y276244D01*
Y277244D02*Y276244D01*
Y277244D02*X340386Y277744D01*
X343386D01*
X343886Y277244D02*X343386Y277744D01*
X343886Y277244D02*Y276244D01*
X342886Y275744D02*X340886Y277744D01*
X340386Y278944D02*X339886Y279444D01*
Y280944D02*Y279444D01*
Y280944D02*X340386Y281444D01*
X341386D01*
X343886Y278944D02*X341386Y281444D01*
X343886D02*Y278944D01*
X351886Y124744D02*Y122744D01*
X352386Y122244D01*
X353586D01*
X354086Y122744D02*X353586Y122244D01*
X354086Y124244D02*Y122744D01*
X351886Y124244D02*X355886D01*
Y124744D02*Y122744D01*
X355386Y122244D01*
X354586D02*X355386D01*
X354086Y122744D02*X354586Y122244D01*
X351886Y121044D02*X355886D01*
X351886Y118544D01*
X355886D01*
X351886Y116644D02*Y115344D01*
X352586Y117344D02*X351886Y116644D01*
X352586Y117344D02*X355186D01*
X355886Y116644D01*
Y115344D01*
X355386Y114144D02*X355886Y113644D01*
Y112144D01*
X355386Y111644D01*
X354386D02*X355386D01*
X351886Y114144D02*X354386Y111644D01*
X351886Y114144D02*Y111644D01*
X352386Y110444D02*X351886Y109944D01*
X352386Y110444D02*X355386D01*
X355886Y109944D01*
Y108944D01*
X355386Y108444D01*
X352386D02*X355386D01*
X351886Y108944D02*X352386Y108444D01*
X351886Y109944D02*Y108944D01*
X352886Y110444D02*X354886Y108444D01*
X355086Y107244D02*X355886Y106444D01*
X351886D02*X355886D01*
X351886Y107244D02*Y105744D01*
X364186Y341244D02*X368186D01*
Y339944D02*X367486Y339244D01*
X364886D02*X367486D01*
X364186Y339944D02*X364886Y339244D01*
X364186Y341744D02*Y339944D01*
X368186Y341744D02*Y339944D01*
X367386Y338044D02*X368186Y337244D01*
X364186D02*X368186D01*
X364186Y338044D02*Y336544D01*
X364686Y335344D02*X364186Y334844D01*
X364686Y335344D02*X367686D01*
X368186Y334844D01*
Y333844D01*
X367686Y333344D01*
X364686D02*X367686D01*
X364186Y333844D02*X364686Y333344D01*
X364186Y334844D02*Y333844D01*
X365186Y335344D02*X367186Y333344D01*
X365686Y332144D02*X368186Y330144D01*
X365686Y332144D02*Y329644D01*
X364186Y330144D02*X368186D01*
X364186Y311244D02*X368186D01*
Y309944D02*X367486Y309244D01*
X364886D02*X367486D01*
X364186Y309944D02*X364886Y309244D01*
X364186Y311744D02*Y309944D01*
X368186Y311744D02*Y309944D01*
X367386Y308044D02*X368186Y307244D01*
X364186D02*X368186D01*
X364186Y308044D02*Y306544D01*
X364686Y305344D02*X364186Y304844D01*
X364686Y305344D02*X367686D01*
X368186Y304844D01*
Y303844D01*
X367686Y303344D01*
X364686D02*X367686D01*
X364186Y303844D02*X364686Y303344D01*
X364186Y304844D02*Y303844D01*
X365186Y305344D02*X367186Y303344D01*
X368186Y302144D02*Y300144D01*
X366186Y302144D02*X368186D01*
X366186D02*X366686Y301644D01*
Y300644D01*
X366186Y300144D01*
X364686D02*X366186D01*
X364186Y300644D02*X364686Y300144D01*
X364186Y301644D02*Y300644D01*
X364686Y302144D02*X364186Y301644D01*
X342841Y167894D02*X344141D01*
X342141Y168594D02*X342841Y167894D01*
X342141Y171194D02*Y168594D01*
Y171194D02*X342841Y171894D01*
X344141D01*
X345341Y171394D02*X345841Y171894D01*
X347341D01*
X347841Y171394D01*
Y170394D01*
X345341Y167894D02*X347841Y170394D01*
X345341Y167894D02*X347841D01*
X349041Y168394D02*X349541Y167894D01*
X349041Y171394D02*Y168394D01*
Y171394D02*X349541Y171894D01*
X350541D01*
X351041Y171394D01*
Y168394D01*
X350541Y167894D02*X351041Y168394D01*
X349541Y167894D02*X350541D01*
X349041Y168894D02*X351041Y170894D01*
X352741Y167894D02*X354241Y169894D01*
Y171394D02*Y169894D01*
X353741Y171894D02*X354241Y171394D01*
X352741Y171894D02*X353741D01*
X352241Y171394D02*X352741Y171894D01*
X352241Y171394D02*Y170394D01*
X352741Y169894D01*
X354241D01*
X361886Y175744D02*X364386D01*
Y179744D02*X361886Y175744D01*
Y179744D02*X364386D01*
X360686Y176244D02*X360186Y175744D01*
X358686D02*X360186D01*
X358686D02*X358186Y176244D01*
Y177244D02*Y176244D01*
X360686Y179744D02*X358186Y177244D01*
Y179744D02*X360686D01*
X356986Y179244D02*X356486Y179744D01*
X356986Y179244D02*Y176244D01*
X356486Y175744D01*
X355486D02*X356486D01*
X355486D02*X354986Y176244D01*
Y179244D02*Y176244D01*
X355486Y179744D02*X354986Y179244D01*
X355486Y179744D02*X356486D01*
X356986Y178744D02*X354986Y176744D01*
X353786Y176544D02*X352986Y175744D01*
Y179744D02*Y175744D01*
X352286Y179744D02*X353786D01*
X361330Y171894D02*X363330D01*
X363830Y171394D01*
Y170394D01*
X363330Y169894D02*X363830Y170394D01*
X361830Y169894D02*X363330D01*
X361830Y171894D02*Y167894D01*
X362630Y169894D02*X363830Y167894D01*
X365030Y171394D02*X365530Y171894D01*
X367030D01*
X367530Y171394D01*
Y170394D01*
X365030Y167894D02*X367530Y170394D01*
X365030Y167894D02*X367530D01*
X368730Y171094D02*X369530Y171894D01*
Y167894D01*
X368730D02*X370230D01*
X371430Y168394D02*X371930Y167894D01*
X371430Y171394D02*Y168394D01*
Y171394D02*X371930Y171894D01*
X372930D01*
X373430Y171394D01*
Y168394D01*
X372930Y167894D02*X373430Y168394D01*
X371930Y167894D02*X372930D01*
X371430Y168894D02*X373430Y170894D01*
X377693Y171894D02*X379693D01*
X380193Y171394D01*
Y170394D01*
X379693Y169894D02*X380193Y170394D01*
X378193Y169894D02*X379693D01*
X378193Y171894D02*Y167894D01*
X378993Y169894D02*X380193Y167894D01*
X381393Y171394D02*X381893Y171894D01*
X383393D01*
X383893Y171394D01*
Y170394D01*
X381393Y167894D02*X383893Y170394D01*
X381393Y167894D02*X383893D01*
X385093Y171094D02*X385893Y171894D01*
Y167894D01*
X385093D02*X386593D01*
X387793Y171094D02*X388593Y171894D01*
Y167894D01*
X387793D02*X389293D01*
X149986Y256644D02*X145986Y259144D01*
Y256644D02*X149986Y259144D01*
X146786Y260344D02*X145986Y261144D01*
X149986D01*
Y261844D02*Y260344D01*
X149486Y263044D02*X149986Y263544D01*
X146486Y263044D02*X149486D01*
X146486D02*X145986Y263544D01*
Y264544D02*Y263544D01*
Y264544D02*X146486Y265044D01*
X149486D01*
X149986Y264544D02*X149486Y265044D01*
X149986Y264544D02*Y263544D01*
X148986Y263044D02*X146986Y265044D01*
X146786Y266244D02*X145986Y267044D01*
X149986D01*
Y267744D02*Y266244D01*
X149441Y326094D02*X150741D01*
X151441Y325394D02*X150741Y326094D01*
X151441Y325394D02*Y322794D01*
X150741Y322094D01*
X149441D02*X150741D01*
X148241Y322894D02*X147441Y322094D01*
Y326094D02*Y322094D01*
X146741Y326094D02*X148241D01*
X145541Y322894D02*X144741Y322094D01*
Y326094D02*Y322094D01*
X144041Y326094D02*X145541D01*
X142841Y325594D02*X142341Y326094D01*
X142841Y325594D02*Y322594D01*
X142341Y322094D01*
X141341D02*X142341D01*
X141341D02*X140841Y322594D01*
Y325594D02*Y322594D01*
X141341Y326094D02*X140841Y325594D01*
X141341Y326094D02*X142341D01*
X142841Y325094D02*X140841Y323094D01*
X176251Y326094D02*X177551D01*
X178251Y325394D02*X177551Y326094D01*
X178251Y325394D02*Y322794D01*
X177551Y322094D01*
X176251D02*X177551D01*
X175051Y322894D02*X174251Y322094D01*
Y326094D02*Y322094D01*
X173551Y326094D02*X175051D01*
X172351Y325594D02*X171851Y326094D01*
X172351Y325594D02*Y322594D01*
X171851Y322094D01*
X170851D02*X171851D01*
X170851D02*X170351Y322594D01*
Y325594D02*Y322594D01*
X170851Y326094D02*X170351Y325594D01*
X170851Y326094D02*X171851D01*
X172351Y325094D02*X170351Y323094D01*
X168651Y326094D02*X167151Y324094D01*
Y322594D01*
X167651Y322094D02*X167151Y322594D01*
X167651Y322094D02*X168651D01*
X169151Y322594D02*X168651Y322094D01*
X169151Y323594D02*Y322594D01*
Y323594D02*X168651Y324094D01*
X167151D02*X168651D01*
X172651Y309894D02*X173951D01*
X171951Y310594D02*X172651Y309894D01*
X171951Y313194D02*Y310594D01*
Y313194D02*X172651Y313894D01*
X173951D01*
X175151Y313094D02*X175951Y313894D01*
Y309894D01*
X175151D02*X176651D01*
X177851Y313094D02*X178651Y313894D01*
Y309894D01*
X177851D02*X179351D01*
X180551Y313094D02*X181351Y313894D01*
Y309894D01*
X180551D02*X182051D01*
X145841D02*X147141D01*
X145141Y310594D02*X145841Y309894D01*
X145141Y313194D02*Y310594D01*
Y313194D02*X145841Y313894D01*
X147141D01*
X148341Y313094D02*X149141Y313894D01*
Y309894D01*
X148341D02*X149841D01*
X151041Y313094D02*X151841Y313894D01*
Y309894D01*
X151041D02*X152541D01*
X153741Y313394D02*X154241Y313894D01*
X155741D01*
X156241Y313394D01*
Y312394D01*
X153741Y309894D02*X156241Y312394D01*
X153741Y309894D02*X156241D01*
X132886Y303244D02*X134186D01*
X134886Y302544D02*X134186Y303244D01*
X134886Y302544D02*Y299944D01*
X134186Y299244D01*
X132886D02*X134186D01*
X131686Y302744D02*Y299744D01*
X131186Y299244D01*
X130186D02*X131186D01*
X130186D02*X129686Y299744D01*
Y302744D02*Y299744D01*
X130186Y303244D02*X129686Y302744D01*
X130186Y303244D02*X131186D01*
X131686Y302744D02*X131186Y303244D01*
X128486D02*Y299244D01*
X125986Y303244D01*
Y299244D01*
X124786Y303244D02*Y299244D01*
X122286Y303244D01*
Y299244D01*
X121086Y300044D02*X120286Y299244D01*
Y303244D02*Y299244D01*
X119586Y303244D02*X121086D01*
X118386Y302744D02*X117886Y303244D01*
X118386Y302744D02*Y299744D01*
X117886Y299244D01*
X116886D02*X117886D01*
X116886D02*X116386Y299744D01*
Y302744D02*Y299744D01*
X116886Y303244D02*X116386Y302744D01*
X116886Y303244D02*X117886D01*
X118386Y302244D02*X116386Y300244D01*
X115186Y300044D02*X114386Y299244D01*
Y303244D02*Y299244D01*
X113686Y303244D02*X115186D01*
X185141Y242084D02*X187141D01*
X187641Y241584D01*
Y240584D01*
X187141Y240084D02*X187641Y240584D01*
X185641Y240084D02*X187141D01*
X185641Y242084D02*Y238084D01*
X186441Y240084D02*X187641Y238084D01*
X188841Y241284D02*X189641Y242084D01*
Y238084D01*
X188841D02*X190341D01*
X191541Y238584D02*X192041Y238084D01*
X191541Y241584D02*Y238584D01*
Y241584D02*X192041Y242084D01*
X193041D01*
X193541Y241584D01*
Y238584D01*
X193041Y238084D02*X193541Y238584D01*
X192041Y238084D02*X193041D01*
X191541Y239084D02*X193541Y241084D01*
X194741Y241584D02*X195241Y242084D01*
X196741D01*
X197241Y241584D01*
Y240584D01*
X194741Y238084D02*X197241Y240584D01*
X194741Y238084D02*X197241D01*
X180536Y258289D02*Y256989D01*
X181236Y258989D02*X180536Y258289D01*
X181236Y258989D02*X183836D01*
X184536Y258289D01*
Y256989D01*
X183736Y255789D02*X184536Y254989D01*
X180536D02*X184536D01*
X180536Y255789D02*Y254289D01*
X183736Y253089D02*X184536Y252289D01*
X180536D02*X184536D01*
X180536Y253089D02*Y251589D01*
X184036Y250389D02*X184536Y249889D01*
Y248889D01*
X184036Y248389D01*
X180536Y248889D02*X181036Y248389D01*
X180536Y249889D02*Y248889D01*
X181036Y250389D02*X180536Y249889D01*
X182736D02*Y248889D01*
X183236Y248389D02*X184036D01*
X181036D02*X182236D01*
X182736Y248889D01*
X183236Y248389D02*X182736Y248889D01*
X197036Y258989D02*Y256989D01*
X196536Y256489D01*
X195536D02*X196536D01*
X195036Y256989D02*X195536Y256489D01*
X195036Y258489D02*Y256989D01*
X193036Y258489D02*X197036D01*
X195036Y257689D02*X193036Y256489D01*
X196236Y255289D02*X197036Y254489D01*
X193036D02*X197036D01*
X193036Y255289D02*Y253789D01*
X193536Y252589D02*X193036Y252089D01*
X193536Y252589D02*X196536D01*
X197036Y252089D01*
Y251089D01*
X196536Y250589D01*
X193536D02*X196536D01*
X193036Y251089D02*X193536Y250589D01*
X193036Y252089D02*Y251089D01*
X194036Y252589D02*X196036Y250589D01*
X196236Y249389D02*X197036Y248589D01*
X193036D02*X197036D01*
X193036Y249389D02*Y247889D01*
X155086Y343744D02*X159086D01*
Y342444D02*X158386Y341744D01*
X155786D02*X158386D01*
X155086Y342444D02*X155786Y341744D01*
X155086Y344244D02*Y342444D01*
X159086Y344244D02*Y342444D01*
X158286Y340544D02*X159086Y339744D01*
X155086D02*X159086D01*
X155086Y340544D02*Y339044D01*
X155586Y337844D02*X155086Y337344D01*
X155586Y337844D02*X158586D01*
X159086Y337344D01*
Y336344D01*
X158586Y335844D01*
X155586D02*X158586D01*
X155086Y336344D02*X155586Y335844D01*
X155086Y337344D02*Y336344D01*
X156086Y337844D02*X158086Y335844D01*
X158586Y334644D02*X159086Y334144D01*
Y332644D01*
X158586Y332144D01*
X157586D02*X158586D01*
X155086Y334644D02*X157586Y332144D01*
X155086Y334644D02*Y332144D01*
X255141Y298894D02*X257141D01*
X257641Y298394D01*
Y297394D01*
X257141Y296894D02*X257641Y297394D01*
X255641Y296894D02*X257141D01*
X255641Y298894D02*Y294894D01*
X256441Y296894D02*X257641Y294894D01*
X258841Y298094D02*X259641Y298894D01*
Y294894D01*
X258841D02*X260341D01*
X261541Y295394D02*X262041Y294894D01*
X261541Y298394D02*Y295394D01*
Y298394D02*X262041Y298894D01*
X263041D01*
X263541Y298394D01*
Y295394D01*
X263041Y294894D02*X263541Y295394D01*
X262041Y294894D02*X263041D01*
X261541Y295894D02*X263541Y297894D01*
X264741Y298394D02*X265241Y298894D01*
X266241D01*
X266741Y298394D01*
X266241Y294894D02*X266741Y295394D01*
X265241Y294894D02*X266241D01*
X264741Y295394D02*X265241Y294894D01*
Y297094D02*X266241D01*
X266741Y298394D02*Y297594D01*
Y296594D02*Y295394D01*
Y296594D02*X266241Y297094D01*
X266741Y297594D02*X266241Y297094D01*
X262631Y343594D02*X263931D01*
X264631Y342894D02*X263931Y343594D01*
X264631Y342894D02*Y340294D01*
X263931Y339594D01*
X262631D02*X263931D01*
X261431Y340394D02*X260631Y339594D01*
Y343594D02*Y339594D01*
X259931Y343594D02*X261431D01*
X258731Y343094D02*X258231Y343594D01*
X258731Y343094D02*Y340094D01*
X258231Y339594D01*
X257231D02*X258231D01*
X257231D02*X256731Y340094D01*
Y343094D02*Y340094D01*
X257231Y343594D02*X256731Y343094D01*
X257231Y343594D02*X258231D01*
X258731Y342594D02*X256731Y340594D01*
X253531Y339594D02*X255531D01*
Y341594D02*Y339594D01*
Y341594D02*X255031Y341094D01*
X254031D02*X255031D01*
X254031D02*X253531Y341594D01*
Y343094D02*Y341594D01*
X254031Y343594D02*X253531Y343094D01*
X254031Y343594D02*X255031D01*
X255531Y343094D02*X255031Y343594D01*
X258889Y331784D02*X260189D01*
X260889Y331084D02*X260189Y331784D01*
X260889Y331084D02*Y328484D01*
X260189Y327784D01*
X258889D02*X260189D01*
X257689Y328584D02*X256889Y327784D01*
Y331784D02*Y327784D01*
X256189Y331784D02*X257689D01*
X254989Y331284D02*X254489Y331784D01*
X254989Y331284D02*Y328284D01*
X254489Y327784D01*
X253489D02*X254489D01*
X253489D02*X252989Y328284D01*
Y331284D02*Y328284D01*
X253489Y331784D02*X252989Y331284D01*
X253489Y331784D02*X254489D01*
X254989Y330784D02*X252989Y328784D01*
X251289Y331784D02*X249289Y327784D01*
X251789D01*
X280486Y311244D02*Y309944D01*
X279786Y309244D02*X280486Y309944D01*
X277186Y309244D02*X279786D01*
X277186D02*X276486Y309944D01*
Y311244D02*Y309944D01*
X277286Y312444D02*X276486Y313244D01*
X280486D01*
Y313944D02*Y312444D01*
X279986Y315144D02*X280486Y315644D01*
X276986Y315144D02*X279986D01*
X276986D02*X276486Y315644D01*
Y316644D02*Y315644D01*
Y316644D02*X276986Y317144D01*
X279986D01*
X280486Y316644D02*X279986Y317144D01*
X280486Y316644D02*Y315644D01*
X279486Y315144D02*X277486Y317144D01*
X277286Y318344D02*X276486Y319144D01*
X280486D01*
Y319844D02*Y318344D01*
Y346244D02*Y344944D01*
X279786Y344244D02*X280486Y344944D01*
X277186Y344244D02*X279786D01*
X277186D02*X276486Y344944D01*
Y346244D02*Y344944D01*
X277286Y347444D02*X276486Y348244D01*
X280486D01*
Y348944D02*Y347444D01*
X279986Y350144D02*X280486Y350644D01*
X276986Y350144D02*X279986D01*
X276986D02*X276486Y350644D01*
Y351644D02*Y350644D01*
Y351644D02*X276986Y352144D01*
X279986D01*
X280486Y351644D02*X279986Y352144D01*
X280486Y351644D02*Y350644D01*
X279486Y350144D02*X277486Y352144D01*
X276986Y353344D02*X276486Y353844D01*
Y355344D02*Y353844D01*
Y355344D02*X276986Y355844D01*
X277986D01*
X280486Y353344D02*X277986Y355844D01*
X280486D02*Y353344D01*
X262631Y356094D02*X263931D01*
X264631Y355394D02*X263931Y356094D01*
X264631Y355394D02*Y352794D01*
X263931Y352094D01*
X262631D02*X263931D01*
X261431Y352894D02*X260631Y352094D01*
Y356094D02*Y352094D01*
X259931Y356094D02*X261431D01*
X258731Y355594D02*X258231Y356094D01*
X258731Y355594D02*Y352594D01*
X258231Y352094D01*
X257231D02*X258231D01*
X257231D02*X256731Y352594D01*
Y355594D02*Y352594D01*
X257231Y356094D02*X256731Y355594D01*
X257231Y356094D02*X258231D01*
X258731Y355094D02*X256731Y353094D01*
X255531Y352594D02*X255031Y352094D01*
X254031D02*X255031D01*
X254031D02*X253531Y352594D01*
X254031Y356094D02*X253531Y355594D01*
X254031Y356094D02*X255031D01*
X255531Y355594D02*X255031Y356094D01*
X254031Y353894D02*X255031D01*
X253531Y353394D02*Y352594D01*
Y355594D02*Y354394D01*
X254031Y353894D01*
X253531Y353394D02*X254031Y353894D01*
M02*
