G04 start of page 6 for group -4063 idx -4063 *
G04 Title: (unknown), componentmask *
G04 Creator: pcb 1.99z *
G04 CreationDate: Tue 15 Oct 2013 04:12:06 PM GMT UTC *
G04 For: commonadmin *
G04 Format: Gerber/RS-274X *
G04 PCB-Dimensions: 600000 500000 *
G04 PCB-Coordinate-Origin: lower left *
%MOIN*%
%FSLAX25Y25*%
%LNTOPMASK*%
%ADD90R,0.0300X0.0300*%
%ADD89R,0.0400X0.0400*%
%ADD88R,0.0550X0.0550*%
%ADD87R,0.0355X0.0355*%
%ADD86R,0.1290X0.1290*%
%ADD85R,0.0257X0.0257*%
%ADD84R,0.1510X0.1510*%
%ADD83R,0.0220X0.0220*%
%ADD82C,0.0220*%
%ADD81R,0.0187X0.0187*%
%ADD80R,0.0572X0.0572*%
%ADD79C,0.0860*%
%ADD78C,0.0610*%
%ADD77C,0.1740*%
%ADD76C,0.0680*%
%ADD75C,0.1060*%
%ADD74C,0.0660*%
%ADD73C,0.0560*%
%ADD72C,0.0001*%
G54D72*G36*
X235023Y296646D02*Y291046D01*
X240623D01*
Y296646D01*
X235023D01*
G37*
G54D73*X197823Y293846D03*
G54D72*G36*
X242523Y261646D02*Y255046D01*
X249123D01*
Y261646D01*
X242523D01*
G37*
G54D74*X245823Y268346D03*
G54D75*X265823Y278346D03*
Y238346D03*
G54D72*G36*
X270523Y321146D02*Y315546D01*
X276123D01*
Y321146D01*
X270523D01*
G37*
G54D73*X233323Y318346D03*
G54D72*G36*
X137273Y216796D02*Y210696D01*
X143373D01*
Y216796D01*
X137273D01*
G37*
G54D76*X54023Y274146D03*
Y283946D03*
X61823D03*
Y274146D03*
G54D77*X43323Y255346D03*
Y302746D03*
G54D78*X120323Y213746D03*
G54D72*G36*
X66023Y238046D02*Y231446D01*
X72623D01*
Y238046D01*
X66023D01*
G37*
G54D74*X69323Y224746D03*
X59323D03*
X49323D03*
X59323Y234746D03*
X49323D03*
G54D79*X49737Y408602D03*
Y358402D03*
G54D72*G36*
X40637Y449402D02*Y442802D01*
X47237D01*
Y449402D01*
X40637D01*
G37*
G54D74*X33937Y446102D03*
Y436102D03*
X43937D03*
G54D72*G36*
X218137Y404402D02*Y397802D01*
X224737D01*
Y404402D01*
X218137D01*
G37*
G54D74*X231437Y401102D03*
X273937D03*
X263937D03*
X221437Y391102D03*
X231437D03*
G54D72*G36*
X270637Y394402D02*Y387802D01*
X277237D01*
Y394402D01*
X270637D01*
G37*
G54D74*X263937Y391102D03*
G54D72*G36*
X150637Y366902D02*Y360302D01*
X157237D01*
Y366902D01*
X150637D01*
G37*
G54D74*X153937Y373602D03*
X123937D03*
Y363602D03*
X153937Y423602D03*
Y433602D03*
X123937D03*
Y423602D03*
G54D80*X101328Y225153D02*Y222791D01*
X113138Y225153D02*Y222791D01*
X125930Y198746D02*X126716D01*
X125930Y205832D02*X126716D01*
X126323Y223927D02*Y221565D01*
G54D81*X114260Y236022D02*Y231596D01*
X117409Y236022D02*Y231596D01*
X120559Y236022D02*Y231596D01*
X123708Y236022D02*Y231596D01*
X126858Y236022D02*Y231596D01*
X130008Y236022D02*Y231596D01*
G54D80*X158323Y215927D02*Y213565D01*
X170133Y215927D02*Y213565D01*
X134930Y198746D02*X135716D01*
X134930Y205832D02*X135716D01*
X138133Y223927D02*Y221565D01*
G54D81*X133157Y236022D02*Y231596D01*
X136307Y236022D02*Y231596D01*
X139456Y236022D02*Y231596D01*
X142606Y236022D02*Y231596D01*
X145756Y236022D02*Y231596D01*
G54D80*X171323Y227027D02*Y224665D01*
X183133Y227027D02*Y224665D01*
G54D82*X137323Y320346D02*Y318146D01*
G54D83*X139923Y320346D02*Y318146D01*
X142423Y320346D02*Y318146D01*
X145023Y320346D02*Y318146D01*
G54D80*X142642Y299036D02*X145004D01*
X142642Y310846D02*X145004D01*
G54D83*X147623Y320346D02*Y318146D01*
X150123Y320346D02*Y318146D01*
X152723Y320346D02*Y318146D01*
X155223Y320346D02*Y318146D01*
G54D80*X152642Y299036D02*X155004D01*
X152642Y310846D02*X155004D01*
X154642Y292346D02*X157004D01*
G54D81*X145756Y285392D02*Y280966D01*
X142607Y285392D02*Y280966D01*
X139457Y285392D02*Y280966D01*
G54D83*X155323Y341546D02*Y339346D01*
X152723Y341546D02*Y339346D01*
X150223Y341546D02*Y339346D01*
X147623Y341546D02*Y339346D01*
X145023Y341546D02*Y339346D01*
X142523Y341546D02*Y339346D01*
X139923Y341546D02*Y339346D01*
X137423Y341546D02*Y339346D01*
G54D80*X170142Y332657D02*X172504D01*
X166437Y424783D02*Y422421D01*
X178247Y424783D02*Y422421D01*
G54D84*X197337Y403102D02*Y399102D01*
X175537Y403102D02*Y399102D01*
G54D80*X170142Y320847D02*X172504D01*
X178823Y349527D02*Y347165D01*
X167013Y349527D02*Y347165D01*
G54D85*X126323Y291239D02*Y290453D01*
X129471Y291239D02*Y290453D01*
G54D80*X132642Y299036D02*X135004D01*
X132642Y310846D02*X135004D01*
G54D81*X136308Y285392D02*Y280966D01*
X133158Y285392D02*Y280966D01*
X130008Y285392D02*Y280966D01*
X126859Y285392D02*Y280966D01*
X123709Y285392D02*Y280966D01*
X120560Y285392D02*Y280966D01*
X117410Y285392D02*Y280966D01*
G54D80*X158247Y482283D02*Y479921D01*
X146437Y482283D02*Y479921D01*
X158247Y469783D02*Y467421D01*
X146437Y469783D02*Y467421D01*
X181437Y469783D02*Y467421D01*
G54D86*X223937Y476702D02*Y465502D01*
X200937Y476702D02*Y465502D01*
G54D84*X249637Y470602D02*Y466602D01*
X271437Y470602D02*Y466602D01*
G54D80*X181437Y482283D02*Y479921D01*
X169627Y469783D02*Y467421D01*
Y482283D02*Y479921D01*
X158247Y457186D02*Y456400D01*
X151161Y457186D02*Y456400D01*
X175333Y457186D02*Y456400D01*
X168247Y457186D02*Y456400D01*
G54D86*X223937Y441702D02*Y430502D01*
X200937Y441702D02*Y430502D01*
G54D84*X249637Y440602D02*Y436602D01*
X271437Y440602D02*Y436602D01*
G54D87*X63323Y309238D02*Y308254D01*
X58205Y309238D02*Y308254D01*
Y317238D02*Y316254D01*
X63323Y317238D02*Y316254D01*
G54D80*X79323Y236227D02*Y233865D01*
X91133Y236227D02*Y233865D01*
X79323Y227227D02*Y224865D01*
X91133Y227227D02*Y224865D01*
X84142Y268557D02*X86504D01*
X84142Y256747D02*X86504D01*
X71323Y276139D02*Y275353D01*
X78409Y276139D02*Y275353D01*
X71323Y284139D02*Y283353D01*
X78409Y284139D02*Y283353D01*
G54D81*X103110Y271093D02*X107536D01*
X103110Y267943D02*X107536D01*
X103110Y264794D02*X107536D01*
X103110Y261644D02*X107536D01*
X103110Y258494D02*X107536D01*
X103110Y255345D02*X107536D01*
X103110Y252195D02*X107536D01*
X103110Y249046D02*X107536D01*
X103110Y245896D02*X107536D01*
X103110Y242746D02*X107536D01*
G54D80*X7323Y250927D02*Y248565D01*
X19133Y250927D02*Y248565D01*
X113430Y295846D02*X114216D01*
X113430Y302932D02*X114216D01*
X102642Y299036D02*X105004D01*
X102642Y310846D02*X105004D01*
X102642Y281536D02*X105004D01*
G54D81*X103110Y274242D02*X107536D01*
G54D80*X102642Y293346D02*X105004D01*
G54D81*X114260Y285392D02*Y280966D01*
G54D88*X56887Y368502D02*X61187D01*
X56887Y373502D02*X61187D01*
X56887Y378502D02*X61187D01*
X56887Y383502D02*X61187D01*
X56887Y388502D02*X61187D01*
G54D80*X95256Y388602D02*X97618D01*
X107756D02*X110118D01*
G54D88*X56887Y393502D02*X61187D01*
X56887Y398502D02*X61187D01*
G54D80*X96437Y367974D02*Y365612D01*
X108247Y367974D02*Y365612D01*
X95256Y376792D02*X97618D01*
X107756D02*X110118D01*
X95057Y452283D02*Y449921D01*
X83247Y452283D02*Y449921D01*
Y439783D02*Y437421D01*
X95057Y439783D02*Y437421D01*
X68247Y452283D02*Y449921D01*
X56437Y452283D02*Y449921D01*
Y439783D02*Y437421D01*
X68247Y439783D02*Y437421D01*
G54D84*X88037Y473102D02*Y469102D01*
X109837Y473102D02*Y469102D01*
X40537Y473102D02*Y469102D01*
X62337Y473102D02*Y469102D01*
G54D81*X152480Y242746D02*X156906D01*
X152480Y245895D02*X156906D01*
X152480Y249045D02*X156906D01*
X152480Y264793D02*X156906D01*
X152480Y267942D02*X156906D01*
X152480Y271092D02*X156906D01*
X152480Y274242D02*X156906D01*
G54D80*X154642Y280536D02*X157004D01*
G54D81*X152480Y252194D02*X156906D01*
X152480Y255344D02*X156906D01*
X152480Y258494D02*X156906D01*
X152480Y261643D02*X156906D01*
G54D80*X199308Y258901D02*Y256539D01*
X187498Y258901D02*Y256539D01*
X195626Y237721D02*X197988D01*
X195626Y249531D02*X197988D01*
X186642Y249657D02*X189004D01*
X186642Y237847D02*X189004D01*
X195642Y268347D02*X198004D01*
X185430Y268070D02*X186216D01*
X185430Y275156D02*X186216D01*
G54D89*X170523Y246146D02*X171123D01*
X170523Y238346D02*X171123D01*
X178723Y242246D02*X179323D01*
G54D80*X195642Y280157D02*X198004D01*
X185430Y282157D02*X186216D01*
X185430Y289243D02*X186216D01*
G54D90*X204573Y283346D02*X211073D01*
X204573Y278346D02*X211073D01*
G54D80*X209823Y307027D02*Y304665D01*
X198013Y307027D02*Y304665D01*
G54D90*X204573Y273346D02*X211073D01*
X225073D02*X231573D01*
X225073Y278346D02*X231573D01*
X225073Y283346D02*X231573D01*
G54D80*X228323Y304527D02*Y302165D01*
X240133Y304527D02*Y302165D01*
X247512Y304527D02*Y302165D01*
X259322Y304527D02*Y302165D01*
X266237Y303739D02*Y302953D01*
X273323Y303739D02*Y302953D01*
X221823Y262027D02*Y259665D01*
G54D90*X205073Y253346D02*X211573D01*
G54D80*X233633Y262027D02*Y259665D01*
G54D90*X204573Y268346D02*X211073D01*
X225073D02*X231573D01*
X205073Y248346D02*X211573D01*
X205073Y243346D02*X211573D01*
X205073Y238346D02*X211573D01*
X225573D02*X232073D01*
X225573Y243346D02*X232073D01*
X225573Y248346D02*X232073D01*
X225573Y253346D02*X232073D01*
M02*
