M48
INCH
T71C0.118
T70C0.059
T69C0.038
T68C0.090
T67C0.028
T66C0.030
T65C0.081
T64C0.035
T63C0.020
%
T63
X0007730Y0025270
X0008080Y0024970
X0008480Y0024680
X0009810Y0024900
X0011740Y0022820
X0013380Y0030730
X0013630Y0027580
X0014230Y0032480
X0014330Y0034620
X0014380Y0030730
X0014760Y0034820
X0014830Y0033580
X0014880Y0027580
X0015880Y0026470
X0016030Y0034370
X0017130Y0028580
X0017880Y0029830
X0019430Y0030580
X0019780Y0029380
X0023330Y0031830
X0023780Y0029380
X0027330Y0031830
T67
X0005400Y0028390
X0005400Y0027410
X0006180Y0028390
X0006180Y0027410
X0012390Y0043360
X0012390Y0042360
X0012390Y0037360
X0012390Y0036360
X0015390Y0043360
X0015390Y0042360
X0015390Y0037360
X0015390Y0036360
T66
X0012030Y0021370
X0014030Y0021370
T64
X0005570Y0042610
X0007640Y0038360
X0007890Y0036610
X0007930Y0026860
X0007930Y0022070
X0009570Y0042610
X0010930Y0027930
X0013000Y0025850
X0013080Y0019520
X0013830Y0026570
X0013880Y0029880
X0014030Y0024870
X0014640Y0032950
X0014880Y0029880
X0015430Y0021470
X0016530Y0032080
X0017080Y0023430
X0017130Y0033680
X0017570Y0044680
X0019080Y0026820
X0019330Y0022580
X0019680Y0023330
X0022630Y0028580
X0022830Y0029830
X0024580Y0026830
X0024580Y0025830
T69
X0003390Y0044610
X0003390Y0043610
X0004390Y0044610
X0004390Y0043610
X0004930Y0023470
X0004930Y0022470
X0005930Y0023470
X0005930Y0022470
X0006930Y0023470
X0006930Y0022470
X0022140Y0040110
X0022140Y0039110
X0023140Y0040110
X0023140Y0039110
X0026390Y0040110
X0026390Y0039110
X0027390Y0040110
X0027390Y0039110
T70
X0004970Y0040860
X0004970Y0035840
T65
X0026580Y0027830
X0026580Y0023830
T68
X0004330Y0030270
X0004330Y0025530
T71
X0001970Y0032280
X0001970Y0019690
X0013390Y0048030
X0027560Y0036610
X0028350Y0019690
M30
